G04 #@! TF.GenerationSoftware,KiCad,Pcbnew,7.0.3*
G04 #@! TF.CreationDate,2023-06-15T19:20:55+02:00*
G04 #@! TF.ProjectId,osc_v2,6f73635f-7632-42e6-9b69-6361645f7063,rev?*
G04 #@! TF.SameCoordinates,Original*
G04 #@! TF.FileFunction,Legend,Top*
G04 #@! TF.FilePolarity,Positive*
%FSLAX46Y46*%
G04 Gerber Fmt 4.6, Leading zero omitted, Abs format (unit mm)*
G04 Created by KiCad (PCBNEW 7.0.3) date 2023-06-15 19:20:55*
%MOMM*%
%LPD*%
G01*
G04 APERTURE LIST*
G04 Aperture macros list*
%AMRoundRect*
0 Rectangle with rounded corners*
0 $1 Rounding radius*
0 $2 $3 $4 $5 $6 $7 $8 $9 X,Y pos of 4 corners*
0 Add a 4 corners polygon primitive as box body*
4,1,4,$2,$3,$4,$5,$6,$7,$8,$9,$2,$3,0*
0 Add four circle primitives for the rounded corners*
1,1,$1+$1,$2,$3*
1,1,$1+$1,$4,$5*
1,1,$1+$1,$6,$7*
1,1,$1+$1,$8,$9*
0 Add four rect primitives between the rounded corners*
20,1,$1+$1,$2,$3,$4,$5,0*
20,1,$1+$1,$4,$5,$6,$7,0*
20,1,$1+$1,$6,$7,$8,$9,0*
20,1,$1+$1,$8,$9,$2,$3,0*%
G04 Aperture macros list end*
%ADD10C,0.150000*%
%ADD11C,0.120000*%
%ADD12C,0.127000*%
%ADD13C,0.203200*%
%ADD14C,0.304800*%
%ADD15C,0.152400*%
%ADD16C,0.300000*%
%ADD17R,1.350000X1.350000*%
%ADD18O,1.350000X1.350000*%
%ADD19RoundRect,0.250000X0.350000X0.450000X-0.350000X0.450000X-0.350000X-0.450000X0.350000X-0.450000X0*%
%ADD20RoundRect,0.250000X0.475000X-0.337500X0.475000X0.337500X-0.475000X0.337500X-0.475000X-0.337500X0*%
%ADD21RoundRect,0.250000X0.450000X-0.350000X0.450000X0.350000X-0.450000X0.350000X-0.450000X-0.350000X0*%
%ADD22RoundRect,0.150000X0.825000X0.150000X-0.825000X0.150000X-0.825000X-0.150000X0.825000X-0.150000X0*%
%ADD23RoundRect,0.250000X-0.350000X-0.450000X0.350000X-0.450000X0.350000X0.450000X-0.350000X0.450000X0*%
%ADD24RoundRect,0.150000X-0.587500X-0.150000X0.587500X-0.150000X0.587500X0.150000X-0.587500X0.150000X0*%
%ADD25RoundRect,0.250000X0.400000X0.600000X-0.400000X0.600000X-0.400000X-0.600000X0.400000X-0.600000X0*%
%ADD26RoundRect,0.050800X0.300000X-0.200000X0.300000X0.200000X-0.300000X0.200000X-0.300000X-0.200000X0*%
%ADD27RoundRect,0.050800X-1.000000X-1.500000X1.000000X-1.500000X1.000000X1.500000X-1.000000X1.500000X0*%
%ADD28RoundRect,0.050800X0.450000X0.400000X-0.450000X0.400000X-0.450000X-0.400000X0.450000X-0.400000X0*%
%ADD29RoundRect,0.050800X0.300000X0.300000X-0.300000X0.300000X-0.300000X-0.300000X0.300000X-0.300000X0*%
%ADD30R,2.000000X2.000000*%
%ADD31RoundRect,0.075000X-0.650000X-0.075000X0.650000X-0.075000X0.650000X0.075000X-0.650000X0.075000X0*%
%ADD32RoundRect,0.250000X-0.450000X0.350000X-0.450000X-0.350000X0.450000X-0.350000X0.450000X0.350000X0*%
%ADD33R,1.100000X0.300000*%
%ADD34R,3.100000X2.300000*%
%ADD35RoundRect,0.050800X0.300000X-0.300000X0.300000X0.300000X-0.300000X0.300000X-0.300000X-0.300000X0*%
%ADD36RoundRect,0.250000X-0.337500X-0.475000X0.337500X-0.475000X0.337500X0.475000X-0.337500X0.475000X0*%
%ADD37RoundRect,0.050800X0.450000X0.375000X-0.450000X0.375000X-0.450000X-0.375000X0.450000X-0.375000X0*%
%ADD38RoundRect,0.050800X-0.275000X-0.600000X0.275000X-0.600000X0.275000X0.600000X-0.275000X0.600000X0*%
%ADD39RoundRect,0.050800X-0.620000X-0.750000X0.620000X-0.750000X0.620000X0.750000X-0.620000X0.750000X0*%
%ADD40RoundRect,0.050800X0.437500X0.100000X-0.437500X0.100000X-0.437500X-0.100000X0.437500X-0.100000X0*%
%ADD41RoundRect,0.050800X-0.100000X0.437500X-0.100000X-0.437500X0.100000X-0.437500X0.100000X0.437500X0*%
%ADD42RoundRect,0.050800X-0.437500X-0.100000X0.437500X-0.100000X0.437500X0.100000X-0.437500X0.100000X0*%
%ADD43RoundRect,0.050800X0.100000X-0.437500X0.100000X0.437500X-0.100000X0.437500X-0.100000X-0.437500X0*%
%ADD44RoundRect,0.210800X-1.440000X-1.440000X1.440000X-1.440000X1.440000X1.440000X-1.440000X1.440000X0*%
%ADD45RoundRect,0.250000X0.600000X-0.400000X0.600000X0.400000X-0.600000X0.400000X-0.600000X-0.400000X0*%
%ADD46O,2.016000X1.008000*%
%ADD47R,1.800000X1.350000*%
%ADD48RoundRect,0.050800X-0.300000X-0.300000X0.300000X-0.300000X0.300000X0.300000X-0.300000X0.300000X0*%
%ADD49RoundRect,0.050800X-0.750000X0.620000X-0.750000X-0.620000X0.750000X-0.620000X0.750000X0.620000X0*%
%ADD50RoundRect,0.050800X-0.450000X0.450000X-0.450000X-0.450000X0.450000X-0.450000X0.450000X0.450000X0*%
%ADD51RoundRect,0.250000X-0.600000X0.400000X-0.600000X-0.400000X0.600000X-0.400000X0.600000X0.400000X0*%
%ADD52RoundRect,0.050800X0.500000X-0.537500X0.500000X0.537500X-0.500000X0.537500X-0.500000X-0.537500X0*%
G04 APERTURE END LIST*
D10*
X140420350Y-156254819D02*
X140420350Y-156969104D01*
X140420350Y-156969104D02*
X140372731Y-157111961D01*
X140372731Y-157111961D02*
X140277493Y-157207200D01*
X140277493Y-157207200D02*
X140134636Y-157254819D01*
X140134636Y-157254819D02*
X140039398Y-157254819D01*
X140848922Y-156350057D02*
X140896541Y-156302438D01*
X140896541Y-156302438D02*
X140991779Y-156254819D01*
X140991779Y-156254819D02*
X141229874Y-156254819D01*
X141229874Y-156254819D02*
X141325112Y-156302438D01*
X141325112Y-156302438D02*
X141372731Y-156350057D01*
X141372731Y-156350057D02*
X141420350Y-156445295D01*
X141420350Y-156445295D02*
X141420350Y-156540533D01*
X141420350Y-156540533D02*
X141372731Y-156683390D01*
X141372731Y-156683390D02*
X140801303Y-157254819D01*
X140801303Y-157254819D02*
X141420350Y-157254819D01*
X97710826Y-154354819D02*
X97377493Y-153878628D01*
X97139398Y-154354819D02*
X97139398Y-153354819D01*
X97139398Y-153354819D02*
X97520350Y-153354819D01*
X97520350Y-153354819D02*
X97615588Y-153402438D01*
X97615588Y-153402438D02*
X97663207Y-153450057D01*
X97663207Y-153450057D02*
X97710826Y-153545295D01*
X97710826Y-153545295D02*
X97710826Y-153688152D01*
X97710826Y-153688152D02*
X97663207Y-153783390D01*
X97663207Y-153783390D02*
X97615588Y-153831009D01*
X97615588Y-153831009D02*
X97520350Y-153878628D01*
X97520350Y-153878628D02*
X97139398Y-153878628D01*
X98663207Y-154354819D02*
X98091779Y-154354819D01*
X98377493Y-154354819D02*
X98377493Y-153354819D01*
X98377493Y-153354819D02*
X98282255Y-153497676D01*
X98282255Y-153497676D02*
X98187017Y-153592914D01*
X98187017Y-153592914D02*
X98091779Y-153640533D01*
X99615588Y-154354819D02*
X99044160Y-154354819D01*
X99329874Y-154354819D02*
X99329874Y-153354819D01*
X99329874Y-153354819D02*
X99234636Y-153497676D01*
X99234636Y-153497676D02*
X99139398Y-153592914D01*
X99139398Y-153592914D02*
X99044160Y-153640533D01*
X110814580Y-115944173D02*
X110862200Y-115991792D01*
X110862200Y-115991792D02*
X110909819Y-116134649D01*
X110909819Y-116134649D02*
X110909819Y-116229887D01*
X110909819Y-116229887D02*
X110862200Y-116372744D01*
X110862200Y-116372744D02*
X110766961Y-116467982D01*
X110766961Y-116467982D02*
X110671723Y-116515601D01*
X110671723Y-116515601D02*
X110481247Y-116563220D01*
X110481247Y-116563220D02*
X110338390Y-116563220D01*
X110338390Y-116563220D02*
X110147914Y-116515601D01*
X110147914Y-116515601D02*
X110052676Y-116467982D01*
X110052676Y-116467982D02*
X109957438Y-116372744D01*
X109957438Y-116372744D02*
X109909819Y-116229887D01*
X109909819Y-116229887D02*
X109909819Y-116134649D01*
X109909819Y-116134649D02*
X109957438Y-115991792D01*
X109957438Y-115991792D02*
X110005057Y-115944173D01*
X110005057Y-115563220D02*
X109957438Y-115515601D01*
X109957438Y-115515601D02*
X109909819Y-115420363D01*
X109909819Y-115420363D02*
X109909819Y-115182268D01*
X109909819Y-115182268D02*
X109957438Y-115087030D01*
X109957438Y-115087030D02*
X110005057Y-115039411D01*
X110005057Y-115039411D02*
X110100295Y-114991792D01*
X110100295Y-114991792D02*
X110195533Y-114991792D01*
X110195533Y-114991792D02*
X110338390Y-115039411D01*
X110338390Y-115039411D02*
X110909819Y-115610839D01*
X110909819Y-115610839D02*
X110909819Y-114991792D01*
X110338390Y-114420363D02*
X110290771Y-114515601D01*
X110290771Y-114515601D02*
X110243152Y-114563220D01*
X110243152Y-114563220D02*
X110147914Y-114610839D01*
X110147914Y-114610839D02*
X110100295Y-114610839D01*
X110100295Y-114610839D02*
X110005057Y-114563220D01*
X110005057Y-114563220D02*
X109957438Y-114515601D01*
X109957438Y-114515601D02*
X109909819Y-114420363D01*
X109909819Y-114420363D02*
X109909819Y-114229887D01*
X109909819Y-114229887D02*
X109957438Y-114134649D01*
X109957438Y-114134649D02*
X110005057Y-114087030D01*
X110005057Y-114087030D02*
X110100295Y-114039411D01*
X110100295Y-114039411D02*
X110147914Y-114039411D01*
X110147914Y-114039411D02*
X110243152Y-114087030D01*
X110243152Y-114087030D02*
X110290771Y-114134649D01*
X110290771Y-114134649D02*
X110338390Y-114229887D01*
X110338390Y-114229887D02*
X110338390Y-114420363D01*
X110338390Y-114420363D02*
X110386009Y-114515601D01*
X110386009Y-114515601D02*
X110433628Y-114563220D01*
X110433628Y-114563220D02*
X110528866Y-114610839D01*
X110528866Y-114610839D02*
X110719342Y-114610839D01*
X110719342Y-114610839D02*
X110814580Y-114563220D01*
X110814580Y-114563220D02*
X110862200Y-114515601D01*
X110862200Y-114515601D02*
X110909819Y-114420363D01*
X110909819Y-114420363D02*
X110909819Y-114229887D01*
X110909819Y-114229887D02*
X110862200Y-114134649D01*
X110862200Y-114134649D02*
X110814580Y-114087030D01*
X110814580Y-114087030D02*
X110719342Y-114039411D01*
X110719342Y-114039411D02*
X110528866Y-114039411D01*
X110528866Y-114039411D02*
X110433628Y-114087030D01*
X110433628Y-114087030D02*
X110386009Y-114134649D01*
X110386009Y-114134649D02*
X110338390Y-114229887D01*
X134409819Y-132544173D02*
X133933628Y-132877506D01*
X134409819Y-133115601D02*
X133409819Y-133115601D01*
X133409819Y-133115601D02*
X133409819Y-132734649D01*
X133409819Y-132734649D02*
X133457438Y-132639411D01*
X133457438Y-132639411D02*
X133505057Y-132591792D01*
X133505057Y-132591792D02*
X133600295Y-132544173D01*
X133600295Y-132544173D02*
X133743152Y-132544173D01*
X133743152Y-132544173D02*
X133838390Y-132591792D01*
X133838390Y-132591792D02*
X133886009Y-132639411D01*
X133886009Y-132639411D02*
X133933628Y-132734649D01*
X133933628Y-132734649D02*
X133933628Y-133115601D01*
X133743152Y-131687030D02*
X134409819Y-131687030D01*
X133362200Y-131925125D02*
X134076485Y-132163220D01*
X134076485Y-132163220D02*
X134076485Y-131544173D01*
X133409819Y-131258458D02*
X133409819Y-130639411D01*
X133409819Y-130639411D02*
X133790771Y-130972744D01*
X133790771Y-130972744D02*
X133790771Y-130829887D01*
X133790771Y-130829887D02*
X133838390Y-130734649D01*
X133838390Y-130734649D02*
X133886009Y-130687030D01*
X133886009Y-130687030D02*
X133981247Y-130639411D01*
X133981247Y-130639411D02*
X134219342Y-130639411D01*
X134219342Y-130639411D02*
X134314580Y-130687030D01*
X134314580Y-130687030D02*
X134362200Y-130734649D01*
X134362200Y-130734649D02*
X134409819Y-130829887D01*
X134409819Y-130829887D02*
X134409819Y-131115601D01*
X134409819Y-131115601D02*
X134362200Y-131210839D01*
X134362200Y-131210839D02*
X134314580Y-131258458D01*
X85509819Y-132944173D02*
X85033628Y-133277506D01*
X85509819Y-133515601D02*
X84509819Y-133515601D01*
X84509819Y-133515601D02*
X84509819Y-133134649D01*
X84509819Y-133134649D02*
X84557438Y-133039411D01*
X84557438Y-133039411D02*
X84605057Y-132991792D01*
X84605057Y-132991792D02*
X84700295Y-132944173D01*
X84700295Y-132944173D02*
X84843152Y-132944173D01*
X84843152Y-132944173D02*
X84938390Y-132991792D01*
X84938390Y-132991792D02*
X84986009Y-133039411D01*
X84986009Y-133039411D02*
X85033628Y-133134649D01*
X85033628Y-133134649D02*
X85033628Y-133515601D01*
X85509819Y-131991792D02*
X85509819Y-132563220D01*
X85509819Y-132277506D02*
X84509819Y-132277506D01*
X84509819Y-132277506D02*
X84652676Y-132372744D01*
X84652676Y-132372744D02*
X84747914Y-132467982D01*
X84747914Y-132467982D02*
X84795533Y-132563220D01*
X84509819Y-131658458D02*
X84509819Y-131039411D01*
X84509819Y-131039411D02*
X84890771Y-131372744D01*
X84890771Y-131372744D02*
X84890771Y-131229887D01*
X84890771Y-131229887D02*
X84938390Y-131134649D01*
X84938390Y-131134649D02*
X84986009Y-131087030D01*
X84986009Y-131087030D02*
X85081247Y-131039411D01*
X85081247Y-131039411D02*
X85319342Y-131039411D01*
X85319342Y-131039411D02*
X85414580Y-131087030D01*
X85414580Y-131087030D02*
X85462200Y-131134649D01*
X85462200Y-131134649D02*
X85509819Y-131229887D01*
X85509819Y-131229887D02*
X85509819Y-131515601D01*
X85509819Y-131515601D02*
X85462200Y-131610839D01*
X85462200Y-131610839D02*
X85414580Y-131658458D01*
X130221779Y-116824819D02*
X130221779Y-117634342D01*
X130221779Y-117634342D02*
X130269398Y-117729580D01*
X130269398Y-117729580D02*
X130317017Y-117777200D01*
X130317017Y-117777200D02*
X130412255Y-117824819D01*
X130412255Y-117824819D02*
X130602731Y-117824819D01*
X130602731Y-117824819D02*
X130697969Y-117777200D01*
X130697969Y-117777200D02*
X130745588Y-117729580D01*
X130745588Y-117729580D02*
X130793207Y-117634342D01*
X130793207Y-117634342D02*
X130793207Y-116824819D01*
X131221779Y-116920057D02*
X131269398Y-116872438D01*
X131269398Y-116872438D02*
X131364636Y-116824819D01*
X131364636Y-116824819D02*
X131602731Y-116824819D01*
X131602731Y-116824819D02*
X131697969Y-116872438D01*
X131697969Y-116872438D02*
X131745588Y-116920057D01*
X131745588Y-116920057D02*
X131793207Y-117015295D01*
X131793207Y-117015295D02*
X131793207Y-117110533D01*
X131793207Y-117110533D02*
X131745588Y-117253390D01*
X131745588Y-117253390D02*
X131174160Y-117824819D01*
X131174160Y-117824819D02*
X131793207Y-117824819D01*
X135590826Y-108584819D02*
X135257493Y-108108628D01*
X135019398Y-108584819D02*
X135019398Y-107584819D01*
X135019398Y-107584819D02*
X135400350Y-107584819D01*
X135400350Y-107584819D02*
X135495588Y-107632438D01*
X135495588Y-107632438D02*
X135543207Y-107680057D01*
X135543207Y-107680057D02*
X135590826Y-107775295D01*
X135590826Y-107775295D02*
X135590826Y-107918152D01*
X135590826Y-107918152D02*
X135543207Y-108013390D01*
X135543207Y-108013390D02*
X135495588Y-108061009D01*
X135495588Y-108061009D02*
X135400350Y-108108628D01*
X135400350Y-108108628D02*
X135019398Y-108108628D01*
X136447969Y-107918152D02*
X136447969Y-108584819D01*
X136209874Y-107537200D02*
X135971779Y-108251485D01*
X135971779Y-108251485D02*
X136590826Y-108251485D01*
X137495588Y-108584819D02*
X136924160Y-108584819D01*
X137209874Y-108584819D02*
X137209874Y-107584819D01*
X137209874Y-107584819D02*
X137114636Y-107727676D01*
X137114636Y-107727676D02*
X137019398Y-107822914D01*
X137019398Y-107822914D02*
X136924160Y-107870533D01*
X136210945Y-115510057D02*
X136115707Y-115462438D01*
X136115707Y-115462438D02*
X136020469Y-115367200D01*
X136020469Y-115367200D02*
X135877612Y-115224342D01*
X135877612Y-115224342D02*
X135782374Y-115176723D01*
X135782374Y-115176723D02*
X135687136Y-115176723D01*
X135734755Y-115414819D02*
X135639517Y-115367200D01*
X135639517Y-115367200D02*
X135544279Y-115271961D01*
X135544279Y-115271961D02*
X135496660Y-115081485D01*
X135496660Y-115081485D02*
X135496660Y-114748152D01*
X135496660Y-114748152D02*
X135544279Y-114557676D01*
X135544279Y-114557676D02*
X135639517Y-114462438D01*
X135639517Y-114462438D02*
X135734755Y-114414819D01*
X135734755Y-114414819D02*
X135925231Y-114414819D01*
X135925231Y-114414819D02*
X136020469Y-114462438D01*
X136020469Y-114462438D02*
X136115707Y-114557676D01*
X136115707Y-114557676D02*
X136163326Y-114748152D01*
X136163326Y-114748152D02*
X136163326Y-115081485D01*
X136163326Y-115081485D02*
X136115707Y-115271961D01*
X136115707Y-115271961D02*
X136020469Y-115367200D01*
X136020469Y-115367200D02*
X135925231Y-115414819D01*
X135925231Y-115414819D02*
X135734755Y-115414819D01*
X136544279Y-114510057D02*
X136591898Y-114462438D01*
X136591898Y-114462438D02*
X136687136Y-114414819D01*
X136687136Y-114414819D02*
X136925231Y-114414819D01*
X136925231Y-114414819D02*
X137020469Y-114462438D01*
X137020469Y-114462438D02*
X137068088Y-114510057D01*
X137068088Y-114510057D02*
X137115707Y-114605295D01*
X137115707Y-114605295D02*
X137115707Y-114700533D01*
X137115707Y-114700533D02*
X137068088Y-114843390D01*
X137068088Y-114843390D02*
X136496660Y-115414819D01*
X136496660Y-115414819D02*
X137115707Y-115414819D01*
X127095589Y-151884819D02*
X127095589Y-150884819D01*
X127095589Y-150884819D02*
X127333684Y-150884819D01*
X127333684Y-150884819D02*
X127476541Y-150932438D01*
X127476541Y-150932438D02*
X127571779Y-151027676D01*
X127571779Y-151027676D02*
X127619398Y-151122914D01*
X127619398Y-151122914D02*
X127667017Y-151313390D01*
X127667017Y-151313390D02*
X127667017Y-151456247D01*
X127667017Y-151456247D02*
X127619398Y-151646723D01*
X127619398Y-151646723D02*
X127571779Y-151741961D01*
X127571779Y-151741961D02*
X127476541Y-151837200D01*
X127476541Y-151837200D02*
X127333684Y-151884819D01*
X127333684Y-151884819D02*
X127095589Y-151884819D01*
X128238446Y-151313390D02*
X128143208Y-151265771D01*
X128143208Y-151265771D02*
X128095589Y-151218152D01*
X128095589Y-151218152D02*
X128047970Y-151122914D01*
X128047970Y-151122914D02*
X128047970Y-151075295D01*
X128047970Y-151075295D02*
X128095589Y-150980057D01*
X128095589Y-150980057D02*
X128143208Y-150932438D01*
X128143208Y-150932438D02*
X128238446Y-150884819D01*
X128238446Y-150884819D02*
X128428922Y-150884819D01*
X128428922Y-150884819D02*
X128524160Y-150932438D01*
X128524160Y-150932438D02*
X128571779Y-150980057D01*
X128571779Y-150980057D02*
X128619398Y-151075295D01*
X128619398Y-151075295D02*
X128619398Y-151122914D01*
X128619398Y-151122914D02*
X128571779Y-151218152D01*
X128571779Y-151218152D02*
X128524160Y-151265771D01*
X128524160Y-151265771D02*
X128428922Y-151313390D01*
X128428922Y-151313390D02*
X128238446Y-151313390D01*
X128238446Y-151313390D02*
X128143208Y-151361009D01*
X128143208Y-151361009D02*
X128095589Y-151408628D01*
X128095589Y-151408628D02*
X128047970Y-151503866D01*
X128047970Y-151503866D02*
X128047970Y-151694342D01*
X128047970Y-151694342D02*
X128095589Y-151789580D01*
X128095589Y-151789580D02*
X128143208Y-151837200D01*
X128143208Y-151837200D02*
X128238446Y-151884819D01*
X128238446Y-151884819D02*
X128428922Y-151884819D01*
X128428922Y-151884819D02*
X128524160Y-151837200D01*
X128524160Y-151837200D02*
X128571779Y-151789580D01*
X128571779Y-151789580D02*
X128619398Y-151694342D01*
X128619398Y-151694342D02*
X128619398Y-151503866D01*
X128619398Y-151503866D02*
X128571779Y-151408628D01*
X128571779Y-151408628D02*
X128524160Y-151361009D01*
X128524160Y-151361009D02*
X128428922Y-151313390D01*
X91909819Y-137244173D02*
X91433628Y-137577506D01*
X91909819Y-137815601D02*
X90909819Y-137815601D01*
X90909819Y-137815601D02*
X90909819Y-137434649D01*
X90909819Y-137434649D02*
X90957438Y-137339411D01*
X90957438Y-137339411D02*
X91005057Y-137291792D01*
X91005057Y-137291792D02*
X91100295Y-137244173D01*
X91100295Y-137244173D02*
X91243152Y-137244173D01*
X91243152Y-137244173D02*
X91338390Y-137291792D01*
X91338390Y-137291792D02*
X91386009Y-137339411D01*
X91386009Y-137339411D02*
X91433628Y-137434649D01*
X91433628Y-137434649D02*
X91433628Y-137815601D01*
X91909819Y-136291792D02*
X91909819Y-136863220D01*
X91909819Y-136577506D02*
X90909819Y-136577506D01*
X90909819Y-136577506D02*
X91052676Y-136672744D01*
X91052676Y-136672744D02*
X91147914Y-136767982D01*
X91147914Y-136767982D02*
X91195533Y-136863220D01*
X91338390Y-135720363D02*
X91290771Y-135815601D01*
X91290771Y-135815601D02*
X91243152Y-135863220D01*
X91243152Y-135863220D02*
X91147914Y-135910839D01*
X91147914Y-135910839D02*
X91100295Y-135910839D01*
X91100295Y-135910839D02*
X91005057Y-135863220D01*
X91005057Y-135863220D02*
X90957438Y-135815601D01*
X90957438Y-135815601D02*
X90909819Y-135720363D01*
X90909819Y-135720363D02*
X90909819Y-135529887D01*
X90909819Y-135529887D02*
X90957438Y-135434649D01*
X90957438Y-135434649D02*
X91005057Y-135387030D01*
X91005057Y-135387030D02*
X91100295Y-135339411D01*
X91100295Y-135339411D02*
X91147914Y-135339411D01*
X91147914Y-135339411D02*
X91243152Y-135387030D01*
X91243152Y-135387030D02*
X91290771Y-135434649D01*
X91290771Y-135434649D02*
X91338390Y-135529887D01*
X91338390Y-135529887D02*
X91338390Y-135720363D01*
X91338390Y-135720363D02*
X91386009Y-135815601D01*
X91386009Y-135815601D02*
X91433628Y-135863220D01*
X91433628Y-135863220D02*
X91528866Y-135910839D01*
X91528866Y-135910839D02*
X91719342Y-135910839D01*
X91719342Y-135910839D02*
X91814580Y-135863220D01*
X91814580Y-135863220D02*
X91862200Y-135815601D01*
X91862200Y-135815601D02*
X91909819Y-135720363D01*
X91909819Y-135720363D02*
X91909819Y-135529887D01*
X91909819Y-135529887D02*
X91862200Y-135434649D01*
X91862200Y-135434649D02*
X91814580Y-135387030D01*
X91814580Y-135387030D02*
X91719342Y-135339411D01*
X91719342Y-135339411D02*
X91528866Y-135339411D01*
X91528866Y-135339411D02*
X91433628Y-135387030D01*
X91433628Y-135387030D02*
X91386009Y-135434649D01*
X91386009Y-135434649D02*
X91338390Y-135529887D01*
X90691779Y-138169819D02*
X90691779Y-138979342D01*
X90691779Y-138979342D02*
X90739398Y-139074580D01*
X90739398Y-139074580D02*
X90787017Y-139122200D01*
X90787017Y-139122200D02*
X90882255Y-139169819D01*
X90882255Y-139169819D02*
X91072731Y-139169819D01*
X91072731Y-139169819D02*
X91167969Y-139122200D01*
X91167969Y-139122200D02*
X91215588Y-139074580D01*
X91215588Y-139074580D02*
X91263207Y-138979342D01*
X91263207Y-138979342D02*
X91263207Y-138169819D01*
X91644160Y-138169819D02*
X92310826Y-138169819D01*
X92310826Y-138169819D02*
X91882255Y-139169819D01*
X89839398Y-134769819D02*
X89839398Y-133769819D01*
X89839398Y-133769819D02*
X90077493Y-133769819D01*
X90077493Y-133769819D02*
X90220350Y-133817438D01*
X90220350Y-133817438D02*
X90315588Y-133912676D01*
X90315588Y-133912676D02*
X90363207Y-134007914D01*
X90363207Y-134007914D02*
X90410826Y-134198390D01*
X90410826Y-134198390D02*
X90410826Y-134341247D01*
X90410826Y-134341247D02*
X90363207Y-134531723D01*
X90363207Y-134531723D02*
X90315588Y-134626961D01*
X90315588Y-134626961D02*
X90220350Y-134722200D01*
X90220350Y-134722200D02*
X90077493Y-134769819D01*
X90077493Y-134769819D02*
X89839398Y-134769819D01*
X90791779Y-133865057D02*
X90839398Y-133817438D01*
X90839398Y-133817438D02*
X90934636Y-133769819D01*
X90934636Y-133769819D02*
X91172731Y-133769819D01*
X91172731Y-133769819D02*
X91267969Y-133817438D01*
X91267969Y-133817438D02*
X91315588Y-133865057D01*
X91315588Y-133865057D02*
X91363207Y-133960295D01*
X91363207Y-133960295D02*
X91363207Y-134055533D01*
X91363207Y-134055533D02*
X91315588Y-134198390D01*
X91315588Y-134198390D02*
X90744160Y-134769819D01*
X90744160Y-134769819D02*
X91363207Y-134769819D01*
X139710826Y-115554819D02*
X139377493Y-115078628D01*
X139139398Y-115554819D02*
X139139398Y-114554819D01*
X139139398Y-114554819D02*
X139520350Y-114554819D01*
X139520350Y-114554819D02*
X139615588Y-114602438D01*
X139615588Y-114602438D02*
X139663207Y-114650057D01*
X139663207Y-114650057D02*
X139710826Y-114745295D01*
X139710826Y-114745295D02*
X139710826Y-114888152D01*
X139710826Y-114888152D02*
X139663207Y-114983390D01*
X139663207Y-114983390D02*
X139615588Y-115031009D01*
X139615588Y-115031009D02*
X139520350Y-115078628D01*
X139520350Y-115078628D02*
X139139398Y-115078628D01*
X140567969Y-114888152D02*
X140567969Y-115554819D01*
X140329874Y-114507200D02*
X140091779Y-115221485D01*
X140091779Y-115221485D02*
X140710826Y-115221485D01*
X141282255Y-114554819D02*
X141377493Y-114554819D01*
X141377493Y-114554819D02*
X141472731Y-114602438D01*
X141472731Y-114602438D02*
X141520350Y-114650057D01*
X141520350Y-114650057D02*
X141567969Y-114745295D01*
X141567969Y-114745295D02*
X141615588Y-114935771D01*
X141615588Y-114935771D02*
X141615588Y-115173866D01*
X141615588Y-115173866D02*
X141567969Y-115364342D01*
X141567969Y-115364342D02*
X141520350Y-115459580D01*
X141520350Y-115459580D02*
X141472731Y-115507200D01*
X141472731Y-115507200D02*
X141377493Y-115554819D01*
X141377493Y-115554819D02*
X141282255Y-115554819D01*
X141282255Y-115554819D02*
X141187017Y-115507200D01*
X141187017Y-115507200D02*
X141139398Y-115459580D01*
X141139398Y-115459580D02*
X141091779Y-115364342D01*
X141091779Y-115364342D02*
X141044160Y-115173866D01*
X141044160Y-115173866D02*
X141044160Y-114935771D01*
X141044160Y-114935771D02*
X141091779Y-114745295D01*
X141091779Y-114745295D02*
X141139398Y-114650057D01*
X141139398Y-114650057D02*
X141187017Y-114602438D01*
X141187017Y-114602438D02*
X141282255Y-114554819D01*
X91610826Y-160174580D02*
X91563207Y-160222200D01*
X91563207Y-160222200D02*
X91420350Y-160269819D01*
X91420350Y-160269819D02*
X91325112Y-160269819D01*
X91325112Y-160269819D02*
X91182255Y-160222200D01*
X91182255Y-160222200D02*
X91087017Y-160126961D01*
X91087017Y-160126961D02*
X91039398Y-160031723D01*
X91039398Y-160031723D02*
X90991779Y-159841247D01*
X90991779Y-159841247D02*
X90991779Y-159698390D01*
X90991779Y-159698390D02*
X91039398Y-159507914D01*
X91039398Y-159507914D02*
X91087017Y-159412676D01*
X91087017Y-159412676D02*
X91182255Y-159317438D01*
X91182255Y-159317438D02*
X91325112Y-159269819D01*
X91325112Y-159269819D02*
X91420350Y-159269819D01*
X91420350Y-159269819D02*
X91563207Y-159317438D01*
X91563207Y-159317438D02*
X91610826Y-159365057D01*
X92087017Y-160269819D02*
X92277493Y-160269819D01*
X92277493Y-160269819D02*
X92372731Y-160222200D01*
X92372731Y-160222200D02*
X92420350Y-160174580D01*
X92420350Y-160174580D02*
X92515588Y-160031723D01*
X92515588Y-160031723D02*
X92563207Y-159841247D01*
X92563207Y-159841247D02*
X92563207Y-159460295D01*
X92563207Y-159460295D02*
X92515588Y-159365057D01*
X92515588Y-159365057D02*
X92467969Y-159317438D01*
X92467969Y-159317438D02*
X92372731Y-159269819D01*
X92372731Y-159269819D02*
X92182255Y-159269819D01*
X92182255Y-159269819D02*
X92087017Y-159317438D01*
X92087017Y-159317438D02*
X92039398Y-159365057D01*
X92039398Y-159365057D02*
X91991779Y-159460295D01*
X91991779Y-159460295D02*
X91991779Y-159698390D01*
X91991779Y-159698390D02*
X92039398Y-159793628D01*
X92039398Y-159793628D02*
X92087017Y-159841247D01*
X92087017Y-159841247D02*
X92182255Y-159888866D01*
X92182255Y-159888866D02*
X92372731Y-159888866D01*
X92372731Y-159888866D02*
X92467969Y-159841247D01*
X92467969Y-159841247D02*
X92515588Y-159793628D01*
X92515588Y-159793628D02*
X92563207Y-159698390D01*
X81609819Y-130663220D02*
X81609819Y-130091792D01*
X82609819Y-130377506D02*
X81609819Y-130377506D01*
X82609819Y-129758458D02*
X81609819Y-129758458D01*
X81609819Y-129758458D02*
X81609819Y-129377506D01*
X81609819Y-129377506D02*
X81657438Y-129282268D01*
X81657438Y-129282268D02*
X81705057Y-129234649D01*
X81705057Y-129234649D02*
X81800295Y-129187030D01*
X81800295Y-129187030D02*
X81943152Y-129187030D01*
X81943152Y-129187030D02*
X82038390Y-129234649D01*
X82038390Y-129234649D02*
X82086009Y-129282268D01*
X82086009Y-129282268D02*
X82133628Y-129377506D01*
X82133628Y-129377506D02*
X82133628Y-129758458D01*
X81609819Y-128853696D02*
X81609819Y-128187030D01*
X81609819Y-128187030D02*
X82609819Y-128615601D01*
X135158445Y-135450057D02*
X135063207Y-135402438D01*
X135063207Y-135402438D02*
X134967969Y-135307200D01*
X134967969Y-135307200D02*
X134825112Y-135164342D01*
X134825112Y-135164342D02*
X134729874Y-135116723D01*
X134729874Y-135116723D02*
X134634636Y-135116723D01*
X134682255Y-135354819D02*
X134587017Y-135307200D01*
X134587017Y-135307200D02*
X134491779Y-135211961D01*
X134491779Y-135211961D02*
X134444160Y-135021485D01*
X134444160Y-135021485D02*
X134444160Y-134688152D01*
X134444160Y-134688152D02*
X134491779Y-134497676D01*
X134491779Y-134497676D02*
X134587017Y-134402438D01*
X134587017Y-134402438D02*
X134682255Y-134354819D01*
X134682255Y-134354819D02*
X134872731Y-134354819D01*
X134872731Y-134354819D02*
X134967969Y-134402438D01*
X134967969Y-134402438D02*
X135063207Y-134497676D01*
X135063207Y-134497676D02*
X135110826Y-134688152D01*
X135110826Y-134688152D02*
X135110826Y-135021485D01*
X135110826Y-135021485D02*
X135063207Y-135211961D01*
X135063207Y-135211961D02*
X134967969Y-135307200D01*
X134967969Y-135307200D02*
X134872731Y-135354819D01*
X134872731Y-135354819D02*
X134682255Y-135354819D01*
X136063207Y-135354819D02*
X135491779Y-135354819D01*
X135777493Y-135354819D02*
X135777493Y-134354819D01*
X135777493Y-134354819D02*
X135682255Y-134497676D01*
X135682255Y-134497676D02*
X135587017Y-134592914D01*
X135587017Y-134592914D02*
X135491779Y-134640533D01*
X125510826Y-108654819D02*
X125177493Y-108178628D01*
X124939398Y-108654819D02*
X124939398Y-107654819D01*
X124939398Y-107654819D02*
X125320350Y-107654819D01*
X125320350Y-107654819D02*
X125415588Y-107702438D01*
X125415588Y-107702438D02*
X125463207Y-107750057D01*
X125463207Y-107750057D02*
X125510826Y-107845295D01*
X125510826Y-107845295D02*
X125510826Y-107988152D01*
X125510826Y-107988152D02*
X125463207Y-108083390D01*
X125463207Y-108083390D02*
X125415588Y-108131009D01*
X125415588Y-108131009D02*
X125320350Y-108178628D01*
X125320350Y-108178628D02*
X124939398Y-108178628D01*
X125891779Y-107750057D02*
X125939398Y-107702438D01*
X125939398Y-107702438D02*
X126034636Y-107654819D01*
X126034636Y-107654819D02*
X126272731Y-107654819D01*
X126272731Y-107654819D02*
X126367969Y-107702438D01*
X126367969Y-107702438D02*
X126415588Y-107750057D01*
X126415588Y-107750057D02*
X126463207Y-107845295D01*
X126463207Y-107845295D02*
X126463207Y-107940533D01*
X126463207Y-107940533D02*
X126415588Y-108083390D01*
X126415588Y-108083390D02*
X125844160Y-108654819D01*
X125844160Y-108654819D02*
X126463207Y-108654819D01*
X126844160Y-107750057D02*
X126891779Y-107702438D01*
X126891779Y-107702438D02*
X126987017Y-107654819D01*
X126987017Y-107654819D02*
X127225112Y-107654819D01*
X127225112Y-107654819D02*
X127320350Y-107702438D01*
X127320350Y-107702438D02*
X127367969Y-107750057D01*
X127367969Y-107750057D02*
X127415588Y-107845295D01*
X127415588Y-107845295D02*
X127415588Y-107940533D01*
X127415588Y-107940533D02*
X127367969Y-108083390D01*
X127367969Y-108083390D02*
X126796541Y-108654819D01*
X126796541Y-108654819D02*
X127415588Y-108654819D01*
X143897017Y-126634819D02*
X143563684Y-126158628D01*
X143325589Y-126634819D02*
X143325589Y-125634819D01*
X143325589Y-125634819D02*
X143706541Y-125634819D01*
X143706541Y-125634819D02*
X143801779Y-125682438D01*
X143801779Y-125682438D02*
X143849398Y-125730057D01*
X143849398Y-125730057D02*
X143897017Y-125825295D01*
X143897017Y-125825295D02*
X143897017Y-125968152D01*
X143897017Y-125968152D02*
X143849398Y-126063390D01*
X143849398Y-126063390D02*
X143801779Y-126111009D01*
X143801779Y-126111009D02*
X143706541Y-126158628D01*
X143706541Y-126158628D02*
X143325589Y-126158628D01*
X144277970Y-125730057D02*
X144325589Y-125682438D01*
X144325589Y-125682438D02*
X144420827Y-125634819D01*
X144420827Y-125634819D02*
X144658922Y-125634819D01*
X144658922Y-125634819D02*
X144754160Y-125682438D01*
X144754160Y-125682438D02*
X144801779Y-125730057D01*
X144801779Y-125730057D02*
X144849398Y-125825295D01*
X144849398Y-125825295D02*
X144849398Y-125920533D01*
X144849398Y-125920533D02*
X144801779Y-126063390D01*
X144801779Y-126063390D02*
X144230351Y-126634819D01*
X144230351Y-126634819D02*
X144849398Y-126634819D01*
X111399819Y-110094173D02*
X110923628Y-110427506D01*
X111399819Y-110665601D02*
X110399819Y-110665601D01*
X110399819Y-110665601D02*
X110399819Y-110284649D01*
X110399819Y-110284649D02*
X110447438Y-110189411D01*
X110447438Y-110189411D02*
X110495057Y-110141792D01*
X110495057Y-110141792D02*
X110590295Y-110094173D01*
X110590295Y-110094173D02*
X110733152Y-110094173D01*
X110733152Y-110094173D02*
X110828390Y-110141792D01*
X110828390Y-110141792D02*
X110876009Y-110189411D01*
X110876009Y-110189411D02*
X110923628Y-110284649D01*
X110923628Y-110284649D02*
X110923628Y-110665601D01*
X110495057Y-109713220D02*
X110447438Y-109665601D01*
X110447438Y-109665601D02*
X110399819Y-109570363D01*
X110399819Y-109570363D02*
X110399819Y-109332268D01*
X110399819Y-109332268D02*
X110447438Y-109237030D01*
X110447438Y-109237030D02*
X110495057Y-109189411D01*
X110495057Y-109189411D02*
X110590295Y-109141792D01*
X110590295Y-109141792D02*
X110685533Y-109141792D01*
X110685533Y-109141792D02*
X110828390Y-109189411D01*
X110828390Y-109189411D02*
X111399819Y-109760839D01*
X111399819Y-109760839D02*
X111399819Y-109141792D01*
X110399819Y-108808458D02*
X110399819Y-108189411D01*
X110399819Y-108189411D02*
X110780771Y-108522744D01*
X110780771Y-108522744D02*
X110780771Y-108379887D01*
X110780771Y-108379887D02*
X110828390Y-108284649D01*
X110828390Y-108284649D02*
X110876009Y-108237030D01*
X110876009Y-108237030D02*
X110971247Y-108189411D01*
X110971247Y-108189411D02*
X111209342Y-108189411D01*
X111209342Y-108189411D02*
X111304580Y-108237030D01*
X111304580Y-108237030D02*
X111352200Y-108284649D01*
X111352200Y-108284649D02*
X111399819Y-108379887D01*
X111399819Y-108379887D02*
X111399819Y-108665601D01*
X111399819Y-108665601D02*
X111352200Y-108760839D01*
X111352200Y-108760839D02*
X111304580Y-108808458D01*
X139710826Y-110154819D02*
X139377493Y-109678628D01*
X139139398Y-110154819D02*
X139139398Y-109154819D01*
X139139398Y-109154819D02*
X139520350Y-109154819D01*
X139520350Y-109154819D02*
X139615588Y-109202438D01*
X139615588Y-109202438D02*
X139663207Y-109250057D01*
X139663207Y-109250057D02*
X139710826Y-109345295D01*
X139710826Y-109345295D02*
X139710826Y-109488152D01*
X139710826Y-109488152D02*
X139663207Y-109583390D01*
X139663207Y-109583390D02*
X139615588Y-109631009D01*
X139615588Y-109631009D02*
X139520350Y-109678628D01*
X139520350Y-109678628D02*
X139139398Y-109678628D01*
X140567969Y-109488152D02*
X140567969Y-110154819D01*
X140329874Y-109107200D02*
X140091779Y-109821485D01*
X140091779Y-109821485D02*
X140710826Y-109821485D01*
X141044160Y-109250057D02*
X141091779Y-109202438D01*
X141091779Y-109202438D02*
X141187017Y-109154819D01*
X141187017Y-109154819D02*
X141425112Y-109154819D01*
X141425112Y-109154819D02*
X141520350Y-109202438D01*
X141520350Y-109202438D02*
X141567969Y-109250057D01*
X141567969Y-109250057D02*
X141615588Y-109345295D01*
X141615588Y-109345295D02*
X141615588Y-109440533D01*
X141615588Y-109440533D02*
X141567969Y-109583390D01*
X141567969Y-109583390D02*
X140996541Y-110154819D01*
X140996541Y-110154819D02*
X141615588Y-110154819D01*
X126691779Y-122654819D02*
X126691779Y-123464342D01*
X126691779Y-123464342D02*
X126739398Y-123559580D01*
X126739398Y-123559580D02*
X126787017Y-123607200D01*
X126787017Y-123607200D02*
X126882255Y-123654819D01*
X126882255Y-123654819D02*
X127072731Y-123654819D01*
X127072731Y-123654819D02*
X127167969Y-123607200D01*
X127167969Y-123607200D02*
X127215588Y-123559580D01*
X127215588Y-123559580D02*
X127263207Y-123464342D01*
X127263207Y-123464342D02*
X127263207Y-122654819D01*
X128263207Y-123654819D02*
X127691779Y-123654819D01*
X127977493Y-123654819D02*
X127977493Y-122654819D01*
X127977493Y-122654819D02*
X127882255Y-122797676D01*
X127882255Y-122797676D02*
X127787017Y-122892914D01*
X127787017Y-122892914D02*
X127691779Y-122940533D01*
X124609819Y-134267982D02*
X124133628Y-134601315D01*
X124609819Y-134839410D02*
X123609819Y-134839410D01*
X123609819Y-134839410D02*
X123609819Y-134458458D01*
X123609819Y-134458458D02*
X123657438Y-134363220D01*
X123657438Y-134363220D02*
X123705057Y-134315601D01*
X123705057Y-134315601D02*
X123800295Y-134267982D01*
X123800295Y-134267982D02*
X123943152Y-134267982D01*
X123943152Y-134267982D02*
X124038390Y-134315601D01*
X124038390Y-134315601D02*
X124086009Y-134363220D01*
X124086009Y-134363220D02*
X124133628Y-134458458D01*
X124133628Y-134458458D02*
X124133628Y-134839410D01*
X123609819Y-133934648D02*
X123609819Y-133267982D01*
X123609819Y-133267982D02*
X124609819Y-133696553D01*
X103114580Y-111944173D02*
X103162200Y-111991792D01*
X103162200Y-111991792D02*
X103209819Y-112134649D01*
X103209819Y-112134649D02*
X103209819Y-112229887D01*
X103209819Y-112229887D02*
X103162200Y-112372744D01*
X103162200Y-112372744D02*
X103066961Y-112467982D01*
X103066961Y-112467982D02*
X102971723Y-112515601D01*
X102971723Y-112515601D02*
X102781247Y-112563220D01*
X102781247Y-112563220D02*
X102638390Y-112563220D01*
X102638390Y-112563220D02*
X102447914Y-112515601D01*
X102447914Y-112515601D02*
X102352676Y-112467982D01*
X102352676Y-112467982D02*
X102257438Y-112372744D01*
X102257438Y-112372744D02*
X102209819Y-112229887D01*
X102209819Y-112229887D02*
X102209819Y-112134649D01*
X102209819Y-112134649D02*
X102257438Y-111991792D01*
X102257438Y-111991792D02*
X102305057Y-111944173D01*
X102305057Y-111563220D02*
X102257438Y-111515601D01*
X102257438Y-111515601D02*
X102209819Y-111420363D01*
X102209819Y-111420363D02*
X102209819Y-111182268D01*
X102209819Y-111182268D02*
X102257438Y-111087030D01*
X102257438Y-111087030D02*
X102305057Y-111039411D01*
X102305057Y-111039411D02*
X102400295Y-110991792D01*
X102400295Y-110991792D02*
X102495533Y-110991792D01*
X102495533Y-110991792D02*
X102638390Y-111039411D01*
X102638390Y-111039411D02*
X103209819Y-111610839D01*
X103209819Y-111610839D02*
X103209819Y-110991792D01*
X102209819Y-110134649D02*
X102209819Y-110325125D01*
X102209819Y-110325125D02*
X102257438Y-110420363D01*
X102257438Y-110420363D02*
X102305057Y-110467982D01*
X102305057Y-110467982D02*
X102447914Y-110563220D01*
X102447914Y-110563220D02*
X102638390Y-110610839D01*
X102638390Y-110610839D02*
X103019342Y-110610839D01*
X103019342Y-110610839D02*
X103114580Y-110563220D01*
X103114580Y-110563220D02*
X103162200Y-110515601D01*
X103162200Y-110515601D02*
X103209819Y-110420363D01*
X103209819Y-110420363D02*
X103209819Y-110229887D01*
X103209819Y-110229887D02*
X103162200Y-110134649D01*
X103162200Y-110134649D02*
X103114580Y-110087030D01*
X103114580Y-110087030D02*
X103019342Y-110039411D01*
X103019342Y-110039411D02*
X102781247Y-110039411D01*
X102781247Y-110039411D02*
X102686009Y-110087030D01*
X102686009Y-110087030D02*
X102638390Y-110134649D01*
X102638390Y-110134649D02*
X102590771Y-110229887D01*
X102590771Y-110229887D02*
X102590771Y-110420363D01*
X102590771Y-110420363D02*
X102638390Y-110515601D01*
X102638390Y-110515601D02*
X102686009Y-110563220D01*
X102686009Y-110563220D02*
X102781247Y-110610839D01*
X120391779Y-132054819D02*
X120391779Y-132864342D01*
X120391779Y-132864342D02*
X120439398Y-132959580D01*
X120439398Y-132959580D02*
X120487017Y-133007200D01*
X120487017Y-133007200D02*
X120582255Y-133054819D01*
X120582255Y-133054819D02*
X120772731Y-133054819D01*
X120772731Y-133054819D02*
X120867969Y-133007200D01*
X120867969Y-133007200D02*
X120915588Y-132959580D01*
X120915588Y-132959580D02*
X120963207Y-132864342D01*
X120963207Y-132864342D02*
X120963207Y-132054819D01*
X121867969Y-132388152D02*
X121867969Y-133054819D01*
X121629874Y-132007200D02*
X121391779Y-132721485D01*
X121391779Y-132721485D02*
X122010826Y-132721485D01*
X126215112Y-141974819D02*
X126215112Y-140974819D01*
X126215112Y-140974819D02*
X126453207Y-140974819D01*
X126453207Y-140974819D02*
X126596064Y-141022438D01*
X126596064Y-141022438D02*
X126691302Y-141117676D01*
X126691302Y-141117676D02*
X126738921Y-141212914D01*
X126738921Y-141212914D02*
X126786540Y-141403390D01*
X126786540Y-141403390D02*
X126786540Y-141546247D01*
X126786540Y-141546247D02*
X126738921Y-141736723D01*
X126738921Y-141736723D02*
X126691302Y-141831961D01*
X126691302Y-141831961D02*
X126596064Y-141927200D01*
X126596064Y-141927200D02*
X126453207Y-141974819D01*
X126453207Y-141974819D02*
X126215112Y-141974819D01*
X127738921Y-141974819D02*
X127167493Y-141974819D01*
X127453207Y-141974819D02*
X127453207Y-140974819D01*
X127453207Y-140974819D02*
X127357969Y-141117676D01*
X127357969Y-141117676D02*
X127262731Y-141212914D01*
X127262731Y-141212914D02*
X127167493Y-141260533D01*
X128357969Y-140974819D02*
X128453207Y-140974819D01*
X128453207Y-140974819D02*
X128548445Y-141022438D01*
X128548445Y-141022438D02*
X128596064Y-141070057D01*
X128596064Y-141070057D02*
X128643683Y-141165295D01*
X128643683Y-141165295D02*
X128691302Y-141355771D01*
X128691302Y-141355771D02*
X128691302Y-141593866D01*
X128691302Y-141593866D02*
X128643683Y-141784342D01*
X128643683Y-141784342D02*
X128596064Y-141879580D01*
X128596064Y-141879580D02*
X128548445Y-141927200D01*
X128548445Y-141927200D02*
X128453207Y-141974819D01*
X128453207Y-141974819D02*
X128357969Y-141974819D01*
X128357969Y-141974819D02*
X128262731Y-141927200D01*
X128262731Y-141927200D02*
X128215112Y-141879580D01*
X128215112Y-141879580D02*
X128167493Y-141784342D01*
X128167493Y-141784342D02*
X128119874Y-141593866D01*
X128119874Y-141593866D02*
X128119874Y-141355771D01*
X128119874Y-141355771D02*
X128167493Y-141165295D01*
X128167493Y-141165295D02*
X128215112Y-141070057D01*
X128215112Y-141070057D02*
X128262731Y-141022438D01*
X128262731Y-141022438D02*
X128357969Y-140974819D01*
X135650826Y-149454819D02*
X135317493Y-148978628D01*
X135079398Y-149454819D02*
X135079398Y-148454819D01*
X135079398Y-148454819D02*
X135460350Y-148454819D01*
X135460350Y-148454819D02*
X135555588Y-148502438D01*
X135555588Y-148502438D02*
X135603207Y-148550057D01*
X135603207Y-148550057D02*
X135650826Y-148645295D01*
X135650826Y-148645295D02*
X135650826Y-148788152D01*
X135650826Y-148788152D02*
X135603207Y-148883390D01*
X135603207Y-148883390D02*
X135555588Y-148931009D01*
X135555588Y-148931009D02*
X135460350Y-148978628D01*
X135460350Y-148978628D02*
X135079398Y-148978628D01*
X136603207Y-149454819D02*
X136031779Y-149454819D01*
X136317493Y-149454819D02*
X136317493Y-148454819D01*
X136317493Y-148454819D02*
X136222255Y-148597676D01*
X136222255Y-148597676D02*
X136127017Y-148692914D01*
X136127017Y-148692914D02*
X136031779Y-148740533D01*
X136936541Y-148454819D02*
X137603207Y-148454819D01*
X137603207Y-148454819D02*
X137174636Y-149454819D01*
X135500826Y-137454819D02*
X135167493Y-136978628D01*
X134929398Y-137454819D02*
X134929398Y-136454819D01*
X134929398Y-136454819D02*
X135310350Y-136454819D01*
X135310350Y-136454819D02*
X135405588Y-136502438D01*
X135405588Y-136502438D02*
X135453207Y-136550057D01*
X135453207Y-136550057D02*
X135500826Y-136645295D01*
X135500826Y-136645295D02*
X135500826Y-136788152D01*
X135500826Y-136788152D02*
X135453207Y-136883390D01*
X135453207Y-136883390D02*
X135405588Y-136931009D01*
X135405588Y-136931009D02*
X135310350Y-136978628D01*
X135310350Y-136978628D02*
X134929398Y-136978628D01*
X135834160Y-136454819D02*
X136453207Y-136454819D01*
X136453207Y-136454819D02*
X136119874Y-136835771D01*
X136119874Y-136835771D02*
X136262731Y-136835771D01*
X136262731Y-136835771D02*
X136357969Y-136883390D01*
X136357969Y-136883390D02*
X136405588Y-136931009D01*
X136405588Y-136931009D02*
X136453207Y-137026247D01*
X136453207Y-137026247D02*
X136453207Y-137264342D01*
X136453207Y-137264342D02*
X136405588Y-137359580D01*
X136405588Y-137359580D02*
X136357969Y-137407200D01*
X136357969Y-137407200D02*
X136262731Y-137454819D01*
X136262731Y-137454819D02*
X135977017Y-137454819D01*
X135977017Y-137454819D02*
X135881779Y-137407200D01*
X135881779Y-137407200D02*
X135834160Y-137359580D01*
X137310350Y-136788152D02*
X137310350Y-137454819D01*
X137072255Y-136407200D02*
X136834160Y-137121485D01*
X136834160Y-137121485D02*
X137453207Y-137121485D01*
X100209819Y-118344173D02*
X99733628Y-118677506D01*
X100209819Y-118915601D02*
X99209819Y-118915601D01*
X99209819Y-118915601D02*
X99209819Y-118534649D01*
X99209819Y-118534649D02*
X99257438Y-118439411D01*
X99257438Y-118439411D02*
X99305057Y-118391792D01*
X99305057Y-118391792D02*
X99400295Y-118344173D01*
X99400295Y-118344173D02*
X99543152Y-118344173D01*
X99543152Y-118344173D02*
X99638390Y-118391792D01*
X99638390Y-118391792D02*
X99686009Y-118439411D01*
X99686009Y-118439411D02*
X99733628Y-118534649D01*
X99733628Y-118534649D02*
X99733628Y-118915601D01*
X99305057Y-117963220D02*
X99257438Y-117915601D01*
X99257438Y-117915601D02*
X99209819Y-117820363D01*
X99209819Y-117820363D02*
X99209819Y-117582268D01*
X99209819Y-117582268D02*
X99257438Y-117487030D01*
X99257438Y-117487030D02*
X99305057Y-117439411D01*
X99305057Y-117439411D02*
X99400295Y-117391792D01*
X99400295Y-117391792D02*
X99495533Y-117391792D01*
X99495533Y-117391792D02*
X99638390Y-117439411D01*
X99638390Y-117439411D02*
X100209819Y-118010839D01*
X100209819Y-118010839D02*
X100209819Y-117391792D01*
X99209819Y-117058458D02*
X99209819Y-116391792D01*
X99209819Y-116391792D02*
X100209819Y-116820363D01*
X127145589Y-144584819D02*
X127145589Y-143584819D01*
X127145589Y-143584819D02*
X127383684Y-143584819D01*
X127383684Y-143584819D02*
X127526541Y-143632438D01*
X127526541Y-143632438D02*
X127621779Y-143727676D01*
X127621779Y-143727676D02*
X127669398Y-143822914D01*
X127669398Y-143822914D02*
X127717017Y-144013390D01*
X127717017Y-144013390D02*
X127717017Y-144156247D01*
X127717017Y-144156247D02*
X127669398Y-144346723D01*
X127669398Y-144346723D02*
X127621779Y-144441961D01*
X127621779Y-144441961D02*
X127526541Y-144537200D01*
X127526541Y-144537200D02*
X127383684Y-144584819D01*
X127383684Y-144584819D02*
X127145589Y-144584819D01*
X128574160Y-143584819D02*
X128383684Y-143584819D01*
X128383684Y-143584819D02*
X128288446Y-143632438D01*
X128288446Y-143632438D02*
X128240827Y-143680057D01*
X128240827Y-143680057D02*
X128145589Y-143822914D01*
X128145589Y-143822914D02*
X128097970Y-144013390D01*
X128097970Y-144013390D02*
X128097970Y-144394342D01*
X128097970Y-144394342D02*
X128145589Y-144489580D01*
X128145589Y-144489580D02*
X128193208Y-144537200D01*
X128193208Y-144537200D02*
X128288446Y-144584819D01*
X128288446Y-144584819D02*
X128478922Y-144584819D01*
X128478922Y-144584819D02*
X128574160Y-144537200D01*
X128574160Y-144537200D02*
X128621779Y-144489580D01*
X128621779Y-144489580D02*
X128669398Y-144394342D01*
X128669398Y-144394342D02*
X128669398Y-144156247D01*
X128669398Y-144156247D02*
X128621779Y-144061009D01*
X128621779Y-144061009D02*
X128574160Y-144013390D01*
X128574160Y-144013390D02*
X128478922Y-143965771D01*
X128478922Y-143965771D02*
X128288446Y-143965771D01*
X128288446Y-143965771D02*
X128193208Y-144013390D01*
X128193208Y-144013390D02*
X128145589Y-144061009D01*
X128145589Y-144061009D02*
X128097970Y-144156247D01*
X73420350Y-131584819D02*
X73420350Y-132299104D01*
X73420350Y-132299104D02*
X73372731Y-132441961D01*
X73372731Y-132441961D02*
X73277493Y-132537200D01*
X73277493Y-132537200D02*
X73134636Y-132584819D01*
X73134636Y-132584819D02*
X73039398Y-132584819D01*
X74420350Y-132584819D02*
X73848922Y-132584819D01*
X74134636Y-132584819D02*
X74134636Y-131584819D01*
X74134636Y-131584819D02*
X74039398Y-131727676D01*
X74039398Y-131727676D02*
X73944160Y-131822914D01*
X73944160Y-131822914D02*
X73848922Y-131870533D01*
X143510826Y-110054819D02*
X143177493Y-109578628D01*
X142939398Y-110054819D02*
X142939398Y-109054819D01*
X142939398Y-109054819D02*
X143320350Y-109054819D01*
X143320350Y-109054819D02*
X143415588Y-109102438D01*
X143415588Y-109102438D02*
X143463207Y-109150057D01*
X143463207Y-109150057D02*
X143510826Y-109245295D01*
X143510826Y-109245295D02*
X143510826Y-109388152D01*
X143510826Y-109388152D02*
X143463207Y-109483390D01*
X143463207Y-109483390D02*
X143415588Y-109531009D01*
X143415588Y-109531009D02*
X143320350Y-109578628D01*
X143320350Y-109578628D02*
X142939398Y-109578628D01*
X143891779Y-109150057D02*
X143939398Y-109102438D01*
X143939398Y-109102438D02*
X144034636Y-109054819D01*
X144034636Y-109054819D02*
X144272731Y-109054819D01*
X144272731Y-109054819D02*
X144367969Y-109102438D01*
X144367969Y-109102438D02*
X144415588Y-109150057D01*
X144415588Y-109150057D02*
X144463207Y-109245295D01*
X144463207Y-109245295D02*
X144463207Y-109340533D01*
X144463207Y-109340533D02*
X144415588Y-109483390D01*
X144415588Y-109483390D02*
X143844160Y-110054819D01*
X143844160Y-110054819D02*
X144463207Y-110054819D01*
X145082255Y-109054819D02*
X145177493Y-109054819D01*
X145177493Y-109054819D02*
X145272731Y-109102438D01*
X145272731Y-109102438D02*
X145320350Y-109150057D01*
X145320350Y-109150057D02*
X145367969Y-109245295D01*
X145367969Y-109245295D02*
X145415588Y-109435771D01*
X145415588Y-109435771D02*
X145415588Y-109673866D01*
X145415588Y-109673866D02*
X145367969Y-109864342D01*
X145367969Y-109864342D02*
X145320350Y-109959580D01*
X145320350Y-109959580D02*
X145272731Y-110007200D01*
X145272731Y-110007200D02*
X145177493Y-110054819D01*
X145177493Y-110054819D02*
X145082255Y-110054819D01*
X145082255Y-110054819D02*
X144987017Y-110007200D01*
X144987017Y-110007200D02*
X144939398Y-109959580D01*
X144939398Y-109959580D02*
X144891779Y-109864342D01*
X144891779Y-109864342D02*
X144844160Y-109673866D01*
X144844160Y-109673866D02*
X144844160Y-109435771D01*
X144844160Y-109435771D02*
X144891779Y-109245295D01*
X144891779Y-109245295D02*
X144939398Y-109150057D01*
X144939398Y-109150057D02*
X144987017Y-109102438D01*
X144987017Y-109102438D02*
X145082255Y-109054819D01*
X95429580Y-157291792D02*
X95477200Y-157339411D01*
X95477200Y-157339411D02*
X95524819Y-157482268D01*
X95524819Y-157482268D02*
X95524819Y-157577506D01*
X95524819Y-157577506D02*
X95477200Y-157720363D01*
X95477200Y-157720363D02*
X95381961Y-157815601D01*
X95381961Y-157815601D02*
X95286723Y-157863220D01*
X95286723Y-157863220D02*
X95096247Y-157910839D01*
X95096247Y-157910839D02*
X94953390Y-157910839D01*
X94953390Y-157910839D02*
X94762914Y-157863220D01*
X94762914Y-157863220D02*
X94667676Y-157815601D01*
X94667676Y-157815601D02*
X94572438Y-157720363D01*
X94572438Y-157720363D02*
X94524819Y-157577506D01*
X94524819Y-157577506D02*
X94524819Y-157482268D01*
X94524819Y-157482268D02*
X94572438Y-157339411D01*
X94572438Y-157339411D02*
X94620057Y-157291792D01*
X95524819Y-156339411D02*
X95524819Y-156910839D01*
X95524819Y-156625125D02*
X94524819Y-156625125D01*
X94524819Y-156625125D02*
X94667676Y-156720363D01*
X94667676Y-156720363D02*
X94762914Y-156815601D01*
X94762914Y-156815601D02*
X94810533Y-156910839D01*
X94524819Y-155720363D02*
X94524819Y-155625125D01*
X94524819Y-155625125D02*
X94572438Y-155529887D01*
X94572438Y-155529887D02*
X94620057Y-155482268D01*
X94620057Y-155482268D02*
X94715295Y-155434649D01*
X94715295Y-155434649D02*
X94905771Y-155387030D01*
X94905771Y-155387030D02*
X95143866Y-155387030D01*
X95143866Y-155387030D02*
X95334342Y-155434649D01*
X95334342Y-155434649D02*
X95429580Y-155482268D01*
X95429580Y-155482268D02*
X95477200Y-155529887D01*
X95477200Y-155529887D02*
X95524819Y-155625125D01*
X95524819Y-155625125D02*
X95524819Y-155720363D01*
X95524819Y-155720363D02*
X95477200Y-155815601D01*
X95477200Y-155815601D02*
X95429580Y-155863220D01*
X95429580Y-155863220D02*
X95334342Y-155910839D01*
X95334342Y-155910839D02*
X95143866Y-155958458D01*
X95143866Y-155958458D02*
X94905771Y-155958458D01*
X94905771Y-155958458D02*
X94715295Y-155910839D01*
X94715295Y-155910839D02*
X94620057Y-155863220D01*
X94620057Y-155863220D02*
X94572438Y-155815601D01*
X94572438Y-155815601D02*
X94524819Y-155720363D01*
X135650826Y-147404819D02*
X135317493Y-146928628D01*
X135079398Y-147404819D02*
X135079398Y-146404819D01*
X135079398Y-146404819D02*
X135460350Y-146404819D01*
X135460350Y-146404819D02*
X135555588Y-146452438D01*
X135555588Y-146452438D02*
X135603207Y-146500057D01*
X135603207Y-146500057D02*
X135650826Y-146595295D01*
X135650826Y-146595295D02*
X135650826Y-146738152D01*
X135650826Y-146738152D02*
X135603207Y-146833390D01*
X135603207Y-146833390D02*
X135555588Y-146881009D01*
X135555588Y-146881009D02*
X135460350Y-146928628D01*
X135460350Y-146928628D02*
X135079398Y-146928628D01*
X136603207Y-147404819D02*
X136031779Y-147404819D01*
X136317493Y-147404819D02*
X136317493Y-146404819D01*
X136317493Y-146404819D02*
X136222255Y-146547676D01*
X136222255Y-146547676D02*
X136127017Y-146642914D01*
X136127017Y-146642914D02*
X136031779Y-146690533D01*
X137460350Y-146738152D02*
X137460350Y-147404819D01*
X137222255Y-146357200D02*
X136984160Y-147071485D01*
X136984160Y-147071485D02*
X137603207Y-147071485D01*
X121209819Y-122267982D02*
X120733628Y-122601315D01*
X121209819Y-122839410D02*
X120209819Y-122839410D01*
X120209819Y-122839410D02*
X120209819Y-122458458D01*
X120209819Y-122458458D02*
X120257438Y-122363220D01*
X120257438Y-122363220D02*
X120305057Y-122315601D01*
X120305057Y-122315601D02*
X120400295Y-122267982D01*
X120400295Y-122267982D02*
X120543152Y-122267982D01*
X120543152Y-122267982D02*
X120638390Y-122315601D01*
X120638390Y-122315601D02*
X120686009Y-122363220D01*
X120686009Y-122363220D02*
X120733628Y-122458458D01*
X120733628Y-122458458D02*
X120733628Y-122839410D01*
X121209819Y-121791791D02*
X121209819Y-121601315D01*
X121209819Y-121601315D02*
X121162200Y-121506077D01*
X121162200Y-121506077D02*
X121114580Y-121458458D01*
X121114580Y-121458458D02*
X120971723Y-121363220D01*
X120971723Y-121363220D02*
X120781247Y-121315601D01*
X120781247Y-121315601D02*
X120400295Y-121315601D01*
X120400295Y-121315601D02*
X120305057Y-121363220D01*
X120305057Y-121363220D02*
X120257438Y-121410839D01*
X120257438Y-121410839D02*
X120209819Y-121506077D01*
X120209819Y-121506077D02*
X120209819Y-121696553D01*
X120209819Y-121696553D02*
X120257438Y-121791791D01*
X120257438Y-121791791D02*
X120305057Y-121839410D01*
X120305057Y-121839410D02*
X120400295Y-121887029D01*
X120400295Y-121887029D02*
X120638390Y-121887029D01*
X120638390Y-121887029D02*
X120733628Y-121839410D01*
X120733628Y-121839410D02*
X120781247Y-121791791D01*
X120781247Y-121791791D02*
X120828866Y-121696553D01*
X120828866Y-121696553D02*
X120828866Y-121506077D01*
X120828866Y-121506077D02*
X120781247Y-121410839D01*
X120781247Y-121410839D02*
X120733628Y-121363220D01*
X120733628Y-121363220D02*
X120638390Y-121315601D01*
X114272319Y-121567982D02*
X113796128Y-121901315D01*
X114272319Y-122139410D02*
X113272319Y-122139410D01*
X113272319Y-122139410D02*
X113272319Y-121758458D01*
X113272319Y-121758458D02*
X113319938Y-121663220D01*
X113319938Y-121663220D02*
X113367557Y-121615601D01*
X113367557Y-121615601D02*
X113462795Y-121567982D01*
X113462795Y-121567982D02*
X113605652Y-121567982D01*
X113605652Y-121567982D02*
X113700890Y-121615601D01*
X113700890Y-121615601D02*
X113748509Y-121663220D01*
X113748509Y-121663220D02*
X113796128Y-121758458D01*
X113796128Y-121758458D02*
X113796128Y-122139410D01*
X113700890Y-120996553D02*
X113653271Y-121091791D01*
X113653271Y-121091791D02*
X113605652Y-121139410D01*
X113605652Y-121139410D02*
X113510414Y-121187029D01*
X113510414Y-121187029D02*
X113462795Y-121187029D01*
X113462795Y-121187029D02*
X113367557Y-121139410D01*
X113367557Y-121139410D02*
X113319938Y-121091791D01*
X113319938Y-121091791D02*
X113272319Y-120996553D01*
X113272319Y-120996553D02*
X113272319Y-120806077D01*
X113272319Y-120806077D02*
X113319938Y-120710839D01*
X113319938Y-120710839D02*
X113367557Y-120663220D01*
X113367557Y-120663220D02*
X113462795Y-120615601D01*
X113462795Y-120615601D02*
X113510414Y-120615601D01*
X113510414Y-120615601D02*
X113605652Y-120663220D01*
X113605652Y-120663220D02*
X113653271Y-120710839D01*
X113653271Y-120710839D02*
X113700890Y-120806077D01*
X113700890Y-120806077D02*
X113700890Y-120996553D01*
X113700890Y-120996553D02*
X113748509Y-121091791D01*
X113748509Y-121091791D02*
X113796128Y-121139410D01*
X113796128Y-121139410D02*
X113891366Y-121187029D01*
X113891366Y-121187029D02*
X114081842Y-121187029D01*
X114081842Y-121187029D02*
X114177080Y-121139410D01*
X114177080Y-121139410D02*
X114224700Y-121091791D01*
X114224700Y-121091791D02*
X114272319Y-120996553D01*
X114272319Y-120996553D02*
X114272319Y-120806077D01*
X114272319Y-120806077D02*
X114224700Y-120710839D01*
X114224700Y-120710839D02*
X114177080Y-120663220D01*
X114177080Y-120663220D02*
X114081842Y-120615601D01*
X114081842Y-120615601D02*
X113891366Y-120615601D01*
X113891366Y-120615601D02*
X113796128Y-120663220D01*
X113796128Y-120663220D02*
X113748509Y-120710839D01*
X113748509Y-120710839D02*
X113700890Y-120806077D01*
X78787017Y-123959580D02*
X78739398Y-124007200D01*
X78739398Y-124007200D02*
X78596541Y-124054819D01*
X78596541Y-124054819D02*
X78501303Y-124054819D01*
X78501303Y-124054819D02*
X78358446Y-124007200D01*
X78358446Y-124007200D02*
X78263208Y-123911961D01*
X78263208Y-123911961D02*
X78215589Y-123816723D01*
X78215589Y-123816723D02*
X78167970Y-123626247D01*
X78167970Y-123626247D02*
X78167970Y-123483390D01*
X78167970Y-123483390D02*
X78215589Y-123292914D01*
X78215589Y-123292914D02*
X78263208Y-123197676D01*
X78263208Y-123197676D02*
X78358446Y-123102438D01*
X78358446Y-123102438D02*
X78501303Y-123054819D01*
X78501303Y-123054819D02*
X78596541Y-123054819D01*
X78596541Y-123054819D02*
X78739398Y-123102438D01*
X78739398Y-123102438D02*
X78787017Y-123150057D01*
X79120351Y-123054819D02*
X79739398Y-123054819D01*
X79739398Y-123054819D02*
X79406065Y-123435771D01*
X79406065Y-123435771D02*
X79548922Y-123435771D01*
X79548922Y-123435771D02*
X79644160Y-123483390D01*
X79644160Y-123483390D02*
X79691779Y-123531009D01*
X79691779Y-123531009D02*
X79739398Y-123626247D01*
X79739398Y-123626247D02*
X79739398Y-123864342D01*
X79739398Y-123864342D02*
X79691779Y-123959580D01*
X79691779Y-123959580D02*
X79644160Y-124007200D01*
X79644160Y-124007200D02*
X79548922Y-124054819D01*
X79548922Y-124054819D02*
X79263208Y-124054819D01*
X79263208Y-124054819D02*
X79167970Y-124007200D01*
X79167970Y-124007200D02*
X79120351Y-123959580D01*
X128710826Y-108654819D02*
X128377493Y-108178628D01*
X128139398Y-108654819D02*
X128139398Y-107654819D01*
X128139398Y-107654819D02*
X128520350Y-107654819D01*
X128520350Y-107654819D02*
X128615588Y-107702438D01*
X128615588Y-107702438D02*
X128663207Y-107750057D01*
X128663207Y-107750057D02*
X128710826Y-107845295D01*
X128710826Y-107845295D02*
X128710826Y-107988152D01*
X128710826Y-107988152D02*
X128663207Y-108083390D01*
X128663207Y-108083390D02*
X128615588Y-108131009D01*
X128615588Y-108131009D02*
X128520350Y-108178628D01*
X128520350Y-108178628D02*
X128139398Y-108178628D01*
X129091779Y-107750057D02*
X129139398Y-107702438D01*
X129139398Y-107702438D02*
X129234636Y-107654819D01*
X129234636Y-107654819D02*
X129472731Y-107654819D01*
X129472731Y-107654819D02*
X129567969Y-107702438D01*
X129567969Y-107702438D02*
X129615588Y-107750057D01*
X129615588Y-107750057D02*
X129663207Y-107845295D01*
X129663207Y-107845295D02*
X129663207Y-107940533D01*
X129663207Y-107940533D02*
X129615588Y-108083390D01*
X129615588Y-108083390D02*
X129044160Y-108654819D01*
X129044160Y-108654819D02*
X129663207Y-108654819D01*
X130520350Y-107988152D02*
X130520350Y-108654819D01*
X130282255Y-107607200D02*
X130044160Y-108321485D01*
X130044160Y-108321485D02*
X130663207Y-108321485D01*
X86810826Y-155054819D02*
X86477493Y-154578628D01*
X86239398Y-155054819D02*
X86239398Y-154054819D01*
X86239398Y-154054819D02*
X86620350Y-154054819D01*
X86620350Y-154054819D02*
X86715588Y-154102438D01*
X86715588Y-154102438D02*
X86763207Y-154150057D01*
X86763207Y-154150057D02*
X86810826Y-154245295D01*
X86810826Y-154245295D02*
X86810826Y-154388152D01*
X86810826Y-154388152D02*
X86763207Y-154483390D01*
X86763207Y-154483390D02*
X86715588Y-154531009D01*
X86715588Y-154531009D02*
X86620350Y-154578628D01*
X86620350Y-154578628D02*
X86239398Y-154578628D01*
X87763207Y-155054819D02*
X87191779Y-155054819D01*
X87477493Y-155054819D02*
X87477493Y-154054819D01*
X87477493Y-154054819D02*
X87382255Y-154197676D01*
X87382255Y-154197676D02*
X87287017Y-154292914D01*
X87287017Y-154292914D02*
X87191779Y-154340533D01*
X88144160Y-154150057D02*
X88191779Y-154102438D01*
X88191779Y-154102438D02*
X88287017Y-154054819D01*
X88287017Y-154054819D02*
X88525112Y-154054819D01*
X88525112Y-154054819D02*
X88620350Y-154102438D01*
X88620350Y-154102438D02*
X88667969Y-154150057D01*
X88667969Y-154150057D02*
X88715588Y-154245295D01*
X88715588Y-154245295D02*
X88715588Y-154340533D01*
X88715588Y-154340533D02*
X88667969Y-154483390D01*
X88667969Y-154483390D02*
X88096541Y-155054819D01*
X88096541Y-155054819D02*
X88715588Y-155054819D01*
X87772731Y-156693628D02*
X87772731Y-157169819D01*
X87439398Y-156169819D02*
X87772731Y-156693628D01*
X87772731Y-156693628D02*
X88106064Y-156169819D01*
X88963207Y-157169819D02*
X88391779Y-157169819D01*
X88677493Y-157169819D02*
X88677493Y-156169819D01*
X88677493Y-156169819D02*
X88582255Y-156312676D01*
X88582255Y-156312676D02*
X88487017Y-156407914D01*
X88487017Y-156407914D02*
X88391779Y-156455533D01*
X135639819Y-122367982D02*
X135163628Y-122701315D01*
X135639819Y-122939410D02*
X134639819Y-122939410D01*
X134639819Y-122939410D02*
X134639819Y-122558458D01*
X134639819Y-122558458D02*
X134687438Y-122463220D01*
X134687438Y-122463220D02*
X134735057Y-122415601D01*
X134735057Y-122415601D02*
X134830295Y-122367982D01*
X134830295Y-122367982D02*
X134973152Y-122367982D01*
X134973152Y-122367982D02*
X135068390Y-122415601D01*
X135068390Y-122415601D02*
X135116009Y-122463220D01*
X135116009Y-122463220D02*
X135163628Y-122558458D01*
X135163628Y-122558458D02*
X135163628Y-122939410D01*
X135639819Y-121415601D02*
X135639819Y-121987029D01*
X135639819Y-121701315D02*
X134639819Y-121701315D01*
X134639819Y-121701315D02*
X134782676Y-121796553D01*
X134782676Y-121796553D02*
X134877914Y-121891791D01*
X134877914Y-121891791D02*
X134925533Y-121987029D01*
X135600826Y-151404819D02*
X135267493Y-150928628D01*
X135029398Y-151404819D02*
X135029398Y-150404819D01*
X135029398Y-150404819D02*
X135410350Y-150404819D01*
X135410350Y-150404819D02*
X135505588Y-150452438D01*
X135505588Y-150452438D02*
X135553207Y-150500057D01*
X135553207Y-150500057D02*
X135600826Y-150595295D01*
X135600826Y-150595295D02*
X135600826Y-150738152D01*
X135600826Y-150738152D02*
X135553207Y-150833390D01*
X135553207Y-150833390D02*
X135505588Y-150881009D01*
X135505588Y-150881009D02*
X135410350Y-150928628D01*
X135410350Y-150928628D02*
X135029398Y-150928628D01*
X135934160Y-150404819D02*
X136553207Y-150404819D01*
X136553207Y-150404819D02*
X136219874Y-150785771D01*
X136219874Y-150785771D02*
X136362731Y-150785771D01*
X136362731Y-150785771D02*
X136457969Y-150833390D01*
X136457969Y-150833390D02*
X136505588Y-150881009D01*
X136505588Y-150881009D02*
X136553207Y-150976247D01*
X136553207Y-150976247D02*
X136553207Y-151214342D01*
X136553207Y-151214342D02*
X136505588Y-151309580D01*
X136505588Y-151309580D02*
X136457969Y-151357200D01*
X136457969Y-151357200D02*
X136362731Y-151404819D01*
X136362731Y-151404819D02*
X136077017Y-151404819D01*
X136077017Y-151404819D02*
X135981779Y-151357200D01*
X135981779Y-151357200D02*
X135934160Y-151309580D01*
X137505588Y-151404819D02*
X136934160Y-151404819D01*
X137219874Y-151404819D02*
X137219874Y-150404819D01*
X137219874Y-150404819D02*
X137124636Y-150547676D01*
X137124636Y-150547676D02*
X137029398Y-150642914D01*
X137029398Y-150642914D02*
X136934160Y-150690533D01*
X117179819Y-129267982D02*
X116703628Y-129601315D01*
X117179819Y-129839410D02*
X116179819Y-129839410D01*
X116179819Y-129839410D02*
X116179819Y-129458458D01*
X116179819Y-129458458D02*
X116227438Y-129363220D01*
X116227438Y-129363220D02*
X116275057Y-129315601D01*
X116275057Y-129315601D02*
X116370295Y-129267982D01*
X116370295Y-129267982D02*
X116513152Y-129267982D01*
X116513152Y-129267982D02*
X116608390Y-129315601D01*
X116608390Y-129315601D02*
X116656009Y-129363220D01*
X116656009Y-129363220D02*
X116703628Y-129458458D01*
X116703628Y-129458458D02*
X116703628Y-129839410D01*
X116513152Y-128410839D02*
X117179819Y-128410839D01*
X116132200Y-128648934D02*
X116846485Y-128887029D01*
X116846485Y-128887029D02*
X116846485Y-128267982D01*
X83291779Y-151669819D02*
X83291779Y-152479342D01*
X83291779Y-152479342D02*
X83339398Y-152574580D01*
X83339398Y-152574580D02*
X83387017Y-152622200D01*
X83387017Y-152622200D02*
X83482255Y-152669819D01*
X83482255Y-152669819D02*
X83672731Y-152669819D01*
X83672731Y-152669819D02*
X83767969Y-152622200D01*
X83767969Y-152622200D02*
X83815588Y-152574580D01*
X83815588Y-152574580D02*
X83863207Y-152479342D01*
X83863207Y-152479342D02*
X83863207Y-151669819D01*
X84767969Y-151669819D02*
X84577493Y-151669819D01*
X84577493Y-151669819D02*
X84482255Y-151717438D01*
X84482255Y-151717438D02*
X84434636Y-151765057D01*
X84434636Y-151765057D02*
X84339398Y-151907914D01*
X84339398Y-151907914D02*
X84291779Y-152098390D01*
X84291779Y-152098390D02*
X84291779Y-152479342D01*
X84291779Y-152479342D02*
X84339398Y-152574580D01*
X84339398Y-152574580D02*
X84387017Y-152622200D01*
X84387017Y-152622200D02*
X84482255Y-152669819D01*
X84482255Y-152669819D02*
X84672731Y-152669819D01*
X84672731Y-152669819D02*
X84767969Y-152622200D01*
X84767969Y-152622200D02*
X84815588Y-152574580D01*
X84815588Y-152574580D02*
X84863207Y-152479342D01*
X84863207Y-152479342D02*
X84863207Y-152241247D01*
X84863207Y-152241247D02*
X84815588Y-152146009D01*
X84815588Y-152146009D02*
X84767969Y-152098390D01*
X84767969Y-152098390D02*
X84672731Y-152050771D01*
X84672731Y-152050771D02*
X84482255Y-152050771D01*
X84482255Y-152050771D02*
X84387017Y-152098390D01*
X84387017Y-152098390D02*
X84339398Y-152146009D01*
X84339398Y-152146009D02*
X84291779Y-152241247D01*
X81009819Y-133763220D02*
X81009819Y-133191792D01*
X82009819Y-133477506D02*
X81009819Y-133477506D01*
X82009819Y-132858458D02*
X81009819Y-132858458D01*
X81009819Y-132858458D02*
X81009819Y-132477506D01*
X81009819Y-132477506D02*
X81057438Y-132382268D01*
X81057438Y-132382268D02*
X81105057Y-132334649D01*
X81105057Y-132334649D02*
X81200295Y-132287030D01*
X81200295Y-132287030D02*
X81343152Y-132287030D01*
X81343152Y-132287030D02*
X81438390Y-132334649D01*
X81438390Y-132334649D02*
X81486009Y-132382268D01*
X81486009Y-132382268D02*
X81533628Y-132477506D01*
X81533628Y-132477506D02*
X81533628Y-132858458D01*
X81105057Y-131906077D02*
X81057438Y-131858458D01*
X81057438Y-131858458D02*
X81009819Y-131763220D01*
X81009819Y-131763220D02*
X81009819Y-131525125D01*
X81009819Y-131525125D02*
X81057438Y-131429887D01*
X81057438Y-131429887D02*
X81105057Y-131382268D01*
X81105057Y-131382268D02*
X81200295Y-131334649D01*
X81200295Y-131334649D02*
X81295533Y-131334649D01*
X81295533Y-131334649D02*
X81438390Y-131382268D01*
X81438390Y-131382268D02*
X82009819Y-131953696D01*
X82009819Y-131953696D02*
X82009819Y-131334649D01*
X141609819Y-133344173D02*
X141133628Y-133677506D01*
X141609819Y-133915601D02*
X140609819Y-133915601D01*
X140609819Y-133915601D02*
X140609819Y-133534649D01*
X140609819Y-133534649D02*
X140657438Y-133439411D01*
X140657438Y-133439411D02*
X140705057Y-133391792D01*
X140705057Y-133391792D02*
X140800295Y-133344173D01*
X140800295Y-133344173D02*
X140943152Y-133344173D01*
X140943152Y-133344173D02*
X141038390Y-133391792D01*
X141038390Y-133391792D02*
X141086009Y-133439411D01*
X141086009Y-133439411D02*
X141133628Y-133534649D01*
X141133628Y-133534649D02*
X141133628Y-133915601D01*
X140609819Y-133010839D02*
X140609819Y-132391792D01*
X140609819Y-132391792D02*
X140990771Y-132725125D01*
X140990771Y-132725125D02*
X140990771Y-132582268D01*
X140990771Y-132582268D02*
X141038390Y-132487030D01*
X141038390Y-132487030D02*
X141086009Y-132439411D01*
X141086009Y-132439411D02*
X141181247Y-132391792D01*
X141181247Y-132391792D02*
X141419342Y-132391792D01*
X141419342Y-132391792D02*
X141514580Y-132439411D01*
X141514580Y-132439411D02*
X141562200Y-132487030D01*
X141562200Y-132487030D02*
X141609819Y-132582268D01*
X141609819Y-132582268D02*
X141609819Y-132867982D01*
X141609819Y-132867982D02*
X141562200Y-132963220D01*
X141562200Y-132963220D02*
X141514580Y-133010839D01*
X140609819Y-132058458D02*
X140609819Y-131391792D01*
X140609819Y-131391792D02*
X141609819Y-131820363D01*
X132010826Y-108654819D02*
X131677493Y-108178628D01*
X131439398Y-108654819D02*
X131439398Y-107654819D01*
X131439398Y-107654819D02*
X131820350Y-107654819D01*
X131820350Y-107654819D02*
X131915588Y-107702438D01*
X131915588Y-107702438D02*
X131963207Y-107750057D01*
X131963207Y-107750057D02*
X132010826Y-107845295D01*
X132010826Y-107845295D02*
X132010826Y-107988152D01*
X132010826Y-107988152D02*
X131963207Y-108083390D01*
X131963207Y-108083390D02*
X131915588Y-108131009D01*
X131915588Y-108131009D02*
X131820350Y-108178628D01*
X131820350Y-108178628D02*
X131439398Y-108178628D01*
X132867969Y-107988152D02*
X132867969Y-108654819D01*
X132629874Y-107607200D02*
X132391779Y-108321485D01*
X132391779Y-108321485D02*
X133010826Y-108321485D01*
X133867969Y-107654819D02*
X133391779Y-107654819D01*
X133391779Y-107654819D02*
X133344160Y-108131009D01*
X133344160Y-108131009D02*
X133391779Y-108083390D01*
X133391779Y-108083390D02*
X133487017Y-108035771D01*
X133487017Y-108035771D02*
X133725112Y-108035771D01*
X133725112Y-108035771D02*
X133820350Y-108083390D01*
X133820350Y-108083390D02*
X133867969Y-108131009D01*
X133867969Y-108131009D02*
X133915588Y-108226247D01*
X133915588Y-108226247D02*
X133915588Y-108464342D01*
X133915588Y-108464342D02*
X133867969Y-108559580D01*
X133867969Y-108559580D02*
X133820350Y-108607200D01*
X133820350Y-108607200D02*
X133725112Y-108654819D01*
X133725112Y-108654819D02*
X133487017Y-108654819D01*
X133487017Y-108654819D02*
X133391779Y-108607200D01*
X133391779Y-108607200D02*
X133344160Y-108559580D01*
X115039819Y-129267982D02*
X114563628Y-129601315D01*
X115039819Y-129839410D02*
X114039819Y-129839410D01*
X114039819Y-129839410D02*
X114039819Y-129458458D01*
X114039819Y-129458458D02*
X114087438Y-129363220D01*
X114087438Y-129363220D02*
X114135057Y-129315601D01*
X114135057Y-129315601D02*
X114230295Y-129267982D01*
X114230295Y-129267982D02*
X114373152Y-129267982D01*
X114373152Y-129267982D02*
X114468390Y-129315601D01*
X114468390Y-129315601D02*
X114516009Y-129363220D01*
X114516009Y-129363220D02*
X114563628Y-129458458D01*
X114563628Y-129458458D02*
X114563628Y-129839410D01*
X114039819Y-128410839D02*
X114039819Y-128601315D01*
X114039819Y-128601315D02*
X114087438Y-128696553D01*
X114087438Y-128696553D02*
X114135057Y-128744172D01*
X114135057Y-128744172D02*
X114277914Y-128839410D01*
X114277914Y-128839410D02*
X114468390Y-128887029D01*
X114468390Y-128887029D02*
X114849342Y-128887029D01*
X114849342Y-128887029D02*
X114944580Y-128839410D01*
X114944580Y-128839410D02*
X114992200Y-128791791D01*
X114992200Y-128791791D02*
X115039819Y-128696553D01*
X115039819Y-128696553D02*
X115039819Y-128506077D01*
X115039819Y-128506077D02*
X114992200Y-128410839D01*
X114992200Y-128410839D02*
X114944580Y-128363220D01*
X114944580Y-128363220D02*
X114849342Y-128315601D01*
X114849342Y-128315601D02*
X114611247Y-128315601D01*
X114611247Y-128315601D02*
X114516009Y-128363220D01*
X114516009Y-128363220D02*
X114468390Y-128410839D01*
X114468390Y-128410839D02*
X114420771Y-128506077D01*
X114420771Y-128506077D02*
X114420771Y-128696553D01*
X114420771Y-128696553D02*
X114468390Y-128791791D01*
X114468390Y-128791791D02*
X114516009Y-128839410D01*
X114516009Y-128839410D02*
X114611247Y-128887029D01*
X101791779Y-123054819D02*
X101791779Y-123864342D01*
X101791779Y-123864342D02*
X101839398Y-123959580D01*
X101839398Y-123959580D02*
X101887017Y-124007200D01*
X101887017Y-124007200D02*
X101982255Y-124054819D01*
X101982255Y-124054819D02*
X102172731Y-124054819D01*
X102172731Y-124054819D02*
X102267969Y-124007200D01*
X102267969Y-124007200D02*
X102315588Y-123959580D01*
X102315588Y-123959580D02*
X102363207Y-123864342D01*
X102363207Y-123864342D02*
X102363207Y-123054819D01*
X103315588Y-123054819D02*
X102839398Y-123054819D01*
X102839398Y-123054819D02*
X102791779Y-123531009D01*
X102791779Y-123531009D02*
X102839398Y-123483390D01*
X102839398Y-123483390D02*
X102934636Y-123435771D01*
X102934636Y-123435771D02*
X103172731Y-123435771D01*
X103172731Y-123435771D02*
X103267969Y-123483390D01*
X103267969Y-123483390D02*
X103315588Y-123531009D01*
X103315588Y-123531009D02*
X103363207Y-123626247D01*
X103363207Y-123626247D02*
X103363207Y-123864342D01*
X103363207Y-123864342D02*
X103315588Y-123959580D01*
X103315588Y-123959580D02*
X103267969Y-124007200D01*
X103267969Y-124007200D02*
X103172731Y-124054819D01*
X103172731Y-124054819D02*
X102934636Y-124054819D01*
X102934636Y-124054819D02*
X102839398Y-124007200D01*
X102839398Y-124007200D02*
X102791779Y-123959580D01*
X82863207Y-160174580D02*
X82815588Y-160222200D01*
X82815588Y-160222200D02*
X82672731Y-160269819D01*
X82672731Y-160269819D02*
X82577493Y-160269819D01*
X82577493Y-160269819D02*
X82434636Y-160222200D01*
X82434636Y-160222200D02*
X82339398Y-160126961D01*
X82339398Y-160126961D02*
X82291779Y-160031723D01*
X82291779Y-160031723D02*
X82244160Y-159841247D01*
X82244160Y-159841247D02*
X82244160Y-159698390D01*
X82244160Y-159698390D02*
X82291779Y-159507914D01*
X82291779Y-159507914D02*
X82339398Y-159412676D01*
X82339398Y-159412676D02*
X82434636Y-159317438D01*
X82434636Y-159317438D02*
X82577493Y-159269819D01*
X82577493Y-159269819D02*
X82672731Y-159269819D01*
X82672731Y-159269819D02*
X82815588Y-159317438D01*
X82815588Y-159317438D02*
X82863207Y-159365057D01*
X83815588Y-160269819D02*
X83244160Y-160269819D01*
X83529874Y-160269819D02*
X83529874Y-159269819D01*
X83529874Y-159269819D02*
X83434636Y-159412676D01*
X83434636Y-159412676D02*
X83339398Y-159507914D01*
X83339398Y-159507914D02*
X83244160Y-159555533D01*
X84720350Y-159269819D02*
X84244160Y-159269819D01*
X84244160Y-159269819D02*
X84196541Y-159746009D01*
X84196541Y-159746009D02*
X84244160Y-159698390D01*
X84244160Y-159698390D02*
X84339398Y-159650771D01*
X84339398Y-159650771D02*
X84577493Y-159650771D01*
X84577493Y-159650771D02*
X84672731Y-159698390D01*
X84672731Y-159698390D02*
X84720350Y-159746009D01*
X84720350Y-159746009D02*
X84767969Y-159841247D01*
X84767969Y-159841247D02*
X84767969Y-160079342D01*
X84767969Y-160079342D02*
X84720350Y-160174580D01*
X84720350Y-160174580D02*
X84672731Y-160222200D01*
X84672731Y-160222200D02*
X84577493Y-160269819D01*
X84577493Y-160269819D02*
X84339398Y-160269819D01*
X84339398Y-160269819D02*
X84244160Y-160222200D01*
X84244160Y-160222200D02*
X84196541Y-160174580D01*
X143410826Y-115554819D02*
X143077493Y-115078628D01*
X142839398Y-115554819D02*
X142839398Y-114554819D01*
X142839398Y-114554819D02*
X143220350Y-114554819D01*
X143220350Y-114554819D02*
X143315588Y-114602438D01*
X143315588Y-114602438D02*
X143363207Y-114650057D01*
X143363207Y-114650057D02*
X143410826Y-114745295D01*
X143410826Y-114745295D02*
X143410826Y-114888152D01*
X143410826Y-114888152D02*
X143363207Y-114983390D01*
X143363207Y-114983390D02*
X143315588Y-115031009D01*
X143315588Y-115031009D02*
X143220350Y-115078628D01*
X143220350Y-115078628D02*
X142839398Y-115078628D01*
X143744160Y-114554819D02*
X144363207Y-114554819D01*
X144363207Y-114554819D02*
X144029874Y-114935771D01*
X144029874Y-114935771D02*
X144172731Y-114935771D01*
X144172731Y-114935771D02*
X144267969Y-114983390D01*
X144267969Y-114983390D02*
X144315588Y-115031009D01*
X144315588Y-115031009D02*
X144363207Y-115126247D01*
X144363207Y-115126247D02*
X144363207Y-115364342D01*
X144363207Y-115364342D02*
X144315588Y-115459580D01*
X144315588Y-115459580D02*
X144267969Y-115507200D01*
X144267969Y-115507200D02*
X144172731Y-115554819D01*
X144172731Y-115554819D02*
X143887017Y-115554819D01*
X143887017Y-115554819D02*
X143791779Y-115507200D01*
X143791779Y-115507200D02*
X143744160Y-115459580D01*
X144839398Y-115554819D02*
X145029874Y-115554819D01*
X145029874Y-115554819D02*
X145125112Y-115507200D01*
X145125112Y-115507200D02*
X145172731Y-115459580D01*
X145172731Y-115459580D02*
X145267969Y-115316723D01*
X145267969Y-115316723D02*
X145315588Y-115126247D01*
X145315588Y-115126247D02*
X145315588Y-114745295D01*
X145315588Y-114745295D02*
X145267969Y-114650057D01*
X145267969Y-114650057D02*
X145220350Y-114602438D01*
X145220350Y-114602438D02*
X145125112Y-114554819D01*
X145125112Y-114554819D02*
X144934636Y-114554819D01*
X144934636Y-114554819D02*
X144839398Y-114602438D01*
X144839398Y-114602438D02*
X144791779Y-114650057D01*
X144791779Y-114650057D02*
X144744160Y-114745295D01*
X144744160Y-114745295D02*
X144744160Y-114983390D01*
X144744160Y-114983390D02*
X144791779Y-115078628D01*
X144791779Y-115078628D02*
X144839398Y-115126247D01*
X144839398Y-115126247D02*
X144934636Y-115173866D01*
X144934636Y-115173866D02*
X145125112Y-115173866D01*
X145125112Y-115173866D02*
X145220350Y-115126247D01*
X145220350Y-115126247D02*
X145267969Y-115078628D01*
X145267969Y-115078628D02*
X145315588Y-114983390D01*
X122510826Y-108654819D02*
X122177493Y-108178628D01*
X121939398Y-108654819D02*
X121939398Y-107654819D01*
X121939398Y-107654819D02*
X122320350Y-107654819D01*
X122320350Y-107654819D02*
X122415588Y-107702438D01*
X122415588Y-107702438D02*
X122463207Y-107750057D01*
X122463207Y-107750057D02*
X122510826Y-107845295D01*
X122510826Y-107845295D02*
X122510826Y-107988152D01*
X122510826Y-107988152D02*
X122463207Y-108083390D01*
X122463207Y-108083390D02*
X122415588Y-108131009D01*
X122415588Y-108131009D02*
X122320350Y-108178628D01*
X122320350Y-108178628D02*
X121939398Y-108178628D01*
X122891779Y-107750057D02*
X122939398Y-107702438D01*
X122939398Y-107702438D02*
X123034636Y-107654819D01*
X123034636Y-107654819D02*
X123272731Y-107654819D01*
X123272731Y-107654819D02*
X123367969Y-107702438D01*
X123367969Y-107702438D02*
X123415588Y-107750057D01*
X123415588Y-107750057D02*
X123463207Y-107845295D01*
X123463207Y-107845295D02*
X123463207Y-107940533D01*
X123463207Y-107940533D02*
X123415588Y-108083390D01*
X123415588Y-108083390D02*
X122844160Y-108654819D01*
X122844160Y-108654819D02*
X123463207Y-108654819D01*
X124415588Y-108654819D02*
X123844160Y-108654819D01*
X124129874Y-108654819D02*
X124129874Y-107654819D01*
X124129874Y-107654819D02*
X124034636Y-107797676D01*
X124034636Y-107797676D02*
X123939398Y-107892914D01*
X123939398Y-107892914D02*
X123844160Y-107940533D01*
X127095589Y-154234819D02*
X127095589Y-153234819D01*
X127095589Y-153234819D02*
X127333684Y-153234819D01*
X127333684Y-153234819D02*
X127476541Y-153282438D01*
X127476541Y-153282438D02*
X127571779Y-153377676D01*
X127571779Y-153377676D02*
X127619398Y-153472914D01*
X127619398Y-153472914D02*
X127667017Y-153663390D01*
X127667017Y-153663390D02*
X127667017Y-153806247D01*
X127667017Y-153806247D02*
X127619398Y-153996723D01*
X127619398Y-153996723D02*
X127571779Y-154091961D01*
X127571779Y-154091961D02*
X127476541Y-154187200D01*
X127476541Y-154187200D02*
X127333684Y-154234819D01*
X127333684Y-154234819D02*
X127095589Y-154234819D01*
X128524160Y-153568152D02*
X128524160Y-154234819D01*
X128286065Y-153187200D02*
X128047970Y-153901485D01*
X128047970Y-153901485D02*
X128667017Y-153901485D01*
X83213921Y-148579726D02*
X83213921Y-147309726D01*
X84544398Y-148458773D02*
X84483922Y-148519250D01*
X84483922Y-148519250D02*
X84302493Y-148579726D01*
X84302493Y-148579726D02*
X84181541Y-148579726D01*
X84181541Y-148579726D02*
X84000112Y-148519250D01*
X84000112Y-148519250D02*
X83879160Y-148398297D01*
X83879160Y-148398297D02*
X83818683Y-148277345D01*
X83818683Y-148277345D02*
X83758207Y-148035440D01*
X83758207Y-148035440D02*
X83758207Y-147854011D01*
X83758207Y-147854011D02*
X83818683Y-147612107D01*
X83818683Y-147612107D02*
X83879160Y-147491154D01*
X83879160Y-147491154D02*
X84000112Y-147370202D01*
X84000112Y-147370202D02*
X84181541Y-147309726D01*
X84181541Y-147309726D02*
X84302493Y-147309726D01*
X84302493Y-147309726D02*
X84483922Y-147370202D01*
X84483922Y-147370202D02*
X84544398Y-147430678D01*
X85753922Y-148579726D02*
X85028207Y-148579726D01*
X85391064Y-148579726D02*
X85391064Y-147309726D01*
X85391064Y-147309726D02*
X85270112Y-147491154D01*
X85270112Y-147491154D02*
X85149160Y-147612107D01*
X85149160Y-147612107D02*
X85028207Y-147672583D01*
X135700826Y-143404819D02*
X135367493Y-142928628D01*
X135129398Y-143404819D02*
X135129398Y-142404819D01*
X135129398Y-142404819D02*
X135510350Y-142404819D01*
X135510350Y-142404819D02*
X135605588Y-142452438D01*
X135605588Y-142452438D02*
X135653207Y-142500057D01*
X135653207Y-142500057D02*
X135700826Y-142595295D01*
X135700826Y-142595295D02*
X135700826Y-142738152D01*
X135700826Y-142738152D02*
X135653207Y-142833390D01*
X135653207Y-142833390D02*
X135605588Y-142881009D01*
X135605588Y-142881009D02*
X135510350Y-142928628D01*
X135510350Y-142928628D02*
X135129398Y-142928628D01*
X136653207Y-143404819D02*
X136081779Y-143404819D01*
X136367493Y-143404819D02*
X136367493Y-142404819D01*
X136367493Y-142404819D02*
X136272255Y-142547676D01*
X136272255Y-142547676D02*
X136177017Y-142642914D01*
X136177017Y-142642914D02*
X136081779Y-142690533D01*
X137557969Y-142404819D02*
X137081779Y-142404819D01*
X137081779Y-142404819D02*
X137034160Y-142881009D01*
X137034160Y-142881009D02*
X137081779Y-142833390D01*
X137081779Y-142833390D02*
X137177017Y-142785771D01*
X137177017Y-142785771D02*
X137415112Y-142785771D01*
X137415112Y-142785771D02*
X137510350Y-142833390D01*
X137510350Y-142833390D02*
X137557969Y-142881009D01*
X137557969Y-142881009D02*
X137605588Y-142976247D01*
X137605588Y-142976247D02*
X137605588Y-143214342D01*
X137605588Y-143214342D02*
X137557969Y-143309580D01*
X137557969Y-143309580D02*
X137510350Y-143357200D01*
X137510350Y-143357200D02*
X137415112Y-143404819D01*
X137415112Y-143404819D02*
X137177017Y-143404819D01*
X137177017Y-143404819D02*
X137081779Y-143357200D01*
X137081779Y-143357200D02*
X137034160Y-143309580D01*
X97610826Y-123254819D02*
X97277493Y-122778628D01*
X97039398Y-123254819D02*
X97039398Y-122254819D01*
X97039398Y-122254819D02*
X97420350Y-122254819D01*
X97420350Y-122254819D02*
X97515588Y-122302438D01*
X97515588Y-122302438D02*
X97563207Y-122350057D01*
X97563207Y-122350057D02*
X97610826Y-122445295D01*
X97610826Y-122445295D02*
X97610826Y-122588152D01*
X97610826Y-122588152D02*
X97563207Y-122683390D01*
X97563207Y-122683390D02*
X97515588Y-122731009D01*
X97515588Y-122731009D02*
X97420350Y-122778628D01*
X97420350Y-122778628D02*
X97039398Y-122778628D01*
X97991779Y-122350057D02*
X98039398Y-122302438D01*
X98039398Y-122302438D02*
X98134636Y-122254819D01*
X98134636Y-122254819D02*
X98372731Y-122254819D01*
X98372731Y-122254819D02*
X98467969Y-122302438D01*
X98467969Y-122302438D02*
X98515588Y-122350057D01*
X98515588Y-122350057D02*
X98563207Y-122445295D01*
X98563207Y-122445295D02*
X98563207Y-122540533D01*
X98563207Y-122540533D02*
X98515588Y-122683390D01*
X98515588Y-122683390D02*
X97944160Y-123254819D01*
X97944160Y-123254819D02*
X98563207Y-123254819D01*
X99134636Y-122683390D02*
X99039398Y-122635771D01*
X99039398Y-122635771D02*
X98991779Y-122588152D01*
X98991779Y-122588152D02*
X98944160Y-122492914D01*
X98944160Y-122492914D02*
X98944160Y-122445295D01*
X98944160Y-122445295D02*
X98991779Y-122350057D01*
X98991779Y-122350057D02*
X99039398Y-122302438D01*
X99039398Y-122302438D02*
X99134636Y-122254819D01*
X99134636Y-122254819D02*
X99325112Y-122254819D01*
X99325112Y-122254819D02*
X99420350Y-122302438D01*
X99420350Y-122302438D02*
X99467969Y-122350057D01*
X99467969Y-122350057D02*
X99515588Y-122445295D01*
X99515588Y-122445295D02*
X99515588Y-122492914D01*
X99515588Y-122492914D02*
X99467969Y-122588152D01*
X99467969Y-122588152D02*
X99420350Y-122635771D01*
X99420350Y-122635771D02*
X99325112Y-122683390D01*
X99325112Y-122683390D02*
X99134636Y-122683390D01*
X99134636Y-122683390D02*
X99039398Y-122731009D01*
X99039398Y-122731009D02*
X98991779Y-122778628D01*
X98991779Y-122778628D02*
X98944160Y-122873866D01*
X98944160Y-122873866D02*
X98944160Y-123064342D01*
X98944160Y-123064342D02*
X98991779Y-123159580D01*
X98991779Y-123159580D02*
X99039398Y-123207200D01*
X99039398Y-123207200D02*
X99134636Y-123254819D01*
X99134636Y-123254819D02*
X99325112Y-123254819D01*
X99325112Y-123254819D02*
X99420350Y-123207200D01*
X99420350Y-123207200D02*
X99467969Y-123159580D01*
X99467969Y-123159580D02*
X99515588Y-123064342D01*
X99515588Y-123064342D02*
X99515588Y-122873866D01*
X99515588Y-122873866D02*
X99467969Y-122778628D01*
X99467969Y-122778628D02*
X99420350Y-122731009D01*
X99420350Y-122731009D02*
X99325112Y-122683390D01*
X81009819Y-137063220D02*
X81009819Y-136491792D01*
X82009819Y-136777506D02*
X81009819Y-136777506D01*
X82009819Y-136158458D02*
X81009819Y-136158458D01*
X81009819Y-136158458D02*
X81009819Y-135777506D01*
X81009819Y-135777506D02*
X81057438Y-135682268D01*
X81057438Y-135682268D02*
X81105057Y-135634649D01*
X81105057Y-135634649D02*
X81200295Y-135587030D01*
X81200295Y-135587030D02*
X81343152Y-135587030D01*
X81343152Y-135587030D02*
X81438390Y-135634649D01*
X81438390Y-135634649D02*
X81486009Y-135682268D01*
X81486009Y-135682268D02*
X81533628Y-135777506D01*
X81533628Y-135777506D02*
X81533628Y-136158458D01*
X81009819Y-135253696D02*
X81009819Y-134634649D01*
X81009819Y-134634649D02*
X81390771Y-134967982D01*
X81390771Y-134967982D02*
X81390771Y-134825125D01*
X81390771Y-134825125D02*
X81438390Y-134729887D01*
X81438390Y-134729887D02*
X81486009Y-134682268D01*
X81486009Y-134682268D02*
X81581247Y-134634649D01*
X81581247Y-134634649D02*
X81819342Y-134634649D01*
X81819342Y-134634649D02*
X81914580Y-134682268D01*
X81914580Y-134682268D02*
X81962200Y-134729887D01*
X81962200Y-134729887D02*
X82009819Y-134825125D01*
X82009819Y-134825125D02*
X82009819Y-135110839D01*
X82009819Y-135110839D02*
X81962200Y-135206077D01*
X81962200Y-135206077D02*
X81914580Y-135253696D01*
X80009819Y-127463220D02*
X80009819Y-126891792D01*
X81009819Y-127177506D02*
X80009819Y-127177506D01*
X81009819Y-126558458D02*
X80009819Y-126558458D01*
X80009819Y-126558458D02*
X80009819Y-126177506D01*
X80009819Y-126177506D02*
X80057438Y-126082268D01*
X80057438Y-126082268D02*
X80105057Y-126034649D01*
X80105057Y-126034649D02*
X80200295Y-125987030D01*
X80200295Y-125987030D02*
X80343152Y-125987030D01*
X80343152Y-125987030D02*
X80438390Y-126034649D01*
X80438390Y-126034649D02*
X80486009Y-126082268D01*
X80486009Y-126082268D02*
X80533628Y-126177506D01*
X80533628Y-126177506D02*
X80533628Y-126558458D01*
X80009819Y-125129887D02*
X80009819Y-125320363D01*
X80009819Y-125320363D02*
X80057438Y-125415601D01*
X80057438Y-125415601D02*
X80105057Y-125463220D01*
X80105057Y-125463220D02*
X80247914Y-125558458D01*
X80247914Y-125558458D02*
X80438390Y-125606077D01*
X80438390Y-125606077D02*
X80819342Y-125606077D01*
X80819342Y-125606077D02*
X80914580Y-125558458D01*
X80914580Y-125558458D02*
X80962200Y-125510839D01*
X80962200Y-125510839D02*
X81009819Y-125415601D01*
X81009819Y-125415601D02*
X81009819Y-125225125D01*
X81009819Y-125225125D02*
X80962200Y-125129887D01*
X80962200Y-125129887D02*
X80914580Y-125082268D01*
X80914580Y-125082268D02*
X80819342Y-125034649D01*
X80819342Y-125034649D02*
X80581247Y-125034649D01*
X80581247Y-125034649D02*
X80486009Y-125082268D01*
X80486009Y-125082268D02*
X80438390Y-125129887D01*
X80438390Y-125129887D02*
X80390771Y-125225125D01*
X80390771Y-125225125D02*
X80390771Y-125415601D01*
X80390771Y-125415601D02*
X80438390Y-125510839D01*
X80438390Y-125510839D02*
X80486009Y-125558458D01*
X80486009Y-125558458D02*
X80581247Y-125606077D01*
X135510826Y-130254819D02*
X135177493Y-129778628D01*
X134939398Y-130254819D02*
X134939398Y-129254819D01*
X134939398Y-129254819D02*
X135320350Y-129254819D01*
X135320350Y-129254819D02*
X135415588Y-129302438D01*
X135415588Y-129302438D02*
X135463207Y-129350057D01*
X135463207Y-129350057D02*
X135510826Y-129445295D01*
X135510826Y-129445295D02*
X135510826Y-129588152D01*
X135510826Y-129588152D02*
X135463207Y-129683390D01*
X135463207Y-129683390D02*
X135415588Y-129731009D01*
X135415588Y-129731009D02*
X135320350Y-129778628D01*
X135320350Y-129778628D02*
X134939398Y-129778628D01*
X135844160Y-129254819D02*
X136463207Y-129254819D01*
X136463207Y-129254819D02*
X136129874Y-129635771D01*
X136129874Y-129635771D02*
X136272731Y-129635771D01*
X136272731Y-129635771D02*
X136367969Y-129683390D01*
X136367969Y-129683390D02*
X136415588Y-129731009D01*
X136415588Y-129731009D02*
X136463207Y-129826247D01*
X136463207Y-129826247D02*
X136463207Y-130064342D01*
X136463207Y-130064342D02*
X136415588Y-130159580D01*
X136415588Y-130159580D02*
X136367969Y-130207200D01*
X136367969Y-130207200D02*
X136272731Y-130254819D01*
X136272731Y-130254819D02*
X135987017Y-130254819D01*
X135987017Y-130254819D02*
X135891779Y-130207200D01*
X135891779Y-130207200D02*
X135844160Y-130159580D01*
X137034636Y-129683390D02*
X136939398Y-129635771D01*
X136939398Y-129635771D02*
X136891779Y-129588152D01*
X136891779Y-129588152D02*
X136844160Y-129492914D01*
X136844160Y-129492914D02*
X136844160Y-129445295D01*
X136844160Y-129445295D02*
X136891779Y-129350057D01*
X136891779Y-129350057D02*
X136939398Y-129302438D01*
X136939398Y-129302438D02*
X137034636Y-129254819D01*
X137034636Y-129254819D02*
X137225112Y-129254819D01*
X137225112Y-129254819D02*
X137320350Y-129302438D01*
X137320350Y-129302438D02*
X137367969Y-129350057D01*
X137367969Y-129350057D02*
X137415588Y-129445295D01*
X137415588Y-129445295D02*
X137415588Y-129492914D01*
X137415588Y-129492914D02*
X137367969Y-129588152D01*
X137367969Y-129588152D02*
X137320350Y-129635771D01*
X137320350Y-129635771D02*
X137225112Y-129683390D01*
X137225112Y-129683390D02*
X137034636Y-129683390D01*
X137034636Y-129683390D02*
X136939398Y-129731009D01*
X136939398Y-129731009D02*
X136891779Y-129778628D01*
X136891779Y-129778628D02*
X136844160Y-129873866D01*
X136844160Y-129873866D02*
X136844160Y-130064342D01*
X136844160Y-130064342D02*
X136891779Y-130159580D01*
X136891779Y-130159580D02*
X136939398Y-130207200D01*
X136939398Y-130207200D02*
X137034636Y-130254819D01*
X137034636Y-130254819D02*
X137225112Y-130254819D01*
X137225112Y-130254819D02*
X137320350Y-130207200D01*
X137320350Y-130207200D02*
X137367969Y-130159580D01*
X137367969Y-130159580D02*
X137415588Y-130064342D01*
X137415588Y-130064342D02*
X137415588Y-129873866D01*
X137415588Y-129873866D02*
X137367969Y-129778628D01*
X137367969Y-129778628D02*
X137320350Y-129731009D01*
X137320350Y-129731009D02*
X137225112Y-129683390D01*
X126645589Y-139834819D02*
X126645589Y-138834819D01*
X126645589Y-138834819D02*
X126883684Y-138834819D01*
X126883684Y-138834819D02*
X127026541Y-138882438D01*
X127026541Y-138882438D02*
X127121779Y-138977676D01*
X127121779Y-138977676D02*
X127169398Y-139072914D01*
X127169398Y-139072914D02*
X127217017Y-139263390D01*
X127217017Y-139263390D02*
X127217017Y-139406247D01*
X127217017Y-139406247D02*
X127169398Y-139596723D01*
X127169398Y-139596723D02*
X127121779Y-139691961D01*
X127121779Y-139691961D02*
X127026541Y-139787200D01*
X127026541Y-139787200D02*
X126883684Y-139834819D01*
X126883684Y-139834819D02*
X126645589Y-139834819D01*
X127550351Y-138834819D02*
X128217017Y-138834819D01*
X128217017Y-138834819D02*
X127788446Y-139834819D01*
X135650826Y-141504819D02*
X135317493Y-141028628D01*
X135079398Y-141504819D02*
X135079398Y-140504819D01*
X135079398Y-140504819D02*
X135460350Y-140504819D01*
X135460350Y-140504819D02*
X135555588Y-140552438D01*
X135555588Y-140552438D02*
X135603207Y-140600057D01*
X135603207Y-140600057D02*
X135650826Y-140695295D01*
X135650826Y-140695295D02*
X135650826Y-140838152D01*
X135650826Y-140838152D02*
X135603207Y-140933390D01*
X135603207Y-140933390D02*
X135555588Y-140981009D01*
X135555588Y-140981009D02*
X135460350Y-141028628D01*
X135460350Y-141028628D02*
X135079398Y-141028628D01*
X135984160Y-140504819D02*
X136603207Y-140504819D01*
X136603207Y-140504819D02*
X136269874Y-140885771D01*
X136269874Y-140885771D02*
X136412731Y-140885771D01*
X136412731Y-140885771D02*
X136507969Y-140933390D01*
X136507969Y-140933390D02*
X136555588Y-140981009D01*
X136555588Y-140981009D02*
X136603207Y-141076247D01*
X136603207Y-141076247D02*
X136603207Y-141314342D01*
X136603207Y-141314342D02*
X136555588Y-141409580D01*
X136555588Y-141409580D02*
X136507969Y-141457200D01*
X136507969Y-141457200D02*
X136412731Y-141504819D01*
X136412731Y-141504819D02*
X136127017Y-141504819D01*
X136127017Y-141504819D02*
X136031779Y-141457200D01*
X136031779Y-141457200D02*
X135984160Y-141409580D01*
X136936541Y-140504819D02*
X137555588Y-140504819D01*
X137555588Y-140504819D02*
X137222255Y-140885771D01*
X137222255Y-140885771D02*
X137365112Y-140885771D01*
X137365112Y-140885771D02*
X137460350Y-140933390D01*
X137460350Y-140933390D02*
X137507969Y-140981009D01*
X137507969Y-140981009D02*
X137555588Y-141076247D01*
X137555588Y-141076247D02*
X137555588Y-141314342D01*
X137555588Y-141314342D02*
X137507969Y-141409580D01*
X137507969Y-141409580D02*
X137460350Y-141457200D01*
X137460350Y-141457200D02*
X137365112Y-141504819D01*
X137365112Y-141504819D02*
X137079398Y-141504819D01*
X137079398Y-141504819D02*
X136984160Y-141457200D01*
X136984160Y-141457200D02*
X136936541Y-141409580D01*
X122120826Y-120624819D02*
X121787493Y-120148628D01*
X121549398Y-120624819D02*
X121549398Y-119624819D01*
X121549398Y-119624819D02*
X121930350Y-119624819D01*
X121930350Y-119624819D02*
X122025588Y-119672438D01*
X122025588Y-119672438D02*
X122073207Y-119720057D01*
X122073207Y-119720057D02*
X122120826Y-119815295D01*
X122120826Y-119815295D02*
X122120826Y-119958152D01*
X122120826Y-119958152D02*
X122073207Y-120053390D01*
X122073207Y-120053390D02*
X122025588Y-120101009D01*
X122025588Y-120101009D02*
X121930350Y-120148628D01*
X121930350Y-120148628D02*
X121549398Y-120148628D01*
X122501779Y-119720057D02*
X122549398Y-119672438D01*
X122549398Y-119672438D02*
X122644636Y-119624819D01*
X122644636Y-119624819D02*
X122882731Y-119624819D01*
X122882731Y-119624819D02*
X122977969Y-119672438D01*
X122977969Y-119672438D02*
X123025588Y-119720057D01*
X123025588Y-119720057D02*
X123073207Y-119815295D01*
X123073207Y-119815295D02*
X123073207Y-119910533D01*
X123073207Y-119910533D02*
X123025588Y-120053390D01*
X123025588Y-120053390D02*
X122454160Y-120624819D01*
X122454160Y-120624819D02*
X123073207Y-120624819D01*
X123930350Y-119624819D02*
X123739874Y-119624819D01*
X123739874Y-119624819D02*
X123644636Y-119672438D01*
X123644636Y-119672438D02*
X123597017Y-119720057D01*
X123597017Y-119720057D02*
X123501779Y-119862914D01*
X123501779Y-119862914D02*
X123454160Y-120053390D01*
X123454160Y-120053390D02*
X123454160Y-120434342D01*
X123454160Y-120434342D02*
X123501779Y-120529580D01*
X123501779Y-120529580D02*
X123549398Y-120577200D01*
X123549398Y-120577200D02*
X123644636Y-120624819D01*
X123644636Y-120624819D02*
X123835112Y-120624819D01*
X123835112Y-120624819D02*
X123930350Y-120577200D01*
X123930350Y-120577200D02*
X123977969Y-120529580D01*
X123977969Y-120529580D02*
X124025588Y-120434342D01*
X124025588Y-120434342D02*
X124025588Y-120196247D01*
X124025588Y-120196247D02*
X123977969Y-120101009D01*
X123977969Y-120101009D02*
X123930350Y-120053390D01*
X123930350Y-120053390D02*
X123835112Y-120005771D01*
X123835112Y-120005771D02*
X123644636Y-120005771D01*
X123644636Y-120005771D02*
X123549398Y-120053390D01*
X123549398Y-120053390D02*
X123501779Y-120101009D01*
X123501779Y-120101009D02*
X123454160Y-120196247D01*
X116510826Y-108454819D02*
X116177493Y-107978628D01*
X115939398Y-108454819D02*
X115939398Y-107454819D01*
X115939398Y-107454819D02*
X116320350Y-107454819D01*
X116320350Y-107454819D02*
X116415588Y-107502438D01*
X116415588Y-107502438D02*
X116463207Y-107550057D01*
X116463207Y-107550057D02*
X116510826Y-107645295D01*
X116510826Y-107645295D02*
X116510826Y-107788152D01*
X116510826Y-107788152D02*
X116463207Y-107883390D01*
X116463207Y-107883390D02*
X116415588Y-107931009D01*
X116415588Y-107931009D02*
X116320350Y-107978628D01*
X116320350Y-107978628D02*
X115939398Y-107978628D01*
X117367969Y-107788152D02*
X117367969Y-108454819D01*
X117129874Y-107407200D02*
X116891779Y-108121485D01*
X116891779Y-108121485D02*
X117510826Y-108121485D01*
X118320350Y-107454819D02*
X118129874Y-107454819D01*
X118129874Y-107454819D02*
X118034636Y-107502438D01*
X118034636Y-107502438D02*
X117987017Y-107550057D01*
X117987017Y-107550057D02*
X117891779Y-107692914D01*
X117891779Y-107692914D02*
X117844160Y-107883390D01*
X117844160Y-107883390D02*
X117844160Y-108264342D01*
X117844160Y-108264342D02*
X117891779Y-108359580D01*
X117891779Y-108359580D02*
X117939398Y-108407200D01*
X117939398Y-108407200D02*
X118034636Y-108454819D01*
X118034636Y-108454819D02*
X118225112Y-108454819D01*
X118225112Y-108454819D02*
X118320350Y-108407200D01*
X118320350Y-108407200D02*
X118367969Y-108359580D01*
X118367969Y-108359580D02*
X118415588Y-108264342D01*
X118415588Y-108264342D02*
X118415588Y-108026247D01*
X118415588Y-108026247D02*
X118367969Y-107931009D01*
X118367969Y-107931009D02*
X118320350Y-107883390D01*
X118320350Y-107883390D02*
X118225112Y-107835771D01*
X118225112Y-107835771D02*
X118034636Y-107835771D01*
X118034636Y-107835771D02*
X117939398Y-107883390D01*
X117939398Y-107883390D02*
X117891779Y-107931009D01*
X117891779Y-107931009D02*
X117844160Y-108026247D01*
X107009819Y-112544173D02*
X106533628Y-112877506D01*
X107009819Y-113115601D02*
X106009819Y-113115601D01*
X106009819Y-113115601D02*
X106009819Y-112734649D01*
X106009819Y-112734649D02*
X106057438Y-112639411D01*
X106057438Y-112639411D02*
X106105057Y-112591792D01*
X106105057Y-112591792D02*
X106200295Y-112544173D01*
X106200295Y-112544173D02*
X106343152Y-112544173D01*
X106343152Y-112544173D02*
X106438390Y-112591792D01*
X106438390Y-112591792D02*
X106486009Y-112639411D01*
X106486009Y-112639411D02*
X106533628Y-112734649D01*
X106533628Y-112734649D02*
X106533628Y-113115601D01*
X106009819Y-112210839D02*
X106009819Y-111591792D01*
X106009819Y-111591792D02*
X106390771Y-111925125D01*
X106390771Y-111925125D02*
X106390771Y-111782268D01*
X106390771Y-111782268D02*
X106438390Y-111687030D01*
X106438390Y-111687030D02*
X106486009Y-111639411D01*
X106486009Y-111639411D02*
X106581247Y-111591792D01*
X106581247Y-111591792D02*
X106819342Y-111591792D01*
X106819342Y-111591792D02*
X106914580Y-111639411D01*
X106914580Y-111639411D02*
X106962200Y-111687030D01*
X106962200Y-111687030D02*
X107009819Y-111782268D01*
X107009819Y-111782268D02*
X107009819Y-112067982D01*
X107009819Y-112067982D02*
X106962200Y-112163220D01*
X106962200Y-112163220D02*
X106914580Y-112210839D01*
X106009819Y-110972744D02*
X106009819Y-110877506D01*
X106009819Y-110877506D02*
X106057438Y-110782268D01*
X106057438Y-110782268D02*
X106105057Y-110734649D01*
X106105057Y-110734649D02*
X106200295Y-110687030D01*
X106200295Y-110687030D02*
X106390771Y-110639411D01*
X106390771Y-110639411D02*
X106628866Y-110639411D01*
X106628866Y-110639411D02*
X106819342Y-110687030D01*
X106819342Y-110687030D02*
X106914580Y-110734649D01*
X106914580Y-110734649D02*
X106962200Y-110782268D01*
X106962200Y-110782268D02*
X107009819Y-110877506D01*
X107009819Y-110877506D02*
X107009819Y-110972744D01*
X107009819Y-110972744D02*
X106962200Y-111067982D01*
X106962200Y-111067982D02*
X106914580Y-111115601D01*
X106914580Y-111115601D02*
X106819342Y-111163220D01*
X106819342Y-111163220D02*
X106628866Y-111210839D01*
X106628866Y-111210839D02*
X106390771Y-111210839D01*
X106390771Y-111210839D02*
X106200295Y-111163220D01*
X106200295Y-111163220D02*
X106105057Y-111115601D01*
X106105057Y-111115601D02*
X106057438Y-111067982D01*
X106057438Y-111067982D02*
X106009819Y-110972744D01*
X93609819Y-119739410D02*
X92609819Y-119739410D01*
X92609819Y-119739410D02*
X92609819Y-119501315D01*
X92609819Y-119501315D02*
X92657438Y-119358458D01*
X92657438Y-119358458D02*
X92752676Y-119263220D01*
X92752676Y-119263220D02*
X92847914Y-119215601D01*
X92847914Y-119215601D02*
X93038390Y-119167982D01*
X93038390Y-119167982D02*
X93181247Y-119167982D01*
X93181247Y-119167982D02*
X93371723Y-119215601D01*
X93371723Y-119215601D02*
X93466961Y-119263220D01*
X93466961Y-119263220D02*
X93562200Y-119358458D01*
X93562200Y-119358458D02*
X93609819Y-119501315D01*
X93609819Y-119501315D02*
X93609819Y-119739410D01*
X92609819Y-118834648D02*
X92609819Y-118215601D01*
X92609819Y-118215601D02*
X92990771Y-118548934D01*
X92990771Y-118548934D02*
X92990771Y-118406077D01*
X92990771Y-118406077D02*
X93038390Y-118310839D01*
X93038390Y-118310839D02*
X93086009Y-118263220D01*
X93086009Y-118263220D02*
X93181247Y-118215601D01*
X93181247Y-118215601D02*
X93419342Y-118215601D01*
X93419342Y-118215601D02*
X93514580Y-118263220D01*
X93514580Y-118263220D02*
X93562200Y-118310839D01*
X93562200Y-118310839D02*
X93609819Y-118406077D01*
X93609819Y-118406077D02*
X93609819Y-118691791D01*
X93609819Y-118691791D02*
X93562200Y-118787029D01*
X93562200Y-118787029D02*
X93514580Y-118834648D01*
X127095589Y-147034819D02*
X127095589Y-146034819D01*
X127095589Y-146034819D02*
X127333684Y-146034819D01*
X127333684Y-146034819D02*
X127476541Y-146082438D01*
X127476541Y-146082438D02*
X127571779Y-146177676D01*
X127571779Y-146177676D02*
X127619398Y-146272914D01*
X127619398Y-146272914D02*
X127667017Y-146463390D01*
X127667017Y-146463390D02*
X127667017Y-146606247D01*
X127667017Y-146606247D02*
X127619398Y-146796723D01*
X127619398Y-146796723D02*
X127571779Y-146891961D01*
X127571779Y-146891961D02*
X127476541Y-146987200D01*
X127476541Y-146987200D02*
X127333684Y-147034819D01*
X127333684Y-147034819D02*
X127095589Y-147034819D01*
X128143208Y-147034819D02*
X128333684Y-147034819D01*
X128333684Y-147034819D02*
X128428922Y-146987200D01*
X128428922Y-146987200D02*
X128476541Y-146939580D01*
X128476541Y-146939580D02*
X128571779Y-146796723D01*
X128571779Y-146796723D02*
X128619398Y-146606247D01*
X128619398Y-146606247D02*
X128619398Y-146225295D01*
X128619398Y-146225295D02*
X128571779Y-146130057D01*
X128571779Y-146130057D02*
X128524160Y-146082438D01*
X128524160Y-146082438D02*
X128428922Y-146034819D01*
X128428922Y-146034819D02*
X128238446Y-146034819D01*
X128238446Y-146034819D02*
X128143208Y-146082438D01*
X128143208Y-146082438D02*
X128095589Y-146130057D01*
X128095589Y-146130057D02*
X128047970Y-146225295D01*
X128047970Y-146225295D02*
X128047970Y-146463390D01*
X128047970Y-146463390D02*
X128095589Y-146558628D01*
X128095589Y-146558628D02*
X128143208Y-146606247D01*
X128143208Y-146606247D02*
X128238446Y-146653866D01*
X128238446Y-146653866D02*
X128428922Y-146653866D01*
X128428922Y-146653866D02*
X128524160Y-146606247D01*
X128524160Y-146606247D02*
X128571779Y-146558628D01*
X128571779Y-146558628D02*
X128619398Y-146463390D01*
X84789580Y-119232982D02*
X84837200Y-119280601D01*
X84837200Y-119280601D02*
X84884819Y-119423458D01*
X84884819Y-119423458D02*
X84884819Y-119518696D01*
X84884819Y-119518696D02*
X84837200Y-119661553D01*
X84837200Y-119661553D02*
X84741961Y-119756791D01*
X84741961Y-119756791D02*
X84646723Y-119804410D01*
X84646723Y-119804410D02*
X84456247Y-119852029D01*
X84456247Y-119852029D02*
X84313390Y-119852029D01*
X84313390Y-119852029D02*
X84122914Y-119804410D01*
X84122914Y-119804410D02*
X84027676Y-119756791D01*
X84027676Y-119756791D02*
X83932438Y-119661553D01*
X83932438Y-119661553D02*
X83884819Y-119518696D01*
X83884819Y-119518696D02*
X83884819Y-119423458D01*
X83884819Y-119423458D02*
X83932438Y-119280601D01*
X83932438Y-119280601D02*
X83980057Y-119232982D01*
X84884819Y-118280601D02*
X84884819Y-118852029D01*
X84884819Y-118566315D02*
X83884819Y-118566315D01*
X83884819Y-118566315D02*
X84027676Y-118661553D01*
X84027676Y-118661553D02*
X84122914Y-118756791D01*
X84122914Y-118756791D02*
X84170533Y-118852029D01*
X103209819Y-115844173D02*
X102733628Y-116177506D01*
X103209819Y-116415601D02*
X102209819Y-116415601D01*
X102209819Y-116415601D02*
X102209819Y-116034649D01*
X102209819Y-116034649D02*
X102257438Y-115939411D01*
X102257438Y-115939411D02*
X102305057Y-115891792D01*
X102305057Y-115891792D02*
X102400295Y-115844173D01*
X102400295Y-115844173D02*
X102543152Y-115844173D01*
X102543152Y-115844173D02*
X102638390Y-115891792D01*
X102638390Y-115891792D02*
X102686009Y-115939411D01*
X102686009Y-115939411D02*
X102733628Y-116034649D01*
X102733628Y-116034649D02*
X102733628Y-116415601D01*
X102305057Y-115463220D02*
X102257438Y-115415601D01*
X102257438Y-115415601D02*
X102209819Y-115320363D01*
X102209819Y-115320363D02*
X102209819Y-115082268D01*
X102209819Y-115082268D02*
X102257438Y-114987030D01*
X102257438Y-114987030D02*
X102305057Y-114939411D01*
X102305057Y-114939411D02*
X102400295Y-114891792D01*
X102400295Y-114891792D02*
X102495533Y-114891792D01*
X102495533Y-114891792D02*
X102638390Y-114939411D01*
X102638390Y-114939411D02*
X103209819Y-115510839D01*
X103209819Y-115510839D02*
X103209819Y-114891792D01*
X103209819Y-114415601D02*
X103209819Y-114225125D01*
X103209819Y-114225125D02*
X103162200Y-114129887D01*
X103162200Y-114129887D02*
X103114580Y-114082268D01*
X103114580Y-114082268D02*
X102971723Y-113987030D01*
X102971723Y-113987030D02*
X102781247Y-113939411D01*
X102781247Y-113939411D02*
X102400295Y-113939411D01*
X102400295Y-113939411D02*
X102305057Y-113987030D01*
X102305057Y-113987030D02*
X102257438Y-114034649D01*
X102257438Y-114034649D02*
X102209819Y-114129887D01*
X102209819Y-114129887D02*
X102209819Y-114320363D01*
X102209819Y-114320363D02*
X102257438Y-114415601D01*
X102257438Y-114415601D02*
X102305057Y-114463220D01*
X102305057Y-114463220D02*
X102400295Y-114510839D01*
X102400295Y-114510839D02*
X102638390Y-114510839D01*
X102638390Y-114510839D02*
X102733628Y-114463220D01*
X102733628Y-114463220D02*
X102781247Y-114415601D01*
X102781247Y-114415601D02*
X102828866Y-114320363D01*
X102828866Y-114320363D02*
X102828866Y-114129887D01*
X102828866Y-114129887D02*
X102781247Y-114034649D01*
X102781247Y-114034649D02*
X102733628Y-113987030D01*
X102733628Y-113987030D02*
X102638390Y-113939411D01*
X126995589Y-149434819D02*
X126995589Y-148434819D01*
X126995589Y-148434819D02*
X127233684Y-148434819D01*
X127233684Y-148434819D02*
X127376541Y-148482438D01*
X127376541Y-148482438D02*
X127471779Y-148577676D01*
X127471779Y-148577676D02*
X127519398Y-148672914D01*
X127519398Y-148672914D02*
X127567017Y-148863390D01*
X127567017Y-148863390D02*
X127567017Y-149006247D01*
X127567017Y-149006247D02*
X127519398Y-149196723D01*
X127519398Y-149196723D02*
X127471779Y-149291961D01*
X127471779Y-149291961D02*
X127376541Y-149387200D01*
X127376541Y-149387200D02*
X127233684Y-149434819D01*
X127233684Y-149434819D02*
X126995589Y-149434819D01*
X128471779Y-148434819D02*
X127995589Y-148434819D01*
X127995589Y-148434819D02*
X127947970Y-148911009D01*
X127947970Y-148911009D02*
X127995589Y-148863390D01*
X127995589Y-148863390D02*
X128090827Y-148815771D01*
X128090827Y-148815771D02*
X128328922Y-148815771D01*
X128328922Y-148815771D02*
X128424160Y-148863390D01*
X128424160Y-148863390D02*
X128471779Y-148911009D01*
X128471779Y-148911009D02*
X128519398Y-149006247D01*
X128519398Y-149006247D02*
X128519398Y-149244342D01*
X128519398Y-149244342D02*
X128471779Y-149339580D01*
X128471779Y-149339580D02*
X128424160Y-149387200D01*
X128424160Y-149387200D02*
X128328922Y-149434819D01*
X128328922Y-149434819D02*
X128090827Y-149434819D01*
X128090827Y-149434819D02*
X127995589Y-149387200D01*
X127995589Y-149387200D02*
X127947970Y-149339580D01*
X76987017Y-114644580D02*
X76939398Y-114692200D01*
X76939398Y-114692200D02*
X76796541Y-114739819D01*
X76796541Y-114739819D02*
X76701303Y-114739819D01*
X76701303Y-114739819D02*
X76558446Y-114692200D01*
X76558446Y-114692200D02*
X76463208Y-114596961D01*
X76463208Y-114596961D02*
X76415589Y-114501723D01*
X76415589Y-114501723D02*
X76367970Y-114311247D01*
X76367970Y-114311247D02*
X76367970Y-114168390D01*
X76367970Y-114168390D02*
X76415589Y-113977914D01*
X76415589Y-113977914D02*
X76463208Y-113882676D01*
X76463208Y-113882676D02*
X76558446Y-113787438D01*
X76558446Y-113787438D02*
X76701303Y-113739819D01*
X76701303Y-113739819D02*
X76796541Y-113739819D01*
X76796541Y-113739819D02*
X76939398Y-113787438D01*
X76939398Y-113787438D02*
X76987017Y-113835057D01*
X77367970Y-113835057D02*
X77415589Y-113787438D01*
X77415589Y-113787438D02*
X77510827Y-113739819D01*
X77510827Y-113739819D02*
X77748922Y-113739819D01*
X77748922Y-113739819D02*
X77844160Y-113787438D01*
X77844160Y-113787438D02*
X77891779Y-113835057D01*
X77891779Y-113835057D02*
X77939398Y-113930295D01*
X77939398Y-113930295D02*
X77939398Y-114025533D01*
X77939398Y-114025533D02*
X77891779Y-114168390D01*
X77891779Y-114168390D02*
X77320351Y-114739819D01*
X77320351Y-114739819D02*
X77939398Y-114739819D01*
X123209819Y-122267982D02*
X122733628Y-122601315D01*
X123209819Y-122839410D02*
X122209819Y-122839410D01*
X122209819Y-122839410D02*
X122209819Y-122458458D01*
X122209819Y-122458458D02*
X122257438Y-122363220D01*
X122257438Y-122363220D02*
X122305057Y-122315601D01*
X122305057Y-122315601D02*
X122400295Y-122267982D01*
X122400295Y-122267982D02*
X122543152Y-122267982D01*
X122543152Y-122267982D02*
X122638390Y-122315601D01*
X122638390Y-122315601D02*
X122686009Y-122363220D01*
X122686009Y-122363220D02*
X122733628Y-122458458D01*
X122733628Y-122458458D02*
X122733628Y-122839410D01*
X122209819Y-121934648D02*
X122209819Y-121315601D01*
X122209819Y-121315601D02*
X122590771Y-121648934D01*
X122590771Y-121648934D02*
X122590771Y-121506077D01*
X122590771Y-121506077D02*
X122638390Y-121410839D01*
X122638390Y-121410839D02*
X122686009Y-121363220D01*
X122686009Y-121363220D02*
X122781247Y-121315601D01*
X122781247Y-121315601D02*
X123019342Y-121315601D01*
X123019342Y-121315601D02*
X123114580Y-121363220D01*
X123114580Y-121363220D02*
X123162200Y-121410839D01*
X123162200Y-121410839D02*
X123209819Y-121506077D01*
X123209819Y-121506077D02*
X123209819Y-121791791D01*
X123209819Y-121791791D02*
X123162200Y-121887029D01*
X123162200Y-121887029D02*
X123114580Y-121934648D01*
X146224380Y-125292282D02*
X146224380Y-126009076D01*
X146224380Y-126009076D02*
X146176593Y-126152435D01*
X146176593Y-126152435D02*
X146081021Y-126248008D01*
X146081021Y-126248008D02*
X145937662Y-126295794D01*
X145937662Y-126295794D02*
X145842089Y-126295794D01*
X146606670Y-125292282D02*
X147227892Y-125292282D01*
X147227892Y-125292282D02*
X146893388Y-125674572D01*
X146893388Y-125674572D02*
X147036747Y-125674572D01*
X147036747Y-125674572D02*
X147132320Y-125722358D01*
X147132320Y-125722358D02*
X147180106Y-125770145D01*
X147180106Y-125770145D02*
X147227892Y-125865717D01*
X147227892Y-125865717D02*
X147227892Y-126104649D01*
X147227892Y-126104649D02*
X147180106Y-126200221D01*
X147180106Y-126200221D02*
X147132320Y-126248008D01*
X147132320Y-126248008D02*
X147036747Y-126295794D01*
X147036747Y-126295794D02*
X146750029Y-126295794D01*
X146750029Y-126295794D02*
X146654457Y-126248008D01*
X146654457Y-126248008D02*
X146606670Y-126200221D01*
X78641779Y-138754819D02*
X79213207Y-138754819D01*
X78927493Y-139754819D02*
X78927493Y-138754819D01*
X79546541Y-139754819D02*
X79546541Y-138754819D01*
X79546541Y-138754819D02*
X79927493Y-138754819D01*
X79927493Y-138754819D02*
X80022731Y-138802438D01*
X80022731Y-138802438D02*
X80070350Y-138850057D01*
X80070350Y-138850057D02*
X80117969Y-138945295D01*
X80117969Y-138945295D02*
X80117969Y-139088152D01*
X80117969Y-139088152D02*
X80070350Y-139183390D01*
X80070350Y-139183390D02*
X80022731Y-139231009D01*
X80022731Y-139231009D02*
X79927493Y-139278628D01*
X79927493Y-139278628D02*
X79546541Y-139278628D01*
X81022731Y-138754819D02*
X80546541Y-138754819D01*
X80546541Y-138754819D02*
X80498922Y-139231009D01*
X80498922Y-139231009D02*
X80546541Y-139183390D01*
X80546541Y-139183390D02*
X80641779Y-139135771D01*
X80641779Y-139135771D02*
X80879874Y-139135771D01*
X80879874Y-139135771D02*
X80975112Y-139183390D01*
X80975112Y-139183390D02*
X81022731Y-139231009D01*
X81022731Y-139231009D02*
X81070350Y-139326247D01*
X81070350Y-139326247D02*
X81070350Y-139564342D01*
X81070350Y-139564342D02*
X81022731Y-139659580D01*
X81022731Y-139659580D02*
X80975112Y-139707200D01*
X80975112Y-139707200D02*
X80879874Y-139754819D01*
X80879874Y-139754819D02*
X80641779Y-139754819D01*
X80641779Y-139754819D02*
X80546541Y-139707200D01*
X80546541Y-139707200D02*
X80498922Y-139659580D01*
X95115545Y-147705518D02*
X95067926Y-147753138D01*
X95067926Y-147753138D02*
X94925069Y-147800757D01*
X94925069Y-147800757D02*
X94829831Y-147800757D01*
X94829831Y-147800757D02*
X94686974Y-147753138D01*
X94686974Y-147753138D02*
X94591736Y-147657899D01*
X94591736Y-147657899D02*
X94544117Y-147562661D01*
X94544117Y-147562661D02*
X94496498Y-147372185D01*
X94496498Y-147372185D02*
X94496498Y-147229328D01*
X94496498Y-147229328D02*
X94544117Y-147038852D01*
X94544117Y-147038852D02*
X94591736Y-146943614D01*
X94591736Y-146943614D02*
X94686974Y-146848376D01*
X94686974Y-146848376D02*
X94829831Y-146800757D01*
X94829831Y-146800757D02*
X94925069Y-146800757D01*
X94925069Y-146800757D02*
X95067926Y-146848376D01*
X95067926Y-146848376D02*
X95115545Y-146895995D01*
X96067926Y-147800757D02*
X95496498Y-147800757D01*
X95782212Y-147800757D02*
X95782212Y-146800757D01*
X95782212Y-146800757D02*
X95686974Y-146943614D01*
X95686974Y-146943614D02*
X95591736Y-147038852D01*
X95591736Y-147038852D02*
X95496498Y-147086471D01*
X96401260Y-146800757D02*
X97067926Y-146800757D01*
X97067926Y-146800757D02*
X96639355Y-147800757D01*
X128310826Y-121674819D02*
X127977493Y-121198628D01*
X127739398Y-121674819D02*
X127739398Y-120674819D01*
X127739398Y-120674819D02*
X128120350Y-120674819D01*
X128120350Y-120674819D02*
X128215588Y-120722438D01*
X128215588Y-120722438D02*
X128263207Y-120770057D01*
X128263207Y-120770057D02*
X128310826Y-120865295D01*
X128310826Y-120865295D02*
X128310826Y-121008152D01*
X128310826Y-121008152D02*
X128263207Y-121103390D01*
X128263207Y-121103390D02*
X128215588Y-121151009D01*
X128215588Y-121151009D02*
X128120350Y-121198628D01*
X128120350Y-121198628D02*
X127739398Y-121198628D01*
X128691779Y-120770057D02*
X128739398Y-120722438D01*
X128739398Y-120722438D02*
X128834636Y-120674819D01*
X128834636Y-120674819D02*
X129072731Y-120674819D01*
X129072731Y-120674819D02*
X129167969Y-120722438D01*
X129167969Y-120722438D02*
X129215588Y-120770057D01*
X129215588Y-120770057D02*
X129263207Y-120865295D01*
X129263207Y-120865295D02*
X129263207Y-120960533D01*
X129263207Y-120960533D02*
X129215588Y-121103390D01*
X129215588Y-121103390D02*
X128644160Y-121674819D01*
X128644160Y-121674819D02*
X129263207Y-121674819D01*
X129882255Y-120674819D02*
X129977493Y-120674819D01*
X129977493Y-120674819D02*
X130072731Y-120722438D01*
X130072731Y-120722438D02*
X130120350Y-120770057D01*
X130120350Y-120770057D02*
X130167969Y-120865295D01*
X130167969Y-120865295D02*
X130215588Y-121055771D01*
X130215588Y-121055771D02*
X130215588Y-121293866D01*
X130215588Y-121293866D02*
X130167969Y-121484342D01*
X130167969Y-121484342D02*
X130120350Y-121579580D01*
X130120350Y-121579580D02*
X130072731Y-121627200D01*
X130072731Y-121627200D02*
X129977493Y-121674819D01*
X129977493Y-121674819D02*
X129882255Y-121674819D01*
X129882255Y-121674819D02*
X129787017Y-121627200D01*
X129787017Y-121627200D02*
X129739398Y-121579580D01*
X129739398Y-121579580D02*
X129691779Y-121484342D01*
X129691779Y-121484342D02*
X129644160Y-121293866D01*
X129644160Y-121293866D02*
X129644160Y-121055771D01*
X129644160Y-121055771D02*
X129691779Y-120865295D01*
X129691779Y-120865295D02*
X129739398Y-120770057D01*
X129739398Y-120770057D02*
X129787017Y-120722438D01*
X129787017Y-120722438D02*
X129882255Y-120674819D01*
X80029580Y-155396554D02*
X80077200Y-155444173D01*
X80077200Y-155444173D02*
X80124819Y-155587030D01*
X80124819Y-155587030D02*
X80124819Y-155682268D01*
X80124819Y-155682268D02*
X80077200Y-155825125D01*
X80077200Y-155825125D02*
X79981961Y-155920363D01*
X79981961Y-155920363D02*
X79886723Y-155967982D01*
X79886723Y-155967982D02*
X79696247Y-156015601D01*
X79696247Y-156015601D02*
X79553390Y-156015601D01*
X79553390Y-156015601D02*
X79362914Y-155967982D01*
X79362914Y-155967982D02*
X79267676Y-155920363D01*
X79267676Y-155920363D02*
X79172438Y-155825125D01*
X79172438Y-155825125D02*
X79124819Y-155682268D01*
X79124819Y-155682268D02*
X79124819Y-155587030D01*
X79124819Y-155587030D02*
X79172438Y-155444173D01*
X79172438Y-155444173D02*
X79220057Y-155396554D01*
X79220057Y-155015601D02*
X79172438Y-154967982D01*
X79172438Y-154967982D02*
X79124819Y-154872744D01*
X79124819Y-154872744D02*
X79124819Y-154634649D01*
X79124819Y-154634649D02*
X79172438Y-154539411D01*
X79172438Y-154539411D02*
X79220057Y-154491792D01*
X79220057Y-154491792D02*
X79315295Y-154444173D01*
X79315295Y-154444173D02*
X79410533Y-154444173D01*
X79410533Y-154444173D02*
X79553390Y-154491792D01*
X79553390Y-154491792D02*
X80124819Y-155063220D01*
X80124819Y-155063220D02*
X80124819Y-154444173D01*
X79124819Y-153825125D02*
X79124819Y-153729887D01*
X79124819Y-153729887D02*
X79172438Y-153634649D01*
X79172438Y-153634649D02*
X79220057Y-153587030D01*
X79220057Y-153587030D02*
X79315295Y-153539411D01*
X79315295Y-153539411D02*
X79505771Y-153491792D01*
X79505771Y-153491792D02*
X79743866Y-153491792D01*
X79743866Y-153491792D02*
X79934342Y-153539411D01*
X79934342Y-153539411D02*
X80029580Y-153587030D01*
X80029580Y-153587030D02*
X80077200Y-153634649D01*
X80077200Y-153634649D02*
X80124819Y-153729887D01*
X80124819Y-153729887D02*
X80124819Y-153825125D01*
X80124819Y-153825125D02*
X80077200Y-153920363D01*
X80077200Y-153920363D02*
X80029580Y-153967982D01*
X80029580Y-153967982D02*
X79934342Y-154015601D01*
X79934342Y-154015601D02*
X79743866Y-154063220D01*
X79743866Y-154063220D02*
X79505771Y-154063220D01*
X79505771Y-154063220D02*
X79315295Y-154015601D01*
X79315295Y-154015601D02*
X79220057Y-153967982D01*
X79220057Y-153967982D02*
X79172438Y-153920363D01*
X79172438Y-153920363D02*
X79124819Y-153825125D01*
X124469819Y-116044173D02*
X123993628Y-116377506D01*
X124469819Y-116615601D02*
X123469819Y-116615601D01*
X123469819Y-116615601D02*
X123469819Y-116234649D01*
X123469819Y-116234649D02*
X123517438Y-116139411D01*
X123517438Y-116139411D02*
X123565057Y-116091792D01*
X123565057Y-116091792D02*
X123660295Y-116044173D01*
X123660295Y-116044173D02*
X123803152Y-116044173D01*
X123803152Y-116044173D02*
X123898390Y-116091792D01*
X123898390Y-116091792D02*
X123946009Y-116139411D01*
X123946009Y-116139411D02*
X123993628Y-116234649D01*
X123993628Y-116234649D02*
X123993628Y-116615601D01*
X123565057Y-115663220D02*
X123517438Y-115615601D01*
X123517438Y-115615601D02*
X123469819Y-115520363D01*
X123469819Y-115520363D02*
X123469819Y-115282268D01*
X123469819Y-115282268D02*
X123517438Y-115187030D01*
X123517438Y-115187030D02*
X123565057Y-115139411D01*
X123565057Y-115139411D02*
X123660295Y-115091792D01*
X123660295Y-115091792D02*
X123755533Y-115091792D01*
X123755533Y-115091792D02*
X123898390Y-115139411D01*
X123898390Y-115139411D02*
X124469819Y-115710839D01*
X124469819Y-115710839D02*
X124469819Y-115091792D01*
X123469819Y-114187030D02*
X123469819Y-114663220D01*
X123469819Y-114663220D02*
X123946009Y-114710839D01*
X123946009Y-114710839D02*
X123898390Y-114663220D01*
X123898390Y-114663220D02*
X123850771Y-114567982D01*
X123850771Y-114567982D02*
X123850771Y-114329887D01*
X123850771Y-114329887D02*
X123898390Y-114234649D01*
X123898390Y-114234649D02*
X123946009Y-114187030D01*
X123946009Y-114187030D02*
X124041247Y-114139411D01*
X124041247Y-114139411D02*
X124279342Y-114139411D01*
X124279342Y-114139411D02*
X124374580Y-114187030D01*
X124374580Y-114187030D02*
X124422200Y-114234649D01*
X124422200Y-114234649D02*
X124469819Y-114329887D01*
X124469819Y-114329887D02*
X124469819Y-114567982D01*
X124469819Y-114567982D02*
X124422200Y-114663220D01*
X124422200Y-114663220D02*
X124374580Y-114710839D01*
X143340826Y-132294819D02*
X143007493Y-131818628D01*
X142769398Y-132294819D02*
X142769398Y-131294819D01*
X142769398Y-131294819D02*
X143150350Y-131294819D01*
X143150350Y-131294819D02*
X143245588Y-131342438D01*
X143245588Y-131342438D02*
X143293207Y-131390057D01*
X143293207Y-131390057D02*
X143340826Y-131485295D01*
X143340826Y-131485295D02*
X143340826Y-131628152D01*
X143340826Y-131628152D02*
X143293207Y-131723390D01*
X143293207Y-131723390D02*
X143245588Y-131771009D01*
X143245588Y-131771009D02*
X143150350Y-131818628D01*
X143150350Y-131818628D02*
X142769398Y-131818628D01*
X143674160Y-131294819D02*
X144293207Y-131294819D01*
X144293207Y-131294819D02*
X143959874Y-131675771D01*
X143959874Y-131675771D02*
X144102731Y-131675771D01*
X144102731Y-131675771D02*
X144197969Y-131723390D01*
X144197969Y-131723390D02*
X144245588Y-131771009D01*
X144245588Y-131771009D02*
X144293207Y-131866247D01*
X144293207Y-131866247D02*
X144293207Y-132104342D01*
X144293207Y-132104342D02*
X144245588Y-132199580D01*
X144245588Y-132199580D02*
X144197969Y-132247200D01*
X144197969Y-132247200D02*
X144102731Y-132294819D01*
X144102731Y-132294819D02*
X143817017Y-132294819D01*
X143817017Y-132294819D02*
X143721779Y-132247200D01*
X143721779Y-132247200D02*
X143674160Y-132199580D01*
X145150350Y-131294819D02*
X144959874Y-131294819D01*
X144959874Y-131294819D02*
X144864636Y-131342438D01*
X144864636Y-131342438D02*
X144817017Y-131390057D01*
X144817017Y-131390057D02*
X144721779Y-131532914D01*
X144721779Y-131532914D02*
X144674160Y-131723390D01*
X144674160Y-131723390D02*
X144674160Y-132104342D01*
X144674160Y-132104342D02*
X144721779Y-132199580D01*
X144721779Y-132199580D02*
X144769398Y-132247200D01*
X144769398Y-132247200D02*
X144864636Y-132294819D01*
X144864636Y-132294819D02*
X145055112Y-132294819D01*
X145055112Y-132294819D02*
X145150350Y-132247200D01*
X145150350Y-132247200D02*
X145197969Y-132199580D01*
X145197969Y-132199580D02*
X145245588Y-132104342D01*
X145245588Y-132104342D02*
X145245588Y-131866247D01*
X145245588Y-131866247D02*
X145197969Y-131771009D01*
X145197969Y-131771009D02*
X145150350Y-131723390D01*
X145150350Y-131723390D02*
X145055112Y-131675771D01*
X145055112Y-131675771D02*
X144864636Y-131675771D01*
X144864636Y-131675771D02*
X144769398Y-131723390D01*
X144769398Y-131723390D02*
X144721779Y-131771009D01*
X144721779Y-131771009D02*
X144674160Y-131866247D01*
X139570826Y-126634819D02*
X139237493Y-126158628D01*
X138999398Y-126634819D02*
X138999398Y-125634819D01*
X138999398Y-125634819D02*
X139380350Y-125634819D01*
X139380350Y-125634819D02*
X139475588Y-125682438D01*
X139475588Y-125682438D02*
X139523207Y-125730057D01*
X139523207Y-125730057D02*
X139570826Y-125825295D01*
X139570826Y-125825295D02*
X139570826Y-125968152D01*
X139570826Y-125968152D02*
X139523207Y-126063390D01*
X139523207Y-126063390D02*
X139475588Y-126111009D01*
X139475588Y-126111009D02*
X139380350Y-126158628D01*
X139380350Y-126158628D02*
X138999398Y-126158628D01*
X139904160Y-125634819D02*
X140523207Y-125634819D01*
X140523207Y-125634819D02*
X140189874Y-126015771D01*
X140189874Y-126015771D02*
X140332731Y-126015771D01*
X140332731Y-126015771D02*
X140427969Y-126063390D01*
X140427969Y-126063390D02*
X140475588Y-126111009D01*
X140475588Y-126111009D02*
X140523207Y-126206247D01*
X140523207Y-126206247D02*
X140523207Y-126444342D01*
X140523207Y-126444342D02*
X140475588Y-126539580D01*
X140475588Y-126539580D02*
X140427969Y-126587200D01*
X140427969Y-126587200D02*
X140332731Y-126634819D01*
X140332731Y-126634819D02*
X140047017Y-126634819D01*
X140047017Y-126634819D02*
X139951779Y-126587200D01*
X139951779Y-126587200D02*
X139904160Y-126539580D01*
X141427969Y-125634819D02*
X140951779Y-125634819D01*
X140951779Y-125634819D02*
X140904160Y-126111009D01*
X140904160Y-126111009D02*
X140951779Y-126063390D01*
X140951779Y-126063390D02*
X141047017Y-126015771D01*
X141047017Y-126015771D02*
X141285112Y-126015771D01*
X141285112Y-126015771D02*
X141380350Y-126063390D01*
X141380350Y-126063390D02*
X141427969Y-126111009D01*
X141427969Y-126111009D02*
X141475588Y-126206247D01*
X141475588Y-126206247D02*
X141475588Y-126444342D01*
X141475588Y-126444342D02*
X141427969Y-126539580D01*
X141427969Y-126539580D02*
X141380350Y-126587200D01*
X141380350Y-126587200D02*
X141285112Y-126634819D01*
X141285112Y-126634819D02*
X141047017Y-126634819D01*
X141047017Y-126634819D02*
X140951779Y-126587200D01*
X140951779Y-126587200D02*
X140904160Y-126539580D01*
X95065545Y-144105518D02*
X95017926Y-144153138D01*
X95017926Y-144153138D02*
X94875069Y-144200757D01*
X94875069Y-144200757D02*
X94779831Y-144200757D01*
X94779831Y-144200757D02*
X94636974Y-144153138D01*
X94636974Y-144153138D02*
X94541736Y-144057899D01*
X94541736Y-144057899D02*
X94494117Y-143962661D01*
X94494117Y-143962661D02*
X94446498Y-143772185D01*
X94446498Y-143772185D02*
X94446498Y-143629328D01*
X94446498Y-143629328D02*
X94494117Y-143438852D01*
X94494117Y-143438852D02*
X94541736Y-143343614D01*
X94541736Y-143343614D02*
X94636974Y-143248376D01*
X94636974Y-143248376D02*
X94779831Y-143200757D01*
X94779831Y-143200757D02*
X94875069Y-143200757D01*
X94875069Y-143200757D02*
X95017926Y-143248376D01*
X95017926Y-143248376D02*
X95065545Y-143295995D01*
X96017926Y-144200757D02*
X95446498Y-144200757D01*
X95732212Y-144200757D02*
X95732212Y-143200757D01*
X95732212Y-143200757D02*
X95636974Y-143343614D01*
X95636974Y-143343614D02*
X95541736Y-143438852D01*
X95541736Y-143438852D02*
X95446498Y-143486471D01*
X96589355Y-143629328D02*
X96494117Y-143581709D01*
X96494117Y-143581709D02*
X96446498Y-143534090D01*
X96446498Y-143534090D02*
X96398879Y-143438852D01*
X96398879Y-143438852D02*
X96398879Y-143391233D01*
X96398879Y-143391233D02*
X96446498Y-143295995D01*
X96446498Y-143295995D02*
X96494117Y-143248376D01*
X96494117Y-143248376D02*
X96589355Y-143200757D01*
X96589355Y-143200757D02*
X96779831Y-143200757D01*
X96779831Y-143200757D02*
X96875069Y-143248376D01*
X96875069Y-143248376D02*
X96922688Y-143295995D01*
X96922688Y-143295995D02*
X96970307Y-143391233D01*
X96970307Y-143391233D02*
X96970307Y-143438852D01*
X96970307Y-143438852D02*
X96922688Y-143534090D01*
X96922688Y-143534090D02*
X96875069Y-143581709D01*
X96875069Y-143581709D02*
X96779831Y-143629328D01*
X96779831Y-143629328D02*
X96589355Y-143629328D01*
X96589355Y-143629328D02*
X96494117Y-143676947D01*
X96494117Y-143676947D02*
X96446498Y-143724566D01*
X96446498Y-143724566D02*
X96398879Y-143819804D01*
X96398879Y-143819804D02*
X96398879Y-144010280D01*
X96398879Y-144010280D02*
X96446498Y-144105518D01*
X96446498Y-144105518D02*
X96494117Y-144153138D01*
X96494117Y-144153138D02*
X96589355Y-144200757D01*
X96589355Y-144200757D02*
X96779831Y-144200757D01*
X96779831Y-144200757D02*
X96875069Y-144153138D01*
X96875069Y-144153138D02*
X96922688Y-144105518D01*
X96922688Y-144105518D02*
X96970307Y-144010280D01*
X96970307Y-144010280D02*
X96970307Y-143819804D01*
X96970307Y-143819804D02*
X96922688Y-143724566D01*
X96922688Y-143724566D02*
X96875069Y-143676947D01*
X96875069Y-143676947D02*
X96779831Y-143629328D01*
X118721779Y-109574819D02*
X118721779Y-110384342D01*
X118721779Y-110384342D02*
X118769398Y-110479580D01*
X118769398Y-110479580D02*
X118817017Y-110527200D01*
X118817017Y-110527200D02*
X118912255Y-110574819D01*
X118912255Y-110574819D02*
X119102731Y-110574819D01*
X119102731Y-110574819D02*
X119197969Y-110527200D01*
X119197969Y-110527200D02*
X119245588Y-110479580D01*
X119245588Y-110479580D02*
X119293207Y-110384342D01*
X119293207Y-110384342D02*
X119293207Y-109574819D01*
X119817017Y-110574819D02*
X120007493Y-110574819D01*
X120007493Y-110574819D02*
X120102731Y-110527200D01*
X120102731Y-110527200D02*
X120150350Y-110479580D01*
X120150350Y-110479580D02*
X120245588Y-110336723D01*
X120245588Y-110336723D02*
X120293207Y-110146247D01*
X120293207Y-110146247D02*
X120293207Y-109765295D01*
X120293207Y-109765295D02*
X120245588Y-109670057D01*
X120245588Y-109670057D02*
X120197969Y-109622438D01*
X120197969Y-109622438D02*
X120102731Y-109574819D01*
X120102731Y-109574819D02*
X119912255Y-109574819D01*
X119912255Y-109574819D02*
X119817017Y-109622438D01*
X119817017Y-109622438D02*
X119769398Y-109670057D01*
X119769398Y-109670057D02*
X119721779Y-109765295D01*
X119721779Y-109765295D02*
X119721779Y-110003390D01*
X119721779Y-110003390D02*
X119769398Y-110098628D01*
X119769398Y-110098628D02*
X119817017Y-110146247D01*
X119817017Y-110146247D02*
X119912255Y-110193866D01*
X119912255Y-110193866D02*
X120102731Y-110193866D01*
X120102731Y-110193866D02*
X120197969Y-110146247D01*
X120197969Y-110146247D02*
X120245588Y-110098628D01*
X120245588Y-110098628D02*
X120293207Y-110003390D01*
X135580826Y-139344819D02*
X135247493Y-138868628D01*
X135009398Y-139344819D02*
X135009398Y-138344819D01*
X135009398Y-138344819D02*
X135390350Y-138344819D01*
X135390350Y-138344819D02*
X135485588Y-138392438D01*
X135485588Y-138392438D02*
X135533207Y-138440057D01*
X135533207Y-138440057D02*
X135580826Y-138535295D01*
X135580826Y-138535295D02*
X135580826Y-138678152D01*
X135580826Y-138678152D02*
X135533207Y-138773390D01*
X135533207Y-138773390D02*
X135485588Y-138821009D01*
X135485588Y-138821009D02*
X135390350Y-138868628D01*
X135390350Y-138868628D02*
X135009398Y-138868628D01*
X136533207Y-139344819D02*
X135961779Y-139344819D01*
X136247493Y-139344819D02*
X136247493Y-138344819D01*
X136247493Y-138344819D02*
X136152255Y-138487676D01*
X136152255Y-138487676D02*
X136057017Y-138582914D01*
X136057017Y-138582914D02*
X135961779Y-138630533D01*
X137390350Y-138344819D02*
X137199874Y-138344819D01*
X137199874Y-138344819D02*
X137104636Y-138392438D01*
X137104636Y-138392438D02*
X137057017Y-138440057D01*
X137057017Y-138440057D02*
X136961779Y-138582914D01*
X136961779Y-138582914D02*
X136914160Y-138773390D01*
X136914160Y-138773390D02*
X136914160Y-139154342D01*
X136914160Y-139154342D02*
X136961779Y-139249580D01*
X136961779Y-139249580D02*
X137009398Y-139297200D01*
X137009398Y-139297200D02*
X137104636Y-139344819D01*
X137104636Y-139344819D02*
X137295112Y-139344819D01*
X137295112Y-139344819D02*
X137390350Y-139297200D01*
X137390350Y-139297200D02*
X137437969Y-139249580D01*
X137437969Y-139249580D02*
X137485588Y-139154342D01*
X137485588Y-139154342D02*
X137485588Y-138916247D01*
X137485588Y-138916247D02*
X137437969Y-138821009D01*
X137437969Y-138821009D02*
X137390350Y-138773390D01*
X137390350Y-138773390D02*
X137295112Y-138725771D01*
X137295112Y-138725771D02*
X137104636Y-138725771D01*
X137104636Y-138725771D02*
X137009398Y-138773390D01*
X137009398Y-138773390D02*
X136961779Y-138821009D01*
X136961779Y-138821009D02*
X136914160Y-138916247D01*
X71591779Y-119254819D02*
X71591779Y-120064342D01*
X71591779Y-120064342D02*
X71639398Y-120159580D01*
X71639398Y-120159580D02*
X71687017Y-120207200D01*
X71687017Y-120207200D02*
X71782255Y-120254819D01*
X71782255Y-120254819D02*
X71972731Y-120254819D01*
X71972731Y-120254819D02*
X72067969Y-120207200D01*
X72067969Y-120207200D02*
X72115588Y-120159580D01*
X72115588Y-120159580D02*
X72163207Y-120064342D01*
X72163207Y-120064342D02*
X72163207Y-119254819D01*
X72544160Y-119254819D02*
X73163207Y-119254819D01*
X73163207Y-119254819D02*
X72829874Y-119635771D01*
X72829874Y-119635771D02*
X72972731Y-119635771D01*
X72972731Y-119635771D02*
X73067969Y-119683390D01*
X73067969Y-119683390D02*
X73115588Y-119731009D01*
X73115588Y-119731009D02*
X73163207Y-119826247D01*
X73163207Y-119826247D02*
X73163207Y-120064342D01*
X73163207Y-120064342D02*
X73115588Y-120159580D01*
X73115588Y-120159580D02*
X73067969Y-120207200D01*
X73067969Y-120207200D02*
X72972731Y-120254819D01*
X72972731Y-120254819D02*
X72687017Y-120254819D01*
X72687017Y-120254819D02*
X72591779Y-120207200D01*
X72591779Y-120207200D02*
X72544160Y-120159580D01*
X110610826Y-126854819D02*
X110277493Y-126378628D01*
X110039398Y-126854819D02*
X110039398Y-125854819D01*
X110039398Y-125854819D02*
X110420350Y-125854819D01*
X110420350Y-125854819D02*
X110515588Y-125902438D01*
X110515588Y-125902438D02*
X110563207Y-125950057D01*
X110563207Y-125950057D02*
X110610826Y-126045295D01*
X110610826Y-126045295D02*
X110610826Y-126188152D01*
X110610826Y-126188152D02*
X110563207Y-126283390D01*
X110563207Y-126283390D02*
X110515588Y-126331009D01*
X110515588Y-126331009D02*
X110420350Y-126378628D01*
X110420350Y-126378628D02*
X110039398Y-126378628D01*
X111563207Y-126854819D02*
X110991779Y-126854819D01*
X111277493Y-126854819D02*
X111277493Y-125854819D01*
X111277493Y-125854819D02*
X111182255Y-125997676D01*
X111182255Y-125997676D02*
X111087017Y-126092914D01*
X111087017Y-126092914D02*
X110991779Y-126140533D01*
X112182255Y-125854819D02*
X112277493Y-125854819D01*
X112277493Y-125854819D02*
X112372731Y-125902438D01*
X112372731Y-125902438D02*
X112420350Y-125950057D01*
X112420350Y-125950057D02*
X112467969Y-126045295D01*
X112467969Y-126045295D02*
X112515588Y-126235771D01*
X112515588Y-126235771D02*
X112515588Y-126473866D01*
X112515588Y-126473866D02*
X112467969Y-126664342D01*
X112467969Y-126664342D02*
X112420350Y-126759580D01*
X112420350Y-126759580D02*
X112372731Y-126807200D01*
X112372731Y-126807200D02*
X112277493Y-126854819D01*
X112277493Y-126854819D02*
X112182255Y-126854819D01*
X112182255Y-126854819D02*
X112087017Y-126807200D01*
X112087017Y-126807200D02*
X112039398Y-126759580D01*
X112039398Y-126759580D02*
X111991779Y-126664342D01*
X111991779Y-126664342D02*
X111944160Y-126473866D01*
X111944160Y-126473866D02*
X111944160Y-126235771D01*
X111944160Y-126235771D02*
X111991779Y-126045295D01*
X111991779Y-126045295D02*
X112039398Y-125950057D01*
X112039398Y-125950057D02*
X112087017Y-125902438D01*
X112087017Y-125902438D02*
X112182255Y-125854819D01*
X135750826Y-145454819D02*
X135417493Y-144978628D01*
X135179398Y-145454819D02*
X135179398Y-144454819D01*
X135179398Y-144454819D02*
X135560350Y-144454819D01*
X135560350Y-144454819D02*
X135655588Y-144502438D01*
X135655588Y-144502438D02*
X135703207Y-144550057D01*
X135703207Y-144550057D02*
X135750826Y-144645295D01*
X135750826Y-144645295D02*
X135750826Y-144788152D01*
X135750826Y-144788152D02*
X135703207Y-144883390D01*
X135703207Y-144883390D02*
X135655588Y-144931009D01*
X135655588Y-144931009D02*
X135560350Y-144978628D01*
X135560350Y-144978628D02*
X135179398Y-144978628D01*
X136084160Y-144454819D02*
X136703207Y-144454819D01*
X136703207Y-144454819D02*
X136369874Y-144835771D01*
X136369874Y-144835771D02*
X136512731Y-144835771D01*
X136512731Y-144835771D02*
X136607969Y-144883390D01*
X136607969Y-144883390D02*
X136655588Y-144931009D01*
X136655588Y-144931009D02*
X136703207Y-145026247D01*
X136703207Y-145026247D02*
X136703207Y-145264342D01*
X136703207Y-145264342D02*
X136655588Y-145359580D01*
X136655588Y-145359580D02*
X136607969Y-145407200D01*
X136607969Y-145407200D02*
X136512731Y-145454819D01*
X136512731Y-145454819D02*
X136227017Y-145454819D01*
X136227017Y-145454819D02*
X136131779Y-145407200D01*
X136131779Y-145407200D02*
X136084160Y-145359580D01*
X137084160Y-144550057D02*
X137131779Y-144502438D01*
X137131779Y-144502438D02*
X137227017Y-144454819D01*
X137227017Y-144454819D02*
X137465112Y-144454819D01*
X137465112Y-144454819D02*
X137560350Y-144502438D01*
X137560350Y-144502438D02*
X137607969Y-144550057D01*
X137607969Y-144550057D02*
X137655588Y-144645295D01*
X137655588Y-144645295D02*
X137655588Y-144740533D01*
X137655588Y-144740533D02*
X137607969Y-144883390D01*
X137607969Y-144883390D02*
X137036541Y-145454819D01*
X137036541Y-145454819D02*
X137655588Y-145454819D01*
X90777200Y-132958458D02*
X90824819Y-132815601D01*
X90824819Y-132815601D02*
X90824819Y-132577506D01*
X90824819Y-132577506D02*
X90777200Y-132482268D01*
X90777200Y-132482268D02*
X90729580Y-132434649D01*
X90729580Y-132434649D02*
X90634342Y-132387030D01*
X90634342Y-132387030D02*
X90539104Y-132387030D01*
X90539104Y-132387030D02*
X90443866Y-132434649D01*
X90443866Y-132434649D02*
X90396247Y-132482268D01*
X90396247Y-132482268D02*
X90348628Y-132577506D01*
X90348628Y-132577506D02*
X90301009Y-132767982D01*
X90301009Y-132767982D02*
X90253390Y-132863220D01*
X90253390Y-132863220D02*
X90205771Y-132910839D01*
X90205771Y-132910839D02*
X90110533Y-132958458D01*
X90110533Y-132958458D02*
X90015295Y-132958458D01*
X90015295Y-132958458D02*
X89920057Y-132910839D01*
X89920057Y-132910839D02*
X89872438Y-132863220D01*
X89872438Y-132863220D02*
X89824819Y-132767982D01*
X89824819Y-132767982D02*
X89824819Y-132529887D01*
X89824819Y-132529887D02*
X89872438Y-132387030D01*
X89824819Y-132053696D02*
X90824819Y-131815601D01*
X90824819Y-131815601D02*
X90110533Y-131625125D01*
X90110533Y-131625125D02*
X90824819Y-131434649D01*
X90824819Y-131434649D02*
X89824819Y-131196554D01*
X90824819Y-130291792D02*
X90824819Y-130863220D01*
X90824819Y-130577506D02*
X89824819Y-130577506D01*
X89824819Y-130577506D02*
X89967676Y-130672744D01*
X89967676Y-130672744D02*
X90062914Y-130767982D01*
X90062914Y-130767982D02*
X90110533Y-130863220D01*
X106109819Y-126971910D02*
X105109819Y-126971910D01*
X105109819Y-126971910D02*
X105109819Y-126733815D01*
X105109819Y-126733815D02*
X105157438Y-126590958D01*
X105157438Y-126590958D02*
X105252676Y-126495720D01*
X105252676Y-126495720D02*
X105347914Y-126448101D01*
X105347914Y-126448101D02*
X105538390Y-126400482D01*
X105538390Y-126400482D02*
X105681247Y-126400482D01*
X105681247Y-126400482D02*
X105871723Y-126448101D01*
X105871723Y-126448101D02*
X105966961Y-126495720D01*
X105966961Y-126495720D02*
X106062200Y-126590958D01*
X106062200Y-126590958D02*
X106109819Y-126733815D01*
X106109819Y-126733815D02*
X106109819Y-126971910D01*
X106109819Y-125448101D02*
X106109819Y-126019529D01*
X106109819Y-125733815D02*
X105109819Y-125733815D01*
X105109819Y-125733815D02*
X105252676Y-125829053D01*
X105252676Y-125829053D02*
X105347914Y-125924291D01*
X105347914Y-125924291D02*
X105395533Y-126019529D01*
X126345112Y-137564819D02*
X126345112Y-136564819D01*
X126345112Y-136564819D02*
X126583207Y-136564819D01*
X126583207Y-136564819D02*
X126726064Y-136612438D01*
X126726064Y-136612438D02*
X126821302Y-136707676D01*
X126821302Y-136707676D02*
X126868921Y-136802914D01*
X126868921Y-136802914D02*
X126916540Y-136993390D01*
X126916540Y-136993390D02*
X126916540Y-137136247D01*
X126916540Y-137136247D02*
X126868921Y-137326723D01*
X126868921Y-137326723D02*
X126821302Y-137421961D01*
X126821302Y-137421961D02*
X126726064Y-137517200D01*
X126726064Y-137517200D02*
X126583207Y-137564819D01*
X126583207Y-137564819D02*
X126345112Y-137564819D01*
X127868921Y-137564819D02*
X127297493Y-137564819D01*
X127583207Y-137564819D02*
X127583207Y-136564819D01*
X127583207Y-136564819D02*
X127487969Y-136707676D01*
X127487969Y-136707676D02*
X127392731Y-136802914D01*
X127392731Y-136802914D02*
X127297493Y-136850533D01*
X128821302Y-137564819D02*
X128249874Y-137564819D01*
X128535588Y-137564819D02*
X128535588Y-136564819D01*
X128535588Y-136564819D02*
X128440350Y-136707676D01*
X128440350Y-136707676D02*
X128345112Y-136802914D01*
X128345112Y-136802914D02*
X128249874Y-136850533D01*
X127110826Y-134854819D02*
X126777493Y-134378628D01*
X126539398Y-134854819D02*
X126539398Y-133854819D01*
X126539398Y-133854819D02*
X126920350Y-133854819D01*
X126920350Y-133854819D02*
X127015588Y-133902438D01*
X127015588Y-133902438D02*
X127063207Y-133950057D01*
X127063207Y-133950057D02*
X127110826Y-134045295D01*
X127110826Y-134045295D02*
X127110826Y-134188152D01*
X127110826Y-134188152D02*
X127063207Y-134283390D01*
X127063207Y-134283390D02*
X127015588Y-134331009D01*
X127015588Y-134331009D02*
X126920350Y-134378628D01*
X126920350Y-134378628D02*
X126539398Y-134378628D01*
X127967969Y-134188152D02*
X127967969Y-134854819D01*
X127729874Y-133807200D02*
X127491779Y-134521485D01*
X127491779Y-134521485D02*
X128110826Y-134521485D01*
X128920350Y-134188152D02*
X128920350Y-134854819D01*
X128682255Y-133807200D02*
X128444160Y-134521485D01*
X128444160Y-134521485D02*
X129063207Y-134521485D01*
X130087017Y-134854819D02*
X129753684Y-134378628D01*
X129515589Y-134854819D02*
X129515589Y-133854819D01*
X129515589Y-133854819D02*
X129896541Y-133854819D01*
X129896541Y-133854819D02*
X129991779Y-133902438D01*
X129991779Y-133902438D02*
X130039398Y-133950057D01*
X130039398Y-133950057D02*
X130087017Y-134045295D01*
X130087017Y-134045295D02*
X130087017Y-134188152D01*
X130087017Y-134188152D02*
X130039398Y-134283390D01*
X130039398Y-134283390D02*
X129991779Y-134331009D01*
X129991779Y-134331009D02*
X129896541Y-134378628D01*
X129896541Y-134378628D02*
X129515589Y-134378628D01*
X130991779Y-133854819D02*
X130515589Y-133854819D01*
X130515589Y-133854819D02*
X130467970Y-134331009D01*
X130467970Y-134331009D02*
X130515589Y-134283390D01*
X130515589Y-134283390D02*
X130610827Y-134235771D01*
X130610827Y-134235771D02*
X130848922Y-134235771D01*
X130848922Y-134235771D02*
X130944160Y-134283390D01*
X130944160Y-134283390D02*
X130991779Y-134331009D01*
X130991779Y-134331009D02*
X131039398Y-134426247D01*
X131039398Y-134426247D02*
X131039398Y-134664342D01*
X131039398Y-134664342D02*
X130991779Y-134759580D01*
X130991779Y-134759580D02*
X130944160Y-134807200D01*
X130944160Y-134807200D02*
X130848922Y-134854819D01*
X130848922Y-134854819D02*
X130610827Y-134854819D01*
X130610827Y-134854819D02*
X130515589Y-134807200D01*
X130515589Y-134807200D02*
X130467970Y-134759580D01*
X147509819Y-109644173D02*
X147033628Y-109977506D01*
X147509819Y-110215601D02*
X146509819Y-110215601D01*
X146509819Y-110215601D02*
X146509819Y-109834649D01*
X146509819Y-109834649D02*
X146557438Y-109739411D01*
X146557438Y-109739411D02*
X146605057Y-109691792D01*
X146605057Y-109691792D02*
X146700295Y-109644173D01*
X146700295Y-109644173D02*
X146843152Y-109644173D01*
X146843152Y-109644173D02*
X146938390Y-109691792D01*
X146938390Y-109691792D02*
X146986009Y-109739411D01*
X146986009Y-109739411D02*
X147033628Y-109834649D01*
X147033628Y-109834649D02*
X147033628Y-110215601D01*
X147509819Y-108691792D02*
X147509819Y-109263220D01*
X147509819Y-108977506D02*
X146509819Y-108977506D01*
X146509819Y-108977506D02*
X146652676Y-109072744D01*
X146652676Y-109072744D02*
X146747914Y-109167982D01*
X146747914Y-109167982D02*
X146795533Y-109263220D01*
X147509819Y-108215601D02*
X147509819Y-108025125D01*
X147509819Y-108025125D02*
X147462200Y-107929887D01*
X147462200Y-107929887D02*
X147414580Y-107882268D01*
X147414580Y-107882268D02*
X147271723Y-107787030D01*
X147271723Y-107787030D02*
X147081247Y-107739411D01*
X147081247Y-107739411D02*
X146700295Y-107739411D01*
X146700295Y-107739411D02*
X146605057Y-107787030D01*
X146605057Y-107787030D02*
X146557438Y-107834649D01*
X146557438Y-107834649D02*
X146509819Y-107929887D01*
X146509819Y-107929887D02*
X146509819Y-108120363D01*
X146509819Y-108120363D02*
X146557438Y-108215601D01*
X146557438Y-108215601D02*
X146605057Y-108263220D01*
X146605057Y-108263220D02*
X146700295Y-108310839D01*
X146700295Y-108310839D02*
X146938390Y-108310839D01*
X146938390Y-108310839D02*
X147033628Y-108263220D01*
X147033628Y-108263220D02*
X147081247Y-108215601D01*
X147081247Y-108215601D02*
X147128866Y-108120363D01*
X147128866Y-108120363D02*
X147128866Y-107929887D01*
X147128866Y-107929887D02*
X147081247Y-107834649D01*
X147081247Y-107834649D02*
X147033628Y-107787030D01*
X147033628Y-107787030D02*
X146938390Y-107739411D01*
X78029580Y-144291792D02*
X78077200Y-144339411D01*
X78077200Y-144339411D02*
X78124819Y-144482268D01*
X78124819Y-144482268D02*
X78124819Y-144577506D01*
X78124819Y-144577506D02*
X78077200Y-144720363D01*
X78077200Y-144720363D02*
X77981961Y-144815601D01*
X77981961Y-144815601D02*
X77886723Y-144863220D01*
X77886723Y-144863220D02*
X77696247Y-144910839D01*
X77696247Y-144910839D02*
X77553390Y-144910839D01*
X77553390Y-144910839D02*
X77362914Y-144863220D01*
X77362914Y-144863220D02*
X77267676Y-144815601D01*
X77267676Y-144815601D02*
X77172438Y-144720363D01*
X77172438Y-144720363D02*
X77124819Y-144577506D01*
X77124819Y-144577506D02*
X77124819Y-144482268D01*
X77124819Y-144482268D02*
X77172438Y-144339411D01*
X77172438Y-144339411D02*
X77220057Y-144291792D01*
X78124819Y-143339411D02*
X78124819Y-143910839D01*
X78124819Y-143625125D02*
X77124819Y-143625125D01*
X77124819Y-143625125D02*
X77267676Y-143720363D01*
X77267676Y-143720363D02*
X77362914Y-143815601D01*
X77362914Y-143815601D02*
X77410533Y-143910839D01*
X77124819Y-142482268D02*
X77124819Y-142672744D01*
X77124819Y-142672744D02*
X77172438Y-142767982D01*
X77172438Y-142767982D02*
X77220057Y-142815601D01*
X77220057Y-142815601D02*
X77362914Y-142910839D01*
X77362914Y-142910839D02*
X77553390Y-142958458D01*
X77553390Y-142958458D02*
X77934342Y-142958458D01*
X77934342Y-142958458D02*
X78029580Y-142910839D01*
X78029580Y-142910839D02*
X78077200Y-142863220D01*
X78077200Y-142863220D02*
X78124819Y-142767982D01*
X78124819Y-142767982D02*
X78124819Y-142577506D01*
X78124819Y-142577506D02*
X78077200Y-142482268D01*
X78077200Y-142482268D02*
X78029580Y-142434649D01*
X78029580Y-142434649D02*
X77934342Y-142387030D01*
X77934342Y-142387030D02*
X77696247Y-142387030D01*
X77696247Y-142387030D02*
X77601009Y-142434649D01*
X77601009Y-142434649D02*
X77553390Y-142482268D01*
X77553390Y-142482268D02*
X77505771Y-142577506D01*
X77505771Y-142577506D02*
X77505771Y-142767982D01*
X77505771Y-142767982D02*
X77553390Y-142863220D01*
X77553390Y-142863220D02*
X77601009Y-142910839D01*
X77601009Y-142910839D02*
X77696247Y-142958458D01*
D11*
X144945000Y-144600000D02*
X144597917Y-144600000D01*
X151415000Y-143960000D02*
X144945000Y-143960000D01*
X151415000Y-160020000D02*
X151415000Y-135900000D01*
X144945000Y-148600000D02*
X144597917Y-148600000D01*
X144945000Y-136600000D02*
X144597917Y-136600000D01*
X144945000Y-146600000D02*
X144597917Y-146600000D01*
X144945000Y-153320000D02*
X144597917Y-153320000D01*
X142800000Y-160020000D02*
X142800000Y-158960000D01*
X151415000Y-159900000D02*
X144945000Y-159900000D01*
X144945000Y-156600000D02*
X144597917Y-156600000D01*
X151415000Y-159785882D02*
X144945000Y-159785882D01*
X151415000Y-159671764D02*
X144945000Y-159671764D01*
X151415000Y-139960000D02*
X144945000Y-139960000D01*
X151415000Y-158074112D02*
X144945000Y-158074112D01*
X144945000Y-138600000D02*
X144597917Y-138600000D01*
X151415000Y-158758820D02*
X144945000Y-158758820D01*
X144945000Y-147320000D02*
X144597917Y-147320000D01*
X144945000Y-154600000D02*
X144597917Y-154600000D01*
X144945000Y-155320000D02*
X144597917Y-155320000D01*
X151415000Y-141960000D02*
X144945000Y-141960000D01*
X151415000Y-158987056D02*
X144945000Y-158987056D01*
X144945000Y-159320000D02*
X144670000Y-159320000D01*
X144945000Y-152600000D02*
X144597917Y-152600000D01*
X151415000Y-160020000D02*
X144945000Y-160020000D01*
X151415000Y-158644702D02*
X144945000Y-158644702D01*
X144945000Y-157320000D02*
X144597917Y-157320000D01*
X151415000Y-147960000D02*
X144945000Y-147960000D01*
X151415000Y-149960000D02*
X144945000Y-149960000D01*
X144945000Y-158600000D02*
X144670000Y-158600000D01*
X143735000Y-160020000D02*
X142800000Y-160020000D01*
X151415000Y-137960000D02*
X144945000Y-137960000D01*
X151415000Y-159215292D02*
X144945000Y-159215292D01*
X151415000Y-157960000D02*
X144945000Y-157960000D01*
X151415000Y-155960000D02*
X144945000Y-155960000D01*
X151415000Y-159557646D02*
X144945000Y-159557646D01*
X151415000Y-159329410D02*
X144945000Y-159329410D01*
X151415000Y-158872938D02*
X144945000Y-158872938D01*
X151415000Y-158530584D02*
X144945000Y-158530584D01*
X144945000Y-140600000D02*
X144597917Y-140600000D01*
X144945000Y-137320000D02*
X144597917Y-137320000D01*
X151415000Y-145960000D02*
X144945000Y-145960000D01*
X144945000Y-141320000D02*
X144597917Y-141320000D01*
X144945000Y-143320000D02*
X144597917Y-143320000D01*
X151415000Y-151960000D02*
X144945000Y-151960000D01*
X151415000Y-135900000D02*
X144945000Y-135900000D01*
X144945000Y-142600000D02*
X144597917Y-142600000D01*
X144945000Y-145320000D02*
X144597917Y-145320000D01*
X144945000Y-150600000D02*
X144597917Y-150600000D01*
X151415000Y-159443528D02*
X144945000Y-159443528D01*
X151415000Y-153960000D02*
X144945000Y-153960000D01*
X144945000Y-160020000D02*
X144945000Y-135900000D01*
X144945000Y-139320000D02*
X144597917Y-139320000D01*
X144945000Y-151320000D02*
X144597917Y-151320000D01*
X144945000Y-149320000D02*
X144597917Y-149320000D01*
X151415000Y-158416466D02*
X144945000Y-158416466D01*
X151415000Y-158188230D02*
X144945000Y-158188230D01*
X151415000Y-159101174D02*
X144945000Y-159101174D01*
X151415000Y-158302348D02*
X144945000Y-158302348D01*
X95086902Y-154559838D02*
X94632774Y-154559838D01*
X95086902Y-153089838D02*
X94632774Y-153089838D01*
X107850000Y-115551252D02*
X107850000Y-115028748D01*
X109320000Y-115551252D02*
X109320000Y-115028748D01*
X131360000Y-131917064D02*
X131360000Y-131462936D01*
X132830000Y-131917064D02*
X132830000Y-131462936D01*
X84250000Y-135797064D02*
X84250000Y-135342936D01*
X85720000Y-135797064D02*
X85720000Y-135342936D01*
X130885000Y-119980000D02*
X134335000Y-119980000D01*
X130885000Y-119980000D02*
X128935000Y-119980000D01*
X130885000Y-114860000D02*
X132835000Y-114860000D01*
X130885000Y-114860000D02*
X128935000Y-114860000D01*
X136017936Y-109005000D02*
X136472064Y-109005000D01*
X136017936Y-110475000D02*
X136472064Y-110475000D01*
X136195000Y-110950000D02*
X134520000Y-110950000D01*
X136195000Y-110950000D02*
X136845000Y-110950000D01*
X136195000Y-114070000D02*
X135545000Y-114070000D01*
X136195000Y-114070000D02*
X136845000Y-114070000D01*
X134245000Y-152440000D02*
X134245000Y-150220000D01*
X134245000Y-150220000D02*
X129835000Y-150220000D01*
X129835000Y-152440000D02*
X134245000Y-152440000D01*
X87732774Y-135839838D02*
X88186902Y-135839838D01*
X87732774Y-137309838D02*
X88186902Y-137309838D01*
D12*
X85959838Y-137724838D02*
X89959838Y-137724838D01*
X85959838Y-141724838D02*
X85959838Y-137724838D01*
X89959838Y-137724838D02*
X89959838Y-141724838D01*
X89959838Y-141724838D02*
X85959838Y-141724838D01*
X86159838Y-137724838D02*
G75*
G03*
X86159838Y-137724838I-200000J0D01*
G01*
D13*
X88855000Y-135300000D02*
X86855000Y-135300000D01*
X88105000Y-134600000D02*
X87505000Y-135000000D01*
X87505000Y-135000000D02*
X87505000Y-134200000D01*
X87505000Y-134200000D02*
X88105000Y-134600000D01*
X86855000Y-133900000D02*
X88855000Y-133900000D01*
G36*
X88138162Y-134600000D02*
G01*
X87553400Y-134989841D01*
X87553400Y-134210159D01*
X88138162Y-134600000D01*
G37*
G36*
X88305000Y-135100000D02*
G01*
X88105000Y-135100000D01*
X88105000Y-134100000D01*
X88305000Y-134100000D01*
X88305000Y-135100000D01*
G37*
D11*
X140502064Y-114135000D02*
X140047936Y-114135000D01*
X140502064Y-112665000D02*
X140047936Y-112665000D01*
D13*
X91859838Y-158728838D02*
X91859838Y-158220838D01*
D11*
X78655000Y-128200000D02*
X81055000Y-128200000D01*
X78655000Y-130600000D02*
X78655000Y-128200000D01*
X81055000Y-128200000D02*
X81055000Y-130600000D01*
X81055000Y-130600000D02*
X78655000Y-130600000D01*
X138017500Y-131540000D02*
X136342500Y-131540000D01*
X138017500Y-131540000D02*
X138667500Y-131540000D01*
X138017500Y-134660000D02*
X137367500Y-134660000D01*
X138017500Y-134660000D02*
X138667500Y-134660000D01*
X126360000Y-111307064D02*
X126360000Y-110852936D01*
X127830000Y-111307064D02*
X127830000Y-110852936D01*
X144112064Y-128725000D02*
X143657936Y-128725000D01*
X144112064Y-127255000D02*
X143657936Y-127255000D01*
X111860000Y-109777064D02*
X111860000Y-109322936D01*
X113330000Y-109777064D02*
X113330000Y-109322936D01*
X140522064Y-112075000D02*
X140067936Y-112075000D01*
X140522064Y-110605000D02*
X140067936Y-110605000D01*
X129380000Y-129235000D02*
X132830000Y-129235000D01*
X129380000Y-129235000D02*
X127430000Y-129235000D01*
X129380000Y-124115000D02*
X131330000Y-124115000D01*
X129380000Y-124115000D02*
X127430000Y-124115000D01*
X125160000Y-131897064D02*
X125160000Y-131442936D01*
X126630000Y-131897064D02*
X126630000Y-131442936D01*
X103720000Y-111661252D02*
X103720000Y-111138748D01*
X105190000Y-111661252D02*
X105190000Y-111138748D01*
X120965000Y-128430000D02*
X118040000Y-128430000D01*
X120965000Y-128430000D02*
X122465000Y-128430000D01*
X120965000Y-131650000D02*
X119465000Y-131650000D01*
X120965000Y-131650000D02*
X122465000Y-131650000D01*
X134245000Y-142840000D02*
X134245000Y-140620000D01*
X134245000Y-140620000D02*
X129835000Y-140620000D01*
X129835000Y-142840000D02*
X134245000Y-142840000D01*
X139872064Y-149685000D02*
X139417936Y-149685000D01*
X139872064Y-148215000D02*
X139417936Y-148215000D01*
X139872064Y-137685000D02*
X139417936Y-137685000D01*
X139872064Y-136215000D02*
X139417936Y-136215000D01*
X102090000Y-119612936D02*
X102090000Y-120067064D01*
X100620000Y-119612936D02*
X100620000Y-120067064D01*
X134245000Y-145240000D02*
X134245000Y-143020000D01*
X134245000Y-143020000D02*
X129835000Y-143020000D01*
X129835000Y-145240000D02*
X134245000Y-145240000D01*
X72040000Y-128025000D02*
X71440000Y-128025000D01*
X72040000Y-128135000D02*
X72040000Y-128025000D01*
X74630000Y-130900000D02*
X74230000Y-131100000D01*
X74230000Y-131100000D02*
X74630000Y-131300000D01*
X74630000Y-131300000D02*
X74630000Y-130900000D01*
X72040000Y-136065000D02*
X72040000Y-136175000D01*
X72040000Y-136175000D02*
X71440000Y-136175000D01*
X144372064Y-110607500D02*
X143917936Y-110607500D01*
X144372064Y-112077500D02*
X143917936Y-112077500D01*
D13*
X93105838Y-156574838D02*
X93613838Y-156574838D01*
D11*
X139872064Y-146215000D02*
X139417936Y-146215000D01*
X139872064Y-147685000D02*
X139417936Y-147685000D01*
X120020000Y-125177064D02*
X120020000Y-124722936D01*
X121490000Y-125177064D02*
X121490000Y-124722936D01*
X112902500Y-121272936D02*
X112902500Y-121727064D01*
X111432500Y-121272936D02*
X111432500Y-121727064D01*
X75768748Y-122830000D02*
X76291252Y-122830000D01*
X75768748Y-124300000D02*
X76291252Y-124300000D01*
X128360000Y-111307064D02*
X128360000Y-110852936D01*
X129830000Y-111307064D02*
X129830000Y-110852936D01*
X91236902Y-154735000D02*
X90782774Y-154735000D01*
X91236902Y-153265000D02*
X90782774Y-153265000D01*
D12*
X92459838Y-157674838D02*
X89459838Y-157674838D01*
X92459838Y-155174838D02*
X92459838Y-157674838D01*
X89459838Y-157674838D02*
X89459838Y-155174838D01*
X89459838Y-155174838D02*
X92459838Y-155174838D01*
D11*
X135910000Y-124812936D02*
X135910000Y-125267064D01*
X134440000Y-124812936D02*
X134440000Y-125267064D01*
X139872064Y-151685000D02*
X139417936Y-151685000D01*
X139872064Y-150215000D02*
X139417936Y-150215000D01*
X115910000Y-126357064D02*
X115910000Y-125902936D01*
X117380000Y-126357064D02*
X117380000Y-125902936D01*
D13*
X82505000Y-154200000D02*
X82505000Y-155800000D01*
X83755000Y-153950000D02*
X84555000Y-153950000D01*
X85805000Y-154200000D02*
X85805000Y-155800000D01*
D11*
X77955000Y-131300000D02*
X80355000Y-131300000D01*
X77955000Y-133700000D02*
X77955000Y-131300000D01*
X80355000Y-131300000D02*
X80355000Y-133700000D01*
X80355000Y-133700000D02*
X77955000Y-133700000D01*
X140262064Y-130905000D02*
X139807936Y-130905000D01*
X140262064Y-129435000D02*
X139807936Y-129435000D01*
X130460000Y-111357064D02*
X130460000Y-110902936D01*
X131930000Y-111357064D02*
X131930000Y-110902936D01*
X113710000Y-126357064D02*
X113710000Y-125902936D01*
X115180000Y-126357064D02*
X115180000Y-125902936D01*
X106887500Y-122660000D02*
X110337500Y-122660000D01*
X106887500Y-122660000D02*
X104937500Y-122660000D01*
X106887500Y-117540000D02*
X108837500Y-117540000D01*
X106887500Y-117540000D02*
X104937500Y-117540000D01*
D14*
X83565000Y-157782000D02*
X83565000Y-158798000D01*
D11*
X144362064Y-114125000D02*
X143907936Y-114125000D01*
X144362064Y-112655000D02*
X143907936Y-112655000D01*
X124260000Y-111307064D02*
X124260000Y-110852936D01*
X125730000Y-111307064D02*
X125730000Y-110852936D01*
X134245000Y-154840000D02*
X134245000Y-152620000D01*
X134245000Y-152620000D02*
X129835000Y-152620000D01*
X129835000Y-154840000D02*
X134245000Y-154840000D01*
D15*
X86459838Y-144224838D02*
X87059838Y-144224838D01*
X86459838Y-144874838D02*
X86459838Y-144224838D01*
X86459838Y-150624838D02*
X86459838Y-151224838D01*
X86459838Y-151224838D02*
X87059838Y-151224838D01*
X92859838Y-144224838D02*
X93459838Y-144224838D01*
X92859838Y-151224838D02*
X93459838Y-151224838D01*
X93459838Y-144224838D02*
X93459838Y-144824838D01*
X93459838Y-151224838D02*
X93459838Y-150624838D01*
X86795247Y-144224838D02*
G75*
G03*
X86795247Y-144224838I-335409J0D01*
G01*
D11*
X139872064Y-143685000D02*
X139417936Y-143685000D01*
X139872064Y-142215000D02*
X139417936Y-142215000D01*
X98482064Y-121575000D02*
X98027936Y-121575000D01*
X98482064Y-120105000D02*
X98027936Y-120105000D01*
X77955000Y-134450000D02*
X80355000Y-134450000D01*
X77955000Y-136850000D02*
X77955000Y-134450000D01*
X80355000Y-134450000D02*
X80355000Y-136850000D01*
X80355000Y-136850000D02*
X77955000Y-136850000D01*
X76955000Y-125100000D02*
X79355000Y-125100000D01*
X76955000Y-127500000D02*
X76955000Y-125100000D01*
X79355000Y-125100000D02*
X79355000Y-127500000D01*
X79355000Y-127500000D02*
X76955000Y-127500000D01*
X136352064Y-128735000D02*
X135897936Y-128735000D01*
X136352064Y-127265000D02*
X135897936Y-127265000D01*
X134245000Y-140440000D02*
X134245000Y-138220000D01*
X134245000Y-138220000D02*
X129835000Y-138220000D01*
X129835000Y-140440000D02*
X134245000Y-140440000D01*
X139872064Y-141685000D02*
X139417936Y-141685000D01*
X139872064Y-140215000D02*
X139417936Y-140215000D01*
X122982064Y-119125000D02*
X122527936Y-119125000D01*
X122982064Y-117655000D02*
X122527936Y-117655000D01*
X113860000Y-109777064D02*
X113860000Y-109322936D01*
X115330000Y-109777064D02*
X115330000Y-109322936D01*
X107222500Y-115072936D02*
X107222500Y-115527064D01*
X105752500Y-115072936D02*
X105752500Y-115527064D01*
X93895000Y-121750000D02*
X96115000Y-121750000D01*
X96115000Y-121750000D02*
X96115000Y-117340000D01*
X93895000Y-117340000D02*
X93895000Y-121750000D01*
X134245000Y-147640000D02*
X134245000Y-145420000D01*
X134245000Y-145420000D02*
X129835000Y-145420000D01*
X129835000Y-147640000D02*
X134245000Y-147640000D01*
X81945000Y-119426252D02*
X81945000Y-118903748D01*
X83415000Y-119426252D02*
X83415000Y-118903748D01*
X105172500Y-115072936D02*
X105172500Y-115527064D01*
X103702500Y-115072936D02*
X103702500Y-115527064D01*
X134245000Y-150040000D02*
X134245000Y-147820000D01*
X134245000Y-147820000D02*
X129835000Y-147820000D01*
X129835000Y-150040000D02*
X134245000Y-150040000D01*
X75718748Y-115230000D02*
X76241252Y-115230000D01*
X75718748Y-116700000D02*
X76241252Y-116700000D01*
X123490000Y-124722936D02*
X123490000Y-125177064D01*
X122020000Y-124722936D02*
X122020000Y-125177064D01*
D12*
X152045000Y-122810000D02*
X152045000Y-117810000D01*
X152045000Y-117810000D02*
X149545000Y-117810000D01*
X149545000Y-123910000D02*
X149545000Y-122810000D01*
X149545000Y-122810000D02*
X152045000Y-122810000D01*
X149545000Y-122810000D02*
X149545000Y-117810000D01*
X149545000Y-117810000D02*
X149545000Y-116710000D01*
X149545000Y-116710000D02*
X148245000Y-116710000D01*
X148245000Y-123910000D02*
X149545000Y-123910000D01*
X145945000Y-116710000D02*
X139295000Y-116710000D01*
X142795000Y-123910000D02*
X139345000Y-123910000D01*
X137545000Y-117510000D02*
X137545000Y-123060000D01*
D16*
X148945000Y-116060000D02*
G75*
G03*
X148945000Y-116060000I-150000J0D01*
G01*
D11*
X75655000Y-137800000D02*
X78055000Y-137800000D01*
X75655000Y-140200000D02*
X75655000Y-137800000D01*
X78055000Y-137800000D02*
X78055000Y-140200000D01*
X78055000Y-140200000D02*
X75655000Y-140200000D01*
D13*
X95159838Y-148470838D02*
X95159838Y-148978838D01*
D11*
X132582064Y-121905000D02*
X132127936Y-121905000D01*
X132582064Y-120435000D02*
X132127936Y-120435000D01*
D14*
X81743000Y-154740000D02*
X80727000Y-154740000D01*
D11*
X126450000Y-117162936D02*
X126450000Y-117617064D01*
X124980000Y-117162936D02*
X124980000Y-117617064D01*
X144112064Y-130925000D02*
X143657936Y-130925000D01*
X144112064Y-129455000D02*
X143657936Y-129455000D01*
X140262064Y-128725000D02*
X139807936Y-128725000D01*
X140262064Y-127255000D02*
X139807936Y-127255000D01*
D13*
X95109838Y-144870838D02*
X95109838Y-145378838D01*
D11*
X119385000Y-110960000D02*
X116460000Y-110960000D01*
X119385000Y-110960000D02*
X120885000Y-110960000D01*
X119385000Y-114180000D02*
X117885000Y-114180000D01*
X119385000Y-114180000D02*
X120885000Y-114180000D01*
X139872064Y-139685000D02*
X139417936Y-139685000D01*
X139872064Y-138215000D02*
X139417936Y-138215000D01*
X77255000Y-122260000D02*
X80705000Y-122260000D01*
X77255000Y-122260000D02*
X75305000Y-122260000D01*
X77255000Y-117140000D02*
X79205000Y-117140000D01*
X77255000Y-117140000D02*
X75305000Y-117140000D01*
X111382064Y-125317500D02*
X110927936Y-125317500D01*
X111382064Y-123847500D02*
X110927936Y-123847500D01*
X139872064Y-145685000D02*
X139417936Y-145685000D01*
X139872064Y-144215000D02*
X139417936Y-144215000D01*
D13*
X89580400Y-128850000D02*
X89580400Y-133050000D01*
X86529600Y-133050000D02*
X86529600Y-128850000D01*
D11*
X108915000Y-123672500D02*
X106695000Y-123672500D01*
X106695000Y-123672500D02*
X106695000Y-128082500D01*
X108915000Y-128082500D02*
X108915000Y-123672500D01*
X134245000Y-138040000D02*
X134245000Y-135820000D01*
X134245000Y-135820000D02*
X129835000Y-135820000D01*
X129835000Y-138040000D02*
X134245000Y-138040000D01*
X127250000Y-131897064D02*
X127250000Y-131442936D01*
X128720000Y-131897064D02*
X128720000Y-131442936D01*
X129290000Y-131907064D02*
X129290000Y-131452936D01*
X130760000Y-131907064D02*
X130760000Y-131452936D01*
X146340000Y-112557064D02*
X146340000Y-112102936D01*
X147810000Y-112557064D02*
X147810000Y-112102936D01*
D14*
X78955000Y-144200000D02*
X79755000Y-144200000D01*
%LPC*%
D17*
X143735000Y-158960000D03*
D18*
X143735000Y-156960000D03*
X143735000Y-154960000D03*
X143735000Y-152960000D03*
X143735000Y-150960000D03*
X143735000Y-148960000D03*
X143735000Y-146960000D03*
X143735000Y-144960000D03*
X143735000Y-142960000D03*
X143735000Y-140960000D03*
X143735000Y-138960000D03*
X143735000Y-136960000D03*
D19*
X95859838Y-153824838D03*
X93859838Y-153824838D03*
D20*
X108585000Y-116327500D03*
X108585000Y-114252500D03*
D21*
X132095000Y-132690000D03*
X132095000Y-130690000D03*
X84985000Y-136570000D03*
X84985000Y-134570000D03*
D22*
X133360000Y-119325000D03*
X133360000Y-118055000D03*
X133360000Y-116785000D03*
X133360000Y-115515000D03*
X128410000Y-115515000D03*
X128410000Y-116785000D03*
X128410000Y-118055000D03*
X128410000Y-119325000D03*
D23*
X135245000Y-109740000D03*
X137245000Y-109740000D03*
D24*
X135257500Y-111560000D03*
X135257500Y-113460000D03*
X137132500Y-112510000D03*
D25*
X133335000Y-151330000D03*
X129835000Y-151330000D03*
D23*
X86959838Y-136574838D03*
X88959838Y-136574838D03*
D26*
X86109838Y-138524838D03*
X86109838Y-139324838D03*
X86109838Y-140124838D03*
X86109838Y-140924838D03*
X89809838Y-140924838D03*
X89809838Y-140124838D03*
X89809838Y-139324838D03*
X89809838Y-138524838D03*
D27*
X87959838Y-139724838D03*
D28*
X86785000Y-134600000D03*
X88925000Y-134600000D03*
D19*
X141275000Y-113400000D03*
X139275000Y-113400000D03*
D29*
X92367838Y-158474838D03*
X91351838Y-158474838D03*
D30*
X79855000Y-129400000D03*
D24*
X137080000Y-132150000D03*
X137080000Y-134050000D03*
X138955000Y-133100000D03*
D21*
X127095000Y-112080000D03*
X127095000Y-110080000D03*
D19*
X144885000Y-127990000D03*
X142885000Y-127990000D03*
D21*
X112595000Y-110550000D03*
X112595000Y-108550000D03*
D19*
X141295000Y-111340000D03*
X139295000Y-111340000D03*
D22*
X131855000Y-128580000D03*
X131855000Y-127310000D03*
X131855000Y-126040000D03*
X131855000Y-124770000D03*
X126905000Y-124770000D03*
X126905000Y-126040000D03*
X126905000Y-127310000D03*
X126905000Y-128580000D03*
D21*
X125895000Y-132670000D03*
X125895000Y-130670000D03*
D20*
X104455000Y-112437500D03*
X104455000Y-110362500D03*
D31*
X118765000Y-129040000D03*
X118765000Y-129540000D03*
X118765000Y-130040000D03*
X118765000Y-130540000D03*
X118765000Y-131040000D03*
X123165000Y-131040000D03*
X123165000Y-130540000D03*
X123165000Y-130040000D03*
X123165000Y-129540000D03*
X123165000Y-129040000D03*
D25*
X133335000Y-141730000D03*
X129835000Y-141730000D03*
D19*
X140645000Y-148950000D03*
X138645000Y-148950000D03*
X140645000Y-136950000D03*
X138645000Y-136950000D03*
D32*
X101355000Y-118840000D03*
X101355000Y-120840000D03*
D25*
X133335000Y-144130000D03*
X129835000Y-144130000D03*
D33*
X75430000Y-131100000D03*
X75430000Y-131600000D03*
X75430000Y-132100000D03*
X75430000Y-132600000D03*
X75430000Y-133100000D03*
D34*
X73730000Y-129430000D03*
X73730000Y-134770000D03*
D19*
X143145000Y-111342500D03*
X145145000Y-111342500D03*
D35*
X93359838Y-157082838D03*
X93359838Y-156066838D03*
D19*
X138645000Y-146950000D03*
X140645000Y-146950000D03*
D21*
X120755000Y-125950000D03*
X120755000Y-123950000D03*
D32*
X112167500Y-120500000D03*
X112167500Y-122500000D03*
D36*
X74992500Y-123565000D03*
X77067500Y-123565000D03*
D21*
X129095000Y-112080000D03*
X129095000Y-110080000D03*
D19*
X92009838Y-154000000D03*
X90009838Y-154000000D03*
D37*
X91784838Y-155799838D03*
X90134838Y-155799838D03*
X90134838Y-157049838D03*
X91784838Y-157049838D03*
D32*
X135175000Y-124040000D03*
X135175000Y-126040000D03*
D19*
X140645000Y-150950000D03*
X138645000Y-150950000D03*
D21*
X116645000Y-127130000D03*
X116645000Y-125130000D03*
D38*
X83205000Y-156300100D03*
X84155000Y-156300100D03*
X85105000Y-156300100D03*
X85105000Y-153699900D03*
X83205000Y-153699900D03*
D30*
X79155000Y-132500000D03*
D19*
X141035000Y-130170000D03*
X139035000Y-130170000D03*
D21*
X131195000Y-112130000D03*
X131195000Y-110130000D03*
X114445000Y-127130000D03*
X114445000Y-125130000D03*
D22*
X109362500Y-122005000D03*
X109362500Y-120735000D03*
X109362500Y-119465000D03*
X109362500Y-118195000D03*
X104412500Y-118195000D03*
X104412500Y-119465000D03*
X104412500Y-120735000D03*
X104412500Y-122005000D03*
D39*
X82615000Y-158290000D03*
X84515000Y-158290000D03*
D19*
X145135000Y-113390000D03*
X143135000Y-113390000D03*
D21*
X124995000Y-112080000D03*
X124995000Y-110080000D03*
D25*
X133335000Y-153730000D03*
X129835000Y-153730000D03*
D40*
X86509838Y-145124838D03*
X86509838Y-145524838D03*
X86509838Y-145924838D03*
X86509838Y-146324838D03*
X86509838Y-146724838D03*
X86509838Y-147124838D03*
X86509838Y-147524838D03*
X86509838Y-147924838D03*
X86509838Y-148324838D03*
X86509838Y-148724838D03*
X86509838Y-149124838D03*
X86509838Y-149524838D03*
X86509838Y-149924838D03*
X86509838Y-150324838D03*
D41*
X87359838Y-151174838D03*
X87759838Y-151174838D03*
X88159838Y-151174838D03*
X88559838Y-151174838D03*
X88959838Y-151174838D03*
X89359838Y-151174838D03*
X89759838Y-151174838D03*
X90159838Y-151174838D03*
X90559838Y-151174838D03*
X90959838Y-151174838D03*
X91359838Y-151174838D03*
X91759838Y-151174838D03*
X92159838Y-151174838D03*
X92559838Y-151174838D03*
D42*
X93409838Y-150324838D03*
X93409838Y-149924838D03*
X93409838Y-149524838D03*
X93409838Y-149124838D03*
X93409838Y-148724838D03*
X93409838Y-148324838D03*
X93409838Y-147924838D03*
X93409838Y-147524838D03*
X93409838Y-147124838D03*
X93409838Y-146724838D03*
X93409838Y-146324838D03*
X93409838Y-145924838D03*
X93409838Y-145524838D03*
X93409838Y-145124838D03*
D43*
X92559838Y-144274838D03*
X92159838Y-144274838D03*
X91759838Y-144274838D03*
X91359838Y-144274838D03*
X90959838Y-144274838D03*
X90559838Y-144274838D03*
X90159838Y-144274838D03*
X89759838Y-144274838D03*
X89359838Y-144274838D03*
X88959838Y-144274838D03*
X88559838Y-144274838D03*
X88159838Y-144274838D03*
X87759838Y-144274838D03*
X87359838Y-144274838D03*
D44*
X89959838Y-147724838D03*
D19*
X140645000Y-142950000D03*
X138645000Y-142950000D03*
X99255000Y-120840000D03*
X97255000Y-120840000D03*
D30*
X79155000Y-135650000D03*
X78155000Y-126300000D03*
D19*
X137125000Y-128000000D03*
X135125000Y-128000000D03*
D25*
X133335000Y-139330000D03*
X129835000Y-139330000D03*
D19*
X140645000Y-140950000D03*
X138645000Y-140950000D03*
X123755000Y-118390000D03*
X121755000Y-118390000D03*
D21*
X114595000Y-110550000D03*
X114595000Y-108550000D03*
D32*
X106487500Y-114300000D03*
X106487500Y-116300000D03*
D45*
X95005000Y-120840000D03*
X95005000Y-117340000D03*
D25*
X133335000Y-146530000D03*
X129835000Y-146530000D03*
D20*
X82680000Y-120202500D03*
X82680000Y-118127500D03*
D32*
X104437500Y-114300000D03*
X104437500Y-116300000D03*
D25*
X133335000Y-148930000D03*
X129835000Y-148930000D03*
D36*
X74942500Y-115965000D03*
X77017500Y-115965000D03*
D32*
X122755000Y-123950000D03*
X122755000Y-125950000D03*
D46*
X147045000Y-116510000D03*
D47*
X138145000Y-124035000D03*
D46*
X143845000Y-124110000D03*
D47*
X138145000Y-116585000D03*
D46*
X147045000Y-124110000D03*
D30*
X76855000Y-139000000D03*
D48*
X94651838Y-148724838D03*
X95667838Y-148724838D03*
D19*
X133355000Y-121170000D03*
X131355000Y-121170000D03*
D49*
X81235000Y-153790000D03*
X81235000Y-155690000D03*
D32*
X125715000Y-116390000D03*
X125715000Y-118390000D03*
D19*
X144885000Y-130190000D03*
X142885000Y-130190000D03*
X141035000Y-127990000D03*
X139035000Y-127990000D03*
D48*
X94601838Y-145124838D03*
X95617838Y-145124838D03*
D31*
X117185000Y-111570000D03*
X117185000Y-112070000D03*
X117185000Y-112570000D03*
X117185000Y-113070000D03*
X117185000Y-113570000D03*
X121585000Y-113570000D03*
X121585000Y-113070000D03*
X121585000Y-112570000D03*
X121585000Y-112070000D03*
X121585000Y-111570000D03*
D19*
X140645000Y-138950000D03*
X138645000Y-138950000D03*
D22*
X79730000Y-121605000D03*
X79730000Y-120335000D03*
X79730000Y-119065000D03*
X79730000Y-117795000D03*
X74780000Y-117795000D03*
X74780000Y-119065000D03*
X74780000Y-120335000D03*
X74780000Y-121605000D03*
D19*
X112155000Y-124582500D03*
X110155000Y-124582500D03*
X140645000Y-144950000D03*
X138645000Y-144950000D03*
D50*
X88855000Y-133000000D03*
X88855000Y-128900000D03*
X87255000Y-133000000D03*
X87255000Y-128900000D03*
D51*
X107805000Y-124582500D03*
X107805000Y-128082500D03*
D25*
X133335000Y-136930000D03*
X129835000Y-136930000D03*
D21*
X127985000Y-132670000D03*
X127985000Y-130670000D03*
X130025000Y-132680000D03*
X130025000Y-130680000D03*
X147075000Y-113330000D03*
X147075000Y-111330000D03*
D52*
X79355000Y-145050000D03*
X79355000Y-143350000D03*
%LPD*%
M02*
