%TF.GenerationSoftware,KiCad,Pcbnew,7.0.3*%
%TF.CreationDate,2023-06-15T19:22:04+02:00*%
%TF.ProjectId,osc_v2,6f73635f-7632-42e6-9b69-6361645f7063,rev?*%
%TF.SameCoordinates,Original*%
%TF.FileFunction,Drillmap*%
%TF.FilePolarity,Positive*%
%FSLAX45Y45*%
G04 Gerber Fmt 4.5, Leading zero omitted, Abs format (unit mm)*
G04 Created by KiCad (PCBNEW 7.0.3) date 2023-06-15 19:22:04*
%MOMM*%
%LPD*%
G01*
G04 APERTURE LIST*
%ADD10C,0.100000*%
%ADD11C,0.200000*%
G04 APERTURE END LIST*
D10*
X8016500Y-10680000D02*
X8016500Y-10220000D01*
X8015500Y-16681000D02*
X8015500Y-16221000D01*
D11*
X14290500Y-16450000D02*
G75*
G03*
X14290500Y-16450000I-160000J0D01*
G01*
D10*
X13925500Y-16221000D02*
X8425500Y-16221000D01*
X14955500Y-16221000D02*
X14335500Y-16221000D01*
D11*
X14260500Y-10425000D02*
G75*
G03*
X14260500Y-10425000I-130000J0D01*
G01*
D10*
X14954500Y-12441000D02*
X14955500Y-16221000D01*
X13926500Y-10220000D02*
X14336500Y-10220000D01*
X8425500Y-16221000D02*
X8425500Y-16681000D01*
D11*
X8380500Y-16450000D02*
G75*
G03*
X8380500Y-16450000I-160000J0D01*
G01*
D10*
X8015500Y-16221000D02*
X7025500Y-16220000D01*
X13925500Y-16681000D02*
X13925500Y-16221000D01*
X14954500Y-11611000D02*
X14954500Y-10681000D01*
X14335500Y-16681000D02*
X13925500Y-16681000D01*
D11*
X8350500Y-10425000D02*
G75*
G03*
X8350500Y-10425000I-130000J0D01*
G01*
D10*
X8426500Y-10220000D02*
X8426500Y-10680000D01*
X13926500Y-10680000D02*
X13926500Y-10220000D01*
X8425500Y-16681000D02*
X8015500Y-16681000D01*
X8016500Y-10220000D02*
X8426500Y-10220000D01*
X14336500Y-10220000D02*
X14336500Y-10680000D01*
X7025500Y-16220000D02*
X7026500Y-10680000D01*
X14335500Y-16221000D02*
X14335500Y-16681000D01*
X14336500Y-10680000D02*
X14954500Y-10681000D01*
X7026500Y-10680000D02*
X8016500Y-10680000D01*
X8426500Y-10680000D02*
X13926500Y-10680000D01*
D11*
X7281277Y-16997484D02*
X7281277Y-16797484D01*
X7281277Y-16797484D02*
X7328896Y-16797484D01*
X7328896Y-16797484D02*
X7357467Y-16807008D01*
X7357467Y-16807008D02*
X7376515Y-16826055D01*
X7376515Y-16826055D02*
X7386039Y-16845103D01*
X7386039Y-16845103D02*
X7395562Y-16883198D01*
X7395562Y-16883198D02*
X7395562Y-16911770D01*
X7395562Y-16911770D02*
X7386039Y-16949865D01*
X7386039Y-16949865D02*
X7376515Y-16968912D01*
X7376515Y-16968912D02*
X7357467Y-16987960D01*
X7357467Y-16987960D02*
X7328896Y-16997484D01*
X7328896Y-16997484D02*
X7281277Y-16997484D01*
X7481277Y-16997484D02*
X7481277Y-16864150D01*
X7481277Y-16902246D02*
X7490801Y-16883198D01*
X7490801Y-16883198D02*
X7500324Y-16873674D01*
X7500324Y-16873674D02*
X7519372Y-16864150D01*
X7519372Y-16864150D02*
X7538420Y-16864150D01*
X7605086Y-16997484D02*
X7605086Y-16864150D01*
X7605086Y-16797484D02*
X7595562Y-16807008D01*
X7595562Y-16807008D02*
X7605086Y-16816531D01*
X7605086Y-16816531D02*
X7614610Y-16807008D01*
X7614610Y-16807008D02*
X7605086Y-16797484D01*
X7605086Y-16797484D02*
X7605086Y-16816531D01*
X7728896Y-16997484D02*
X7709848Y-16987960D01*
X7709848Y-16987960D02*
X7700324Y-16968912D01*
X7700324Y-16968912D02*
X7700324Y-16797484D01*
X7833658Y-16997484D02*
X7814610Y-16987960D01*
X7814610Y-16987960D02*
X7805086Y-16968912D01*
X7805086Y-16968912D02*
X7805086Y-16797484D01*
X8062229Y-16997484D02*
X8062229Y-16797484D01*
X8062229Y-16797484D02*
X8128896Y-16940341D01*
X8128896Y-16940341D02*
X8195562Y-16797484D01*
X8195562Y-16797484D02*
X8195562Y-16997484D01*
X8376515Y-16997484D02*
X8376515Y-16892722D01*
X8376515Y-16892722D02*
X8366991Y-16873674D01*
X8366991Y-16873674D02*
X8347943Y-16864150D01*
X8347943Y-16864150D02*
X8309848Y-16864150D01*
X8309848Y-16864150D02*
X8290801Y-16873674D01*
X8376515Y-16987960D02*
X8357467Y-16997484D01*
X8357467Y-16997484D02*
X8309848Y-16997484D01*
X8309848Y-16997484D02*
X8290801Y-16987960D01*
X8290801Y-16987960D02*
X8281277Y-16968912D01*
X8281277Y-16968912D02*
X8281277Y-16949865D01*
X8281277Y-16949865D02*
X8290801Y-16930817D01*
X8290801Y-16930817D02*
X8309848Y-16921293D01*
X8309848Y-16921293D02*
X8357467Y-16921293D01*
X8357467Y-16921293D02*
X8376515Y-16911770D01*
X8471753Y-16864150D02*
X8471753Y-17064150D01*
X8471753Y-16873674D02*
X8490801Y-16864150D01*
X8490801Y-16864150D02*
X8528896Y-16864150D01*
X8528896Y-16864150D02*
X8547944Y-16873674D01*
X8547944Y-16873674D02*
X8557467Y-16883198D01*
X8557467Y-16883198D02*
X8566991Y-16902246D01*
X8566991Y-16902246D02*
X8566991Y-16959389D01*
X8566991Y-16959389D02*
X8557467Y-16978436D01*
X8557467Y-16978436D02*
X8547944Y-16987960D01*
X8547944Y-16987960D02*
X8528896Y-16997484D01*
X8528896Y-16997484D02*
X8490801Y-16997484D01*
X8490801Y-16997484D02*
X8471753Y-16987960D01*
X8652705Y-16978436D02*
X8662229Y-16987960D01*
X8662229Y-16987960D02*
X8652705Y-16997484D01*
X8652705Y-16997484D02*
X8643182Y-16987960D01*
X8643182Y-16987960D02*
X8652705Y-16978436D01*
X8652705Y-16978436D02*
X8652705Y-16997484D01*
X8652705Y-16873674D02*
X8662229Y-16883198D01*
X8662229Y-16883198D02*
X8652705Y-16892722D01*
X8652705Y-16892722D02*
X8643182Y-16883198D01*
X8643182Y-16883198D02*
X8652705Y-16873674D01*
X8652705Y-16873674D02*
X8652705Y-16892722D01*
M02*
