%TF.GenerationSoftware,KiCad,Pcbnew,7.0.3*%
%TF.CreationDate,2023-06-15T19:17:25+02:00*%
%TF.ProjectId,osc_v2,6f73635f-7632-42e6-9b69-6361645f7063,rev?*%
%TF.SameCoordinates,PX4300198PY9aaf9c0*%
%TF.FileFunction,Legend,Top*%
%TF.FilePolarity,Positive*%
%FSLAX46Y46*%
G04 Gerber Fmt 4.6, Leading zero omitted, Abs format (unit mm)*
G04 Created by KiCad (PCBNEW 7.0.3) date 2023-06-15 19:17:25*
%MOMM*%
%LPD*%
G01*
G04 APERTURE LIST*
%ADD10C,0.150000*%
%ADD11C,0.120000*%
%ADD12C,0.127000*%
%ADD13C,0.203200*%
%ADD14C,0.304800*%
%ADD15C,0.152400*%
%ADD16C,0.300000*%
G04 APERTURE END LIST*
D10*
%TO.C,J2*%
X70165350Y5945181D02*
X70165350Y5230896D01*
X70165350Y5230896D02*
X70117731Y5088039D01*
X70117731Y5088039D02*
X70022493Y4992800D01*
X70022493Y4992800D02*
X69879636Y4945181D01*
X69879636Y4945181D02*
X69784398Y4945181D01*
X70593922Y5849943D02*
X70641541Y5897562D01*
X70641541Y5897562D02*
X70736779Y5945181D01*
X70736779Y5945181D02*
X70974874Y5945181D01*
X70974874Y5945181D02*
X71070112Y5897562D01*
X71070112Y5897562D02*
X71117731Y5849943D01*
X71117731Y5849943D02*
X71165350Y5754705D01*
X71165350Y5754705D02*
X71165350Y5659467D01*
X71165350Y5659467D02*
X71117731Y5516610D01*
X71117731Y5516610D02*
X70546303Y4945181D01*
X70546303Y4945181D02*
X71165350Y4945181D01*
%TO.C,R11*%
X27455826Y7845181D02*
X27122493Y8321372D01*
X26884398Y7845181D02*
X26884398Y8845181D01*
X26884398Y8845181D02*
X27265350Y8845181D01*
X27265350Y8845181D02*
X27360588Y8797562D01*
X27360588Y8797562D02*
X27408207Y8749943D01*
X27408207Y8749943D02*
X27455826Y8654705D01*
X27455826Y8654705D02*
X27455826Y8511848D01*
X27455826Y8511848D02*
X27408207Y8416610D01*
X27408207Y8416610D02*
X27360588Y8368991D01*
X27360588Y8368991D02*
X27265350Y8321372D01*
X27265350Y8321372D02*
X26884398Y8321372D01*
X28408207Y7845181D02*
X27836779Y7845181D01*
X28122493Y7845181D02*
X28122493Y8845181D01*
X28122493Y8845181D02*
X28027255Y8702324D01*
X28027255Y8702324D02*
X27932017Y8607086D01*
X27932017Y8607086D02*
X27836779Y8559467D01*
X29360588Y7845181D02*
X28789160Y7845181D01*
X29074874Y7845181D02*
X29074874Y8845181D01*
X29074874Y8845181D02*
X28979636Y8702324D01*
X28979636Y8702324D02*
X28884398Y8607086D01*
X28884398Y8607086D02*
X28789160Y8559467D01*
%TO.C,C28*%
X40559580Y46255827D02*
X40607200Y46208208D01*
X40607200Y46208208D02*
X40654819Y46065351D01*
X40654819Y46065351D02*
X40654819Y45970113D01*
X40654819Y45970113D02*
X40607200Y45827256D01*
X40607200Y45827256D02*
X40511961Y45732018D01*
X40511961Y45732018D02*
X40416723Y45684399D01*
X40416723Y45684399D02*
X40226247Y45636780D01*
X40226247Y45636780D02*
X40083390Y45636780D01*
X40083390Y45636780D02*
X39892914Y45684399D01*
X39892914Y45684399D02*
X39797676Y45732018D01*
X39797676Y45732018D02*
X39702438Y45827256D01*
X39702438Y45827256D02*
X39654819Y45970113D01*
X39654819Y45970113D02*
X39654819Y46065351D01*
X39654819Y46065351D02*
X39702438Y46208208D01*
X39702438Y46208208D02*
X39750057Y46255827D01*
X39750057Y46636780D02*
X39702438Y46684399D01*
X39702438Y46684399D02*
X39654819Y46779637D01*
X39654819Y46779637D02*
X39654819Y47017732D01*
X39654819Y47017732D02*
X39702438Y47112970D01*
X39702438Y47112970D02*
X39750057Y47160589D01*
X39750057Y47160589D02*
X39845295Y47208208D01*
X39845295Y47208208D02*
X39940533Y47208208D01*
X39940533Y47208208D02*
X40083390Y47160589D01*
X40083390Y47160589D02*
X40654819Y46589161D01*
X40654819Y46589161D02*
X40654819Y47208208D01*
X40083390Y47779637D02*
X40035771Y47684399D01*
X40035771Y47684399D02*
X39988152Y47636780D01*
X39988152Y47636780D02*
X39892914Y47589161D01*
X39892914Y47589161D02*
X39845295Y47589161D01*
X39845295Y47589161D02*
X39750057Y47636780D01*
X39750057Y47636780D02*
X39702438Y47684399D01*
X39702438Y47684399D02*
X39654819Y47779637D01*
X39654819Y47779637D02*
X39654819Y47970113D01*
X39654819Y47970113D02*
X39702438Y48065351D01*
X39702438Y48065351D02*
X39750057Y48112970D01*
X39750057Y48112970D02*
X39845295Y48160589D01*
X39845295Y48160589D02*
X39892914Y48160589D01*
X39892914Y48160589D02*
X39988152Y48112970D01*
X39988152Y48112970D02*
X40035771Y48065351D01*
X40035771Y48065351D02*
X40083390Y47970113D01*
X40083390Y47970113D02*
X40083390Y47779637D01*
X40083390Y47779637D02*
X40131009Y47684399D01*
X40131009Y47684399D02*
X40178628Y47636780D01*
X40178628Y47636780D02*
X40273866Y47589161D01*
X40273866Y47589161D02*
X40464342Y47589161D01*
X40464342Y47589161D02*
X40559580Y47636780D01*
X40559580Y47636780D02*
X40607200Y47684399D01*
X40607200Y47684399D02*
X40654819Y47779637D01*
X40654819Y47779637D02*
X40654819Y47970113D01*
X40654819Y47970113D02*
X40607200Y48065351D01*
X40607200Y48065351D02*
X40559580Y48112970D01*
X40559580Y48112970D02*
X40464342Y48160589D01*
X40464342Y48160589D02*
X40273866Y48160589D01*
X40273866Y48160589D02*
X40178628Y48112970D01*
X40178628Y48112970D02*
X40131009Y48065351D01*
X40131009Y48065351D02*
X40083390Y47970113D01*
%TO.C,R43*%
X64154819Y29655827D02*
X63678628Y29322494D01*
X64154819Y29084399D02*
X63154819Y29084399D01*
X63154819Y29084399D02*
X63154819Y29465351D01*
X63154819Y29465351D02*
X63202438Y29560589D01*
X63202438Y29560589D02*
X63250057Y29608208D01*
X63250057Y29608208D02*
X63345295Y29655827D01*
X63345295Y29655827D02*
X63488152Y29655827D01*
X63488152Y29655827D02*
X63583390Y29608208D01*
X63583390Y29608208D02*
X63631009Y29560589D01*
X63631009Y29560589D02*
X63678628Y29465351D01*
X63678628Y29465351D02*
X63678628Y29084399D01*
X63488152Y30512970D02*
X64154819Y30512970D01*
X63107200Y30274875D02*
X63821485Y30036780D01*
X63821485Y30036780D02*
X63821485Y30655827D01*
X63154819Y30941542D02*
X63154819Y31560589D01*
X63154819Y31560589D02*
X63535771Y31227256D01*
X63535771Y31227256D02*
X63535771Y31370113D01*
X63535771Y31370113D02*
X63583390Y31465351D01*
X63583390Y31465351D02*
X63631009Y31512970D01*
X63631009Y31512970D02*
X63726247Y31560589D01*
X63726247Y31560589D02*
X63964342Y31560589D01*
X63964342Y31560589D02*
X64059580Y31512970D01*
X64059580Y31512970D02*
X64107200Y31465351D01*
X64107200Y31465351D02*
X64154819Y31370113D01*
X64154819Y31370113D02*
X64154819Y31084399D01*
X64154819Y31084399D02*
X64107200Y30989161D01*
X64107200Y30989161D02*
X64059580Y30941542D01*
%TO.C,R13*%
X15254819Y29255827D02*
X14778628Y28922494D01*
X15254819Y28684399D02*
X14254819Y28684399D01*
X14254819Y28684399D02*
X14254819Y29065351D01*
X14254819Y29065351D02*
X14302438Y29160589D01*
X14302438Y29160589D02*
X14350057Y29208208D01*
X14350057Y29208208D02*
X14445295Y29255827D01*
X14445295Y29255827D02*
X14588152Y29255827D01*
X14588152Y29255827D02*
X14683390Y29208208D01*
X14683390Y29208208D02*
X14731009Y29160589D01*
X14731009Y29160589D02*
X14778628Y29065351D01*
X14778628Y29065351D02*
X14778628Y28684399D01*
X15254819Y30208208D02*
X15254819Y29636780D01*
X15254819Y29922494D02*
X14254819Y29922494D01*
X14254819Y29922494D02*
X14397676Y29827256D01*
X14397676Y29827256D02*
X14492914Y29732018D01*
X14492914Y29732018D02*
X14540533Y29636780D01*
X14254819Y30541542D02*
X14254819Y31160589D01*
X14254819Y31160589D02*
X14635771Y30827256D01*
X14635771Y30827256D02*
X14635771Y30970113D01*
X14635771Y30970113D02*
X14683390Y31065351D01*
X14683390Y31065351D02*
X14731009Y31112970D01*
X14731009Y31112970D02*
X14826247Y31160589D01*
X14826247Y31160589D02*
X15064342Y31160589D01*
X15064342Y31160589D02*
X15159580Y31112970D01*
X15159580Y31112970D02*
X15207200Y31065351D01*
X15207200Y31065351D02*
X15254819Y30970113D01*
X15254819Y30970113D02*
X15254819Y30684399D01*
X15254819Y30684399D02*
X15207200Y30589161D01*
X15207200Y30589161D02*
X15159580Y30541542D01*
%TO.C,U2*%
X59966779Y45375181D02*
X59966779Y44565658D01*
X59966779Y44565658D02*
X60014398Y44470420D01*
X60014398Y44470420D02*
X60062017Y44422800D01*
X60062017Y44422800D02*
X60157255Y44375181D01*
X60157255Y44375181D02*
X60347731Y44375181D01*
X60347731Y44375181D02*
X60442969Y44422800D01*
X60442969Y44422800D02*
X60490588Y44470420D01*
X60490588Y44470420D02*
X60538207Y44565658D01*
X60538207Y44565658D02*
X60538207Y45375181D01*
X60966779Y45279943D02*
X61014398Y45327562D01*
X61014398Y45327562D02*
X61109636Y45375181D01*
X61109636Y45375181D02*
X61347731Y45375181D01*
X61347731Y45375181D02*
X61442969Y45327562D01*
X61442969Y45327562D02*
X61490588Y45279943D01*
X61490588Y45279943D02*
X61538207Y45184705D01*
X61538207Y45184705D02*
X61538207Y45089467D01*
X61538207Y45089467D02*
X61490588Y44946610D01*
X61490588Y44946610D02*
X60919160Y44375181D01*
X60919160Y44375181D02*
X61538207Y44375181D01*
%TO.C,R41*%
X65335826Y53615181D02*
X65002493Y54091372D01*
X64764398Y53615181D02*
X64764398Y54615181D01*
X64764398Y54615181D02*
X65145350Y54615181D01*
X65145350Y54615181D02*
X65240588Y54567562D01*
X65240588Y54567562D02*
X65288207Y54519943D01*
X65288207Y54519943D02*
X65335826Y54424705D01*
X65335826Y54424705D02*
X65335826Y54281848D01*
X65335826Y54281848D02*
X65288207Y54186610D01*
X65288207Y54186610D02*
X65240588Y54138991D01*
X65240588Y54138991D02*
X65145350Y54091372D01*
X65145350Y54091372D02*
X64764398Y54091372D01*
X66192969Y54281848D02*
X66192969Y53615181D01*
X65954874Y54662800D02*
X65716779Y53948515D01*
X65716779Y53948515D02*
X66335826Y53948515D01*
X67240588Y53615181D02*
X66669160Y53615181D01*
X66954874Y53615181D02*
X66954874Y54615181D01*
X66954874Y54615181D02*
X66859636Y54472324D01*
X66859636Y54472324D02*
X66764398Y54377086D01*
X66764398Y54377086D02*
X66669160Y54329467D01*
%TO.C,Q2*%
X65955945Y46689943D02*
X65860707Y46737562D01*
X65860707Y46737562D02*
X65765469Y46832800D01*
X65765469Y46832800D02*
X65622612Y46975658D01*
X65622612Y46975658D02*
X65527374Y47023277D01*
X65527374Y47023277D02*
X65432136Y47023277D01*
X65479755Y46785181D02*
X65384517Y46832800D01*
X65384517Y46832800D02*
X65289279Y46928039D01*
X65289279Y46928039D02*
X65241660Y47118515D01*
X65241660Y47118515D02*
X65241660Y47451848D01*
X65241660Y47451848D02*
X65289279Y47642324D01*
X65289279Y47642324D02*
X65384517Y47737562D01*
X65384517Y47737562D02*
X65479755Y47785181D01*
X65479755Y47785181D02*
X65670231Y47785181D01*
X65670231Y47785181D02*
X65765469Y47737562D01*
X65765469Y47737562D02*
X65860707Y47642324D01*
X65860707Y47642324D02*
X65908326Y47451848D01*
X65908326Y47451848D02*
X65908326Y47118515D01*
X65908326Y47118515D02*
X65860707Y46928039D01*
X65860707Y46928039D02*
X65765469Y46832800D01*
X65765469Y46832800D02*
X65670231Y46785181D01*
X65670231Y46785181D02*
X65479755Y46785181D01*
X66289279Y47689943D02*
X66336898Y47737562D01*
X66336898Y47737562D02*
X66432136Y47785181D01*
X66432136Y47785181D02*
X66670231Y47785181D01*
X66670231Y47785181D02*
X66765469Y47737562D01*
X66765469Y47737562D02*
X66813088Y47689943D01*
X66813088Y47689943D02*
X66860707Y47594705D01*
X66860707Y47594705D02*
X66860707Y47499467D01*
X66860707Y47499467D02*
X66813088Y47356610D01*
X66813088Y47356610D02*
X66241660Y46785181D01*
X66241660Y46785181D02*
X66860707Y46785181D01*
%TO.C,D8*%
X56840589Y10315181D02*
X56840589Y11315181D01*
X56840589Y11315181D02*
X57078684Y11315181D01*
X57078684Y11315181D02*
X57221541Y11267562D01*
X57221541Y11267562D02*
X57316779Y11172324D01*
X57316779Y11172324D02*
X57364398Y11077086D01*
X57364398Y11077086D02*
X57412017Y10886610D01*
X57412017Y10886610D02*
X57412017Y10743753D01*
X57412017Y10743753D02*
X57364398Y10553277D01*
X57364398Y10553277D02*
X57316779Y10458039D01*
X57316779Y10458039D02*
X57221541Y10362800D01*
X57221541Y10362800D02*
X57078684Y10315181D01*
X57078684Y10315181D02*
X56840589Y10315181D01*
X57983446Y10886610D02*
X57888208Y10934229D01*
X57888208Y10934229D02*
X57840589Y10981848D01*
X57840589Y10981848D02*
X57792970Y11077086D01*
X57792970Y11077086D02*
X57792970Y11124705D01*
X57792970Y11124705D02*
X57840589Y11219943D01*
X57840589Y11219943D02*
X57888208Y11267562D01*
X57888208Y11267562D02*
X57983446Y11315181D01*
X57983446Y11315181D02*
X58173922Y11315181D01*
X58173922Y11315181D02*
X58269160Y11267562D01*
X58269160Y11267562D02*
X58316779Y11219943D01*
X58316779Y11219943D02*
X58364398Y11124705D01*
X58364398Y11124705D02*
X58364398Y11077086D01*
X58364398Y11077086D02*
X58316779Y10981848D01*
X58316779Y10981848D02*
X58269160Y10934229D01*
X58269160Y10934229D02*
X58173922Y10886610D01*
X58173922Y10886610D02*
X57983446Y10886610D01*
X57983446Y10886610D02*
X57888208Y10838991D01*
X57888208Y10838991D02*
X57840589Y10791372D01*
X57840589Y10791372D02*
X57792970Y10696134D01*
X57792970Y10696134D02*
X57792970Y10505658D01*
X57792970Y10505658D02*
X57840589Y10410420D01*
X57840589Y10410420D02*
X57888208Y10362800D01*
X57888208Y10362800D02*
X57983446Y10315181D01*
X57983446Y10315181D02*
X58173922Y10315181D01*
X58173922Y10315181D02*
X58269160Y10362800D01*
X58269160Y10362800D02*
X58316779Y10410420D01*
X58316779Y10410420D02*
X58364398Y10505658D01*
X58364398Y10505658D02*
X58364398Y10696134D01*
X58364398Y10696134D02*
X58316779Y10791372D01*
X58316779Y10791372D02*
X58269160Y10838991D01*
X58269160Y10838991D02*
X58173922Y10886610D01*
%TO.C,R18*%
X21654819Y24955827D02*
X21178628Y24622494D01*
X21654819Y24384399D02*
X20654819Y24384399D01*
X20654819Y24384399D02*
X20654819Y24765351D01*
X20654819Y24765351D02*
X20702438Y24860589D01*
X20702438Y24860589D02*
X20750057Y24908208D01*
X20750057Y24908208D02*
X20845295Y24955827D01*
X20845295Y24955827D02*
X20988152Y24955827D01*
X20988152Y24955827D02*
X21083390Y24908208D01*
X21083390Y24908208D02*
X21131009Y24860589D01*
X21131009Y24860589D02*
X21178628Y24765351D01*
X21178628Y24765351D02*
X21178628Y24384399D01*
X21654819Y25908208D02*
X21654819Y25336780D01*
X21654819Y25622494D02*
X20654819Y25622494D01*
X20654819Y25622494D02*
X20797676Y25527256D01*
X20797676Y25527256D02*
X20892914Y25432018D01*
X20892914Y25432018D02*
X20940533Y25336780D01*
X21083390Y26479637D02*
X21035771Y26384399D01*
X21035771Y26384399D02*
X20988152Y26336780D01*
X20988152Y26336780D02*
X20892914Y26289161D01*
X20892914Y26289161D02*
X20845295Y26289161D01*
X20845295Y26289161D02*
X20750057Y26336780D01*
X20750057Y26336780D02*
X20702438Y26384399D01*
X20702438Y26384399D02*
X20654819Y26479637D01*
X20654819Y26479637D02*
X20654819Y26670113D01*
X20654819Y26670113D02*
X20702438Y26765351D01*
X20702438Y26765351D02*
X20750057Y26812970D01*
X20750057Y26812970D02*
X20845295Y26860589D01*
X20845295Y26860589D02*
X20892914Y26860589D01*
X20892914Y26860589D02*
X20988152Y26812970D01*
X20988152Y26812970D02*
X21035771Y26765351D01*
X21035771Y26765351D02*
X21083390Y26670113D01*
X21083390Y26670113D02*
X21083390Y26479637D01*
X21083390Y26479637D02*
X21131009Y26384399D01*
X21131009Y26384399D02*
X21178628Y26336780D01*
X21178628Y26336780D02*
X21273866Y26289161D01*
X21273866Y26289161D02*
X21464342Y26289161D01*
X21464342Y26289161D02*
X21559580Y26336780D01*
X21559580Y26336780D02*
X21607200Y26384399D01*
X21607200Y26384399D02*
X21654819Y26479637D01*
X21654819Y26479637D02*
X21654819Y26670113D01*
X21654819Y26670113D02*
X21607200Y26765351D01*
X21607200Y26765351D02*
X21559580Y26812970D01*
X21559580Y26812970D02*
X21464342Y26860589D01*
X21464342Y26860589D02*
X21273866Y26860589D01*
X21273866Y26860589D02*
X21178628Y26812970D01*
X21178628Y26812970D02*
X21131009Y26765351D01*
X21131009Y26765351D02*
X21083390Y26670113D01*
%TO.C,U7*%
X20436779Y24030181D02*
X20436779Y23220658D01*
X20436779Y23220658D02*
X20484398Y23125420D01*
X20484398Y23125420D02*
X20532017Y23077800D01*
X20532017Y23077800D02*
X20627255Y23030181D01*
X20627255Y23030181D02*
X20817731Y23030181D01*
X20817731Y23030181D02*
X20912969Y23077800D01*
X20912969Y23077800D02*
X20960588Y23125420D01*
X20960588Y23125420D02*
X21008207Y23220658D01*
X21008207Y23220658D02*
X21008207Y24030181D01*
X21389160Y24030181D02*
X22055826Y24030181D01*
X22055826Y24030181D02*
X21627255Y23030181D01*
%TO.C,D2*%
X19584398Y27430181D02*
X19584398Y28430181D01*
X19584398Y28430181D02*
X19822493Y28430181D01*
X19822493Y28430181D02*
X19965350Y28382562D01*
X19965350Y28382562D02*
X20060588Y28287324D01*
X20060588Y28287324D02*
X20108207Y28192086D01*
X20108207Y28192086D02*
X20155826Y28001610D01*
X20155826Y28001610D02*
X20155826Y27858753D01*
X20155826Y27858753D02*
X20108207Y27668277D01*
X20108207Y27668277D02*
X20060588Y27573039D01*
X20060588Y27573039D02*
X19965350Y27477800D01*
X19965350Y27477800D02*
X19822493Y27430181D01*
X19822493Y27430181D02*
X19584398Y27430181D01*
X20536779Y28334943D02*
X20584398Y28382562D01*
X20584398Y28382562D02*
X20679636Y28430181D01*
X20679636Y28430181D02*
X20917731Y28430181D01*
X20917731Y28430181D02*
X21012969Y28382562D01*
X21012969Y28382562D02*
X21060588Y28334943D01*
X21060588Y28334943D02*
X21108207Y28239705D01*
X21108207Y28239705D02*
X21108207Y28144467D01*
X21108207Y28144467D02*
X21060588Y28001610D01*
X21060588Y28001610D02*
X20489160Y27430181D01*
X20489160Y27430181D02*
X21108207Y27430181D01*
%TO.C,R40*%
X69455826Y46645181D02*
X69122493Y47121372D01*
X68884398Y46645181D02*
X68884398Y47645181D01*
X68884398Y47645181D02*
X69265350Y47645181D01*
X69265350Y47645181D02*
X69360588Y47597562D01*
X69360588Y47597562D02*
X69408207Y47549943D01*
X69408207Y47549943D02*
X69455826Y47454705D01*
X69455826Y47454705D02*
X69455826Y47311848D01*
X69455826Y47311848D02*
X69408207Y47216610D01*
X69408207Y47216610D02*
X69360588Y47168991D01*
X69360588Y47168991D02*
X69265350Y47121372D01*
X69265350Y47121372D02*
X68884398Y47121372D01*
X70312969Y47311848D02*
X70312969Y46645181D01*
X70074874Y47692800D02*
X69836779Y46978515D01*
X69836779Y46978515D02*
X70455826Y46978515D01*
X71027255Y47645181D02*
X71122493Y47645181D01*
X71122493Y47645181D02*
X71217731Y47597562D01*
X71217731Y47597562D02*
X71265350Y47549943D01*
X71265350Y47549943D02*
X71312969Y47454705D01*
X71312969Y47454705D02*
X71360588Y47264229D01*
X71360588Y47264229D02*
X71360588Y47026134D01*
X71360588Y47026134D02*
X71312969Y46835658D01*
X71312969Y46835658D02*
X71265350Y46740420D01*
X71265350Y46740420D02*
X71217731Y46692800D01*
X71217731Y46692800D02*
X71122493Y46645181D01*
X71122493Y46645181D02*
X71027255Y46645181D01*
X71027255Y46645181D02*
X70932017Y46692800D01*
X70932017Y46692800D02*
X70884398Y46740420D01*
X70884398Y46740420D02*
X70836779Y46835658D01*
X70836779Y46835658D02*
X70789160Y47026134D01*
X70789160Y47026134D02*
X70789160Y47264229D01*
X70789160Y47264229D02*
X70836779Y47454705D01*
X70836779Y47454705D02*
X70884398Y47549943D01*
X70884398Y47549943D02*
X70932017Y47597562D01*
X70932017Y47597562D02*
X71027255Y47645181D01*
%TO.C,C9*%
X21355826Y2025420D02*
X21308207Y1977800D01*
X21308207Y1977800D02*
X21165350Y1930181D01*
X21165350Y1930181D02*
X21070112Y1930181D01*
X21070112Y1930181D02*
X20927255Y1977800D01*
X20927255Y1977800D02*
X20832017Y2073039D01*
X20832017Y2073039D02*
X20784398Y2168277D01*
X20784398Y2168277D02*
X20736779Y2358753D01*
X20736779Y2358753D02*
X20736779Y2501610D01*
X20736779Y2501610D02*
X20784398Y2692086D01*
X20784398Y2692086D02*
X20832017Y2787324D01*
X20832017Y2787324D02*
X20927255Y2882562D01*
X20927255Y2882562D02*
X21070112Y2930181D01*
X21070112Y2930181D02*
X21165350Y2930181D01*
X21165350Y2930181D02*
X21308207Y2882562D01*
X21308207Y2882562D02*
X21355826Y2834943D01*
X21832017Y1930181D02*
X22022493Y1930181D01*
X22022493Y1930181D02*
X22117731Y1977800D01*
X22117731Y1977800D02*
X22165350Y2025420D01*
X22165350Y2025420D02*
X22260588Y2168277D01*
X22260588Y2168277D02*
X22308207Y2358753D01*
X22308207Y2358753D02*
X22308207Y2739705D01*
X22308207Y2739705D02*
X22260588Y2834943D01*
X22260588Y2834943D02*
X22212969Y2882562D01*
X22212969Y2882562D02*
X22117731Y2930181D01*
X22117731Y2930181D02*
X21927255Y2930181D01*
X21927255Y2930181D02*
X21832017Y2882562D01*
X21832017Y2882562D02*
X21784398Y2834943D01*
X21784398Y2834943D02*
X21736779Y2739705D01*
X21736779Y2739705D02*
X21736779Y2501610D01*
X21736779Y2501610D02*
X21784398Y2406372D01*
X21784398Y2406372D02*
X21832017Y2358753D01*
X21832017Y2358753D02*
X21927255Y2311134D01*
X21927255Y2311134D02*
X22117731Y2311134D01*
X22117731Y2311134D02*
X22212969Y2358753D01*
X22212969Y2358753D02*
X22260588Y2406372D01*
X22260588Y2406372D02*
X22308207Y2501610D01*
%TO.C,TP7*%
X11354819Y31536780D02*
X11354819Y32108208D01*
X12354819Y31822494D02*
X11354819Y31822494D01*
X12354819Y32441542D02*
X11354819Y32441542D01*
X11354819Y32441542D02*
X11354819Y32822494D01*
X11354819Y32822494D02*
X11402438Y32917732D01*
X11402438Y32917732D02*
X11450057Y32965351D01*
X11450057Y32965351D02*
X11545295Y33012970D01*
X11545295Y33012970D02*
X11688152Y33012970D01*
X11688152Y33012970D02*
X11783390Y32965351D01*
X11783390Y32965351D02*
X11831009Y32917732D01*
X11831009Y32917732D02*
X11878628Y32822494D01*
X11878628Y32822494D02*
X11878628Y32441542D01*
X11354819Y33346304D02*
X11354819Y34012970D01*
X11354819Y34012970D02*
X12354819Y33584399D01*
%TO.C,Q1*%
X64903445Y26749943D02*
X64808207Y26797562D01*
X64808207Y26797562D02*
X64712969Y26892800D01*
X64712969Y26892800D02*
X64570112Y27035658D01*
X64570112Y27035658D02*
X64474874Y27083277D01*
X64474874Y27083277D02*
X64379636Y27083277D01*
X64427255Y26845181D02*
X64332017Y26892800D01*
X64332017Y26892800D02*
X64236779Y26988039D01*
X64236779Y26988039D02*
X64189160Y27178515D01*
X64189160Y27178515D02*
X64189160Y27511848D01*
X64189160Y27511848D02*
X64236779Y27702324D01*
X64236779Y27702324D02*
X64332017Y27797562D01*
X64332017Y27797562D02*
X64427255Y27845181D01*
X64427255Y27845181D02*
X64617731Y27845181D01*
X64617731Y27845181D02*
X64712969Y27797562D01*
X64712969Y27797562D02*
X64808207Y27702324D01*
X64808207Y27702324D02*
X64855826Y27511848D01*
X64855826Y27511848D02*
X64855826Y27178515D01*
X64855826Y27178515D02*
X64808207Y26988039D01*
X64808207Y26988039D02*
X64712969Y26892800D01*
X64712969Y26892800D02*
X64617731Y26845181D01*
X64617731Y26845181D02*
X64427255Y26845181D01*
X65808207Y26845181D02*
X65236779Y26845181D01*
X65522493Y26845181D02*
X65522493Y27845181D01*
X65522493Y27845181D02*
X65427255Y27702324D01*
X65427255Y27702324D02*
X65332017Y27607086D01*
X65332017Y27607086D02*
X65236779Y27559467D01*
%TO.C,R22*%
X55255826Y53545181D02*
X54922493Y54021372D01*
X54684398Y53545181D02*
X54684398Y54545181D01*
X54684398Y54545181D02*
X55065350Y54545181D01*
X55065350Y54545181D02*
X55160588Y54497562D01*
X55160588Y54497562D02*
X55208207Y54449943D01*
X55208207Y54449943D02*
X55255826Y54354705D01*
X55255826Y54354705D02*
X55255826Y54211848D01*
X55255826Y54211848D02*
X55208207Y54116610D01*
X55208207Y54116610D02*
X55160588Y54068991D01*
X55160588Y54068991D02*
X55065350Y54021372D01*
X55065350Y54021372D02*
X54684398Y54021372D01*
X55636779Y54449943D02*
X55684398Y54497562D01*
X55684398Y54497562D02*
X55779636Y54545181D01*
X55779636Y54545181D02*
X56017731Y54545181D01*
X56017731Y54545181D02*
X56112969Y54497562D01*
X56112969Y54497562D02*
X56160588Y54449943D01*
X56160588Y54449943D02*
X56208207Y54354705D01*
X56208207Y54354705D02*
X56208207Y54259467D01*
X56208207Y54259467D02*
X56160588Y54116610D01*
X56160588Y54116610D02*
X55589160Y53545181D01*
X55589160Y53545181D02*
X56208207Y53545181D01*
X56589160Y54449943D02*
X56636779Y54497562D01*
X56636779Y54497562D02*
X56732017Y54545181D01*
X56732017Y54545181D02*
X56970112Y54545181D01*
X56970112Y54545181D02*
X57065350Y54497562D01*
X57065350Y54497562D02*
X57112969Y54449943D01*
X57112969Y54449943D02*
X57160588Y54354705D01*
X57160588Y54354705D02*
X57160588Y54259467D01*
X57160588Y54259467D02*
X57112969Y54116610D01*
X57112969Y54116610D02*
X56541541Y53545181D01*
X56541541Y53545181D02*
X57160588Y53545181D01*
%TO.C,R2*%
X73642017Y35565181D02*
X73308684Y36041372D01*
X73070589Y35565181D02*
X73070589Y36565181D01*
X73070589Y36565181D02*
X73451541Y36565181D01*
X73451541Y36565181D02*
X73546779Y36517562D01*
X73546779Y36517562D02*
X73594398Y36469943D01*
X73594398Y36469943D02*
X73642017Y36374705D01*
X73642017Y36374705D02*
X73642017Y36231848D01*
X73642017Y36231848D02*
X73594398Y36136610D01*
X73594398Y36136610D02*
X73546779Y36088991D01*
X73546779Y36088991D02*
X73451541Y36041372D01*
X73451541Y36041372D02*
X73070589Y36041372D01*
X74022970Y36469943D02*
X74070589Y36517562D01*
X74070589Y36517562D02*
X74165827Y36565181D01*
X74165827Y36565181D02*
X74403922Y36565181D01*
X74403922Y36565181D02*
X74499160Y36517562D01*
X74499160Y36517562D02*
X74546779Y36469943D01*
X74546779Y36469943D02*
X74594398Y36374705D01*
X74594398Y36374705D02*
X74594398Y36279467D01*
X74594398Y36279467D02*
X74546779Y36136610D01*
X74546779Y36136610D02*
X73975351Y35565181D01*
X73975351Y35565181D02*
X74594398Y35565181D01*
%TO.C,R23*%
X41144819Y52105827D02*
X40668628Y51772494D01*
X41144819Y51534399D02*
X40144819Y51534399D01*
X40144819Y51534399D02*
X40144819Y51915351D01*
X40144819Y51915351D02*
X40192438Y52010589D01*
X40192438Y52010589D02*
X40240057Y52058208D01*
X40240057Y52058208D02*
X40335295Y52105827D01*
X40335295Y52105827D02*
X40478152Y52105827D01*
X40478152Y52105827D02*
X40573390Y52058208D01*
X40573390Y52058208D02*
X40621009Y52010589D01*
X40621009Y52010589D02*
X40668628Y51915351D01*
X40668628Y51915351D02*
X40668628Y51534399D01*
X40240057Y52486780D02*
X40192438Y52534399D01*
X40192438Y52534399D02*
X40144819Y52629637D01*
X40144819Y52629637D02*
X40144819Y52867732D01*
X40144819Y52867732D02*
X40192438Y52962970D01*
X40192438Y52962970D02*
X40240057Y53010589D01*
X40240057Y53010589D02*
X40335295Y53058208D01*
X40335295Y53058208D02*
X40430533Y53058208D01*
X40430533Y53058208D02*
X40573390Y53010589D01*
X40573390Y53010589D02*
X41144819Y52439161D01*
X41144819Y52439161D02*
X41144819Y53058208D01*
X40144819Y53391542D02*
X40144819Y54010589D01*
X40144819Y54010589D02*
X40525771Y53677256D01*
X40525771Y53677256D02*
X40525771Y53820113D01*
X40525771Y53820113D02*
X40573390Y53915351D01*
X40573390Y53915351D02*
X40621009Y53962970D01*
X40621009Y53962970D02*
X40716247Y54010589D01*
X40716247Y54010589D02*
X40954342Y54010589D01*
X40954342Y54010589D02*
X41049580Y53962970D01*
X41049580Y53962970D02*
X41097200Y53915351D01*
X41097200Y53915351D02*
X41144819Y53820113D01*
X41144819Y53820113D02*
X41144819Y53534399D01*
X41144819Y53534399D02*
X41097200Y53439161D01*
X41097200Y53439161D02*
X41049580Y53391542D01*
%TO.C,R42*%
X69455826Y52045181D02*
X69122493Y52521372D01*
X68884398Y52045181D02*
X68884398Y53045181D01*
X68884398Y53045181D02*
X69265350Y53045181D01*
X69265350Y53045181D02*
X69360588Y52997562D01*
X69360588Y52997562D02*
X69408207Y52949943D01*
X69408207Y52949943D02*
X69455826Y52854705D01*
X69455826Y52854705D02*
X69455826Y52711848D01*
X69455826Y52711848D02*
X69408207Y52616610D01*
X69408207Y52616610D02*
X69360588Y52568991D01*
X69360588Y52568991D02*
X69265350Y52521372D01*
X69265350Y52521372D02*
X68884398Y52521372D01*
X70312969Y52711848D02*
X70312969Y52045181D01*
X70074874Y53092800D02*
X69836779Y52378515D01*
X69836779Y52378515D02*
X70455826Y52378515D01*
X70789160Y52949943D02*
X70836779Y52997562D01*
X70836779Y52997562D02*
X70932017Y53045181D01*
X70932017Y53045181D02*
X71170112Y53045181D01*
X71170112Y53045181D02*
X71265350Y52997562D01*
X71265350Y52997562D02*
X71312969Y52949943D01*
X71312969Y52949943D02*
X71360588Y52854705D01*
X71360588Y52854705D02*
X71360588Y52759467D01*
X71360588Y52759467D02*
X71312969Y52616610D01*
X71312969Y52616610D02*
X70741541Y52045181D01*
X70741541Y52045181D02*
X71360588Y52045181D01*
%TO.C,U1*%
X56436779Y39545181D02*
X56436779Y38735658D01*
X56436779Y38735658D02*
X56484398Y38640420D01*
X56484398Y38640420D02*
X56532017Y38592800D01*
X56532017Y38592800D02*
X56627255Y38545181D01*
X56627255Y38545181D02*
X56817731Y38545181D01*
X56817731Y38545181D02*
X56912969Y38592800D01*
X56912969Y38592800D02*
X56960588Y38640420D01*
X56960588Y38640420D02*
X57008207Y38735658D01*
X57008207Y38735658D02*
X57008207Y39545181D01*
X58008207Y38545181D02*
X57436779Y38545181D01*
X57722493Y38545181D02*
X57722493Y39545181D01*
X57722493Y39545181D02*
X57627255Y39402324D01*
X57627255Y39402324D02*
X57532017Y39307086D01*
X57532017Y39307086D02*
X57436779Y39259467D01*
%TO.C,R7*%
X54354819Y27932018D02*
X53878628Y27598685D01*
X54354819Y27360590D02*
X53354819Y27360590D01*
X53354819Y27360590D02*
X53354819Y27741542D01*
X53354819Y27741542D02*
X53402438Y27836780D01*
X53402438Y27836780D02*
X53450057Y27884399D01*
X53450057Y27884399D02*
X53545295Y27932018D01*
X53545295Y27932018D02*
X53688152Y27932018D01*
X53688152Y27932018D02*
X53783390Y27884399D01*
X53783390Y27884399D02*
X53831009Y27836780D01*
X53831009Y27836780D02*
X53878628Y27741542D01*
X53878628Y27741542D02*
X53878628Y27360590D01*
X53354819Y28265352D02*
X53354819Y28932018D01*
X53354819Y28932018D02*
X54354819Y28503447D01*
%TO.C,C26*%
X32859580Y50255827D02*
X32907200Y50208208D01*
X32907200Y50208208D02*
X32954819Y50065351D01*
X32954819Y50065351D02*
X32954819Y49970113D01*
X32954819Y49970113D02*
X32907200Y49827256D01*
X32907200Y49827256D02*
X32811961Y49732018D01*
X32811961Y49732018D02*
X32716723Y49684399D01*
X32716723Y49684399D02*
X32526247Y49636780D01*
X32526247Y49636780D02*
X32383390Y49636780D01*
X32383390Y49636780D02*
X32192914Y49684399D01*
X32192914Y49684399D02*
X32097676Y49732018D01*
X32097676Y49732018D02*
X32002438Y49827256D01*
X32002438Y49827256D02*
X31954819Y49970113D01*
X31954819Y49970113D02*
X31954819Y50065351D01*
X31954819Y50065351D02*
X32002438Y50208208D01*
X32002438Y50208208D02*
X32050057Y50255827D01*
X32050057Y50636780D02*
X32002438Y50684399D01*
X32002438Y50684399D02*
X31954819Y50779637D01*
X31954819Y50779637D02*
X31954819Y51017732D01*
X31954819Y51017732D02*
X32002438Y51112970D01*
X32002438Y51112970D02*
X32050057Y51160589D01*
X32050057Y51160589D02*
X32145295Y51208208D01*
X32145295Y51208208D02*
X32240533Y51208208D01*
X32240533Y51208208D02*
X32383390Y51160589D01*
X32383390Y51160589D02*
X32954819Y50589161D01*
X32954819Y50589161D02*
X32954819Y51208208D01*
X31954819Y52065351D02*
X31954819Y51874875D01*
X31954819Y51874875D02*
X32002438Y51779637D01*
X32002438Y51779637D02*
X32050057Y51732018D01*
X32050057Y51732018D02*
X32192914Y51636780D01*
X32192914Y51636780D02*
X32383390Y51589161D01*
X32383390Y51589161D02*
X32764342Y51589161D01*
X32764342Y51589161D02*
X32859580Y51636780D01*
X32859580Y51636780D02*
X32907200Y51684399D01*
X32907200Y51684399D02*
X32954819Y51779637D01*
X32954819Y51779637D02*
X32954819Y51970113D01*
X32954819Y51970113D02*
X32907200Y52065351D01*
X32907200Y52065351D02*
X32859580Y52112970D01*
X32859580Y52112970D02*
X32764342Y52160589D01*
X32764342Y52160589D02*
X32526247Y52160589D01*
X32526247Y52160589D02*
X32431009Y52112970D01*
X32431009Y52112970D02*
X32383390Y52065351D01*
X32383390Y52065351D02*
X32335771Y51970113D01*
X32335771Y51970113D02*
X32335771Y51779637D01*
X32335771Y51779637D02*
X32383390Y51684399D01*
X32383390Y51684399D02*
X32431009Y51636780D01*
X32431009Y51636780D02*
X32526247Y51589161D01*
%TO.C,U4*%
X50136779Y30145181D02*
X50136779Y29335658D01*
X50136779Y29335658D02*
X50184398Y29240420D01*
X50184398Y29240420D02*
X50232017Y29192800D01*
X50232017Y29192800D02*
X50327255Y29145181D01*
X50327255Y29145181D02*
X50517731Y29145181D01*
X50517731Y29145181D02*
X50612969Y29192800D01*
X50612969Y29192800D02*
X50660588Y29240420D01*
X50660588Y29240420D02*
X50708207Y29335658D01*
X50708207Y29335658D02*
X50708207Y30145181D01*
X51612969Y29811848D02*
X51612969Y29145181D01*
X51374874Y30192800D02*
X51136779Y29478515D01*
X51136779Y29478515D02*
X51755826Y29478515D01*
%TO.C,D10*%
X55960112Y20225181D02*
X55960112Y21225181D01*
X55960112Y21225181D02*
X56198207Y21225181D01*
X56198207Y21225181D02*
X56341064Y21177562D01*
X56341064Y21177562D02*
X56436302Y21082324D01*
X56436302Y21082324D02*
X56483921Y20987086D01*
X56483921Y20987086D02*
X56531540Y20796610D01*
X56531540Y20796610D02*
X56531540Y20653753D01*
X56531540Y20653753D02*
X56483921Y20463277D01*
X56483921Y20463277D02*
X56436302Y20368039D01*
X56436302Y20368039D02*
X56341064Y20272800D01*
X56341064Y20272800D02*
X56198207Y20225181D01*
X56198207Y20225181D02*
X55960112Y20225181D01*
X57483921Y20225181D02*
X56912493Y20225181D01*
X57198207Y20225181D02*
X57198207Y21225181D01*
X57198207Y21225181D02*
X57102969Y21082324D01*
X57102969Y21082324D02*
X57007731Y20987086D01*
X57007731Y20987086D02*
X56912493Y20939467D01*
X58102969Y21225181D02*
X58198207Y21225181D01*
X58198207Y21225181D02*
X58293445Y21177562D01*
X58293445Y21177562D02*
X58341064Y21129943D01*
X58341064Y21129943D02*
X58388683Y21034705D01*
X58388683Y21034705D02*
X58436302Y20844229D01*
X58436302Y20844229D02*
X58436302Y20606134D01*
X58436302Y20606134D02*
X58388683Y20415658D01*
X58388683Y20415658D02*
X58341064Y20320420D01*
X58341064Y20320420D02*
X58293445Y20272800D01*
X58293445Y20272800D02*
X58198207Y20225181D01*
X58198207Y20225181D02*
X58102969Y20225181D01*
X58102969Y20225181D02*
X58007731Y20272800D01*
X58007731Y20272800D02*
X57960112Y20320420D01*
X57960112Y20320420D02*
X57912493Y20415658D01*
X57912493Y20415658D02*
X57864874Y20606134D01*
X57864874Y20606134D02*
X57864874Y20844229D01*
X57864874Y20844229D02*
X57912493Y21034705D01*
X57912493Y21034705D02*
X57960112Y21129943D01*
X57960112Y21129943D02*
X58007731Y21177562D01*
X58007731Y21177562D02*
X58102969Y21225181D01*
%TO.C,R17*%
X65395826Y12745181D02*
X65062493Y13221372D01*
X64824398Y12745181D02*
X64824398Y13745181D01*
X64824398Y13745181D02*
X65205350Y13745181D01*
X65205350Y13745181D02*
X65300588Y13697562D01*
X65300588Y13697562D02*
X65348207Y13649943D01*
X65348207Y13649943D02*
X65395826Y13554705D01*
X65395826Y13554705D02*
X65395826Y13411848D01*
X65395826Y13411848D02*
X65348207Y13316610D01*
X65348207Y13316610D02*
X65300588Y13268991D01*
X65300588Y13268991D02*
X65205350Y13221372D01*
X65205350Y13221372D02*
X64824398Y13221372D01*
X66348207Y12745181D02*
X65776779Y12745181D01*
X66062493Y12745181D02*
X66062493Y13745181D01*
X66062493Y13745181D02*
X65967255Y13602324D01*
X65967255Y13602324D02*
X65872017Y13507086D01*
X65872017Y13507086D02*
X65776779Y13459467D01*
X66681541Y13745181D02*
X67348207Y13745181D01*
X67348207Y13745181D02*
X66919636Y12745181D01*
%TO.C,R34*%
X65245826Y24745181D02*
X64912493Y25221372D01*
X64674398Y24745181D02*
X64674398Y25745181D01*
X64674398Y25745181D02*
X65055350Y25745181D01*
X65055350Y25745181D02*
X65150588Y25697562D01*
X65150588Y25697562D02*
X65198207Y25649943D01*
X65198207Y25649943D02*
X65245826Y25554705D01*
X65245826Y25554705D02*
X65245826Y25411848D01*
X65245826Y25411848D02*
X65198207Y25316610D01*
X65198207Y25316610D02*
X65150588Y25268991D01*
X65150588Y25268991D02*
X65055350Y25221372D01*
X65055350Y25221372D02*
X64674398Y25221372D01*
X65579160Y25745181D02*
X66198207Y25745181D01*
X66198207Y25745181D02*
X65864874Y25364229D01*
X65864874Y25364229D02*
X66007731Y25364229D01*
X66007731Y25364229D02*
X66102969Y25316610D01*
X66102969Y25316610D02*
X66150588Y25268991D01*
X66150588Y25268991D02*
X66198207Y25173753D01*
X66198207Y25173753D02*
X66198207Y24935658D01*
X66198207Y24935658D02*
X66150588Y24840420D01*
X66150588Y24840420D02*
X66102969Y24792800D01*
X66102969Y24792800D02*
X66007731Y24745181D01*
X66007731Y24745181D02*
X65722017Y24745181D01*
X65722017Y24745181D02*
X65626779Y24792800D01*
X65626779Y24792800D02*
X65579160Y24840420D01*
X67055350Y25411848D02*
X67055350Y24745181D01*
X66817255Y25792800D02*
X66579160Y25078515D01*
X66579160Y25078515D02*
X67198207Y25078515D01*
%TO.C,R27*%
X29954819Y43855827D02*
X29478628Y43522494D01*
X29954819Y43284399D02*
X28954819Y43284399D01*
X28954819Y43284399D02*
X28954819Y43665351D01*
X28954819Y43665351D02*
X29002438Y43760589D01*
X29002438Y43760589D02*
X29050057Y43808208D01*
X29050057Y43808208D02*
X29145295Y43855827D01*
X29145295Y43855827D02*
X29288152Y43855827D01*
X29288152Y43855827D02*
X29383390Y43808208D01*
X29383390Y43808208D02*
X29431009Y43760589D01*
X29431009Y43760589D02*
X29478628Y43665351D01*
X29478628Y43665351D02*
X29478628Y43284399D01*
X29050057Y44236780D02*
X29002438Y44284399D01*
X29002438Y44284399D02*
X28954819Y44379637D01*
X28954819Y44379637D02*
X28954819Y44617732D01*
X28954819Y44617732D02*
X29002438Y44712970D01*
X29002438Y44712970D02*
X29050057Y44760589D01*
X29050057Y44760589D02*
X29145295Y44808208D01*
X29145295Y44808208D02*
X29240533Y44808208D01*
X29240533Y44808208D02*
X29383390Y44760589D01*
X29383390Y44760589D02*
X29954819Y44189161D01*
X29954819Y44189161D02*
X29954819Y44808208D01*
X28954819Y45141542D02*
X28954819Y45808208D01*
X28954819Y45808208D02*
X29954819Y45379637D01*
%TO.C,D6*%
X56890589Y17615181D02*
X56890589Y18615181D01*
X56890589Y18615181D02*
X57128684Y18615181D01*
X57128684Y18615181D02*
X57271541Y18567562D01*
X57271541Y18567562D02*
X57366779Y18472324D01*
X57366779Y18472324D02*
X57414398Y18377086D01*
X57414398Y18377086D02*
X57462017Y18186610D01*
X57462017Y18186610D02*
X57462017Y18043753D01*
X57462017Y18043753D02*
X57414398Y17853277D01*
X57414398Y17853277D02*
X57366779Y17758039D01*
X57366779Y17758039D02*
X57271541Y17662800D01*
X57271541Y17662800D02*
X57128684Y17615181D01*
X57128684Y17615181D02*
X56890589Y17615181D01*
X58319160Y18615181D02*
X58128684Y18615181D01*
X58128684Y18615181D02*
X58033446Y18567562D01*
X58033446Y18567562D02*
X57985827Y18519943D01*
X57985827Y18519943D02*
X57890589Y18377086D01*
X57890589Y18377086D02*
X57842970Y18186610D01*
X57842970Y18186610D02*
X57842970Y17805658D01*
X57842970Y17805658D02*
X57890589Y17710420D01*
X57890589Y17710420D02*
X57938208Y17662800D01*
X57938208Y17662800D02*
X58033446Y17615181D01*
X58033446Y17615181D02*
X58223922Y17615181D01*
X58223922Y17615181D02*
X58319160Y17662800D01*
X58319160Y17662800D02*
X58366779Y17710420D01*
X58366779Y17710420D02*
X58414398Y17805658D01*
X58414398Y17805658D02*
X58414398Y18043753D01*
X58414398Y18043753D02*
X58366779Y18138991D01*
X58366779Y18138991D02*
X58319160Y18186610D01*
X58319160Y18186610D02*
X58223922Y18234229D01*
X58223922Y18234229D02*
X58033446Y18234229D01*
X58033446Y18234229D02*
X57938208Y18186610D01*
X57938208Y18186610D02*
X57890589Y18138991D01*
X57890589Y18138991D02*
X57842970Y18043753D01*
%TO.C,J1*%
X3165350Y30615181D02*
X3165350Y29900896D01*
X3165350Y29900896D02*
X3117731Y29758039D01*
X3117731Y29758039D02*
X3022493Y29662800D01*
X3022493Y29662800D02*
X2879636Y29615181D01*
X2879636Y29615181D02*
X2784398Y29615181D01*
X4165350Y29615181D02*
X3593922Y29615181D01*
X3879636Y29615181D02*
X3879636Y30615181D01*
X3879636Y30615181D02*
X3784398Y30472324D01*
X3784398Y30472324D02*
X3689160Y30377086D01*
X3689160Y30377086D02*
X3593922Y30329467D01*
%TO.C,R20*%
X73255826Y52145181D02*
X72922493Y52621372D01*
X72684398Y52145181D02*
X72684398Y53145181D01*
X72684398Y53145181D02*
X73065350Y53145181D01*
X73065350Y53145181D02*
X73160588Y53097562D01*
X73160588Y53097562D02*
X73208207Y53049943D01*
X73208207Y53049943D02*
X73255826Y52954705D01*
X73255826Y52954705D02*
X73255826Y52811848D01*
X73255826Y52811848D02*
X73208207Y52716610D01*
X73208207Y52716610D02*
X73160588Y52668991D01*
X73160588Y52668991D02*
X73065350Y52621372D01*
X73065350Y52621372D02*
X72684398Y52621372D01*
X73636779Y53049943D02*
X73684398Y53097562D01*
X73684398Y53097562D02*
X73779636Y53145181D01*
X73779636Y53145181D02*
X74017731Y53145181D01*
X74017731Y53145181D02*
X74112969Y53097562D01*
X74112969Y53097562D02*
X74160588Y53049943D01*
X74160588Y53049943D02*
X74208207Y52954705D01*
X74208207Y52954705D02*
X74208207Y52859467D01*
X74208207Y52859467D02*
X74160588Y52716610D01*
X74160588Y52716610D02*
X73589160Y52145181D01*
X73589160Y52145181D02*
X74208207Y52145181D01*
X74827255Y53145181D02*
X74922493Y53145181D01*
X74922493Y53145181D02*
X75017731Y53097562D01*
X75017731Y53097562D02*
X75065350Y53049943D01*
X75065350Y53049943D02*
X75112969Y52954705D01*
X75112969Y52954705D02*
X75160588Y52764229D01*
X75160588Y52764229D02*
X75160588Y52526134D01*
X75160588Y52526134D02*
X75112969Y52335658D01*
X75112969Y52335658D02*
X75065350Y52240420D01*
X75065350Y52240420D02*
X75017731Y52192800D01*
X75017731Y52192800D02*
X74922493Y52145181D01*
X74922493Y52145181D02*
X74827255Y52145181D01*
X74827255Y52145181D02*
X74732017Y52192800D01*
X74732017Y52192800D02*
X74684398Y52240420D01*
X74684398Y52240420D02*
X74636779Y52335658D01*
X74636779Y52335658D02*
X74589160Y52526134D01*
X74589160Y52526134D02*
X74589160Y52764229D01*
X74589160Y52764229D02*
X74636779Y52954705D01*
X74636779Y52954705D02*
X74684398Y53049943D01*
X74684398Y53049943D02*
X74732017Y53097562D01*
X74732017Y53097562D02*
X74827255Y53145181D01*
%TO.C,C10*%
X25174580Y4908208D02*
X25222200Y4860589D01*
X25222200Y4860589D02*
X25269819Y4717732D01*
X25269819Y4717732D02*
X25269819Y4622494D01*
X25269819Y4622494D02*
X25222200Y4479637D01*
X25222200Y4479637D02*
X25126961Y4384399D01*
X25126961Y4384399D02*
X25031723Y4336780D01*
X25031723Y4336780D02*
X24841247Y4289161D01*
X24841247Y4289161D02*
X24698390Y4289161D01*
X24698390Y4289161D02*
X24507914Y4336780D01*
X24507914Y4336780D02*
X24412676Y4384399D01*
X24412676Y4384399D02*
X24317438Y4479637D01*
X24317438Y4479637D02*
X24269819Y4622494D01*
X24269819Y4622494D02*
X24269819Y4717732D01*
X24269819Y4717732D02*
X24317438Y4860589D01*
X24317438Y4860589D02*
X24365057Y4908208D01*
X25269819Y5860589D02*
X25269819Y5289161D01*
X25269819Y5574875D02*
X24269819Y5574875D01*
X24269819Y5574875D02*
X24412676Y5479637D01*
X24412676Y5479637D02*
X24507914Y5384399D01*
X24507914Y5384399D02*
X24555533Y5289161D01*
X24269819Y6479637D02*
X24269819Y6574875D01*
X24269819Y6574875D02*
X24317438Y6670113D01*
X24317438Y6670113D02*
X24365057Y6717732D01*
X24365057Y6717732D02*
X24460295Y6765351D01*
X24460295Y6765351D02*
X24650771Y6812970D01*
X24650771Y6812970D02*
X24888866Y6812970D01*
X24888866Y6812970D02*
X25079342Y6765351D01*
X25079342Y6765351D02*
X25174580Y6717732D01*
X25174580Y6717732D02*
X25222200Y6670113D01*
X25222200Y6670113D02*
X25269819Y6574875D01*
X25269819Y6574875D02*
X25269819Y6479637D01*
X25269819Y6479637D02*
X25222200Y6384399D01*
X25222200Y6384399D02*
X25174580Y6336780D01*
X25174580Y6336780D02*
X25079342Y6289161D01*
X25079342Y6289161D02*
X24888866Y6241542D01*
X24888866Y6241542D02*
X24650771Y6241542D01*
X24650771Y6241542D02*
X24460295Y6289161D01*
X24460295Y6289161D02*
X24365057Y6336780D01*
X24365057Y6336780D02*
X24317438Y6384399D01*
X24317438Y6384399D02*
X24269819Y6479637D01*
%TO.C,R14*%
X65395826Y14795181D02*
X65062493Y15271372D01*
X64824398Y14795181D02*
X64824398Y15795181D01*
X64824398Y15795181D02*
X65205350Y15795181D01*
X65205350Y15795181D02*
X65300588Y15747562D01*
X65300588Y15747562D02*
X65348207Y15699943D01*
X65348207Y15699943D02*
X65395826Y15604705D01*
X65395826Y15604705D02*
X65395826Y15461848D01*
X65395826Y15461848D02*
X65348207Y15366610D01*
X65348207Y15366610D02*
X65300588Y15318991D01*
X65300588Y15318991D02*
X65205350Y15271372D01*
X65205350Y15271372D02*
X64824398Y15271372D01*
X66348207Y14795181D02*
X65776779Y14795181D01*
X66062493Y14795181D02*
X66062493Y15795181D01*
X66062493Y15795181D02*
X65967255Y15652324D01*
X65967255Y15652324D02*
X65872017Y15557086D01*
X65872017Y15557086D02*
X65776779Y15509467D01*
X67205350Y15461848D02*
X67205350Y14795181D01*
X66967255Y15842800D02*
X66729160Y15128515D01*
X66729160Y15128515D02*
X67348207Y15128515D01*
%TO.C,R9*%
X50954819Y39932018D02*
X50478628Y39598685D01*
X50954819Y39360590D02*
X49954819Y39360590D01*
X49954819Y39360590D02*
X49954819Y39741542D01*
X49954819Y39741542D02*
X50002438Y39836780D01*
X50002438Y39836780D02*
X50050057Y39884399D01*
X50050057Y39884399D02*
X50145295Y39932018D01*
X50145295Y39932018D02*
X50288152Y39932018D01*
X50288152Y39932018D02*
X50383390Y39884399D01*
X50383390Y39884399D02*
X50431009Y39836780D01*
X50431009Y39836780D02*
X50478628Y39741542D01*
X50478628Y39741542D02*
X50478628Y39360590D01*
X50954819Y40408209D02*
X50954819Y40598685D01*
X50954819Y40598685D02*
X50907200Y40693923D01*
X50907200Y40693923D02*
X50859580Y40741542D01*
X50859580Y40741542D02*
X50716723Y40836780D01*
X50716723Y40836780D02*
X50526247Y40884399D01*
X50526247Y40884399D02*
X50145295Y40884399D01*
X50145295Y40884399D02*
X50050057Y40836780D01*
X50050057Y40836780D02*
X50002438Y40789161D01*
X50002438Y40789161D02*
X49954819Y40693923D01*
X49954819Y40693923D02*
X49954819Y40503447D01*
X49954819Y40503447D02*
X50002438Y40408209D01*
X50002438Y40408209D02*
X50050057Y40360590D01*
X50050057Y40360590D02*
X50145295Y40312971D01*
X50145295Y40312971D02*
X50383390Y40312971D01*
X50383390Y40312971D02*
X50478628Y40360590D01*
X50478628Y40360590D02*
X50526247Y40408209D01*
X50526247Y40408209D02*
X50573866Y40503447D01*
X50573866Y40503447D02*
X50573866Y40693923D01*
X50573866Y40693923D02*
X50526247Y40789161D01*
X50526247Y40789161D02*
X50478628Y40836780D01*
X50478628Y40836780D02*
X50383390Y40884399D01*
%TO.C,R8*%
X44017319Y40632018D02*
X43541128Y40298685D01*
X44017319Y40060590D02*
X43017319Y40060590D01*
X43017319Y40060590D02*
X43017319Y40441542D01*
X43017319Y40441542D02*
X43064938Y40536780D01*
X43064938Y40536780D02*
X43112557Y40584399D01*
X43112557Y40584399D02*
X43207795Y40632018D01*
X43207795Y40632018D02*
X43350652Y40632018D01*
X43350652Y40632018D02*
X43445890Y40584399D01*
X43445890Y40584399D02*
X43493509Y40536780D01*
X43493509Y40536780D02*
X43541128Y40441542D01*
X43541128Y40441542D02*
X43541128Y40060590D01*
X43445890Y41203447D02*
X43398271Y41108209D01*
X43398271Y41108209D02*
X43350652Y41060590D01*
X43350652Y41060590D02*
X43255414Y41012971D01*
X43255414Y41012971D02*
X43207795Y41012971D01*
X43207795Y41012971D02*
X43112557Y41060590D01*
X43112557Y41060590D02*
X43064938Y41108209D01*
X43064938Y41108209D02*
X43017319Y41203447D01*
X43017319Y41203447D02*
X43017319Y41393923D01*
X43017319Y41393923D02*
X43064938Y41489161D01*
X43064938Y41489161D02*
X43112557Y41536780D01*
X43112557Y41536780D02*
X43207795Y41584399D01*
X43207795Y41584399D02*
X43255414Y41584399D01*
X43255414Y41584399D02*
X43350652Y41536780D01*
X43350652Y41536780D02*
X43398271Y41489161D01*
X43398271Y41489161D02*
X43445890Y41393923D01*
X43445890Y41393923D02*
X43445890Y41203447D01*
X43445890Y41203447D02*
X43493509Y41108209D01*
X43493509Y41108209D02*
X43541128Y41060590D01*
X43541128Y41060590D02*
X43636366Y41012971D01*
X43636366Y41012971D02*
X43826842Y41012971D01*
X43826842Y41012971D02*
X43922080Y41060590D01*
X43922080Y41060590D02*
X43969700Y41108209D01*
X43969700Y41108209D02*
X44017319Y41203447D01*
X44017319Y41203447D02*
X44017319Y41393923D01*
X44017319Y41393923D02*
X43969700Y41489161D01*
X43969700Y41489161D02*
X43922080Y41536780D01*
X43922080Y41536780D02*
X43826842Y41584399D01*
X43826842Y41584399D02*
X43636366Y41584399D01*
X43636366Y41584399D02*
X43541128Y41536780D01*
X43541128Y41536780D02*
X43493509Y41489161D01*
X43493509Y41489161D02*
X43445890Y41393923D01*
%TO.C,C3*%
X8532017Y38240420D02*
X8484398Y38192800D01*
X8484398Y38192800D02*
X8341541Y38145181D01*
X8341541Y38145181D02*
X8246303Y38145181D01*
X8246303Y38145181D02*
X8103446Y38192800D01*
X8103446Y38192800D02*
X8008208Y38288039D01*
X8008208Y38288039D02*
X7960589Y38383277D01*
X7960589Y38383277D02*
X7912970Y38573753D01*
X7912970Y38573753D02*
X7912970Y38716610D01*
X7912970Y38716610D02*
X7960589Y38907086D01*
X7960589Y38907086D02*
X8008208Y39002324D01*
X8008208Y39002324D02*
X8103446Y39097562D01*
X8103446Y39097562D02*
X8246303Y39145181D01*
X8246303Y39145181D02*
X8341541Y39145181D01*
X8341541Y39145181D02*
X8484398Y39097562D01*
X8484398Y39097562D02*
X8532017Y39049943D01*
X8865351Y39145181D02*
X9484398Y39145181D01*
X9484398Y39145181D02*
X9151065Y38764229D01*
X9151065Y38764229D02*
X9293922Y38764229D01*
X9293922Y38764229D02*
X9389160Y38716610D01*
X9389160Y38716610D02*
X9436779Y38668991D01*
X9436779Y38668991D02*
X9484398Y38573753D01*
X9484398Y38573753D02*
X9484398Y38335658D01*
X9484398Y38335658D02*
X9436779Y38240420D01*
X9436779Y38240420D02*
X9389160Y38192800D01*
X9389160Y38192800D02*
X9293922Y38145181D01*
X9293922Y38145181D02*
X9008208Y38145181D01*
X9008208Y38145181D02*
X8912970Y38192800D01*
X8912970Y38192800D02*
X8865351Y38240420D01*
%TO.C,R24*%
X58455826Y53545181D02*
X58122493Y54021372D01*
X57884398Y53545181D02*
X57884398Y54545181D01*
X57884398Y54545181D02*
X58265350Y54545181D01*
X58265350Y54545181D02*
X58360588Y54497562D01*
X58360588Y54497562D02*
X58408207Y54449943D01*
X58408207Y54449943D02*
X58455826Y54354705D01*
X58455826Y54354705D02*
X58455826Y54211848D01*
X58455826Y54211848D02*
X58408207Y54116610D01*
X58408207Y54116610D02*
X58360588Y54068991D01*
X58360588Y54068991D02*
X58265350Y54021372D01*
X58265350Y54021372D02*
X57884398Y54021372D01*
X58836779Y54449943D02*
X58884398Y54497562D01*
X58884398Y54497562D02*
X58979636Y54545181D01*
X58979636Y54545181D02*
X59217731Y54545181D01*
X59217731Y54545181D02*
X59312969Y54497562D01*
X59312969Y54497562D02*
X59360588Y54449943D01*
X59360588Y54449943D02*
X59408207Y54354705D01*
X59408207Y54354705D02*
X59408207Y54259467D01*
X59408207Y54259467D02*
X59360588Y54116610D01*
X59360588Y54116610D02*
X58789160Y53545181D01*
X58789160Y53545181D02*
X59408207Y53545181D01*
X60265350Y54211848D02*
X60265350Y53545181D01*
X60027255Y54592800D02*
X59789160Y53878515D01*
X59789160Y53878515D02*
X60408207Y53878515D01*
%TO.C,R12*%
X16555826Y7145181D02*
X16222493Y7621372D01*
X15984398Y7145181D02*
X15984398Y8145181D01*
X15984398Y8145181D02*
X16365350Y8145181D01*
X16365350Y8145181D02*
X16460588Y8097562D01*
X16460588Y8097562D02*
X16508207Y8049943D01*
X16508207Y8049943D02*
X16555826Y7954705D01*
X16555826Y7954705D02*
X16555826Y7811848D01*
X16555826Y7811848D02*
X16508207Y7716610D01*
X16508207Y7716610D02*
X16460588Y7668991D01*
X16460588Y7668991D02*
X16365350Y7621372D01*
X16365350Y7621372D02*
X15984398Y7621372D01*
X17508207Y7145181D02*
X16936779Y7145181D01*
X17222493Y7145181D02*
X17222493Y8145181D01*
X17222493Y8145181D02*
X17127255Y8002324D01*
X17127255Y8002324D02*
X17032017Y7907086D01*
X17032017Y7907086D02*
X16936779Y7859467D01*
X17889160Y8049943D02*
X17936779Y8097562D01*
X17936779Y8097562D02*
X18032017Y8145181D01*
X18032017Y8145181D02*
X18270112Y8145181D01*
X18270112Y8145181D02*
X18365350Y8097562D01*
X18365350Y8097562D02*
X18412969Y8049943D01*
X18412969Y8049943D02*
X18460588Y7954705D01*
X18460588Y7954705D02*
X18460588Y7859467D01*
X18460588Y7859467D02*
X18412969Y7716610D01*
X18412969Y7716610D02*
X17841541Y7145181D01*
X17841541Y7145181D02*
X18460588Y7145181D01*
%TO.C,Y1*%
X17517731Y5506372D02*
X17517731Y5030181D01*
X17184398Y6030181D02*
X17517731Y5506372D01*
X17517731Y5506372D02*
X17851064Y6030181D01*
X18708207Y5030181D02*
X18136779Y5030181D01*
X18422493Y5030181D02*
X18422493Y6030181D01*
X18422493Y6030181D02*
X18327255Y5887324D01*
X18327255Y5887324D02*
X18232017Y5792086D01*
X18232017Y5792086D02*
X18136779Y5744467D01*
%TO.C,R1*%
X65384819Y39832018D02*
X64908628Y39498685D01*
X65384819Y39260590D02*
X64384819Y39260590D01*
X64384819Y39260590D02*
X64384819Y39641542D01*
X64384819Y39641542D02*
X64432438Y39736780D01*
X64432438Y39736780D02*
X64480057Y39784399D01*
X64480057Y39784399D02*
X64575295Y39832018D01*
X64575295Y39832018D02*
X64718152Y39832018D01*
X64718152Y39832018D02*
X64813390Y39784399D01*
X64813390Y39784399D02*
X64861009Y39736780D01*
X64861009Y39736780D02*
X64908628Y39641542D01*
X64908628Y39641542D02*
X64908628Y39260590D01*
X65384819Y40784399D02*
X65384819Y40212971D01*
X65384819Y40498685D02*
X64384819Y40498685D01*
X64384819Y40498685D02*
X64527676Y40403447D01*
X64527676Y40403447D02*
X64622914Y40308209D01*
X64622914Y40308209D02*
X64670533Y40212971D01*
%TO.C,R31*%
X65345826Y10795181D02*
X65012493Y11271372D01*
X64774398Y10795181D02*
X64774398Y11795181D01*
X64774398Y11795181D02*
X65155350Y11795181D01*
X65155350Y11795181D02*
X65250588Y11747562D01*
X65250588Y11747562D02*
X65298207Y11699943D01*
X65298207Y11699943D02*
X65345826Y11604705D01*
X65345826Y11604705D02*
X65345826Y11461848D01*
X65345826Y11461848D02*
X65298207Y11366610D01*
X65298207Y11366610D02*
X65250588Y11318991D01*
X65250588Y11318991D02*
X65155350Y11271372D01*
X65155350Y11271372D02*
X64774398Y11271372D01*
X65679160Y11795181D02*
X66298207Y11795181D01*
X66298207Y11795181D02*
X65964874Y11414229D01*
X65964874Y11414229D02*
X66107731Y11414229D01*
X66107731Y11414229D02*
X66202969Y11366610D01*
X66202969Y11366610D02*
X66250588Y11318991D01*
X66250588Y11318991D02*
X66298207Y11223753D01*
X66298207Y11223753D02*
X66298207Y10985658D01*
X66298207Y10985658D02*
X66250588Y10890420D01*
X66250588Y10890420D02*
X66202969Y10842800D01*
X66202969Y10842800D02*
X66107731Y10795181D01*
X66107731Y10795181D02*
X65822017Y10795181D01*
X65822017Y10795181D02*
X65726779Y10842800D01*
X65726779Y10842800D02*
X65679160Y10890420D01*
X67250588Y10795181D02*
X66679160Y10795181D01*
X66964874Y10795181D02*
X66964874Y11795181D01*
X66964874Y11795181D02*
X66869636Y11652324D01*
X66869636Y11652324D02*
X66774398Y11557086D01*
X66774398Y11557086D02*
X66679160Y11509467D01*
%TO.C,R4*%
X46924819Y32932018D02*
X46448628Y32598685D01*
X46924819Y32360590D02*
X45924819Y32360590D01*
X45924819Y32360590D02*
X45924819Y32741542D01*
X45924819Y32741542D02*
X45972438Y32836780D01*
X45972438Y32836780D02*
X46020057Y32884399D01*
X46020057Y32884399D02*
X46115295Y32932018D01*
X46115295Y32932018D02*
X46258152Y32932018D01*
X46258152Y32932018D02*
X46353390Y32884399D01*
X46353390Y32884399D02*
X46401009Y32836780D01*
X46401009Y32836780D02*
X46448628Y32741542D01*
X46448628Y32741542D02*
X46448628Y32360590D01*
X46258152Y33789161D02*
X46924819Y33789161D01*
X45877200Y33551066D02*
X46591485Y33312971D01*
X46591485Y33312971D02*
X46591485Y33932018D01*
%TO.C,U6*%
X13036779Y10530181D02*
X13036779Y9720658D01*
X13036779Y9720658D02*
X13084398Y9625420D01*
X13084398Y9625420D02*
X13132017Y9577800D01*
X13132017Y9577800D02*
X13227255Y9530181D01*
X13227255Y9530181D02*
X13417731Y9530181D01*
X13417731Y9530181D02*
X13512969Y9577800D01*
X13512969Y9577800D02*
X13560588Y9625420D01*
X13560588Y9625420D02*
X13608207Y9720658D01*
X13608207Y9720658D02*
X13608207Y10530181D01*
X14512969Y10530181D02*
X14322493Y10530181D01*
X14322493Y10530181D02*
X14227255Y10482562D01*
X14227255Y10482562D02*
X14179636Y10434943D01*
X14179636Y10434943D02*
X14084398Y10292086D01*
X14084398Y10292086D02*
X14036779Y10101610D01*
X14036779Y10101610D02*
X14036779Y9720658D01*
X14036779Y9720658D02*
X14084398Y9625420D01*
X14084398Y9625420D02*
X14132017Y9577800D01*
X14132017Y9577800D02*
X14227255Y9530181D01*
X14227255Y9530181D02*
X14417731Y9530181D01*
X14417731Y9530181D02*
X14512969Y9577800D01*
X14512969Y9577800D02*
X14560588Y9625420D01*
X14560588Y9625420D02*
X14608207Y9720658D01*
X14608207Y9720658D02*
X14608207Y9958753D01*
X14608207Y9958753D02*
X14560588Y10053991D01*
X14560588Y10053991D02*
X14512969Y10101610D01*
X14512969Y10101610D02*
X14417731Y10149229D01*
X14417731Y10149229D02*
X14227255Y10149229D01*
X14227255Y10149229D02*
X14132017Y10101610D01*
X14132017Y10101610D02*
X14084398Y10053991D01*
X14084398Y10053991D02*
X14036779Y9958753D01*
%TO.C,TP2*%
X10754819Y28436780D02*
X10754819Y29008208D01*
X11754819Y28722494D02*
X10754819Y28722494D01*
X11754819Y29341542D02*
X10754819Y29341542D01*
X10754819Y29341542D02*
X10754819Y29722494D01*
X10754819Y29722494D02*
X10802438Y29817732D01*
X10802438Y29817732D02*
X10850057Y29865351D01*
X10850057Y29865351D02*
X10945295Y29912970D01*
X10945295Y29912970D02*
X11088152Y29912970D01*
X11088152Y29912970D02*
X11183390Y29865351D01*
X11183390Y29865351D02*
X11231009Y29817732D01*
X11231009Y29817732D02*
X11278628Y29722494D01*
X11278628Y29722494D02*
X11278628Y29341542D01*
X10850057Y30293923D02*
X10802438Y30341542D01*
X10802438Y30341542D02*
X10754819Y30436780D01*
X10754819Y30436780D02*
X10754819Y30674875D01*
X10754819Y30674875D02*
X10802438Y30770113D01*
X10802438Y30770113D02*
X10850057Y30817732D01*
X10850057Y30817732D02*
X10945295Y30865351D01*
X10945295Y30865351D02*
X11040533Y30865351D01*
X11040533Y30865351D02*
X11183390Y30817732D01*
X11183390Y30817732D02*
X11754819Y30246304D01*
X11754819Y30246304D02*
X11754819Y30865351D01*
%TO.C,R37*%
X71354819Y28855827D02*
X70878628Y28522494D01*
X71354819Y28284399D02*
X70354819Y28284399D01*
X70354819Y28284399D02*
X70354819Y28665351D01*
X70354819Y28665351D02*
X70402438Y28760589D01*
X70402438Y28760589D02*
X70450057Y28808208D01*
X70450057Y28808208D02*
X70545295Y28855827D01*
X70545295Y28855827D02*
X70688152Y28855827D01*
X70688152Y28855827D02*
X70783390Y28808208D01*
X70783390Y28808208D02*
X70831009Y28760589D01*
X70831009Y28760589D02*
X70878628Y28665351D01*
X70878628Y28665351D02*
X70878628Y28284399D01*
X70354819Y29189161D02*
X70354819Y29808208D01*
X70354819Y29808208D02*
X70735771Y29474875D01*
X70735771Y29474875D02*
X70735771Y29617732D01*
X70735771Y29617732D02*
X70783390Y29712970D01*
X70783390Y29712970D02*
X70831009Y29760589D01*
X70831009Y29760589D02*
X70926247Y29808208D01*
X70926247Y29808208D02*
X71164342Y29808208D01*
X71164342Y29808208D02*
X71259580Y29760589D01*
X71259580Y29760589D02*
X71307200Y29712970D01*
X71307200Y29712970D02*
X71354819Y29617732D01*
X71354819Y29617732D02*
X71354819Y29332018D01*
X71354819Y29332018D02*
X71307200Y29236780D01*
X71307200Y29236780D02*
X71259580Y29189161D01*
X70354819Y30141542D02*
X70354819Y30808208D01*
X70354819Y30808208D02*
X71354819Y30379637D01*
%TO.C,R45*%
X61755826Y53545181D02*
X61422493Y54021372D01*
X61184398Y53545181D02*
X61184398Y54545181D01*
X61184398Y54545181D02*
X61565350Y54545181D01*
X61565350Y54545181D02*
X61660588Y54497562D01*
X61660588Y54497562D02*
X61708207Y54449943D01*
X61708207Y54449943D02*
X61755826Y54354705D01*
X61755826Y54354705D02*
X61755826Y54211848D01*
X61755826Y54211848D02*
X61708207Y54116610D01*
X61708207Y54116610D02*
X61660588Y54068991D01*
X61660588Y54068991D02*
X61565350Y54021372D01*
X61565350Y54021372D02*
X61184398Y54021372D01*
X62612969Y54211848D02*
X62612969Y53545181D01*
X62374874Y54592800D02*
X62136779Y53878515D01*
X62136779Y53878515D02*
X62755826Y53878515D01*
X63612969Y54545181D02*
X63136779Y54545181D01*
X63136779Y54545181D02*
X63089160Y54068991D01*
X63089160Y54068991D02*
X63136779Y54116610D01*
X63136779Y54116610D02*
X63232017Y54164229D01*
X63232017Y54164229D02*
X63470112Y54164229D01*
X63470112Y54164229D02*
X63565350Y54116610D01*
X63565350Y54116610D02*
X63612969Y54068991D01*
X63612969Y54068991D02*
X63660588Y53973753D01*
X63660588Y53973753D02*
X63660588Y53735658D01*
X63660588Y53735658D02*
X63612969Y53640420D01*
X63612969Y53640420D02*
X63565350Y53592800D01*
X63565350Y53592800D02*
X63470112Y53545181D01*
X63470112Y53545181D02*
X63232017Y53545181D01*
X63232017Y53545181D02*
X63136779Y53592800D01*
X63136779Y53592800D02*
X63089160Y53640420D01*
%TO.C,R6*%
X44784819Y32932018D02*
X44308628Y32598685D01*
X44784819Y32360590D02*
X43784819Y32360590D01*
X43784819Y32360590D02*
X43784819Y32741542D01*
X43784819Y32741542D02*
X43832438Y32836780D01*
X43832438Y32836780D02*
X43880057Y32884399D01*
X43880057Y32884399D02*
X43975295Y32932018D01*
X43975295Y32932018D02*
X44118152Y32932018D01*
X44118152Y32932018D02*
X44213390Y32884399D01*
X44213390Y32884399D02*
X44261009Y32836780D01*
X44261009Y32836780D02*
X44308628Y32741542D01*
X44308628Y32741542D02*
X44308628Y32360590D01*
X43784819Y33789161D02*
X43784819Y33598685D01*
X43784819Y33598685D02*
X43832438Y33503447D01*
X43832438Y33503447D02*
X43880057Y33455828D01*
X43880057Y33455828D02*
X44022914Y33360590D01*
X44022914Y33360590D02*
X44213390Y33312971D01*
X44213390Y33312971D02*
X44594342Y33312971D01*
X44594342Y33312971D02*
X44689580Y33360590D01*
X44689580Y33360590D02*
X44737200Y33408209D01*
X44737200Y33408209D02*
X44784819Y33503447D01*
X44784819Y33503447D02*
X44784819Y33693923D01*
X44784819Y33693923D02*
X44737200Y33789161D01*
X44737200Y33789161D02*
X44689580Y33836780D01*
X44689580Y33836780D02*
X44594342Y33884399D01*
X44594342Y33884399D02*
X44356247Y33884399D01*
X44356247Y33884399D02*
X44261009Y33836780D01*
X44261009Y33836780D02*
X44213390Y33789161D01*
X44213390Y33789161D02*
X44165771Y33693923D01*
X44165771Y33693923D02*
X44165771Y33503447D01*
X44165771Y33503447D02*
X44213390Y33408209D01*
X44213390Y33408209D02*
X44261009Y33360590D01*
X44261009Y33360590D02*
X44356247Y33312971D01*
%TO.C,U5*%
X31536779Y39145181D02*
X31536779Y38335658D01*
X31536779Y38335658D02*
X31584398Y38240420D01*
X31584398Y38240420D02*
X31632017Y38192800D01*
X31632017Y38192800D02*
X31727255Y38145181D01*
X31727255Y38145181D02*
X31917731Y38145181D01*
X31917731Y38145181D02*
X32012969Y38192800D01*
X32012969Y38192800D02*
X32060588Y38240420D01*
X32060588Y38240420D02*
X32108207Y38335658D01*
X32108207Y38335658D02*
X32108207Y39145181D01*
X33060588Y39145181D02*
X32584398Y39145181D01*
X32584398Y39145181D02*
X32536779Y38668991D01*
X32536779Y38668991D02*
X32584398Y38716610D01*
X32584398Y38716610D02*
X32679636Y38764229D01*
X32679636Y38764229D02*
X32917731Y38764229D01*
X32917731Y38764229D02*
X33012969Y38716610D01*
X33012969Y38716610D02*
X33060588Y38668991D01*
X33060588Y38668991D02*
X33108207Y38573753D01*
X33108207Y38573753D02*
X33108207Y38335658D01*
X33108207Y38335658D02*
X33060588Y38240420D01*
X33060588Y38240420D02*
X33012969Y38192800D01*
X33012969Y38192800D02*
X32917731Y38145181D01*
X32917731Y38145181D02*
X32679636Y38145181D01*
X32679636Y38145181D02*
X32584398Y38192800D01*
X32584398Y38192800D02*
X32536779Y38240420D01*
%TO.C,C15*%
X12608207Y2025420D02*
X12560588Y1977800D01*
X12560588Y1977800D02*
X12417731Y1930181D01*
X12417731Y1930181D02*
X12322493Y1930181D01*
X12322493Y1930181D02*
X12179636Y1977800D01*
X12179636Y1977800D02*
X12084398Y2073039D01*
X12084398Y2073039D02*
X12036779Y2168277D01*
X12036779Y2168277D02*
X11989160Y2358753D01*
X11989160Y2358753D02*
X11989160Y2501610D01*
X11989160Y2501610D02*
X12036779Y2692086D01*
X12036779Y2692086D02*
X12084398Y2787324D01*
X12084398Y2787324D02*
X12179636Y2882562D01*
X12179636Y2882562D02*
X12322493Y2930181D01*
X12322493Y2930181D02*
X12417731Y2930181D01*
X12417731Y2930181D02*
X12560588Y2882562D01*
X12560588Y2882562D02*
X12608207Y2834943D01*
X13560588Y1930181D02*
X12989160Y1930181D01*
X13274874Y1930181D02*
X13274874Y2930181D01*
X13274874Y2930181D02*
X13179636Y2787324D01*
X13179636Y2787324D02*
X13084398Y2692086D01*
X13084398Y2692086D02*
X12989160Y2644467D01*
X14465350Y2930181D02*
X13989160Y2930181D01*
X13989160Y2930181D02*
X13941541Y2453991D01*
X13941541Y2453991D02*
X13989160Y2501610D01*
X13989160Y2501610D02*
X14084398Y2549229D01*
X14084398Y2549229D02*
X14322493Y2549229D01*
X14322493Y2549229D02*
X14417731Y2501610D01*
X14417731Y2501610D02*
X14465350Y2453991D01*
X14465350Y2453991D02*
X14512969Y2358753D01*
X14512969Y2358753D02*
X14512969Y2120658D01*
X14512969Y2120658D02*
X14465350Y2025420D01*
X14465350Y2025420D02*
X14417731Y1977800D01*
X14417731Y1977800D02*
X14322493Y1930181D01*
X14322493Y1930181D02*
X14084398Y1930181D01*
X14084398Y1930181D02*
X13989160Y1977800D01*
X13989160Y1977800D02*
X13941541Y2025420D01*
%TO.C,R39*%
X73155826Y46645181D02*
X72822493Y47121372D01*
X72584398Y46645181D02*
X72584398Y47645181D01*
X72584398Y47645181D02*
X72965350Y47645181D01*
X72965350Y47645181D02*
X73060588Y47597562D01*
X73060588Y47597562D02*
X73108207Y47549943D01*
X73108207Y47549943D02*
X73155826Y47454705D01*
X73155826Y47454705D02*
X73155826Y47311848D01*
X73155826Y47311848D02*
X73108207Y47216610D01*
X73108207Y47216610D02*
X73060588Y47168991D01*
X73060588Y47168991D02*
X72965350Y47121372D01*
X72965350Y47121372D02*
X72584398Y47121372D01*
X73489160Y47645181D02*
X74108207Y47645181D01*
X74108207Y47645181D02*
X73774874Y47264229D01*
X73774874Y47264229D02*
X73917731Y47264229D01*
X73917731Y47264229D02*
X74012969Y47216610D01*
X74012969Y47216610D02*
X74060588Y47168991D01*
X74060588Y47168991D02*
X74108207Y47073753D01*
X74108207Y47073753D02*
X74108207Y46835658D01*
X74108207Y46835658D02*
X74060588Y46740420D01*
X74060588Y46740420D02*
X74012969Y46692800D01*
X74012969Y46692800D02*
X73917731Y46645181D01*
X73917731Y46645181D02*
X73632017Y46645181D01*
X73632017Y46645181D02*
X73536779Y46692800D01*
X73536779Y46692800D02*
X73489160Y46740420D01*
X74584398Y46645181D02*
X74774874Y46645181D01*
X74774874Y46645181D02*
X74870112Y46692800D01*
X74870112Y46692800D02*
X74917731Y46740420D01*
X74917731Y46740420D02*
X75012969Y46883277D01*
X75012969Y46883277D02*
X75060588Y47073753D01*
X75060588Y47073753D02*
X75060588Y47454705D01*
X75060588Y47454705D02*
X75012969Y47549943D01*
X75012969Y47549943D02*
X74965350Y47597562D01*
X74965350Y47597562D02*
X74870112Y47645181D01*
X74870112Y47645181D02*
X74679636Y47645181D01*
X74679636Y47645181D02*
X74584398Y47597562D01*
X74584398Y47597562D02*
X74536779Y47549943D01*
X74536779Y47549943D02*
X74489160Y47454705D01*
X74489160Y47454705D02*
X74489160Y47216610D01*
X74489160Y47216610D02*
X74536779Y47121372D01*
X74536779Y47121372D02*
X74584398Y47073753D01*
X74584398Y47073753D02*
X74679636Y47026134D01*
X74679636Y47026134D02*
X74870112Y47026134D01*
X74870112Y47026134D02*
X74965350Y47073753D01*
X74965350Y47073753D02*
X75012969Y47121372D01*
X75012969Y47121372D02*
X75060588Y47216610D01*
%TO.C,R21*%
X52255826Y53545181D02*
X51922493Y54021372D01*
X51684398Y53545181D02*
X51684398Y54545181D01*
X51684398Y54545181D02*
X52065350Y54545181D01*
X52065350Y54545181D02*
X52160588Y54497562D01*
X52160588Y54497562D02*
X52208207Y54449943D01*
X52208207Y54449943D02*
X52255826Y54354705D01*
X52255826Y54354705D02*
X52255826Y54211848D01*
X52255826Y54211848D02*
X52208207Y54116610D01*
X52208207Y54116610D02*
X52160588Y54068991D01*
X52160588Y54068991D02*
X52065350Y54021372D01*
X52065350Y54021372D02*
X51684398Y54021372D01*
X52636779Y54449943D02*
X52684398Y54497562D01*
X52684398Y54497562D02*
X52779636Y54545181D01*
X52779636Y54545181D02*
X53017731Y54545181D01*
X53017731Y54545181D02*
X53112969Y54497562D01*
X53112969Y54497562D02*
X53160588Y54449943D01*
X53160588Y54449943D02*
X53208207Y54354705D01*
X53208207Y54354705D02*
X53208207Y54259467D01*
X53208207Y54259467D02*
X53160588Y54116610D01*
X53160588Y54116610D02*
X52589160Y53545181D01*
X52589160Y53545181D02*
X53208207Y53545181D01*
X54160588Y53545181D02*
X53589160Y53545181D01*
X53874874Y53545181D02*
X53874874Y54545181D01*
X53874874Y54545181D02*
X53779636Y54402324D01*
X53779636Y54402324D02*
X53684398Y54307086D01*
X53684398Y54307086D02*
X53589160Y54259467D01*
%TO.C,D4*%
X56840589Y7965181D02*
X56840589Y8965181D01*
X56840589Y8965181D02*
X57078684Y8965181D01*
X57078684Y8965181D02*
X57221541Y8917562D01*
X57221541Y8917562D02*
X57316779Y8822324D01*
X57316779Y8822324D02*
X57364398Y8727086D01*
X57364398Y8727086D02*
X57412017Y8536610D01*
X57412017Y8536610D02*
X57412017Y8393753D01*
X57412017Y8393753D02*
X57364398Y8203277D01*
X57364398Y8203277D02*
X57316779Y8108039D01*
X57316779Y8108039D02*
X57221541Y8012800D01*
X57221541Y8012800D02*
X57078684Y7965181D01*
X57078684Y7965181D02*
X56840589Y7965181D01*
X58269160Y8631848D02*
X58269160Y7965181D01*
X58031065Y9012800D02*
X57792970Y8298515D01*
X57792970Y8298515D02*
X58412017Y8298515D01*
%TO.C,IC1*%
X12958921Y13620274D02*
X12958921Y14890274D01*
X14289398Y13741227D02*
X14228922Y13680750D01*
X14228922Y13680750D02*
X14047493Y13620274D01*
X14047493Y13620274D02*
X13926541Y13620274D01*
X13926541Y13620274D02*
X13745112Y13680750D01*
X13745112Y13680750D02*
X13624160Y13801703D01*
X13624160Y13801703D02*
X13563683Y13922655D01*
X13563683Y13922655D02*
X13503207Y14164560D01*
X13503207Y14164560D02*
X13503207Y14345989D01*
X13503207Y14345989D02*
X13563683Y14587893D01*
X13563683Y14587893D02*
X13624160Y14708846D01*
X13624160Y14708846D02*
X13745112Y14829798D01*
X13745112Y14829798D02*
X13926541Y14890274D01*
X13926541Y14890274D02*
X14047493Y14890274D01*
X14047493Y14890274D02*
X14228922Y14829798D01*
X14228922Y14829798D02*
X14289398Y14769322D01*
X15498922Y13620274D02*
X14773207Y13620274D01*
X15136064Y13620274D02*
X15136064Y14890274D01*
X15136064Y14890274D02*
X15015112Y14708846D01*
X15015112Y14708846D02*
X14894160Y14587893D01*
X14894160Y14587893D02*
X14773207Y14527417D01*
%TO.C,R15*%
X65445826Y18795181D02*
X65112493Y19271372D01*
X64874398Y18795181D02*
X64874398Y19795181D01*
X64874398Y19795181D02*
X65255350Y19795181D01*
X65255350Y19795181D02*
X65350588Y19747562D01*
X65350588Y19747562D02*
X65398207Y19699943D01*
X65398207Y19699943D02*
X65445826Y19604705D01*
X65445826Y19604705D02*
X65445826Y19461848D01*
X65445826Y19461848D02*
X65398207Y19366610D01*
X65398207Y19366610D02*
X65350588Y19318991D01*
X65350588Y19318991D02*
X65255350Y19271372D01*
X65255350Y19271372D02*
X64874398Y19271372D01*
X66398207Y18795181D02*
X65826779Y18795181D01*
X66112493Y18795181D02*
X66112493Y19795181D01*
X66112493Y19795181D02*
X66017255Y19652324D01*
X66017255Y19652324D02*
X65922017Y19557086D01*
X65922017Y19557086D02*
X65826779Y19509467D01*
X67302969Y19795181D02*
X66826779Y19795181D01*
X66826779Y19795181D02*
X66779160Y19318991D01*
X66779160Y19318991D02*
X66826779Y19366610D01*
X66826779Y19366610D02*
X66922017Y19414229D01*
X66922017Y19414229D02*
X67160112Y19414229D01*
X67160112Y19414229D02*
X67255350Y19366610D01*
X67255350Y19366610D02*
X67302969Y19318991D01*
X67302969Y19318991D02*
X67350588Y19223753D01*
X67350588Y19223753D02*
X67350588Y18985658D01*
X67350588Y18985658D02*
X67302969Y18890420D01*
X67302969Y18890420D02*
X67255350Y18842800D01*
X67255350Y18842800D02*
X67160112Y18795181D01*
X67160112Y18795181D02*
X66922017Y18795181D01*
X66922017Y18795181D02*
X66826779Y18842800D01*
X66826779Y18842800D02*
X66779160Y18890420D01*
%TO.C,R28*%
X27355826Y38945181D02*
X27022493Y39421372D01*
X26784398Y38945181D02*
X26784398Y39945181D01*
X26784398Y39945181D02*
X27165350Y39945181D01*
X27165350Y39945181D02*
X27260588Y39897562D01*
X27260588Y39897562D02*
X27308207Y39849943D01*
X27308207Y39849943D02*
X27355826Y39754705D01*
X27355826Y39754705D02*
X27355826Y39611848D01*
X27355826Y39611848D02*
X27308207Y39516610D01*
X27308207Y39516610D02*
X27260588Y39468991D01*
X27260588Y39468991D02*
X27165350Y39421372D01*
X27165350Y39421372D02*
X26784398Y39421372D01*
X27736779Y39849943D02*
X27784398Y39897562D01*
X27784398Y39897562D02*
X27879636Y39945181D01*
X27879636Y39945181D02*
X28117731Y39945181D01*
X28117731Y39945181D02*
X28212969Y39897562D01*
X28212969Y39897562D02*
X28260588Y39849943D01*
X28260588Y39849943D02*
X28308207Y39754705D01*
X28308207Y39754705D02*
X28308207Y39659467D01*
X28308207Y39659467D02*
X28260588Y39516610D01*
X28260588Y39516610D02*
X27689160Y38945181D01*
X27689160Y38945181D02*
X28308207Y38945181D01*
X28879636Y39516610D02*
X28784398Y39564229D01*
X28784398Y39564229D02*
X28736779Y39611848D01*
X28736779Y39611848D02*
X28689160Y39707086D01*
X28689160Y39707086D02*
X28689160Y39754705D01*
X28689160Y39754705D02*
X28736779Y39849943D01*
X28736779Y39849943D02*
X28784398Y39897562D01*
X28784398Y39897562D02*
X28879636Y39945181D01*
X28879636Y39945181D02*
X29070112Y39945181D01*
X29070112Y39945181D02*
X29165350Y39897562D01*
X29165350Y39897562D02*
X29212969Y39849943D01*
X29212969Y39849943D02*
X29260588Y39754705D01*
X29260588Y39754705D02*
X29260588Y39707086D01*
X29260588Y39707086D02*
X29212969Y39611848D01*
X29212969Y39611848D02*
X29165350Y39564229D01*
X29165350Y39564229D02*
X29070112Y39516610D01*
X29070112Y39516610D02*
X28879636Y39516610D01*
X28879636Y39516610D02*
X28784398Y39468991D01*
X28784398Y39468991D02*
X28736779Y39421372D01*
X28736779Y39421372D02*
X28689160Y39326134D01*
X28689160Y39326134D02*
X28689160Y39135658D01*
X28689160Y39135658D02*
X28736779Y39040420D01*
X28736779Y39040420D02*
X28784398Y38992800D01*
X28784398Y38992800D02*
X28879636Y38945181D01*
X28879636Y38945181D02*
X29070112Y38945181D01*
X29070112Y38945181D02*
X29165350Y38992800D01*
X29165350Y38992800D02*
X29212969Y39040420D01*
X29212969Y39040420D02*
X29260588Y39135658D01*
X29260588Y39135658D02*
X29260588Y39326134D01*
X29260588Y39326134D02*
X29212969Y39421372D01*
X29212969Y39421372D02*
X29165350Y39468991D01*
X29165350Y39468991D02*
X29070112Y39516610D01*
%TO.C,TP3*%
X10754819Y25136780D02*
X10754819Y25708208D01*
X11754819Y25422494D02*
X10754819Y25422494D01*
X11754819Y26041542D02*
X10754819Y26041542D01*
X10754819Y26041542D02*
X10754819Y26422494D01*
X10754819Y26422494D02*
X10802438Y26517732D01*
X10802438Y26517732D02*
X10850057Y26565351D01*
X10850057Y26565351D02*
X10945295Y26612970D01*
X10945295Y26612970D02*
X11088152Y26612970D01*
X11088152Y26612970D02*
X11183390Y26565351D01*
X11183390Y26565351D02*
X11231009Y26517732D01*
X11231009Y26517732D02*
X11278628Y26422494D01*
X11278628Y26422494D02*
X11278628Y26041542D01*
X10754819Y26946304D02*
X10754819Y27565351D01*
X10754819Y27565351D02*
X11135771Y27232018D01*
X11135771Y27232018D02*
X11135771Y27374875D01*
X11135771Y27374875D02*
X11183390Y27470113D01*
X11183390Y27470113D02*
X11231009Y27517732D01*
X11231009Y27517732D02*
X11326247Y27565351D01*
X11326247Y27565351D02*
X11564342Y27565351D01*
X11564342Y27565351D02*
X11659580Y27517732D01*
X11659580Y27517732D02*
X11707200Y27470113D01*
X11707200Y27470113D02*
X11754819Y27374875D01*
X11754819Y27374875D02*
X11754819Y27089161D01*
X11754819Y27089161D02*
X11707200Y26993923D01*
X11707200Y26993923D02*
X11659580Y26946304D01*
%TO.C,TP6*%
X9754819Y34736780D02*
X9754819Y35308208D01*
X10754819Y35022494D02*
X9754819Y35022494D01*
X10754819Y35641542D02*
X9754819Y35641542D01*
X9754819Y35641542D02*
X9754819Y36022494D01*
X9754819Y36022494D02*
X9802438Y36117732D01*
X9802438Y36117732D02*
X9850057Y36165351D01*
X9850057Y36165351D02*
X9945295Y36212970D01*
X9945295Y36212970D02*
X10088152Y36212970D01*
X10088152Y36212970D02*
X10183390Y36165351D01*
X10183390Y36165351D02*
X10231009Y36117732D01*
X10231009Y36117732D02*
X10278628Y36022494D01*
X10278628Y36022494D02*
X10278628Y35641542D01*
X9754819Y37070113D02*
X9754819Y36879637D01*
X9754819Y36879637D02*
X9802438Y36784399D01*
X9802438Y36784399D02*
X9850057Y36736780D01*
X9850057Y36736780D02*
X9992914Y36641542D01*
X9992914Y36641542D02*
X10183390Y36593923D01*
X10183390Y36593923D02*
X10564342Y36593923D01*
X10564342Y36593923D02*
X10659580Y36641542D01*
X10659580Y36641542D02*
X10707200Y36689161D01*
X10707200Y36689161D02*
X10754819Y36784399D01*
X10754819Y36784399D02*
X10754819Y36974875D01*
X10754819Y36974875D02*
X10707200Y37070113D01*
X10707200Y37070113D02*
X10659580Y37117732D01*
X10659580Y37117732D02*
X10564342Y37165351D01*
X10564342Y37165351D02*
X10326247Y37165351D01*
X10326247Y37165351D02*
X10231009Y37117732D01*
X10231009Y37117732D02*
X10183390Y37070113D01*
X10183390Y37070113D02*
X10135771Y36974875D01*
X10135771Y36974875D02*
X10135771Y36784399D01*
X10135771Y36784399D02*
X10183390Y36689161D01*
X10183390Y36689161D02*
X10231009Y36641542D01*
X10231009Y36641542D02*
X10326247Y36593923D01*
%TO.C,R38*%
X65255826Y31945181D02*
X64922493Y32421372D01*
X64684398Y31945181D02*
X64684398Y32945181D01*
X64684398Y32945181D02*
X65065350Y32945181D01*
X65065350Y32945181D02*
X65160588Y32897562D01*
X65160588Y32897562D02*
X65208207Y32849943D01*
X65208207Y32849943D02*
X65255826Y32754705D01*
X65255826Y32754705D02*
X65255826Y32611848D01*
X65255826Y32611848D02*
X65208207Y32516610D01*
X65208207Y32516610D02*
X65160588Y32468991D01*
X65160588Y32468991D02*
X65065350Y32421372D01*
X65065350Y32421372D02*
X64684398Y32421372D01*
X65589160Y32945181D02*
X66208207Y32945181D01*
X66208207Y32945181D02*
X65874874Y32564229D01*
X65874874Y32564229D02*
X66017731Y32564229D01*
X66017731Y32564229D02*
X66112969Y32516610D01*
X66112969Y32516610D02*
X66160588Y32468991D01*
X66160588Y32468991D02*
X66208207Y32373753D01*
X66208207Y32373753D02*
X66208207Y32135658D01*
X66208207Y32135658D02*
X66160588Y32040420D01*
X66160588Y32040420D02*
X66112969Y31992800D01*
X66112969Y31992800D02*
X66017731Y31945181D01*
X66017731Y31945181D02*
X65732017Y31945181D01*
X65732017Y31945181D02*
X65636779Y31992800D01*
X65636779Y31992800D02*
X65589160Y32040420D01*
X66779636Y32516610D02*
X66684398Y32564229D01*
X66684398Y32564229D02*
X66636779Y32611848D01*
X66636779Y32611848D02*
X66589160Y32707086D01*
X66589160Y32707086D02*
X66589160Y32754705D01*
X66589160Y32754705D02*
X66636779Y32849943D01*
X66636779Y32849943D02*
X66684398Y32897562D01*
X66684398Y32897562D02*
X66779636Y32945181D01*
X66779636Y32945181D02*
X66970112Y32945181D01*
X66970112Y32945181D02*
X67065350Y32897562D01*
X67065350Y32897562D02*
X67112969Y32849943D01*
X67112969Y32849943D02*
X67160588Y32754705D01*
X67160588Y32754705D02*
X67160588Y32707086D01*
X67160588Y32707086D02*
X67112969Y32611848D01*
X67112969Y32611848D02*
X67065350Y32564229D01*
X67065350Y32564229D02*
X66970112Y32516610D01*
X66970112Y32516610D02*
X66779636Y32516610D01*
X66779636Y32516610D02*
X66684398Y32468991D01*
X66684398Y32468991D02*
X66636779Y32421372D01*
X66636779Y32421372D02*
X66589160Y32326134D01*
X66589160Y32326134D02*
X66589160Y32135658D01*
X66589160Y32135658D02*
X66636779Y32040420D01*
X66636779Y32040420D02*
X66684398Y31992800D01*
X66684398Y31992800D02*
X66779636Y31945181D01*
X66779636Y31945181D02*
X66970112Y31945181D01*
X66970112Y31945181D02*
X67065350Y31992800D01*
X67065350Y31992800D02*
X67112969Y32040420D01*
X67112969Y32040420D02*
X67160588Y32135658D01*
X67160588Y32135658D02*
X67160588Y32326134D01*
X67160588Y32326134D02*
X67112969Y32421372D01*
X67112969Y32421372D02*
X67065350Y32468991D01*
X67065350Y32468991D02*
X66970112Y32516610D01*
%TO.C,D7*%
X56390589Y22365181D02*
X56390589Y23365181D01*
X56390589Y23365181D02*
X56628684Y23365181D01*
X56628684Y23365181D02*
X56771541Y23317562D01*
X56771541Y23317562D02*
X56866779Y23222324D01*
X56866779Y23222324D02*
X56914398Y23127086D01*
X56914398Y23127086D02*
X56962017Y22936610D01*
X56962017Y22936610D02*
X56962017Y22793753D01*
X56962017Y22793753D02*
X56914398Y22603277D01*
X56914398Y22603277D02*
X56866779Y22508039D01*
X56866779Y22508039D02*
X56771541Y22412800D01*
X56771541Y22412800D02*
X56628684Y22365181D01*
X56628684Y22365181D02*
X56390589Y22365181D01*
X57295351Y23365181D02*
X57962017Y23365181D01*
X57962017Y23365181D02*
X57533446Y22365181D01*
%TO.C,R33*%
X65395826Y20695181D02*
X65062493Y21171372D01*
X64824398Y20695181D02*
X64824398Y21695181D01*
X64824398Y21695181D02*
X65205350Y21695181D01*
X65205350Y21695181D02*
X65300588Y21647562D01*
X65300588Y21647562D02*
X65348207Y21599943D01*
X65348207Y21599943D02*
X65395826Y21504705D01*
X65395826Y21504705D02*
X65395826Y21361848D01*
X65395826Y21361848D02*
X65348207Y21266610D01*
X65348207Y21266610D02*
X65300588Y21218991D01*
X65300588Y21218991D02*
X65205350Y21171372D01*
X65205350Y21171372D02*
X64824398Y21171372D01*
X65729160Y21695181D02*
X66348207Y21695181D01*
X66348207Y21695181D02*
X66014874Y21314229D01*
X66014874Y21314229D02*
X66157731Y21314229D01*
X66157731Y21314229D02*
X66252969Y21266610D01*
X66252969Y21266610D02*
X66300588Y21218991D01*
X66300588Y21218991D02*
X66348207Y21123753D01*
X66348207Y21123753D02*
X66348207Y20885658D01*
X66348207Y20885658D02*
X66300588Y20790420D01*
X66300588Y20790420D02*
X66252969Y20742800D01*
X66252969Y20742800D02*
X66157731Y20695181D01*
X66157731Y20695181D02*
X65872017Y20695181D01*
X65872017Y20695181D02*
X65776779Y20742800D01*
X65776779Y20742800D02*
X65729160Y20790420D01*
X66681541Y21695181D02*
X67300588Y21695181D01*
X67300588Y21695181D02*
X66967255Y21314229D01*
X66967255Y21314229D02*
X67110112Y21314229D01*
X67110112Y21314229D02*
X67205350Y21266610D01*
X67205350Y21266610D02*
X67252969Y21218991D01*
X67252969Y21218991D02*
X67300588Y21123753D01*
X67300588Y21123753D02*
X67300588Y20885658D01*
X67300588Y20885658D02*
X67252969Y20790420D01*
X67252969Y20790420D02*
X67205350Y20742800D01*
X67205350Y20742800D02*
X67110112Y20695181D01*
X67110112Y20695181D02*
X66824398Y20695181D01*
X66824398Y20695181D02*
X66729160Y20742800D01*
X66729160Y20742800D02*
X66681541Y20790420D01*
%TO.C,R26*%
X51865826Y41575181D02*
X51532493Y42051372D01*
X51294398Y41575181D02*
X51294398Y42575181D01*
X51294398Y42575181D02*
X51675350Y42575181D01*
X51675350Y42575181D02*
X51770588Y42527562D01*
X51770588Y42527562D02*
X51818207Y42479943D01*
X51818207Y42479943D02*
X51865826Y42384705D01*
X51865826Y42384705D02*
X51865826Y42241848D01*
X51865826Y42241848D02*
X51818207Y42146610D01*
X51818207Y42146610D02*
X51770588Y42098991D01*
X51770588Y42098991D02*
X51675350Y42051372D01*
X51675350Y42051372D02*
X51294398Y42051372D01*
X52246779Y42479943D02*
X52294398Y42527562D01*
X52294398Y42527562D02*
X52389636Y42575181D01*
X52389636Y42575181D02*
X52627731Y42575181D01*
X52627731Y42575181D02*
X52722969Y42527562D01*
X52722969Y42527562D02*
X52770588Y42479943D01*
X52770588Y42479943D02*
X52818207Y42384705D01*
X52818207Y42384705D02*
X52818207Y42289467D01*
X52818207Y42289467D02*
X52770588Y42146610D01*
X52770588Y42146610D02*
X52199160Y41575181D01*
X52199160Y41575181D02*
X52818207Y41575181D01*
X53675350Y42575181D02*
X53484874Y42575181D01*
X53484874Y42575181D02*
X53389636Y42527562D01*
X53389636Y42527562D02*
X53342017Y42479943D01*
X53342017Y42479943D02*
X53246779Y42337086D01*
X53246779Y42337086D02*
X53199160Y42146610D01*
X53199160Y42146610D02*
X53199160Y41765658D01*
X53199160Y41765658D02*
X53246779Y41670420D01*
X53246779Y41670420D02*
X53294398Y41622800D01*
X53294398Y41622800D02*
X53389636Y41575181D01*
X53389636Y41575181D02*
X53580112Y41575181D01*
X53580112Y41575181D02*
X53675350Y41622800D01*
X53675350Y41622800D02*
X53722969Y41670420D01*
X53722969Y41670420D02*
X53770588Y41765658D01*
X53770588Y41765658D02*
X53770588Y42003753D01*
X53770588Y42003753D02*
X53722969Y42098991D01*
X53722969Y42098991D02*
X53675350Y42146610D01*
X53675350Y42146610D02*
X53580112Y42194229D01*
X53580112Y42194229D02*
X53389636Y42194229D01*
X53389636Y42194229D02*
X53294398Y42146610D01*
X53294398Y42146610D02*
X53246779Y42098991D01*
X53246779Y42098991D02*
X53199160Y42003753D01*
%TO.C,R46*%
X46255826Y53745181D02*
X45922493Y54221372D01*
X45684398Y53745181D02*
X45684398Y54745181D01*
X45684398Y54745181D02*
X46065350Y54745181D01*
X46065350Y54745181D02*
X46160588Y54697562D01*
X46160588Y54697562D02*
X46208207Y54649943D01*
X46208207Y54649943D02*
X46255826Y54554705D01*
X46255826Y54554705D02*
X46255826Y54411848D01*
X46255826Y54411848D02*
X46208207Y54316610D01*
X46208207Y54316610D02*
X46160588Y54268991D01*
X46160588Y54268991D02*
X46065350Y54221372D01*
X46065350Y54221372D02*
X45684398Y54221372D01*
X47112969Y54411848D02*
X47112969Y53745181D01*
X46874874Y54792800D02*
X46636779Y54078515D01*
X46636779Y54078515D02*
X47255826Y54078515D01*
X48065350Y54745181D02*
X47874874Y54745181D01*
X47874874Y54745181D02*
X47779636Y54697562D01*
X47779636Y54697562D02*
X47732017Y54649943D01*
X47732017Y54649943D02*
X47636779Y54507086D01*
X47636779Y54507086D02*
X47589160Y54316610D01*
X47589160Y54316610D02*
X47589160Y53935658D01*
X47589160Y53935658D02*
X47636779Y53840420D01*
X47636779Y53840420D02*
X47684398Y53792800D01*
X47684398Y53792800D02*
X47779636Y53745181D01*
X47779636Y53745181D02*
X47970112Y53745181D01*
X47970112Y53745181D02*
X48065350Y53792800D01*
X48065350Y53792800D02*
X48112969Y53840420D01*
X48112969Y53840420D02*
X48160588Y53935658D01*
X48160588Y53935658D02*
X48160588Y54173753D01*
X48160588Y54173753D02*
X48112969Y54268991D01*
X48112969Y54268991D02*
X48065350Y54316610D01*
X48065350Y54316610D02*
X47970112Y54364229D01*
X47970112Y54364229D02*
X47779636Y54364229D01*
X47779636Y54364229D02*
X47684398Y54316610D01*
X47684398Y54316610D02*
X47636779Y54268991D01*
X47636779Y54268991D02*
X47589160Y54173753D01*
%TO.C,R30*%
X36754819Y49655827D02*
X36278628Y49322494D01*
X36754819Y49084399D02*
X35754819Y49084399D01*
X35754819Y49084399D02*
X35754819Y49465351D01*
X35754819Y49465351D02*
X35802438Y49560589D01*
X35802438Y49560589D02*
X35850057Y49608208D01*
X35850057Y49608208D02*
X35945295Y49655827D01*
X35945295Y49655827D02*
X36088152Y49655827D01*
X36088152Y49655827D02*
X36183390Y49608208D01*
X36183390Y49608208D02*
X36231009Y49560589D01*
X36231009Y49560589D02*
X36278628Y49465351D01*
X36278628Y49465351D02*
X36278628Y49084399D01*
X35754819Y49989161D02*
X35754819Y50608208D01*
X35754819Y50608208D02*
X36135771Y50274875D01*
X36135771Y50274875D02*
X36135771Y50417732D01*
X36135771Y50417732D02*
X36183390Y50512970D01*
X36183390Y50512970D02*
X36231009Y50560589D01*
X36231009Y50560589D02*
X36326247Y50608208D01*
X36326247Y50608208D02*
X36564342Y50608208D01*
X36564342Y50608208D02*
X36659580Y50560589D01*
X36659580Y50560589D02*
X36707200Y50512970D01*
X36707200Y50512970D02*
X36754819Y50417732D01*
X36754819Y50417732D02*
X36754819Y50132018D01*
X36754819Y50132018D02*
X36707200Y50036780D01*
X36707200Y50036780D02*
X36659580Y49989161D01*
X35754819Y51227256D02*
X35754819Y51322494D01*
X35754819Y51322494D02*
X35802438Y51417732D01*
X35802438Y51417732D02*
X35850057Y51465351D01*
X35850057Y51465351D02*
X35945295Y51512970D01*
X35945295Y51512970D02*
X36135771Y51560589D01*
X36135771Y51560589D02*
X36373866Y51560589D01*
X36373866Y51560589D02*
X36564342Y51512970D01*
X36564342Y51512970D02*
X36659580Y51465351D01*
X36659580Y51465351D02*
X36707200Y51417732D01*
X36707200Y51417732D02*
X36754819Y51322494D01*
X36754819Y51322494D02*
X36754819Y51227256D01*
X36754819Y51227256D02*
X36707200Y51132018D01*
X36707200Y51132018D02*
X36659580Y51084399D01*
X36659580Y51084399D02*
X36564342Y51036780D01*
X36564342Y51036780D02*
X36373866Y50989161D01*
X36373866Y50989161D02*
X36135771Y50989161D01*
X36135771Y50989161D02*
X35945295Y51036780D01*
X35945295Y51036780D02*
X35850057Y51084399D01*
X35850057Y51084399D02*
X35802438Y51132018D01*
X35802438Y51132018D02*
X35754819Y51227256D01*
%TO.C,D3*%
X23354819Y42460590D02*
X22354819Y42460590D01*
X22354819Y42460590D02*
X22354819Y42698685D01*
X22354819Y42698685D02*
X22402438Y42841542D01*
X22402438Y42841542D02*
X22497676Y42936780D01*
X22497676Y42936780D02*
X22592914Y42984399D01*
X22592914Y42984399D02*
X22783390Y43032018D01*
X22783390Y43032018D02*
X22926247Y43032018D01*
X22926247Y43032018D02*
X23116723Y42984399D01*
X23116723Y42984399D02*
X23211961Y42936780D01*
X23211961Y42936780D02*
X23307200Y42841542D01*
X23307200Y42841542D02*
X23354819Y42698685D01*
X23354819Y42698685D02*
X23354819Y42460590D01*
X22354819Y43365352D02*
X22354819Y43984399D01*
X22354819Y43984399D02*
X22735771Y43651066D01*
X22735771Y43651066D02*
X22735771Y43793923D01*
X22735771Y43793923D02*
X22783390Y43889161D01*
X22783390Y43889161D02*
X22831009Y43936780D01*
X22831009Y43936780D02*
X22926247Y43984399D01*
X22926247Y43984399D02*
X23164342Y43984399D01*
X23164342Y43984399D02*
X23259580Y43936780D01*
X23259580Y43936780D02*
X23307200Y43889161D01*
X23307200Y43889161D02*
X23354819Y43793923D01*
X23354819Y43793923D02*
X23354819Y43508209D01*
X23354819Y43508209D02*
X23307200Y43412971D01*
X23307200Y43412971D02*
X23259580Y43365352D01*
%TO.C,D9*%
X56840589Y15165181D02*
X56840589Y16165181D01*
X56840589Y16165181D02*
X57078684Y16165181D01*
X57078684Y16165181D02*
X57221541Y16117562D01*
X57221541Y16117562D02*
X57316779Y16022324D01*
X57316779Y16022324D02*
X57364398Y15927086D01*
X57364398Y15927086D02*
X57412017Y15736610D01*
X57412017Y15736610D02*
X57412017Y15593753D01*
X57412017Y15593753D02*
X57364398Y15403277D01*
X57364398Y15403277D02*
X57316779Y15308039D01*
X57316779Y15308039D02*
X57221541Y15212800D01*
X57221541Y15212800D02*
X57078684Y15165181D01*
X57078684Y15165181D02*
X56840589Y15165181D01*
X57888208Y15165181D02*
X58078684Y15165181D01*
X58078684Y15165181D02*
X58173922Y15212800D01*
X58173922Y15212800D02*
X58221541Y15260420D01*
X58221541Y15260420D02*
X58316779Y15403277D01*
X58316779Y15403277D02*
X58364398Y15593753D01*
X58364398Y15593753D02*
X58364398Y15974705D01*
X58364398Y15974705D02*
X58316779Y16069943D01*
X58316779Y16069943D02*
X58269160Y16117562D01*
X58269160Y16117562D02*
X58173922Y16165181D01*
X58173922Y16165181D02*
X57983446Y16165181D01*
X57983446Y16165181D02*
X57888208Y16117562D01*
X57888208Y16117562D02*
X57840589Y16069943D01*
X57840589Y16069943D02*
X57792970Y15974705D01*
X57792970Y15974705D02*
X57792970Y15736610D01*
X57792970Y15736610D02*
X57840589Y15641372D01*
X57840589Y15641372D02*
X57888208Y15593753D01*
X57888208Y15593753D02*
X57983446Y15546134D01*
X57983446Y15546134D02*
X58173922Y15546134D01*
X58173922Y15546134D02*
X58269160Y15593753D01*
X58269160Y15593753D02*
X58316779Y15641372D01*
X58316779Y15641372D02*
X58364398Y15736610D01*
%TO.C,C1*%
X14534580Y42967018D02*
X14582200Y42919399D01*
X14582200Y42919399D02*
X14629819Y42776542D01*
X14629819Y42776542D02*
X14629819Y42681304D01*
X14629819Y42681304D02*
X14582200Y42538447D01*
X14582200Y42538447D02*
X14486961Y42443209D01*
X14486961Y42443209D02*
X14391723Y42395590D01*
X14391723Y42395590D02*
X14201247Y42347971D01*
X14201247Y42347971D02*
X14058390Y42347971D01*
X14058390Y42347971D02*
X13867914Y42395590D01*
X13867914Y42395590D02*
X13772676Y42443209D01*
X13772676Y42443209D02*
X13677438Y42538447D01*
X13677438Y42538447D02*
X13629819Y42681304D01*
X13629819Y42681304D02*
X13629819Y42776542D01*
X13629819Y42776542D02*
X13677438Y42919399D01*
X13677438Y42919399D02*
X13725057Y42967018D01*
X14629819Y43919399D02*
X14629819Y43347971D01*
X14629819Y43633685D02*
X13629819Y43633685D01*
X13629819Y43633685D02*
X13772676Y43538447D01*
X13772676Y43538447D02*
X13867914Y43443209D01*
X13867914Y43443209D02*
X13915533Y43347971D01*
%TO.C,R29*%
X32954819Y46355827D02*
X32478628Y46022494D01*
X32954819Y45784399D02*
X31954819Y45784399D01*
X31954819Y45784399D02*
X31954819Y46165351D01*
X31954819Y46165351D02*
X32002438Y46260589D01*
X32002438Y46260589D02*
X32050057Y46308208D01*
X32050057Y46308208D02*
X32145295Y46355827D01*
X32145295Y46355827D02*
X32288152Y46355827D01*
X32288152Y46355827D02*
X32383390Y46308208D01*
X32383390Y46308208D02*
X32431009Y46260589D01*
X32431009Y46260589D02*
X32478628Y46165351D01*
X32478628Y46165351D02*
X32478628Y45784399D01*
X32050057Y46736780D02*
X32002438Y46784399D01*
X32002438Y46784399D02*
X31954819Y46879637D01*
X31954819Y46879637D02*
X31954819Y47117732D01*
X31954819Y47117732D02*
X32002438Y47212970D01*
X32002438Y47212970D02*
X32050057Y47260589D01*
X32050057Y47260589D02*
X32145295Y47308208D01*
X32145295Y47308208D02*
X32240533Y47308208D01*
X32240533Y47308208D02*
X32383390Y47260589D01*
X32383390Y47260589D02*
X32954819Y46689161D01*
X32954819Y46689161D02*
X32954819Y47308208D01*
X32954819Y47784399D02*
X32954819Y47974875D01*
X32954819Y47974875D02*
X32907200Y48070113D01*
X32907200Y48070113D02*
X32859580Y48117732D01*
X32859580Y48117732D02*
X32716723Y48212970D01*
X32716723Y48212970D02*
X32526247Y48260589D01*
X32526247Y48260589D02*
X32145295Y48260589D01*
X32145295Y48260589D02*
X32050057Y48212970D01*
X32050057Y48212970D02*
X32002438Y48165351D01*
X32002438Y48165351D02*
X31954819Y48070113D01*
X31954819Y48070113D02*
X31954819Y47879637D01*
X31954819Y47879637D02*
X32002438Y47784399D01*
X32002438Y47784399D02*
X32050057Y47736780D01*
X32050057Y47736780D02*
X32145295Y47689161D01*
X32145295Y47689161D02*
X32383390Y47689161D01*
X32383390Y47689161D02*
X32478628Y47736780D01*
X32478628Y47736780D02*
X32526247Y47784399D01*
X32526247Y47784399D02*
X32573866Y47879637D01*
X32573866Y47879637D02*
X32573866Y48070113D01*
X32573866Y48070113D02*
X32526247Y48165351D01*
X32526247Y48165351D02*
X32478628Y48212970D01*
X32478628Y48212970D02*
X32383390Y48260589D01*
%TO.C,D5*%
X56740589Y12765181D02*
X56740589Y13765181D01*
X56740589Y13765181D02*
X56978684Y13765181D01*
X56978684Y13765181D02*
X57121541Y13717562D01*
X57121541Y13717562D02*
X57216779Y13622324D01*
X57216779Y13622324D02*
X57264398Y13527086D01*
X57264398Y13527086D02*
X57312017Y13336610D01*
X57312017Y13336610D02*
X57312017Y13193753D01*
X57312017Y13193753D02*
X57264398Y13003277D01*
X57264398Y13003277D02*
X57216779Y12908039D01*
X57216779Y12908039D02*
X57121541Y12812800D01*
X57121541Y12812800D02*
X56978684Y12765181D01*
X56978684Y12765181D02*
X56740589Y12765181D01*
X58216779Y13765181D02*
X57740589Y13765181D01*
X57740589Y13765181D02*
X57692970Y13288991D01*
X57692970Y13288991D02*
X57740589Y13336610D01*
X57740589Y13336610D02*
X57835827Y13384229D01*
X57835827Y13384229D02*
X58073922Y13384229D01*
X58073922Y13384229D02*
X58169160Y13336610D01*
X58169160Y13336610D02*
X58216779Y13288991D01*
X58216779Y13288991D02*
X58264398Y13193753D01*
X58264398Y13193753D02*
X58264398Y12955658D01*
X58264398Y12955658D02*
X58216779Y12860420D01*
X58216779Y12860420D02*
X58169160Y12812800D01*
X58169160Y12812800D02*
X58073922Y12765181D01*
X58073922Y12765181D02*
X57835827Y12765181D01*
X57835827Y12765181D02*
X57740589Y12812800D01*
X57740589Y12812800D02*
X57692970Y12860420D01*
%TO.C,C2*%
X6732017Y47555420D02*
X6684398Y47507800D01*
X6684398Y47507800D02*
X6541541Y47460181D01*
X6541541Y47460181D02*
X6446303Y47460181D01*
X6446303Y47460181D02*
X6303446Y47507800D01*
X6303446Y47507800D02*
X6208208Y47603039D01*
X6208208Y47603039D02*
X6160589Y47698277D01*
X6160589Y47698277D02*
X6112970Y47888753D01*
X6112970Y47888753D02*
X6112970Y48031610D01*
X6112970Y48031610D02*
X6160589Y48222086D01*
X6160589Y48222086D02*
X6208208Y48317324D01*
X6208208Y48317324D02*
X6303446Y48412562D01*
X6303446Y48412562D02*
X6446303Y48460181D01*
X6446303Y48460181D02*
X6541541Y48460181D01*
X6541541Y48460181D02*
X6684398Y48412562D01*
X6684398Y48412562D02*
X6732017Y48364943D01*
X7112970Y48364943D02*
X7160589Y48412562D01*
X7160589Y48412562D02*
X7255827Y48460181D01*
X7255827Y48460181D02*
X7493922Y48460181D01*
X7493922Y48460181D02*
X7589160Y48412562D01*
X7589160Y48412562D02*
X7636779Y48364943D01*
X7636779Y48364943D02*
X7684398Y48269705D01*
X7684398Y48269705D02*
X7684398Y48174467D01*
X7684398Y48174467D02*
X7636779Y48031610D01*
X7636779Y48031610D02*
X7065351Y47460181D01*
X7065351Y47460181D02*
X7684398Y47460181D01*
%TO.C,R3*%
X52954819Y39932018D02*
X52478628Y39598685D01*
X52954819Y39360590D02*
X51954819Y39360590D01*
X51954819Y39360590D02*
X51954819Y39741542D01*
X51954819Y39741542D02*
X52002438Y39836780D01*
X52002438Y39836780D02*
X52050057Y39884399D01*
X52050057Y39884399D02*
X52145295Y39932018D01*
X52145295Y39932018D02*
X52288152Y39932018D01*
X52288152Y39932018D02*
X52383390Y39884399D01*
X52383390Y39884399D02*
X52431009Y39836780D01*
X52431009Y39836780D02*
X52478628Y39741542D01*
X52478628Y39741542D02*
X52478628Y39360590D01*
X51954819Y40265352D02*
X51954819Y40884399D01*
X51954819Y40884399D02*
X52335771Y40551066D01*
X52335771Y40551066D02*
X52335771Y40693923D01*
X52335771Y40693923D02*
X52383390Y40789161D01*
X52383390Y40789161D02*
X52431009Y40836780D01*
X52431009Y40836780D02*
X52526247Y40884399D01*
X52526247Y40884399D02*
X52764342Y40884399D01*
X52764342Y40884399D02*
X52859580Y40836780D01*
X52859580Y40836780D02*
X52907200Y40789161D01*
X52907200Y40789161D02*
X52954819Y40693923D01*
X52954819Y40693923D02*
X52954819Y40408209D01*
X52954819Y40408209D02*
X52907200Y40312971D01*
X52907200Y40312971D02*
X52859580Y40265352D01*
%TO.C,J3*%
X75969380Y36907718D02*
X75969380Y36190924D01*
X75969380Y36190924D02*
X75921593Y36047565D01*
X75921593Y36047565D02*
X75826021Y35951992D01*
X75826021Y35951992D02*
X75682662Y35904206D01*
X75682662Y35904206D02*
X75587089Y35904206D01*
X76351670Y36907718D02*
X76972892Y36907718D01*
X76972892Y36907718D02*
X76638388Y36525428D01*
X76638388Y36525428D02*
X76781747Y36525428D01*
X76781747Y36525428D02*
X76877320Y36477642D01*
X76877320Y36477642D02*
X76925106Y36429855D01*
X76925106Y36429855D02*
X76972892Y36334283D01*
X76972892Y36334283D02*
X76972892Y36095351D01*
X76972892Y36095351D02*
X76925106Y35999779D01*
X76925106Y35999779D02*
X76877320Y35951992D01*
X76877320Y35951992D02*
X76781747Y35904206D01*
X76781747Y35904206D02*
X76495029Y35904206D01*
X76495029Y35904206D02*
X76399457Y35951992D01*
X76399457Y35951992D02*
X76351670Y35999779D01*
%TO.C,TP5*%
X8386779Y23445181D02*
X8958207Y23445181D01*
X8672493Y22445181D02*
X8672493Y23445181D01*
X9291541Y22445181D02*
X9291541Y23445181D01*
X9291541Y23445181D02*
X9672493Y23445181D01*
X9672493Y23445181D02*
X9767731Y23397562D01*
X9767731Y23397562D02*
X9815350Y23349943D01*
X9815350Y23349943D02*
X9862969Y23254705D01*
X9862969Y23254705D02*
X9862969Y23111848D01*
X9862969Y23111848D02*
X9815350Y23016610D01*
X9815350Y23016610D02*
X9767731Y22968991D01*
X9767731Y22968991D02*
X9672493Y22921372D01*
X9672493Y22921372D02*
X9291541Y22921372D01*
X10767731Y23445181D02*
X10291541Y23445181D01*
X10291541Y23445181D02*
X10243922Y22968991D01*
X10243922Y22968991D02*
X10291541Y23016610D01*
X10291541Y23016610D02*
X10386779Y23064229D01*
X10386779Y23064229D02*
X10624874Y23064229D01*
X10624874Y23064229D02*
X10720112Y23016610D01*
X10720112Y23016610D02*
X10767731Y22968991D01*
X10767731Y22968991D02*
X10815350Y22873753D01*
X10815350Y22873753D02*
X10815350Y22635658D01*
X10815350Y22635658D02*
X10767731Y22540420D01*
X10767731Y22540420D02*
X10720112Y22492800D01*
X10720112Y22492800D02*
X10624874Y22445181D01*
X10624874Y22445181D02*
X10386779Y22445181D01*
X10386779Y22445181D02*
X10291541Y22492800D01*
X10291541Y22492800D02*
X10243922Y22540420D01*
%TO.C,C17*%
X24860545Y14494482D02*
X24812926Y14446862D01*
X24812926Y14446862D02*
X24670069Y14399243D01*
X24670069Y14399243D02*
X24574831Y14399243D01*
X24574831Y14399243D02*
X24431974Y14446862D01*
X24431974Y14446862D02*
X24336736Y14542101D01*
X24336736Y14542101D02*
X24289117Y14637339D01*
X24289117Y14637339D02*
X24241498Y14827815D01*
X24241498Y14827815D02*
X24241498Y14970672D01*
X24241498Y14970672D02*
X24289117Y15161148D01*
X24289117Y15161148D02*
X24336736Y15256386D01*
X24336736Y15256386D02*
X24431974Y15351624D01*
X24431974Y15351624D02*
X24574831Y15399243D01*
X24574831Y15399243D02*
X24670069Y15399243D01*
X24670069Y15399243D02*
X24812926Y15351624D01*
X24812926Y15351624D02*
X24860545Y15304005D01*
X25812926Y14399243D02*
X25241498Y14399243D01*
X25527212Y14399243D02*
X25527212Y15399243D01*
X25527212Y15399243D02*
X25431974Y15256386D01*
X25431974Y15256386D02*
X25336736Y15161148D01*
X25336736Y15161148D02*
X25241498Y15113529D01*
X26146260Y15399243D02*
X26812926Y15399243D01*
X26812926Y15399243D02*
X26384355Y14399243D01*
%TO.C,R20*%
X58055826Y40525181D02*
X57722493Y41001372D01*
X57484398Y40525181D02*
X57484398Y41525181D01*
X57484398Y41525181D02*
X57865350Y41525181D01*
X57865350Y41525181D02*
X57960588Y41477562D01*
X57960588Y41477562D02*
X58008207Y41429943D01*
X58008207Y41429943D02*
X58055826Y41334705D01*
X58055826Y41334705D02*
X58055826Y41191848D01*
X58055826Y41191848D02*
X58008207Y41096610D01*
X58008207Y41096610D02*
X57960588Y41048991D01*
X57960588Y41048991D02*
X57865350Y41001372D01*
X57865350Y41001372D02*
X57484398Y41001372D01*
X58436779Y41429943D02*
X58484398Y41477562D01*
X58484398Y41477562D02*
X58579636Y41525181D01*
X58579636Y41525181D02*
X58817731Y41525181D01*
X58817731Y41525181D02*
X58912969Y41477562D01*
X58912969Y41477562D02*
X58960588Y41429943D01*
X58960588Y41429943D02*
X59008207Y41334705D01*
X59008207Y41334705D02*
X59008207Y41239467D01*
X59008207Y41239467D02*
X58960588Y41096610D01*
X58960588Y41096610D02*
X58389160Y40525181D01*
X58389160Y40525181D02*
X59008207Y40525181D01*
X59627255Y41525181D02*
X59722493Y41525181D01*
X59722493Y41525181D02*
X59817731Y41477562D01*
X59817731Y41477562D02*
X59865350Y41429943D01*
X59865350Y41429943D02*
X59912969Y41334705D01*
X59912969Y41334705D02*
X59960588Y41144229D01*
X59960588Y41144229D02*
X59960588Y40906134D01*
X59960588Y40906134D02*
X59912969Y40715658D01*
X59912969Y40715658D02*
X59865350Y40620420D01*
X59865350Y40620420D02*
X59817731Y40572800D01*
X59817731Y40572800D02*
X59722493Y40525181D01*
X59722493Y40525181D02*
X59627255Y40525181D01*
X59627255Y40525181D02*
X59532017Y40572800D01*
X59532017Y40572800D02*
X59484398Y40620420D01*
X59484398Y40620420D02*
X59436779Y40715658D01*
X59436779Y40715658D02*
X59389160Y40906134D01*
X59389160Y40906134D02*
X59389160Y41144229D01*
X59389160Y41144229D02*
X59436779Y41334705D01*
X59436779Y41334705D02*
X59484398Y41429943D01*
X59484398Y41429943D02*
X59532017Y41477562D01*
X59532017Y41477562D02*
X59627255Y41525181D01*
%TO.C,C20*%
X9774580Y6803446D02*
X9822200Y6755827D01*
X9822200Y6755827D02*
X9869819Y6612970D01*
X9869819Y6612970D02*
X9869819Y6517732D01*
X9869819Y6517732D02*
X9822200Y6374875D01*
X9822200Y6374875D02*
X9726961Y6279637D01*
X9726961Y6279637D02*
X9631723Y6232018D01*
X9631723Y6232018D02*
X9441247Y6184399D01*
X9441247Y6184399D02*
X9298390Y6184399D01*
X9298390Y6184399D02*
X9107914Y6232018D01*
X9107914Y6232018D02*
X9012676Y6279637D01*
X9012676Y6279637D02*
X8917438Y6374875D01*
X8917438Y6374875D02*
X8869819Y6517732D01*
X8869819Y6517732D02*
X8869819Y6612970D01*
X8869819Y6612970D02*
X8917438Y6755827D01*
X8917438Y6755827D02*
X8965057Y6803446D01*
X8965057Y7184399D02*
X8917438Y7232018D01*
X8917438Y7232018D02*
X8869819Y7327256D01*
X8869819Y7327256D02*
X8869819Y7565351D01*
X8869819Y7565351D02*
X8917438Y7660589D01*
X8917438Y7660589D02*
X8965057Y7708208D01*
X8965057Y7708208D02*
X9060295Y7755827D01*
X9060295Y7755827D02*
X9155533Y7755827D01*
X9155533Y7755827D02*
X9298390Y7708208D01*
X9298390Y7708208D02*
X9869819Y7136780D01*
X9869819Y7136780D02*
X9869819Y7755827D01*
X8869819Y8374875D02*
X8869819Y8470113D01*
X8869819Y8470113D02*
X8917438Y8565351D01*
X8917438Y8565351D02*
X8965057Y8612970D01*
X8965057Y8612970D02*
X9060295Y8660589D01*
X9060295Y8660589D02*
X9250771Y8708208D01*
X9250771Y8708208D02*
X9488866Y8708208D01*
X9488866Y8708208D02*
X9679342Y8660589D01*
X9679342Y8660589D02*
X9774580Y8612970D01*
X9774580Y8612970D02*
X9822200Y8565351D01*
X9822200Y8565351D02*
X9869819Y8470113D01*
X9869819Y8470113D02*
X9869819Y8374875D01*
X9869819Y8374875D02*
X9822200Y8279637D01*
X9822200Y8279637D02*
X9774580Y8232018D01*
X9774580Y8232018D02*
X9679342Y8184399D01*
X9679342Y8184399D02*
X9488866Y8136780D01*
X9488866Y8136780D02*
X9250771Y8136780D01*
X9250771Y8136780D02*
X9060295Y8184399D01*
X9060295Y8184399D02*
X8965057Y8232018D01*
X8965057Y8232018D02*
X8917438Y8279637D01*
X8917438Y8279637D02*
X8869819Y8374875D01*
%TO.C,R25*%
X54214819Y46155827D02*
X53738628Y45822494D01*
X54214819Y45584399D02*
X53214819Y45584399D01*
X53214819Y45584399D02*
X53214819Y45965351D01*
X53214819Y45965351D02*
X53262438Y46060589D01*
X53262438Y46060589D02*
X53310057Y46108208D01*
X53310057Y46108208D02*
X53405295Y46155827D01*
X53405295Y46155827D02*
X53548152Y46155827D01*
X53548152Y46155827D02*
X53643390Y46108208D01*
X53643390Y46108208D02*
X53691009Y46060589D01*
X53691009Y46060589D02*
X53738628Y45965351D01*
X53738628Y45965351D02*
X53738628Y45584399D01*
X53310057Y46536780D02*
X53262438Y46584399D01*
X53262438Y46584399D02*
X53214819Y46679637D01*
X53214819Y46679637D02*
X53214819Y46917732D01*
X53214819Y46917732D02*
X53262438Y47012970D01*
X53262438Y47012970D02*
X53310057Y47060589D01*
X53310057Y47060589D02*
X53405295Y47108208D01*
X53405295Y47108208D02*
X53500533Y47108208D01*
X53500533Y47108208D02*
X53643390Y47060589D01*
X53643390Y47060589D02*
X54214819Y46489161D01*
X54214819Y46489161D02*
X54214819Y47108208D01*
X53214819Y48012970D02*
X53214819Y47536780D01*
X53214819Y47536780D02*
X53691009Y47489161D01*
X53691009Y47489161D02*
X53643390Y47536780D01*
X53643390Y47536780D02*
X53595771Y47632018D01*
X53595771Y47632018D02*
X53595771Y47870113D01*
X53595771Y47870113D02*
X53643390Y47965351D01*
X53643390Y47965351D02*
X53691009Y48012970D01*
X53691009Y48012970D02*
X53786247Y48060589D01*
X53786247Y48060589D02*
X54024342Y48060589D01*
X54024342Y48060589D02*
X54119580Y48012970D01*
X54119580Y48012970D02*
X54167200Y47965351D01*
X54167200Y47965351D02*
X54214819Y47870113D01*
X54214819Y47870113D02*
X54214819Y47632018D01*
X54214819Y47632018D02*
X54167200Y47536780D01*
X54167200Y47536780D02*
X54119580Y47489161D01*
%TO.C,R36*%
X73085826Y29905181D02*
X72752493Y30381372D01*
X72514398Y29905181D02*
X72514398Y30905181D01*
X72514398Y30905181D02*
X72895350Y30905181D01*
X72895350Y30905181D02*
X72990588Y30857562D01*
X72990588Y30857562D02*
X73038207Y30809943D01*
X73038207Y30809943D02*
X73085826Y30714705D01*
X73085826Y30714705D02*
X73085826Y30571848D01*
X73085826Y30571848D02*
X73038207Y30476610D01*
X73038207Y30476610D02*
X72990588Y30428991D01*
X72990588Y30428991D02*
X72895350Y30381372D01*
X72895350Y30381372D02*
X72514398Y30381372D01*
X73419160Y30905181D02*
X74038207Y30905181D01*
X74038207Y30905181D02*
X73704874Y30524229D01*
X73704874Y30524229D02*
X73847731Y30524229D01*
X73847731Y30524229D02*
X73942969Y30476610D01*
X73942969Y30476610D02*
X73990588Y30428991D01*
X73990588Y30428991D02*
X74038207Y30333753D01*
X74038207Y30333753D02*
X74038207Y30095658D01*
X74038207Y30095658D02*
X73990588Y30000420D01*
X73990588Y30000420D02*
X73942969Y29952800D01*
X73942969Y29952800D02*
X73847731Y29905181D01*
X73847731Y29905181D02*
X73562017Y29905181D01*
X73562017Y29905181D02*
X73466779Y29952800D01*
X73466779Y29952800D02*
X73419160Y30000420D01*
X74895350Y30905181D02*
X74704874Y30905181D01*
X74704874Y30905181D02*
X74609636Y30857562D01*
X74609636Y30857562D02*
X74562017Y30809943D01*
X74562017Y30809943D02*
X74466779Y30667086D01*
X74466779Y30667086D02*
X74419160Y30476610D01*
X74419160Y30476610D02*
X74419160Y30095658D01*
X74419160Y30095658D02*
X74466779Y30000420D01*
X74466779Y30000420D02*
X74514398Y29952800D01*
X74514398Y29952800D02*
X74609636Y29905181D01*
X74609636Y29905181D02*
X74800112Y29905181D01*
X74800112Y29905181D02*
X74895350Y29952800D01*
X74895350Y29952800D02*
X74942969Y30000420D01*
X74942969Y30000420D02*
X74990588Y30095658D01*
X74990588Y30095658D02*
X74990588Y30333753D01*
X74990588Y30333753D02*
X74942969Y30428991D01*
X74942969Y30428991D02*
X74895350Y30476610D01*
X74895350Y30476610D02*
X74800112Y30524229D01*
X74800112Y30524229D02*
X74609636Y30524229D01*
X74609636Y30524229D02*
X74514398Y30476610D01*
X74514398Y30476610D02*
X74466779Y30428991D01*
X74466779Y30428991D02*
X74419160Y30333753D01*
%TO.C,R35*%
X69315826Y35565181D02*
X68982493Y36041372D01*
X68744398Y35565181D02*
X68744398Y36565181D01*
X68744398Y36565181D02*
X69125350Y36565181D01*
X69125350Y36565181D02*
X69220588Y36517562D01*
X69220588Y36517562D02*
X69268207Y36469943D01*
X69268207Y36469943D02*
X69315826Y36374705D01*
X69315826Y36374705D02*
X69315826Y36231848D01*
X69315826Y36231848D02*
X69268207Y36136610D01*
X69268207Y36136610D02*
X69220588Y36088991D01*
X69220588Y36088991D02*
X69125350Y36041372D01*
X69125350Y36041372D02*
X68744398Y36041372D01*
X69649160Y36565181D02*
X70268207Y36565181D01*
X70268207Y36565181D02*
X69934874Y36184229D01*
X69934874Y36184229D02*
X70077731Y36184229D01*
X70077731Y36184229D02*
X70172969Y36136610D01*
X70172969Y36136610D02*
X70220588Y36088991D01*
X70220588Y36088991D02*
X70268207Y35993753D01*
X70268207Y35993753D02*
X70268207Y35755658D01*
X70268207Y35755658D02*
X70220588Y35660420D01*
X70220588Y35660420D02*
X70172969Y35612800D01*
X70172969Y35612800D02*
X70077731Y35565181D01*
X70077731Y35565181D02*
X69792017Y35565181D01*
X69792017Y35565181D02*
X69696779Y35612800D01*
X69696779Y35612800D02*
X69649160Y35660420D01*
X71172969Y36565181D02*
X70696779Y36565181D01*
X70696779Y36565181D02*
X70649160Y36088991D01*
X70649160Y36088991D02*
X70696779Y36136610D01*
X70696779Y36136610D02*
X70792017Y36184229D01*
X70792017Y36184229D02*
X71030112Y36184229D01*
X71030112Y36184229D02*
X71125350Y36136610D01*
X71125350Y36136610D02*
X71172969Y36088991D01*
X71172969Y36088991D02*
X71220588Y35993753D01*
X71220588Y35993753D02*
X71220588Y35755658D01*
X71220588Y35755658D02*
X71172969Y35660420D01*
X71172969Y35660420D02*
X71125350Y35612800D01*
X71125350Y35612800D02*
X71030112Y35565181D01*
X71030112Y35565181D02*
X70792017Y35565181D01*
X70792017Y35565181D02*
X70696779Y35612800D01*
X70696779Y35612800D02*
X70649160Y35660420D01*
%TO.C,C18*%
X24810545Y18094482D02*
X24762926Y18046862D01*
X24762926Y18046862D02*
X24620069Y17999243D01*
X24620069Y17999243D02*
X24524831Y17999243D01*
X24524831Y17999243D02*
X24381974Y18046862D01*
X24381974Y18046862D02*
X24286736Y18142101D01*
X24286736Y18142101D02*
X24239117Y18237339D01*
X24239117Y18237339D02*
X24191498Y18427815D01*
X24191498Y18427815D02*
X24191498Y18570672D01*
X24191498Y18570672D02*
X24239117Y18761148D01*
X24239117Y18761148D02*
X24286736Y18856386D01*
X24286736Y18856386D02*
X24381974Y18951624D01*
X24381974Y18951624D02*
X24524831Y18999243D01*
X24524831Y18999243D02*
X24620069Y18999243D01*
X24620069Y18999243D02*
X24762926Y18951624D01*
X24762926Y18951624D02*
X24810545Y18904005D01*
X25762926Y17999243D02*
X25191498Y17999243D01*
X25477212Y17999243D02*
X25477212Y18999243D01*
X25477212Y18999243D02*
X25381974Y18856386D01*
X25381974Y18856386D02*
X25286736Y18761148D01*
X25286736Y18761148D02*
X25191498Y18713529D01*
X26334355Y18570672D02*
X26239117Y18618291D01*
X26239117Y18618291D02*
X26191498Y18665910D01*
X26191498Y18665910D02*
X26143879Y18761148D01*
X26143879Y18761148D02*
X26143879Y18808767D01*
X26143879Y18808767D02*
X26191498Y18904005D01*
X26191498Y18904005D02*
X26239117Y18951624D01*
X26239117Y18951624D02*
X26334355Y18999243D01*
X26334355Y18999243D02*
X26524831Y18999243D01*
X26524831Y18999243D02*
X26620069Y18951624D01*
X26620069Y18951624D02*
X26667688Y18904005D01*
X26667688Y18904005D02*
X26715307Y18808767D01*
X26715307Y18808767D02*
X26715307Y18761148D01*
X26715307Y18761148D02*
X26667688Y18665910D01*
X26667688Y18665910D02*
X26620069Y18618291D01*
X26620069Y18618291D02*
X26524831Y18570672D01*
X26524831Y18570672D02*
X26334355Y18570672D01*
X26334355Y18570672D02*
X26239117Y18523053D01*
X26239117Y18523053D02*
X26191498Y18475434D01*
X26191498Y18475434D02*
X26143879Y18380196D01*
X26143879Y18380196D02*
X26143879Y18189720D01*
X26143879Y18189720D02*
X26191498Y18094482D01*
X26191498Y18094482D02*
X26239117Y18046862D01*
X26239117Y18046862D02*
X26334355Y17999243D01*
X26334355Y17999243D02*
X26524831Y17999243D01*
X26524831Y17999243D02*
X26620069Y18046862D01*
X26620069Y18046862D02*
X26667688Y18094482D01*
X26667688Y18094482D02*
X26715307Y18189720D01*
X26715307Y18189720D02*
X26715307Y18380196D01*
X26715307Y18380196D02*
X26667688Y18475434D01*
X26667688Y18475434D02*
X26620069Y18523053D01*
X26620069Y18523053D02*
X26524831Y18570672D01*
%TO.C,U9*%
X48466779Y52625181D02*
X48466779Y51815658D01*
X48466779Y51815658D02*
X48514398Y51720420D01*
X48514398Y51720420D02*
X48562017Y51672800D01*
X48562017Y51672800D02*
X48657255Y51625181D01*
X48657255Y51625181D02*
X48847731Y51625181D01*
X48847731Y51625181D02*
X48942969Y51672800D01*
X48942969Y51672800D02*
X48990588Y51720420D01*
X48990588Y51720420D02*
X49038207Y51815658D01*
X49038207Y51815658D02*
X49038207Y52625181D01*
X49562017Y51625181D02*
X49752493Y51625181D01*
X49752493Y51625181D02*
X49847731Y51672800D01*
X49847731Y51672800D02*
X49895350Y51720420D01*
X49895350Y51720420D02*
X49990588Y51863277D01*
X49990588Y51863277D02*
X50038207Y52053753D01*
X50038207Y52053753D02*
X50038207Y52434705D01*
X50038207Y52434705D02*
X49990588Y52529943D01*
X49990588Y52529943D02*
X49942969Y52577562D01*
X49942969Y52577562D02*
X49847731Y52625181D01*
X49847731Y52625181D02*
X49657255Y52625181D01*
X49657255Y52625181D02*
X49562017Y52577562D01*
X49562017Y52577562D02*
X49514398Y52529943D01*
X49514398Y52529943D02*
X49466779Y52434705D01*
X49466779Y52434705D02*
X49466779Y52196610D01*
X49466779Y52196610D02*
X49514398Y52101372D01*
X49514398Y52101372D02*
X49562017Y52053753D01*
X49562017Y52053753D02*
X49657255Y52006134D01*
X49657255Y52006134D02*
X49847731Y52006134D01*
X49847731Y52006134D02*
X49942969Y52053753D01*
X49942969Y52053753D02*
X49990588Y52101372D01*
X49990588Y52101372D02*
X50038207Y52196610D01*
%TO.C,R16*%
X65325826Y22855181D02*
X64992493Y23331372D01*
X64754398Y22855181D02*
X64754398Y23855181D01*
X64754398Y23855181D02*
X65135350Y23855181D01*
X65135350Y23855181D02*
X65230588Y23807562D01*
X65230588Y23807562D02*
X65278207Y23759943D01*
X65278207Y23759943D02*
X65325826Y23664705D01*
X65325826Y23664705D02*
X65325826Y23521848D01*
X65325826Y23521848D02*
X65278207Y23426610D01*
X65278207Y23426610D02*
X65230588Y23378991D01*
X65230588Y23378991D02*
X65135350Y23331372D01*
X65135350Y23331372D02*
X64754398Y23331372D01*
X66278207Y22855181D02*
X65706779Y22855181D01*
X65992493Y22855181D02*
X65992493Y23855181D01*
X65992493Y23855181D02*
X65897255Y23712324D01*
X65897255Y23712324D02*
X65802017Y23617086D01*
X65802017Y23617086D02*
X65706779Y23569467D01*
X67135350Y23855181D02*
X66944874Y23855181D01*
X66944874Y23855181D02*
X66849636Y23807562D01*
X66849636Y23807562D02*
X66802017Y23759943D01*
X66802017Y23759943D02*
X66706779Y23617086D01*
X66706779Y23617086D02*
X66659160Y23426610D01*
X66659160Y23426610D02*
X66659160Y23045658D01*
X66659160Y23045658D02*
X66706779Y22950420D01*
X66706779Y22950420D02*
X66754398Y22902800D01*
X66754398Y22902800D02*
X66849636Y22855181D01*
X66849636Y22855181D02*
X67040112Y22855181D01*
X67040112Y22855181D02*
X67135350Y22902800D01*
X67135350Y22902800D02*
X67182969Y22950420D01*
X67182969Y22950420D02*
X67230588Y23045658D01*
X67230588Y23045658D02*
X67230588Y23283753D01*
X67230588Y23283753D02*
X67182969Y23378991D01*
X67182969Y23378991D02*
X67135350Y23426610D01*
X67135350Y23426610D02*
X67040112Y23474229D01*
X67040112Y23474229D02*
X66849636Y23474229D01*
X66849636Y23474229D02*
X66754398Y23426610D01*
X66754398Y23426610D02*
X66706779Y23378991D01*
X66706779Y23378991D02*
X66659160Y23283753D01*
%TO.C,U3*%
X1336779Y42945181D02*
X1336779Y42135658D01*
X1336779Y42135658D02*
X1384398Y42040420D01*
X1384398Y42040420D02*
X1432017Y41992800D01*
X1432017Y41992800D02*
X1527255Y41945181D01*
X1527255Y41945181D02*
X1717731Y41945181D01*
X1717731Y41945181D02*
X1812969Y41992800D01*
X1812969Y41992800D02*
X1860588Y42040420D01*
X1860588Y42040420D02*
X1908207Y42135658D01*
X1908207Y42135658D02*
X1908207Y42945181D01*
X2289160Y42945181D02*
X2908207Y42945181D01*
X2908207Y42945181D02*
X2574874Y42564229D01*
X2574874Y42564229D02*
X2717731Y42564229D01*
X2717731Y42564229D02*
X2812969Y42516610D01*
X2812969Y42516610D02*
X2860588Y42468991D01*
X2860588Y42468991D02*
X2908207Y42373753D01*
X2908207Y42373753D02*
X2908207Y42135658D01*
X2908207Y42135658D02*
X2860588Y42040420D01*
X2860588Y42040420D02*
X2812969Y41992800D01*
X2812969Y41992800D02*
X2717731Y41945181D01*
X2717731Y41945181D02*
X2432017Y41945181D01*
X2432017Y41945181D02*
X2336779Y41992800D01*
X2336779Y41992800D02*
X2289160Y42040420D01*
%TO.C,R10*%
X40355826Y35345181D02*
X40022493Y35821372D01*
X39784398Y35345181D02*
X39784398Y36345181D01*
X39784398Y36345181D02*
X40165350Y36345181D01*
X40165350Y36345181D02*
X40260588Y36297562D01*
X40260588Y36297562D02*
X40308207Y36249943D01*
X40308207Y36249943D02*
X40355826Y36154705D01*
X40355826Y36154705D02*
X40355826Y36011848D01*
X40355826Y36011848D02*
X40308207Y35916610D01*
X40308207Y35916610D02*
X40260588Y35868991D01*
X40260588Y35868991D02*
X40165350Y35821372D01*
X40165350Y35821372D02*
X39784398Y35821372D01*
X41308207Y35345181D02*
X40736779Y35345181D01*
X41022493Y35345181D02*
X41022493Y36345181D01*
X41022493Y36345181D02*
X40927255Y36202324D01*
X40927255Y36202324D02*
X40832017Y36107086D01*
X40832017Y36107086D02*
X40736779Y36059467D01*
X41927255Y36345181D02*
X42022493Y36345181D01*
X42022493Y36345181D02*
X42117731Y36297562D01*
X42117731Y36297562D02*
X42165350Y36249943D01*
X42165350Y36249943D02*
X42212969Y36154705D01*
X42212969Y36154705D02*
X42260588Y35964229D01*
X42260588Y35964229D02*
X42260588Y35726134D01*
X42260588Y35726134D02*
X42212969Y35535658D01*
X42212969Y35535658D02*
X42165350Y35440420D01*
X42165350Y35440420D02*
X42117731Y35392800D01*
X42117731Y35392800D02*
X42022493Y35345181D01*
X42022493Y35345181D02*
X41927255Y35345181D01*
X41927255Y35345181D02*
X41832017Y35392800D01*
X41832017Y35392800D02*
X41784398Y35440420D01*
X41784398Y35440420D02*
X41736779Y35535658D01*
X41736779Y35535658D02*
X41689160Y35726134D01*
X41689160Y35726134D02*
X41689160Y35964229D01*
X41689160Y35964229D02*
X41736779Y36154705D01*
X41736779Y36154705D02*
X41784398Y36249943D01*
X41784398Y36249943D02*
X41832017Y36297562D01*
X41832017Y36297562D02*
X41927255Y36345181D01*
%TO.C,R32*%
X65495826Y16745181D02*
X65162493Y17221372D01*
X64924398Y16745181D02*
X64924398Y17745181D01*
X64924398Y17745181D02*
X65305350Y17745181D01*
X65305350Y17745181D02*
X65400588Y17697562D01*
X65400588Y17697562D02*
X65448207Y17649943D01*
X65448207Y17649943D02*
X65495826Y17554705D01*
X65495826Y17554705D02*
X65495826Y17411848D01*
X65495826Y17411848D02*
X65448207Y17316610D01*
X65448207Y17316610D02*
X65400588Y17268991D01*
X65400588Y17268991D02*
X65305350Y17221372D01*
X65305350Y17221372D02*
X64924398Y17221372D01*
X65829160Y17745181D02*
X66448207Y17745181D01*
X66448207Y17745181D02*
X66114874Y17364229D01*
X66114874Y17364229D02*
X66257731Y17364229D01*
X66257731Y17364229D02*
X66352969Y17316610D01*
X66352969Y17316610D02*
X66400588Y17268991D01*
X66400588Y17268991D02*
X66448207Y17173753D01*
X66448207Y17173753D02*
X66448207Y16935658D01*
X66448207Y16935658D02*
X66400588Y16840420D01*
X66400588Y16840420D02*
X66352969Y16792800D01*
X66352969Y16792800D02*
X66257731Y16745181D01*
X66257731Y16745181D02*
X65972017Y16745181D01*
X65972017Y16745181D02*
X65876779Y16792800D01*
X65876779Y16792800D02*
X65829160Y16840420D01*
X66829160Y17649943D02*
X66876779Y17697562D01*
X66876779Y17697562D02*
X66972017Y17745181D01*
X66972017Y17745181D02*
X67210112Y17745181D01*
X67210112Y17745181D02*
X67305350Y17697562D01*
X67305350Y17697562D02*
X67352969Y17649943D01*
X67352969Y17649943D02*
X67400588Y17554705D01*
X67400588Y17554705D02*
X67400588Y17459467D01*
X67400588Y17459467D02*
X67352969Y17316610D01*
X67352969Y17316610D02*
X66781541Y16745181D01*
X66781541Y16745181D02*
X67400588Y16745181D01*
%TO.C,SW1*%
X20522200Y29241542D02*
X20569819Y29384399D01*
X20569819Y29384399D02*
X20569819Y29622494D01*
X20569819Y29622494D02*
X20522200Y29717732D01*
X20522200Y29717732D02*
X20474580Y29765351D01*
X20474580Y29765351D02*
X20379342Y29812970D01*
X20379342Y29812970D02*
X20284104Y29812970D01*
X20284104Y29812970D02*
X20188866Y29765351D01*
X20188866Y29765351D02*
X20141247Y29717732D01*
X20141247Y29717732D02*
X20093628Y29622494D01*
X20093628Y29622494D02*
X20046009Y29432018D01*
X20046009Y29432018D02*
X19998390Y29336780D01*
X19998390Y29336780D02*
X19950771Y29289161D01*
X19950771Y29289161D02*
X19855533Y29241542D01*
X19855533Y29241542D02*
X19760295Y29241542D01*
X19760295Y29241542D02*
X19665057Y29289161D01*
X19665057Y29289161D02*
X19617438Y29336780D01*
X19617438Y29336780D02*
X19569819Y29432018D01*
X19569819Y29432018D02*
X19569819Y29670113D01*
X19569819Y29670113D02*
X19617438Y29812970D01*
X19569819Y30146304D02*
X20569819Y30384399D01*
X20569819Y30384399D02*
X19855533Y30574875D01*
X19855533Y30574875D02*
X20569819Y30765351D01*
X20569819Y30765351D02*
X19569819Y31003446D01*
X20569819Y31908208D02*
X20569819Y31336780D01*
X20569819Y31622494D02*
X19569819Y31622494D01*
X19569819Y31622494D02*
X19712676Y31527256D01*
X19712676Y31527256D02*
X19807914Y31432018D01*
X19807914Y31432018D02*
X19855533Y31336780D01*
%TO.C,D1*%
X35854819Y35228090D02*
X34854819Y35228090D01*
X34854819Y35228090D02*
X34854819Y35466185D01*
X34854819Y35466185D02*
X34902438Y35609042D01*
X34902438Y35609042D02*
X34997676Y35704280D01*
X34997676Y35704280D02*
X35092914Y35751899D01*
X35092914Y35751899D02*
X35283390Y35799518D01*
X35283390Y35799518D02*
X35426247Y35799518D01*
X35426247Y35799518D02*
X35616723Y35751899D01*
X35616723Y35751899D02*
X35711961Y35704280D01*
X35711961Y35704280D02*
X35807200Y35609042D01*
X35807200Y35609042D02*
X35854819Y35466185D01*
X35854819Y35466185D02*
X35854819Y35228090D01*
X35854819Y36751899D02*
X35854819Y36180471D01*
X35854819Y36466185D02*
X34854819Y36466185D01*
X34854819Y36466185D02*
X34997676Y36370947D01*
X34997676Y36370947D02*
X35092914Y36275709D01*
X35092914Y36275709D02*
X35140533Y36180471D01*
%TO.C,D11*%
X56090112Y24635181D02*
X56090112Y25635181D01*
X56090112Y25635181D02*
X56328207Y25635181D01*
X56328207Y25635181D02*
X56471064Y25587562D01*
X56471064Y25587562D02*
X56566302Y25492324D01*
X56566302Y25492324D02*
X56613921Y25397086D01*
X56613921Y25397086D02*
X56661540Y25206610D01*
X56661540Y25206610D02*
X56661540Y25063753D01*
X56661540Y25063753D02*
X56613921Y24873277D01*
X56613921Y24873277D02*
X56566302Y24778039D01*
X56566302Y24778039D02*
X56471064Y24682800D01*
X56471064Y24682800D02*
X56328207Y24635181D01*
X56328207Y24635181D02*
X56090112Y24635181D01*
X57613921Y24635181D02*
X57042493Y24635181D01*
X57328207Y24635181D02*
X57328207Y25635181D01*
X57328207Y25635181D02*
X57232969Y25492324D01*
X57232969Y25492324D02*
X57137731Y25397086D01*
X57137731Y25397086D02*
X57042493Y25349467D01*
X58566302Y24635181D02*
X57994874Y24635181D01*
X58280588Y24635181D02*
X58280588Y25635181D01*
X58280588Y25635181D02*
X58185350Y25492324D01*
X58185350Y25492324D02*
X58090112Y25397086D01*
X58090112Y25397086D02*
X57994874Y25349467D01*
%TO.C,R44*%
X56855826Y27345181D02*
X56522493Y27821372D01*
X56284398Y27345181D02*
X56284398Y28345181D01*
X56284398Y28345181D02*
X56665350Y28345181D01*
X56665350Y28345181D02*
X56760588Y28297562D01*
X56760588Y28297562D02*
X56808207Y28249943D01*
X56808207Y28249943D02*
X56855826Y28154705D01*
X56855826Y28154705D02*
X56855826Y28011848D01*
X56855826Y28011848D02*
X56808207Y27916610D01*
X56808207Y27916610D02*
X56760588Y27868991D01*
X56760588Y27868991D02*
X56665350Y27821372D01*
X56665350Y27821372D02*
X56284398Y27821372D01*
X57712969Y28011848D02*
X57712969Y27345181D01*
X57474874Y28392800D02*
X57236779Y27678515D01*
X57236779Y27678515D02*
X57855826Y27678515D01*
X58665350Y28011848D02*
X58665350Y27345181D01*
X58427255Y28392800D02*
X58189160Y27678515D01*
X58189160Y27678515D02*
X58808207Y27678515D01*
%TO.C,R5*%
X59832017Y27345181D02*
X59498684Y27821372D01*
X59260589Y27345181D02*
X59260589Y28345181D01*
X59260589Y28345181D02*
X59641541Y28345181D01*
X59641541Y28345181D02*
X59736779Y28297562D01*
X59736779Y28297562D02*
X59784398Y28249943D01*
X59784398Y28249943D02*
X59832017Y28154705D01*
X59832017Y28154705D02*
X59832017Y28011848D01*
X59832017Y28011848D02*
X59784398Y27916610D01*
X59784398Y27916610D02*
X59736779Y27868991D01*
X59736779Y27868991D02*
X59641541Y27821372D01*
X59641541Y27821372D02*
X59260589Y27821372D01*
X60736779Y28345181D02*
X60260589Y28345181D01*
X60260589Y28345181D02*
X60212970Y27868991D01*
X60212970Y27868991D02*
X60260589Y27916610D01*
X60260589Y27916610D02*
X60355827Y27964229D01*
X60355827Y27964229D02*
X60593922Y27964229D01*
X60593922Y27964229D02*
X60689160Y27916610D01*
X60689160Y27916610D02*
X60736779Y27868991D01*
X60736779Y27868991D02*
X60784398Y27773753D01*
X60784398Y27773753D02*
X60784398Y27535658D01*
X60784398Y27535658D02*
X60736779Y27440420D01*
X60736779Y27440420D02*
X60689160Y27392800D01*
X60689160Y27392800D02*
X60593922Y27345181D01*
X60593922Y27345181D02*
X60355827Y27345181D01*
X60355827Y27345181D02*
X60260589Y27392800D01*
X60260589Y27392800D02*
X60212970Y27440420D01*
%TO.C,R19*%
X77254819Y52555827D02*
X76778628Y52222494D01*
X77254819Y51984399D02*
X76254819Y51984399D01*
X76254819Y51984399D02*
X76254819Y52365351D01*
X76254819Y52365351D02*
X76302438Y52460589D01*
X76302438Y52460589D02*
X76350057Y52508208D01*
X76350057Y52508208D02*
X76445295Y52555827D01*
X76445295Y52555827D02*
X76588152Y52555827D01*
X76588152Y52555827D02*
X76683390Y52508208D01*
X76683390Y52508208D02*
X76731009Y52460589D01*
X76731009Y52460589D02*
X76778628Y52365351D01*
X76778628Y52365351D02*
X76778628Y51984399D01*
X77254819Y53508208D02*
X77254819Y52936780D01*
X77254819Y53222494D02*
X76254819Y53222494D01*
X76254819Y53222494D02*
X76397676Y53127256D01*
X76397676Y53127256D02*
X76492914Y53032018D01*
X76492914Y53032018D02*
X76540533Y52936780D01*
X77254819Y53984399D02*
X77254819Y54174875D01*
X77254819Y54174875D02*
X77207200Y54270113D01*
X77207200Y54270113D02*
X77159580Y54317732D01*
X77159580Y54317732D02*
X77016723Y54412970D01*
X77016723Y54412970D02*
X76826247Y54460589D01*
X76826247Y54460589D02*
X76445295Y54460589D01*
X76445295Y54460589D02*
X76350057Y54412970D01*
X76350057Y54412970D02*
X76302438Y54365351D01*
X76302438Y54365351D02*
X76254819Y54270113D01*
X76254819Y54270113D02*
X76254819Y54079637D01*
X76254819Y54079637D02*
X76302438Y53984399D01*
X76302438Y53984399D02*
X76350057Y53936780D01*
X76350057Y53936780D02*
X76445295Y53889161D01*
X76445295Y53889161D02*
X76683390Y53889161D01*
X76683390Y53889161D02*
X76778628Y53936780D01*
X76778628Y53936780D02*
X76826247Y53984399D01*
X76826247Y53984399D02*
X76873866Y54079637D01*
X76873866Y54079637D02*
X76873866Y54270113D01*
X76873866Y54270113D02*
X76826247Y54365351D01*
X76826247Y54365351D02*
X76778628Y54412970D01*
X76778628Y54412970D02*
X76683390Y54460589D01*
%TO.C,C16*%
X7774580Y17908208D02*
X7822200Y17860589D01*
X7822200Y17860589D02*
X7869819Y17717732D01*
X7869819Y17717732D02*
X7869819Y17622494D01*
X7869819Y17622494D02*
X7822200Y17479637D01*
X7822200Y17479637D02*
X7726961Y17384399D01*
X7726961Y17384399D02*
X7631723Y17336780D01*
X7631723Y17336780D02*
X7441247Y17289161D01*
X7441247Y17289161D02*
X7298390Y17289161D01*
X7298390Y17289161D02*
X7107914Y17336780D01*
X7107914Y17336780D02*
X7012676Y17384399D01*
X7012676Y17384399D02*
X6917438Y17479637D01*
X6917438Y17479637D02*
X6869819Y17622494D01*
X6869819Y17622494D02*
X6869819Y17717732D01*
X6869819Y17717732D02*
X6917438Y17860589D01*
X6917438Y17860589D02*
X6965057Y17908208D01*
X7869819Y18860589D02*
X7869819Y18289161D01*
X7869819Y18574875D02*
X6869819Y18574875D01*
X6869819Y18574875D02*
X7012676Y18479637D01*
X7012676Y18479637D02*
X7107914Y18384399D01*
X7107914Y18384399D02*
X7155533Y18289161D01*
X6869819Y19717732D02*
X6869819Y19527256D01*
X6869819Y19527256D02*
X6917438Y19432018D01*
X6917438Y19432018D02*
X6965057Y19384399D01*
X6965057Y19384399D02*
X7107914Y19289161D01*
X7107914Y19289161D02*
X7298390Y19241542D01*
X7298390Y19241542D02*
X7679342Y19241542D01*
X7679342Y19241542D02*
X7774580Y19289161D01*
X7774580Y19289161D02*
X7822200Y19336780D01*
X7822200Y19336780D02*
X7869819Y19432018D01*
X7869819Y19432018D02*
X7869819Y19622494D01*
X7869819Y19622494D02*
X7822200Y19717732D01*
X7822200Y19717732D02*
X7774580Y19765351D01*
X7774580Y19765351D02*
X7679342Y19812970D01*
X7679342Y19812970D02*
X7441247Y19812970D01*
X7441247Y19812970D02*
X7346009Y19765351D01*
X7346009Y19765351D02*
X7298390Y19717732D01*
X7298390Y19717732D02*
X7250771Y19622494D01*
X7250771Y19622494D02*
X7250771Y19432018D01*
X7250771Y19432018D02*
X7298390Y19336780D01*
X7298390Y19336780D02*
X7346009Y19289161D01*
X7346009Y19289161D02*
X7441247Y19241542D01*
D11*
%TO.C,J2*%
X74690000Y17600000D02*
X74342917Y17600000D01*
X81160000Y18240000D02*
X74690000Y18240000D01*
X81160000Y2180000D02*
X81160000Y26300000D01*
X74690000Y13600000D02*
X74342917Y13600000D01*
X74690000Y25600000D02*
X74342917Y25600000D01*
X74690000Y15600000D02*
X74342917Y15600000D01*
X74690000Y8880000D02*
X74342917Y8880000D01*
X72545000Y2180000D02*
X72545000Y3240000D01*
X81160000Y2300000D02*
X74690000Y2300000D01*
X74690000Y5600000D02*
X74342917Y5600000D01*
X81160000Y2414118D02*
X74690000Y2414118D01*
X81160000Y2528236D02*
X74690000Y2528236D01*
X81160000Y22240000D02*
X74690000Y22240000D01*
X81160000Y4125888D02*
X74690000Y4125888D01*
X74690000Y23600000D02*
X74342917Y23600000D01*
X81160000Y3441180D02*
X74690000Y3441180D01*
X74690000Y14880000D02*
X74342917Y14880000D01*
X74690000Y7600000D02*
X74342917Y7600000D01*
X74690000Y6880000D02*
X74342917Y6880000D01*
X81160000Y20240000D02*
X74690000Y20240000D01*
X81160000Y3212944D02*
X74690000Y3212944D01*
X74690000Y2880000D02*
X74415000Y2880000D01*
X74690000Y9600000D02*
X74342917Y9600000D01*
X81160000Y2180000D02*
X74690000Y2180000D01*
X81160000Y3555298D02*
X74690000Y3555298D01*
X74690000Y4880000D02*
X74342917Y4880000D01*
X81160000Y14240000D02*
X74690000Y14240000D01*
X81160000Y12240000D02*
X74690000Y12240000D01*
X74690000Y3600000D02*
X74415000Y3600000D01*
X73480000Y2180000D02*
X72545000Y2180000D01*
X81160000Y24240000D02*
X74690000Y24240000D01*
X81160000Y2984708D02*
X74690000Y2984708D01*
X81160000Y4240000D02*
X74690000Y4240000D01*
X81160000Y6240000D02*
X74690000Y6240000D01*
X81160000Y2642354D02*
X74690000Y2642354D01*
X81160000Y2870590D02*
X74690000Y2870590D01*
X81160000Y3327062D02*
X74690000Y3327062D01*
X81160000Y3669416D02*
X74690000Y3669416D01*
X74690000Y21600000D02*
X74342917Y21600000D01*
X74690000Y24880000D02*
X74342917Y24880000D01*
X81160000Y16240000D02*
X74690000Y16240000D01*
X74690000Y20880000D02*
X74342917Y20880000D01*
X74690000Y18880000D02*
X74342917Y18880000D01*
X81160000Y10240000D02*
X74690000Y10240000D01*
X81160000Y26300000D02*
X74690000Y26300000D01*
X74690000Y19600000D02*
X74342917Y19600000D01*
X74690000Y16880000D02*
X74342917Y16880000D01*
X74690000Y11600000D02*
X74342917Y11600000D01*
X81160000Y2756472D02*
X74690000Y2756472D01*
X81160000Y8240000D02*
X74690000Y8240000D01*
X74690000Y2180000D02*
X74690000Y26300000D01*
X74690000Y22880000D02*
X74342917Y22880000D01*
X74690000Y10880000D02*
X74342917Y10880000D01*
X74690000Y12880000D02*
X74342917Y12880000D01*
X81160000Y3783534D02*
X74690000Y3783534D01*
X81160000Y4011770D02*
X74690000Y4011770D01*
X81160000Y3098826D02*
X74690000Y3098826D01*
X81160000Y3897652D02*
X74690000Y3897652D01*
%TO.C,R11*%
X24831902Y7640162D02*
X24377774Y7640162D01*
X24831902Y9110162D02*
X24377774Y9110162D01*
%TO.C,C28*%
X37595000Y46648748D02*
X37595000Y47171252D01*
X39065000Y46648748D02*
X39065000Y47171252D01*
%TO.C,R43*%
X61105000Y30282936D02*
X61105000Y30737064D01*
X62575000Y30282936D02*
X62575000Y30737064D01*
%TO.C,R13*%
X13995000Y26402936D02*
X13995000Y26857064D01*
X15465000Y26402936D02*
X15465000Y26857064D01*
%TO.C,U2*%
X60630000Y42220000D02*
X64080000Y42220000D01*
X60630000Y42220000D02*
X58680000Y42220000D01*
X60630000Y47340000D02*
X62580000Y47340000D01*
X60630000Y47340000D02*
X58680000Y47340000D01*
%TO.C,R41*%
X65762936Y53195000D02*
X66217064Y53195000D01*
X65762936Y51725000D02*
X66217064Y51725000D01*
%TO.C,Q2*%
X65940000Y51250000D02*
X64265000Y51250000D01*
X65940000Y51250000D02*
X66590000Y51250000D01*
X65940000Y48130000D02*
X65290000Y48130000D01*
X65940000Y48130000D02*
X66590000Y48130000D01*
%TO.C,D8*%
X63990000Y9760000D02*
X63990000Y11980000D01*
X63990000Y11980000D02*
X59580000Y11980000D01*
X59580000Y9760000D02*
X63990000Y9760000D01*
%TO.C,R18*%
X17477774Y26360162D02*
X17931902Y26360162D01*
X17477774Y24890162D02*
X17931902Y24890162D01*
D12*
%TO.C,U7*%
X15704838Y24475162D02*
X19704838Y24475162D01*
X15704838Y20475162D02*
X15704838Y24475162D01*
X19704838Y24475162D02*
X19704838Y20475162D01*
X19704838Y20475162D02*
X15704838Y20475162D01*
X15904838Y24475162D02*
G75*
G03*
X15904838Y24475162I-200000J0D01*
G01*
D13*
%TO.C,D2*%
X18600000Y26900000D02*
X16600000Y26900000D01*
X17850000Y27600000D02*
X17250000Y27200000D01*
X17250000Y27200000D02*
X17250000Y28000000D01*
X17250000Y28000000D02*
X17850000Y27600000D01*
X16600000Y28300000D02*
X18600000Y28300000D01*
G36*
X17883162Y27600000D02*
G01*
X17298400Y27210159D01*
X17298400Y27989841D01*
X17883162Y27600000D01*
G37*
G36*
X18050000Y27100000D02*
G01*
X17850000Y27100000D01*
X17850000Y28100000D01*
X18050000Y28100000D01*
X18050000Y27100000D01*
G37*
D11*
%TO.C,R40*%
X70247064Y48065000D02*
X69792936Y48065000D01*
X70247064Y49535000D02*
X69792936Y49535000D01*
D13*
%TO.C,C9*%
X21604838Y3471162D02*
X21604838Y3979162D01*
D11*
%TO.C,TP7*%
X8400000Y34000000D02*
X10800000Y34000000D01*
X8400000Y31600000D02*
X8400000Y34000000D01*
X10800000Y34000000D02*
X10800000Y31600000D01*
X10800000Y31600000D02*
X8400000Y31600000D01*
%TO.C,Q1*%
X67762500Y30660000D02*
X66087500Y30660000D01*
X67762500Y30660000D02*
X68412500Y30660000D01*
X67762500Y27540000D02*
X67112500Y27540000D01*
X67762500Y27540000D02*
X68412500Y27540000D01*
%TO.C,R22*%
X56105000Y50892936D02*
X56105000Y51347064D01*
X57575000Y50892936D02*
X57575000Y51347064D01*
%TO.C,R2*%
X73857064Y33475000D02*
X73402936Y33475000D01*
X73857064Y34945000D02*
X73402936Y34945000D01*
%TO.C,R23*%
X41605000Y52422936D02*
X41605000Y52877064D01*
X43075000Y52422936D02*
X43075000Y52877064D01*
%TO.C,R42*%
X70267064Y50125000D02*
X69812936Y50125000D01*
X70267064Y51595000D02*
X69812936Y51595000D01*
%TO.C,U1*%
X59125000Y32965000D02*
X62575000Y32965000D01*
X59125000Y32965000D02*
X57175000Y32965000D01*
X59125000Y38085000D02*
X61075000Y38085000D01*
X59125000Y38085000D02*
X57175000Y38085000D01*
%TO.C,R7*%
X54905000Y30302936D02*
X54905000Y30757064D01*
X56375000Y30302936D02*
X56375000Y30757064D01*
%TO.C,C26*%
X33465000Y50538748D02*
X33465000Y51061252D01*
X34935000Y50538748D02*
X34935000Y51061252D01*
%TO.C,U4*%
X50710000Y33770000D02*
X47785000Y33770000D01*
X50710000Y33770000D02*
X52210000Y33770000D01*
X50710000Y30550000D02*
X49210000Y30550000D01*
X50710000Y30550000D02*
X52210000Y30550000D01*
%TO.C,D10*%
X63990000Y19360000D02*
X63990000Y21580000D01*
X63990000Y21580000D02*
X59580000Y21580000D01*
X59580000Y19360000D02*
X63990000Y19360000D01*
%TO.C,R17*%
X69617064Y12515000D02*
X69162936Y12515000D01*
X69617064Y13985000D02*
X69162936Y13985000D01*
%TO.C,R34*%
X69617064Y24515000D02*
X69162936Y24515000D01*
X69617064Y25985000D02*
X69162936Y25985000D01*
%TO.C,R27*%
X31835000Y42587064D02*
X31835000Y42132936D01*
X30365000Y42587064D02*
X30365000Y42132936D01*
%TO.C,D6*%
X63990000Y16960000D02*
X63990000Y19180000D01*
X63990000Y19180000D02*
X59580000Y19180000D01*
X59580000Y16960000D02*
X63990000Y16960000D01*
%TO.C,J1*%
X1785000Y34175000D02*
X1185000Y34175000D01*
X1785000Y34065000D02*
X1785000Y34175000D01*
X4375000Y31300000D02*
X3975000Y31100000D01*
X3975000Y31100000D02*
X4375000Y30900000D01*
X4375000Y30900000D02*
X4375000Y31300000D01*
X1785000Y26135000D02*
X1785000Y26025000D01*
X1785000Y26025000D02*
X1185000Y26025000D01*
%TO.C,R20*%
X74117064Y51592500D02*
X73662936Y51592500D01*
X74117064Y50122500D02*
X73662936Y50122500D01*
D13*
%TO.C,C10*%
X22850838Y5625162D02*
X23358838Y5625162D01*
D11*
%TO.C,R14*%
X69617064Y15985000D02*
X69162936Y15985000D01*
X69617064Y14515000D02*
X69162936Y14515000D01*
%TO.C,R9*%
X49765000Y37022936D02*
X49765000Y37477064D01*
X51235000Y37022936D02*
X51235000Y37477064D01*
%TO.C,R8*%
X42647500Y40927064D02*
X42647500Y40472936D01*
X41177500Y40927064D02*
X41177500Y40472936D01*
%TO.C,C3*%
X5513748Y39370000D02*
X6036252Y39370000D01*
X5513748Y37900000D02*
X6036252Y37900000D01*
%TO.C,R24*%
X58105000Y50892936D02*
X58105000Y51347064D01*
X59575000Y50892936D02*
X59575000Y51347064D01*
%TO.C,R12*%
X20981902Y7465000D02*
X20527774Y7465000D01*
X20981902Y8935000D02*
X20527774Y8935000D01*
D12*
%TO.C,Y1*%
X22204838Y4525162D02*
X19204838Y4525162D01*
X22204838Y7025162D02*
X22204838Y4525162D01*
X19204838Y4525162D02*
X19204838Y7025162D01*
X19204838Y7025162D02*
X22204838Y7025162D01*
D11*
%TO.C,R1*%
X65655000Y37387064D02*
X65655000Y36932936D01*
X64185000Y37387064D02*
X64185000Y36932936D01*
%TO.C,R31*%
X69617064Y10515000D02*
X69162936Y10515000D01*
X69617064Y11985000D02*
X69162936Y11985000D01*
%TO.C,R4*%
X45655000Y35842936D02*
X45655000Y36297064D01*
X47125000Y35842936D02*
X47125000Y36297064D01*
D13*
%TO.C,U6*%
X12250000Y8000000D02*
X12250000Y6400000D01*
X13500000Y8250000D02*
X14300000Y8250000D01*
X15550000Y8000000D02*
X15550000Y6400000D01*
D11*
%TO.C,TP2*%
X7700000Y30900000D02*
X10100000Y30900000D01*
X7700000Y28500000D02*
X7700000Y30900000D01*
X10100000Y30900000D02*
X10100000Y28500000D01*
X10100000Y28500000D02*
X7700000Y28500000D01*
%TO.C,R37*%
X70007064Y31295000D02*
X69552936Y31295000D01*
X70007064Y32765000D02*
X69552936Y32765000D01*
%TO.C,R45*%
X60205000Y50842936D02*
X60205000Y51297064D01*
X61675000Y50842936D02*
X61675000Y51297064D01*
%TO.C,R6*%
X43455000Y35842936D02*
X43455000Y36297064D01*
X44925000Y35842936D02*
X44925000Y36297064D01*
%TO.C,U5*%
X36632500Y39540000D02*
X40082500Y39540000D01*
X36632500Y39540000D02*
X34682500Y39540000D01*
X36632500Y44660000D02*
X38582500Y44660000D01*
X36632500Y44660000D02*
X34682500Y44660000D01*
D14*
%TO.C,C15*%
X13310000Y4418000D02*
X13310000Y3402000D01*
D11*
%TO.C,R39*%
X74107064Y48075000D02*
X73652936Y48075000D01*
X74107064Y49545000D02*
X73652936Y49545000D01*
%TO.C,R21*%
X54005000Y50892936D02*
X54005000Y51347064D01*
X55475000Y50892936D02*
X55475000Y51347064D01*
%TO.C,D4*%
X63990000Y7360000D02*
X63990000Y9580000D01*
X63990000Y9580000D02*
X59580000Y9580000D01*
X59580000Y7360000D02*
X63990000Y7360000D01*
D15*
%TO.C,IC1*%
X16204838Y17975162D02*
X16804838Y17975162D01*
X16204838Y17325162D02*
X16204838Y17975162D01*
X16204838Y11575162D02*
X16204838Y10975162D01*
X16204838Y10975162D02*
X16804838Y10975162D01*
X22604838Y17975162D02*
X23204838Y17975162D01*
X22604838Y10975162D02*
X23204838Y10975162D01*
X23204838Y17975162D02*
X23204838Y17375162D01*
X23204838Y10975162D02*
X23204838Y11575162D01*
X16540247Y17975162D02*
G75*
G03*
X16540247Y17975162I-335409J0D01*
G01*
D11*
%TO.C,R15*%
X69617064Y18515000D02*
X69162936Y18515000D01*
X69617064Y19985000D02*
X69162936Y19985000D01*
%TO.C,R28*%
X28227064Y40625000D02*
X27772936Y40625000D01*
X28227064Y42095000D02*
X27772936Y42095000D01*
%TO.C,TP3*%
X7700000Y27750000D02*
X10100000Y27750000D01*
X7700000Y25350000D02*
X7700000Y27750000D01*
X10100000Y27750000D02*
X10100000Y25350000D01*
X10100000Y25350000D02*
X7700000Y25350000D01*
%TO.C,TP6*%
X6700000Y37100000D02*
X9100000Y37100000D01*
X6700000Y34700000D02*
X6700000Y37100000D01*
X9100000Y37100000D02*
X9100000Y34700000D01*
X9100000Y34700000D02*
X6700000Y34700000D01*
%TO.C,R38*%
X66097064Y33465000D02*
X65642936Y33465000D01*
X66097064Y34935000D02*
X65642936Y34935000D01*
%TO.C,D7*%
X63990000Y21760000D02*
X63990000Y23980000D01*
X63990000Y23980000D02*
X59580000Y23980000D01*
X59580000Y21760000D02*
X63990000Y21760000D01*
%TO.C,R33*%
X69617064Y20515000D02*
X69162936Y20515000D01*
X69617064Y21985000D02*
X69162936Y21985000D01*
%TO.C,R26*%
X52727064Y43075000D02*
X52272936Y43075000D01*
X52727064Y44545000D02*
X52272936Y44545000D01*
%TO.C,R46*%
X43605000Y52422936D02*
X43605000Y52877064D01*
X45075000Y52422936D02*
X45075000Y52877064D01*
%TO.C,R30*%
X36967500Y47127064D02*
X36967500Y46672936D01*
X35497500Y47127064D02*
X35497500Y46672936D01*
%TO.C,D3*%
X23640000Y40450000D02*
X25860000Y40450000D01*
X25860000Y40450000D02*
X25860000Y44860000D01*
X23640000Y44860000D02*
X23640000Y40450000D01*
%TO.C,D9*%
X63990000Y14560000D02*
X63990000Y16780000D01*
X63990000Y16780000D02*
X59580000Y16780000D01*
X59580000Y14560000D02*
X63990000Y14560000D01*
%TO.C,C1*%
X11690000Y42773748D02*
X11690000Y43296252D01*
X13160000Y42773748D02*
X13160000Y43296252D01*
%TO.C,R29*%
X34917500Y47127064D02*
X34917500Y46672936D01*
X33447500Y47127064D02*
X33447500Y46672936D01*
%TO.C,D5*%
X63990000Y12160000D02*
X63990000Y14380000D01*
X63990000Y14380000D02*
X59580000Y14380000D01*
X59580000Y12160000D02*
X63990000Y12160000D01*
%TO.C,C2*%
X5463748Y46970000D02*
X5986252Y46970000D01*
X5463748Y45500000D02*
X5986252Y45500000D01*
%TO.C,R3*%
X53235000Y37477064D02*
X53235000Y37022936D01*
X51765000Y37477064D02*
X51765000Y37022936D01*
D12*
%TO.C,J3*%
X81790000Y39390000D02*
X81790000Y44390000D01*
X81790000Y44390000D02*
X79290000Y44390000D01*
X79290000Y38290000D02*
X79290000Y39390000D01*
X79290000Y39390000D02*
X81790000Y39390000D01*
X79290000Y39390000D02*
X79290000Y44390000D01*
X79290000Y44390000D02*
X79290000Y45490000D01*
X79290000Y45490000D02*
X77990000Y45490000D01*
X77990000Y38290000D02*
X79290000Y38290000D01*
X75690000Y45490000D02*
X69040000Y45490000D01*
X72540000Y38290000D02*
X69090000Y38290000D01*
X67290000Y44690000D02*
X67290000Y39140000D01*
D16*
X78690000Y46140000D02*
G75*
G03*
X78690000Y46140000I-150000J0D01*
G01*
D11*
%TO.C,TP5*%
X5400000Y24400000D02*
X7800000Y24400000D01*
X5400000Y22000000D02*
X5400000Y24400000D01*
X7800000Y24400000D02*
X7800000Y22000000D01*
X7800000Y22000000D02*
X5400000Y22000000D01*
D13*
%TO.C,C17*%
X24904838Y13729162D02*
X24904838Y13221162D01*
D11*
%TO.C,R20*%
X62327064Y40295000D02*
X61872936Y40295000D01*
X62327064Y41765000D02*
X61872936Y41765000D01*
D14*
%TO.C,C20*%
X11488000Y7460000D02*
X10472000Y7460000D01*
D11*
%TO.C,R25*%
X56195000Y45037064D02*
X56195000Y44582936D01*
X54725000Y45037064D02*
X54725000Y44582936D01*
%TO.C,R36*%
X73857064Y31275000D02*
X73402936Y31275000D01*
X73857064Y32745000D02*
X73402936Y32745000D01*
%TO.C,R35*%
X70007064Y33475000D02*
X69552936Y33475000D01*
X70007064Y34945000D02*
X69552936Y34945000D01*
D13*
%TO.C,C18*%
X24854838Y17329162D02*
X24854838Y16821162D01*
D11*
%TO.C,U9*%
X49130000Y51240000D02*
X46205000Y51240000D01*
X49130000Y51240000D02*
X50630000Y51240000D01*
X49130000Y48020000D02*
X47630000Y48020000D01*
X49130000Y48020000D02*
X50630000Y48020000D01*
%TO.C,R16*%
X69617064Y22515000D02*
X69162936Y22515000D01*
X69617064Y23985000D02*
X69162936Y23985000D01*
%TO.C,U3*%
X7000000Y39940000D02*
X10450000Y39940000D01*
X7000000Y39940000D02*
X5050000Y39940000D01*
X7000000Y45060000D02*
X8950000Y45060000D01*
X7000000Y45060000D02*
X5050000Y45060000D01*
%TO.C,R10*%
X41127064Y36882500D02*
X40672936Y36882500D01*
X41127064Y38352500D02*
X40672936Y38352500D01*
%TO.C,R32*%
X69617064Y16515000D02*
X69162936Y16515000D01*
X69617064Y17985000D02*
X69162936Y17985000D01*
D13*
%TO.C,SW1*%
X19325400Y33350000D02*
X19325400Y29150000D01*
X16274600Y29150000D02*
X16274600Y33350000D01*
D11*
%TO.C,D1*%
X38660000Y38527500D02*
X36440000Y38527500D01*
X36440000Y38527500D02*
X36440000Y34117500D01*
X38660000Y34117500D02*
X38660000Y38527500D01*
%TO.C,D11*%
X63990000Y24160000D02*
X63990000Y26380000D01*
X63990000Y26380000D02*
X59580000Y26380000D01*
X59580000Y24160000D02*
X63990000Y24160000D01*
%TO.C,R44*%
X56995000Y30302936D02*
X56995000Y30757064D01*
X58465000Y30302936D02*
X58465000Y30757064D01*
%TO.C,R5*%
X59035000Y30292936D02*
X59035000Y30747064D01*
X60505000Y30292936D02*
X60505000Y30747064D01*
%TO.C,R19*%
X76085000Y49642936D02*
X76085000Y50097064D01*
X77555000Y49642936D02*
X77555000Y50097064D01*
D14*
%TO.C,C16*%
X8700000Y18000000D02*
X9500000Y18000000D01*
%TD*%
M02*
