%TF.GenerationSoftware,KiCad,Pcbnew,7.0.3*%
%TF.CreationDate,2023-06-15T19:22:04+02:00*%
%TF.ProjectId,osc_v2,6f73635f-7632-42e6-9b69-6361645f7063,rev?*%
%TF.SameCoordinates,Original*%
%TF.FileFunction,Drillmap*%
%TF.FilePolarity,Positive*%
%FSLAX45Y45*%
G04 Gerber Fmt 4.5, Leading zero omitted, Abs format (unit mm)*
G04 Created by KiCad (PCBNEW 7.0.3) date 2023-06-15 19:22:04*
%MOMM*%
%LPD*%
G01*
G04 APERTURE LIST*
%ADD10C,0.100000*%
%ADD11C,0.200000*%
%ADD12C,0.040000*%
%ADD13C,0.050000*%
%ADD14C,0.080000*%
G04 APERTURE END LIST*
D10*
X8016500Y-10680000D02*
X8016500Y-10220000D01*
X8015500Y-16681000D02*
X8015500Y-16221000D01*
D11*
X14290500Y-16450000D02*
G75*
G03*
X14290500Y-16450000I-160000J0D01*
G01*
D10*
X13925500Y-16221000D02*
X8425500Y-16221000D01*
X14955500Y-16221000D02*
X14335500Y-16221000D01*
D11*
X14260500Y-10425000D02*
G75*
G03*
X14260500Y-10425000I-130000J0D01*
G01*
D10*
X14954500Y-12441000D02*
X14955500Y-16221000D01*
X13926500Y-10220000D02*
X14336500Y-10220000D01*
X8425500Y-16221000D02*
X8425500Y-16681000D01*
D11*
X8380500Y-16450000D02*
G75*
G03*
X8380500Y-16450000I-160000J0D01*
G01*
D10*
X8015500Y-16221000D02*
X7025500Y-16220000D01*
X13925500Y-16681000D02*
X13925500Y-16221000D01*
X14954500Y-11611000D02*
X14954500Y-10681000D01*
X14335500Y-16681000D02*
X13925500Y-16681000D01*
D11*
X8350500Y-10425000D02*
G75*
G03*
X8350500Y-10425000I-130000J0D01*
G01*
D10*
X8426500Y-10220000D02*
X8426500Y-10680000D01*
X13926500Y-10680000D02*
X13926500Y-10220000D01*
X8425500Y-16681000D02*
X8015500Y-16681000D01*
X8016500Y-10220000D02*
X8426500Y-10220000D01*
X14336500Y-10220000D02*
X14336500Y-10680000D01*
X7025500Y-16220000D02*
X7026500Y-10680000D01*
X14335500Y-16221000D02*
X14335500Y-16681000D01*
X14336500Y-10680000D02*
X14954500Y-10681000D01*
X7026500Y-10680000D02*
X8016500Y-10680000D01*
X8426500Y-10680000D02*
X13926500Y-10680000D01*
D11*
D12*
X7205500Y-12260000D02*
X7245500Y-12300000D01*
X7245500Y-12260000D02*
X7205500Y-12300000D01*
X7255500Y-14480000D02*
X7295500Y-14520000D01*
X7295500Y-14480000D02*
X7255500Y-14520000D01*
X7275500Y-15400000D02*
X7315500Y-15440000D01*
X7315500Y-15400000D02*
X7275500Y-15440000D01*
X7315500Y-13210000D02*
X7355500Y-13250000D01*
X7355500Y-13210000D02*
X7315500Y-13250000D01*
X7325500Y-11000000D02*
X7365500Y-11040000D01*
X7365500Y-11000000D02*
X7325500Y-11040000D01*
X7695500Y-13290000D02*
X7735500Y-13330000D01*
X7735500Y-13290000D02*
X7695500Y-13330000D01*
X7695500Y-13410000D02*
X7735500Y-13450000D01*
X7735500Y-13410000D02*
X7695500Y-13450000D01*
X7885500Y-15540000D02*
X7925500Y-15580000D01*
X7925500Y-15540000D02*
X7885500Y-15580000D01*
X7985500Y-11210000D02*
X8025500Y-11250000D01*
X8025500Y-11210000D02*
X7985500Y-11250000D01*
X8165500Y-14240000D02*
X8205500Y-14280000D01*
X8205500Y-14240000D02*
X8165500Y-14280000D01*
X8195500Y-14630000D02*
X8235500Y-14670000D01*
X8235500Y-14630000D02*
X8195500Y-14670000D01*
X8276390Y-14710000D02*
X8316390Y-14750000D01*
X8316390Y-14710000D02*
X8276390Y-14750000D01*
X8333354Y-14921282D02*
X8373354Y-14961282D01*
X8373354Y-14921282D02*
X8333354Y-14961282D01*
X8345500Y-12790000D02*
X8385500Y-12830000D01*
X8385500Y-12790000D02*
X8345500Y-12830000D01*
X8415500Y-13060000D02*
X8455500Y-13100000D01*
X8455500Y-13060000D02*
X8415500Y-13100000D01*
X8425500Y-14960000D02*
X8465500Y-15000000D01*
X8465500Y-14960000D02*
X8425500Y-15000000D01*
X8435500Y-15060000D02*
X8475500Y-15100000D01*
X8475500Y-15060000D02*
X8435500Y-15100000D01*
X8475500Y-14650000D02*
X8515500Y-14690000D01*
X8515500Y-14650000D02*
X8475500Y-14690000D01*
X8495500Y-14490000D02*
X8535500Y-14530000D01*
X8535500Y-14490000D02*
X8495500Y-14530000D01*
X8505500Y-11690000D02*
X8545500Y-11730000D01*
X8545500Y-11690000D02*
X8505500Y-11730000D01*
X8515500Y-15160000D02*
X8555500Y-15200000D01*
X8555500Y-15160000D02*
X8515500Y-15200000D01*
X8614164Y-15239406D02*
X8654164Y-15279406D01*
X8654164Y-15239406D02*
X8614164Y-15279406D01*
X8675500Y-15820000D02*
X8715500Y-15860000D01*
X8715500Y-15820000D02*
X8675500Y-15860000D01*
X8705500Y-11010000D02*
X8745500Y-11050000D01*
X8745500Y-11010000D02*
X8705500Y-11050000D01*
X8705500Y-15280000D02*
X8745500Y-15320000D01*
X8745500Y-15280000D02*
X8705500Y-15320000D01*
X8735500Y-14980000D02*
X8775500Y-15020000D01*
X8775500Y-14980000D02*
X8735500Y-15020000D01*
X8745500Y-14690000D02*
X8785500Y-14730000D01*
X8785500Y-14690000D02*
X8745500Y-14730000D01*
X8745500Y-14790000D02*
X8785500Y-14830000D01*
X8785500Y-14790000D02*
X8745500Y-14830000D01*
X8775500Y-12220000D02*
X8815500Y-12260000D01*
X8815500Y-12220000D02*
X8775500Y-12260000D01*
X8785500Y-14180000D02*
X8825500Y-14220000D01*
X8825500Y-14180000D02*
X8785500Y-14220000D01*
X8815500Y-15330000D02*
X8855500Y-15370000D01*
X8855500Y-15330000D02*
X8815500Y-15370000D01*
X8835500Y-14980000D02*
X8875500Y-15020000D01*
X8875500Y-14980000D02*
X8835500Y-15020000D01*
X8860756Y-14510956D02*
X8900756Y-14550956D01*
X8900756Y-14510956D02*
X8860756Y-14550956D01*
X9005500Y-14270000D02*
X9045500Y-14310000D01*
X9045500Y-14270000D02*
X9005500Y-14310000D01*
X9008976Y-15239361D02*
X9048976Y-15279361D01*
X9048976Y-15239361D02*
X9008976Y-15279361D01*
X9015500Y-13640000D02*
X9055500Y-13680000D01*
X9055500Y-13640000D02*
X9015500Y-13680000D01*
X9085500Y-11700000D02*
X9125500Y-11740000D01*
X9125500Y-11700000D02*
X9085500Y-11740000D01*
X9110850Y-14521210D02*
X9150850Y-14561210D01*
X9150850Y-14521210D02*
X9110850Y-14561210D01*
X9114177Y-14168677D02*
X9154177Y-14208677D01*
X9154177Y-14168677D02*
X9114177Y-14208677D01*
X9125500Y-15220000D02*
X9165500Y-15260000D01*
X9165500Y-15220000D02*
X9125500Y-15260000D01*
X9186175Y-14099350D02*
X9226175Y-14139350D01*
X9226175Y-14099350D02*
X9186175Y-14139350D01*
X9295500Y-14220000D02*
X9335500Y-14260000D01*
X9335500Y-14220000D02*
X9295500Y-14260000D01*
X9365500Y-12400000D02*
X9405500Y-12440000D01*
X9405500Y-12400000D02*
X9365500Y-12440000D01*
X9375148Y-14320352D02*
X9415148Y-14360352D01*
X9415148Y-14320352D02*
X9375148Y-14360352D01*
X9505500Y-13030000D02*
X9545500Y-13070000D01*
X9545500Y-13030000D02*
X9505500Y-13070000D01*
X9505500Y-13300000D02*
X9545500Y-13340000D01*
X9545500Y-13300000D02*
X9505500Y-13340000D01*
X9579040Y-13417124D02*
X9619040Y-13457124D01*
X9619040Y-13417124D02*
X9579040Y-13457124D01*
X9875500Y-11700000D02*
X9915500Y-11740000D01*
X9915500Y-11700000D02*
X9875500Y-11740000D01*
X10025500Y-14300000D02*
X10065500Y-14340000D01*
X10065500Y-14300000D02*
X10025500Y-14340000D01*
X10025500Y-15020000D02*
X10065500Y-15060000D01*
X10065500Y-15020000D02*
X10025500Y-15060000D01*
X10035500Y-13670000D02*
X10075500Y-13710000D01*
X10075500Y-13670000D02*
X10035500Y-13710000D01*
X10065500Y-13020000D02*
X10105500Y-13060000D01*
X10105500Y-13020000D02*
X10065500Y-13060000D01*
X10085500Y-12280000D02*
X10125500Y-12320000D01*
X10125500Y-12280000D02*
X10085500Y-12320000D01*
X10275500Y-11216000D02*
X10315500Y-11256000D01*
X10315500Y-11216000D02*
X10275500Y-11256000D01*
X10422500Y-12364000D02*
X10462500Y-12404000D01*
X10462500Y-12364000D02*
X10422500Y-12404000D01*
X10655500Y-13020000D02*
X10695500Y-13060000D01*
X10695500Y-13020000D02*
X10655500Y-13060000D01*
X10695500Y-13660000D02*
X10735500Y-13700000D01*
X10735500Y-13660000D02*
X10695500Y-13700000D01*
X10715500Y-14350000D02*
X10755500Y-14390000D01*
X10755500Y-14350000D02*
X10715500Y-14390000D01*
X10735500Y-15010000D02*
X10775500Y-15050000D01*
X10775500Y-15010000D02*
X10735500Y-15050000D01*
X10765500Y-12280000D02*
X10805500Y-12320000D01*
X10805500Y-12280000D02*
X10765500Y-12320000D01*
X10925500Y-10810000D02*
X10965500Y-10850000D01*
X10965500Y-10810000D02*
X10925500Y-10850000D01*
X10985500Y-11410000D02*
X11025500Y-11450000D01*
X11025500Y-11410000D02*
X10985500Y-11450000D01*
X11092500Y-11705000D02*
X11132500Y-11745000D01*
X11132500Y-11705000D02*
X11092500Y-11745000D01*
X11135500Y-12870000D02*
X11175500Y-12910000D01*
X11175500Y-12870000D02*
X11135500Y-12910000D01*
X11385500Y-11630000D02*
X11425500Y-11670000D01*
X11425500Y-11630000D02*
X11385500Y-11670000D01*
X11427407Y-11359650D02*
X11467407Y-11399650D01*
X11467407Y-11359650D02*
X11427407Y-11399650D01*
X11475500Y-13700000D02*
X11515500Y-13740000D01*
X11515500Y-13700000D02*
X11475500Y-13740000D01*
X11495500Y-14350000D02*
X11535500Y-14390000D01*
X11535500Y-14350000D02*
X11495500Y-14390000D01*
X11505500Y-15010000D02*
X11545500Y-15050000D01*
X11545500Y-15010000D02*
X11505500Y-15050000D01*
X11695500Y-10980000D02*
X11735500Y-11020000D01*
X11735500Y-10980000D02*
X11695500Y-11020000D01*
X11825500Y-12050000D02*
X11865500Y-12090000D01*
X11865500Y-12050000D02*
X11825500Y-12090000D01*
X11856500Y-13191000D02*
X11896500Y-13231000D01*
X11896500Y-13191000D02*
X11856500Y-13231000D01*
X11865500Y-12680000D02*
X11905500Y-12720000D01*
X11905500Y-12680000D02*
X11865500Y-12720000D01*
X12135500Y-11060000D02*
X12175500Y-11100000D01*
X12175500Y-11060000D02*
X12135500Y-11100000D01*
X12297500Y-13190000D02*
X12337500Y-13230000D01*
X12337500Y-13190000D02*
X12297500Y-13230000D01*
X12306500Y-11363350D02*
X12346500Y-11403350D01*
X12346500Y-11363350D02*
X12306500Y-11403350D01*
X12315500Y-13690000D02*
X12355500Y-13730000D01*
X12355500Y-13690000D02*
X12315500Y-13730000D01*
X12345500Y-14340000D02*
X12385500Y-14380000D01*
X12385500Y-14340000D02*
X12345500Y-14380000D01*
X12495500Y-12839000D02*
X12535500Y-12879000D01*
X12535500Y-12839000D02*
X12495500Y-12879000D01*
X12585500Y-12120000D02*
X12625500Y-12160000D01*
X12625500Y-12120000D02*
X12585500Y-12160000D01*
X12715500Y-15800000D02*
X12755500Y-15840000D01*
X12755500Y-15800000D02*
X12715500Y-15840000D01*
X12817500Y-12068000D02*
X12857500Y-12108000D01*
X12857500Y-12068000D02*
X12817500Y-12108000D01*
X12965500Y-12630000D02*
X13005500Y-12670000D01*
X13005500Y-12630000D02*
X12965500Y-12670000D01*
X13165500Y-12320000D02*
X13205500Y-12360000D01*
X13205500Y-12320000D02*
X13165500Y-12360000D01*
X13305500Y-11140000D02*
X13345500Y-11180000D01*
X13345500Y-11140000D02*
X13305500Y-11180000D01*
X13305500Y-15800000D02*
X13345500Y-15840000D01*
X13345500Y-15800000D02*
X13305500Y-15840000D01*
X13314500Y-11374000D02*
X13354500Y-11414000D01*
X13354500Y-11374000D02*
X13314500Y-11414000D01*
X13345500Y-12750000D02*
X13385500Y-12790000D01*
X13385500Y-12750000D02*
X13345500Y-12790000D01*
X13345500Y-13340000D02*
X13385500Y-13380000D01*
X13385500Y-13340000D02*
X13345500Y-13380000D01*
X13525500Y-13010000D02*
X13565500Y-13050000D01*
X13565500Y-13010000D02*
X13525500Y-13050000D01*
X13605500Y-13680000D02*
X13645500Y-13720000D01*
X13645500Y-13680000D02*
X13605500Y-13720000D01*
X13605500Y-13870000D02*
X13645500Y-13910000D01*
X13645500Y-13870000D02*
X13605500Y-13910000D01*
X13625500Y-14080000D02*
X13665500Y-14120000D01*
X13665500Y-14080000D02*
X13625500Y-14120000D01*
X13645500Y-14290000D02*
X13685500Y-14330000D01*
X13685500Y-14290000D02*
X13645500Y-14330000D01*
X13655500Y-14520000D02*
X13695500Y-14560000D01*
X13695500Y-14520000D02*
X13655500Y-14560000D01*
X13655500Y-14720000D02*
X13695500Y-14760000D01*
X13695500Y-14720000D02*
X13655500Y-14760000D01*
X13655500Y-14940000D02*
X13695500Y-14980000D01*
X13695500Y-14940000D02*
X13655500Y-14980000D01*
X13655500Y-15140000D02*
X13695500Y-15180000D01*
X13695500Y-15140000D02*
X13655500Y-15180000D01*
X13885500Y-10910000D02*
X13925500Y-10950000D01*
X13925500Y-10910000D02*
X13885500Y-10950000D01*
X13895500Y-15450000D02*
X13935500Y-15490000D01*
X13935500Y-15450000D02*
X13895500Y-15490000D01*
X13895500Y-15800000D02*
X13935500Y-15840000D01*
X13935500Y-15800000D02*
X13895500Y-15840000D01*
X14255500Y-11580000D02*
X14295500Y-11620000D01*
X14295500Y-11580000D02*
X14255500Y-11620000D01*
X14725500Y-13760000D02*
X14765500Y-13800000D01*
X14765500Y-13760000D02*
X14725500Y-13800000D01*
X14735500Y-12870000D02*
X14775500Y-12910000D01*
X14775500Y-12870000D02*
X14735500Y-12910000D01*
X14745500Y-14680000D02*
X14785500Y-14720000D01*
X14785500Y-14680000D02*
X14745500Y-14720000D01*
X14765500Y-15660000D02*
X14805500Y-15700000D01*
X14805500Y-15660000D02*
X14765500Y-15700000D01*
D13*
X14409500Y-12411000D02*
G75*
G03*
X14409500Y-12411000I-25000J0D01*
G01*
D11*
X14424500Y-12386000D02*
X14344500Y-12386000D01*
X14344500Y-12386000D02*
G75*
G03*
X14344500Y-12436000I0J-25000D01*
G01*
X14344500Y-12436000D02*
X14424500Y-12436000D01*
X14424500Y-12436000D02*
G75*
G03*
X14424500Y-12386000I0J25000D01*
G01*
D13*
X14729500Y-11651000D02*
G75*
G03*
X14729500Y-11651000I-25000J0D01*
G01*
D11*
X14744500Y-11626000D02*
X14664500Y-11626000D01*
X14664500Y-11626000D02*
G75*
G03*
X14664500Y-11676000I0J-25000D01*
G01*
X14664500Y-11676000D02*
X14744500Y-11676000D01*
X14744500Y-11676000D02*
G75*
G03*
X14744500Y-11626000I0J25000D01*
G01*
D13*
X14729500Y-12411000D02*
G75*
G03*
X14729500Y-12411000I-25000J0D01*
G01*
D11*
X14744500Y-12386000D02*
X14664500Y-12386000D01*
X14664500Y-12386000D02*
G75*
G03*
X14664500Y-12436000I0J-25000D01*
G01*
X14664500Y-12436000D02*
X14744500Y-12436000D01*
X14744500Y-12436000D02*
G75*
G03*
X14744500Y-12386000I0J25000D01*
G01*
D14*
X14373500Y-13656000D02*
X14373500Y-13736000D01*
X14333500Y-13696000D02*
X14413500Y-13696000D01*
X14373500Y-13856000D02*
X14373500Y-13936000D01*
X14333500Y-13896000D02*
X14413500Y-13896000D01*
X14373500Y-14056000D02*
X14373500Y-14136000D01*
X14333500Y-14096000D02*
X14413500Y-14096000D01*
X14373500Y-14256000D02*
X14373500Y-14336000D01*
X14333500Y-14296000D02*
X14413500Y-14296000D01*
X14373500Y-14456000D02*
X14373500Y-14536000D01*
X14333500Y-14496000D02*
X14413500Y-14496000D01*
X14373500Y-14656000D02*
X14373500Y-14736000D01*
X14333500Y-14696000D02*
X14413500Y-14696000D01*
X14373500Y-14856000D02*
X14373500Y-14936000D01*
X14333500Y-14896000D02*
X14413500Y-14896000D01*
X14373500Y-15056000D02*
X14373500Y-15136000D01*
X14333500Y-15096000D02*
X14413500Y-15096000D01*
X14373500Y-15256000D02*
X14373500Y-15336000D01*
X14333500Y-15296000D02*
X14413500Y-15296000D01*
X14373500Y-15456000D02*
X14373500Y-15536000D01*
X14333500Y-15496000D02*
X14413500Y-15496000D01*
X14373500Y-15656000D02*
X14373500Y-15736000D01*
X14333500Y-15696000D02*
X14413500Y-15696000D01*
X14373500Y-15856000D02*
X14373500Y-15936000D01*
X14333500Y-15896000D02*
X14413500Y-15896000D01*
D11*
X7281277Y-16997484D02*
X7281277Y-16797484D01*
X7281277Y-16797484D02*
X7328896Y-16797484D01*
X7328896Y-16797484D02*
X7357467Y-16807008D01*
X7357467Y-16807008D02*
X7376515Y-16826055D01*
X7376515Y-16826055D02*
X7386039Y-16845103D01*
X7386039Y-16845103D02*
X7395562Y-16883198D01*
X7395562Y-16883198D02*
X7395562Y-16911770D01*
X7395562Y-16911770D02*
X7386039Y-16949865D01*
X7386039Y-16949865D02*
X7376515Y-16968912D01*
X7376515Y-16968912D02*
X7357467Y-16987960D01*
X7357467Y-16987960D02*
X7328896Y-16997484D01*
X7328896Y-16997484D02*
X7281277Y-16997484D01*
X7481277Y-16997484D02*
X7481277Y-16864150D01*
X7481277Y-16902246D02*
X7490801Y-16883198D01*
X7490801Y-16883198D02*
X7500324Y-16873674D01*
X7500324Y-16873674D02*
X7519372Y-16864150D01*
X7519372Y-16864150D02*
X7538420Y-16864150D01*
X7605086Y-16997484D02*
X7605086Y-16864150D01*
X7605086Y-16797484D02*
X7595562Y-16807008D01*
X7595562Y-16807008D02*
X7605086Y-16816531D01*
X7605086Y-16816531D02*
X7614610Y-16807008D01*
X7614610Y-16807008D02*
X7605086Y-16797484D01*
X7605086Y-16797484D02*
X7605086Y-16816531D01*
X7728896Y-16997484D02*
X7709848Y-16987960D01*
X7709848Y-16987960D02*
X7700324Y-16968912D01*
X7700324Y-16968912D02*
X7700324Y-16797484D01*
X7833658Y-16997484D02*
X7814610Y-16987960D01*
X7814610Y-16987960D02*
X7805086Y-16968912D01*
X7805086Y-16968912D02*
X7805086Y-16797484D01*
X8062229Y-16997484D02*
X8062229Y-16797484D01*
X8062229Y-16797484D02*
X8128896Y-16940341D01*
X8128896Y-16940341D02*
X8195562Y-16797484D01*
X8195562Y-16797484D02*
X8195562Y-16997484D01*
X8376515Y-16997484D02*
X8376515Y-16892722D01*
X8376515Y-16892722D02*
X8366991Y-16873674D01*
X8366991Y-16873674D02*
X8347943Y-16864150D01*
X8347943Y-16864150D02*
X8309848Y-16864150D01*
X8309848Y-16864150D02*
X8290801Y-16873674D01*
X8376515Y-16987960D02*
X8357467Y-16997484D01*
X8357467Y-16997484D02*
X8309848Y-16997484D01*
X8309848Y-16997484D02*
X8290801Y-16987960D01*
X8290801Y-16987960D02*
X8281277Y-16968912D01*
X8281277Y-16968912D02*
X8281277Y-16949865D01*
X8281277Y-16949865D02*
X8290801Y-16930817D01*
X8290801Y-16930817D02*
X8309848Y-16921293D01*
X8309848Y-16921293D02*
X8357467Y-16921293D01*
X8357467Y-16921293D02*
X8376515Y-16911770D01*
X8471753Y-16864150D02*
X8471753Y-17064150D01*
X8471753Y-16873674D02*
X8490801Y-16864150D01*
X8490801Y-16864150D02*
X8528896Y-16864150D01*
X8528896Y-16864150D02*
X8547944Y-16873674D01*
X8547944Y-16873674D02*
X8557467Y-16883198D01*
X8557467Y-16883198D02*
X8566991Y-16902246D01*
X8566991Y-16902246D02*
X8566991Y-16959389D01*
X8566991Y-16959389D02*
X8557467Y-16978436D01*
X8557467Y-16978436D02*
X8547944Y-16987960D01*
X8547944Y-16987960D02*
X8528896Y-16997484D01*
X8528896Y-16997484D02*
X8490801Y-16997484D01*
X8490801Y-16997484D02*
X8471753Y-16987960D01*
X8652705Y-16978436D02*
X8662229Y-16987960D01*
X8662229Y-16987960D02*
X8652705Y-16997484D01*
X8652705Y-16997484D02*
X8643182Y-16987960D01*
X8643182Y-16987960D02*
X8652705Y-16978436D01*
X8652705Y-16978436D02*
X8652705Y-16997484D01*
X8652705Y-16873674D02*
X8662229Y-16883198D01*
X8662229Y-16883198D02*
X8652705Y-16892722D01*
X8652705Y-16892722D02*
X8643182Y-16883198D01*
X8643182Y-16883198D02*
X8652705Y-16873674D01*
X8652705Y-16873674D02*
X8652705Y-16892722D01*
D12*
X6980500Y-17306000D02*
X7020500Y-17346000D01*
X7020500Y-17306000D02*
X6980500Y-17346000D01*
D11*
X7319372Y-17217484D02*
X7338420Y-17217484D01*
X7338420Y-17217484D02*
X7357467Y-17227008D01*
X7357467Y-17227008D02*
X7366991Y-17236531D01*
X7366991Y-17236531D02*
X7376515Y-17255579D01*
X7376515Y-17255579D02*
X7386039Y-17293674D01*
X7386039Y-17293674D02*
X7386039Y-17341293D01*
X7386039Y-17341293D02*
X7376515Y-17379389D01*
X7376515Y-17379389D02*
X7366991Y-17398436D01*
X7366991Y-17398436D02*
X7357467Y-17407960D01*
X7357467Y-17407960D02*
X7338420Y-17417484D01*
X7338420Y-17417484D02*
X7319372Y-17417484D01*
X7319372Y-17417484D02*
X7300324Y-17407960D01*
X7300324Y-17407960D02*
X7290801Y-17398436D01*
X7290801Y-17398436D02*
X7281277Y-17379389D01*
X7281277Y-17379389D02*
X7271753Y-17341293D01*
X7271753Y-17341293D02*
X7271753Y-17293674D01*
X7271753Y-17293674D02*
X7281277Y-17255579D01*
X7281277Y-17255579D02*
X7290801Y-17236531D01*
X7290801Y-17236531D02*
X7300324Y-17227008D01*
X7300324Y-17227008D02*
X7319372Y-17217484D01*
X7471753Y-17398436D02*
X7481277Y-17407960D01*
X7481277Y-17407960D02*
X7471753Y-17417484D01*
X7471753Y-17417484D02*
X7462229Y-17407960D01*
X7462229Y-17407960D02*
X7471753Y-17398436D01*
X7471753Y-17398436D02*
X7471753Y-17417484D01*
X7652705Y-17284150D02*
X7652705Y-17417484D01*
X7605086Y-17207960D02*
X7557467Y-17350817D01*
X7557467Y-17350817D02*
X7681277Y-17350817D01*
X7795562Y-17217484D02*
X7814610Y-17217484D01*
X7814610Y-17217484D02*
X7833658Y-17227008D01*
X7833658Y-17227008D02*
X7843182Y-17236531D01*
X7843182Y-17236531D02*
X7852705Y-17255579D01*
X7852705Y-17255579D02*
X7862229Y-17293674D01*
X7862229Y-17293674D02*
X7862229Y-17341293D01*
X7862229Y-17341293D02*
X7852705Y-17379389D01*
X7852705Y-17379389D02*
X7843182Y-17398436D01*
X7843182Y-17398436D02*
X7833658Y-17407960D01*
X7833658Y-17407960D02*
X7814610Y-17417484D01*
X7814610Y-17417484D02*
X7795562Y-17417484D01*
X7795562Y-17417484D02*
X7776515Y-17407960D01*
X7776515Y-17407960D02*
X7766991Y-17398436D01*
X7766991Y-17398436D02*
X7757467Y-17379389D01*
X7757467Y-17379389D02*
X7747943Y-17341293D01*
X7747943Y-17341293D02*
X7747943Y-17293674D01*
X7747943Y-17293674D02*
X7757467Y-17255579D01*
X7757467Y-17255579D02*
X7766991Y-17236531D01*
X7766991Y-17236531D02*
X7776515Y-17227008D01*
X7776515Y-17227008D02*
X7795562Y-17217484D01*
X7986039Y-17217484D02*
X8005086Y-17217484D01*
X8005086Y-17217484D02*
X8024134Y-17227008D01*
X8024134Y-17227008D02*
X8033658Y-17236531D01*
X8033658Y-17236531D02*
X8043182Y-17255579D01*
X8043182Y-17255579D02*
X8052705Y-17293674D01*
X8052705Y-17293674D02*
X8052705Y-17341293D01*
X8052705Y-17341293D02*
X8043182Y-17379389D01*
X8043182Y-17379389D02*
X8033658Y-17398436D01*
X8033658Y-17398436D02*
X8024134Y-17407960D01*
X8024134Y-17407960D02*
X8005086Y-17417484D01*
X8005086Y-17417484D02*
X7986039Y-17417484D01*
X7986039Y-17417484D02*
X7966991Y-17407960D01*
X7966991Y-17407960D02*
X7957467Y-17398436D01*
X7957467Y-17398436D02*
X7947943Y-17379389D01*
X7947943Y-17379389D02*
X7938420Y-17341293D01*
X7938420Y-17341293D02*
X7938420Y-17293674D01*
X7938420Y-17293674D02*
X7947943Y-17255579D01*
X7947943Y-17255579D02*
X7957467Y-17236531D01*
X7957467Y-17236531D02*
X7966991Y-17227008D01*
X7966991Y-17227008D02*
X7986039Y-17217484D01*
X8138420Y-17417484D02*
X8138420Y-17284150D01*
X8138420Y-17303198D02*
X8147943Y-17293674D01*
X8147943Y-17293674D02*
X8166991Y-17284150D01*
X8166991Y-17284150D02*
X8195563Y-17284150D01*
X8195563Y-17284150D02*
X8214610Y-17293674D01*
X8214610Y-17293674D02*
X8224134Y-17312722D01*
X8224134Y-17312722D02*
X8224134Y-17417484D01*
X8224134Y-17312722D02*
X8233658Y-17293674D01*
X8233658Y-17293674D02*
X8252705Y-17284150D01*
X8252705Y-17284150D02*
X8281277Y-17284150D01*
X8281277Y-17284150D02*
X8300324Y-17293674D01*
X8300324Y-17293674D02*
X8309848Y-17312722D01*
X8309848Y-17312722D02*
X8309848Y-17417484D01*
X8405086Y-17417484D02*
X8405086Y-17284150D01*
X8405086Y-17303198D02*
X8414610Y-17293674D01*
X8414610Y-17293674D02*
X8433658Y-17284150D01*
X8433658Y-17284150D02*
X8462229Y-17284150D01*
X8462229Y-17284150D02*
X8481277Y-17293674D01*
X8481277Y-17293674D02*
X8490801Y-17312722D01*
X8490801Y-17312722D02*
X8490801Y-17417484D01*
X8490801Y-17312722D02*
X8500325Y-17293674D01*
X8500325Y-17293674D02*
X8519372Y-17284150D01*
X8519372Y-17284150D02*
X8547944Y-17284150D01*
X8547944Y-17284150D02*
X8566991Y-17293674D01*
X8566991Y-17293674D02*
X8576515Y-17312722D01*
X8576515Y-17312722D02*
X8576515Y-17417484D01*
X8966991Y-17207960D02*
X8795563Y-17465103D01*
X9224134Y-17217484D02*
X9243182Y-17217484D01*
X9243182Y-17217484D02*
X9262229Y-17227008D01*
X9262229Y-17227008D02*
X9271753Y-17236531D01*
X9271753Y-17236531D02*
X9281277Y-17255579D01*
X9281277Y-17255579D02*
X9290801Y-17293674D01*
X9290801Y-17293674D02*
X9290801Y-17341293D01*
X9290801Y-17341293D02*
X9281277Y-17379389D01*
X9281277Y-17379389D02*
X9271753Y-17398436D01*
X9271753Y-17398436D02*
X9262229Y-17407960D01*
X9262229Y-17407960D02*
X9243182Y-17417484D01*
X9243182Y-17417484D02*
X9224134Y-17417484D01*
X9224134Y-17417484D02*
X9205087Y-17407960D01*
X9205087Y-17407960D02*
X9195563Y-17398436D01*
X9195563Y-17398436D02*
X9186039Y-17379389D01*
X9186039Y-17379389D02*
X9176515Y-17341293D01*
X9176515Y-17341293D02*
X9176515Y-17293674D01*
X9176515Y-17293674D02*
X9186039Y-17255579D01*
X9186039Y-17255579D02*
X9195563Y-17236531D01*
X9195563Y-17236531D02*
X9205087Y-17227008D01*
X9205087Y-17227008D02*
X9224134Y-17217484D01*
X9376515Y-17398436D02*
X9386039Y-17407960D01*
X9386039Y-17407960D02*
X9376515Y-17417484D01*
X9376515Y-17417484D02*
X9366991Y-17407960D01*
X9366991Y-17407960D02*
X9376515Y-17398436D01*
X9376515Y-17398436D02*
X9376515Y-17417484D01*
X9509848Y-17217484D02*
X9528896Y-17217484D01*
X9528896Y-17217484D02*
X9547944Y-17227008D01*
X9547944Y-17227008D02*
X9557468Y-17236531D01*
X9557468Y-17236531D02*
X9566991Y-17255579D01*
X9566991Y-17255579D02*
X9576515Y-17293674D01*
X9576515Y-17293674D02*
X9576515Y-17341293D01*
X9576515Y-17341293D02*
X9566991Y-17379389D01*
X9566991Y-17379389D02*
X9557468Y-17398436D01*
X9557468Y-17398436D02*
X9547944Y-17407960D01*
X9547944Y-17407960D02*
X9528896Y-17417484D01*
X9528896Y-17417484D02*
X9509848Y-17417484D01*
X9509848Y-17417484D02*
X9490801Y-17407960D01*
X9490801Y-17407960D02*
X9481277Y-17398436D01*
X9481277Y-17398436D02*
X9471753Y-17379389D01*
X9471753Y-17379389D02*
X9462229Y-17341293D01*
X9462229Y-17341293D02*
X9462229Y-17293674D01*
X9462229Y-17293674D02*
X9471753Y-17255579D01*
X9471753Y-17255579D02*
X9481277Y-17236531D01*
X9481277Y-17236531D02*
X9490801Y-17227008D01*
X9490801Y-17227008D02*
X9509848Y-17217484D01*
X9766991Y-17417484D02*
X9652706Y-17417484D01*
X9709848Y-17417484D02*
X9709848Y-17217484D01*
X9709848Y-17217484D02*
X9690801Y-17246055D01*
X9690801Y-17246055D02*
X9671753Y-17265103D01*
X9671753Y-17265103D02*
X9652706Y-17274627D01*
X9947944Y-17217484D02*
X9852706Y-17217484D01*
X9852706Y-17217484D02*
X9843182Y-17312722D01*
X9843182Y-17312722D02*
X9852706Y-17303198D01*
X9852706Y-17303198D02*
X9871753Y-17293674D01*
X9871753Y-17293674D02*
X9919372Y-17293674D01*
X9919372Y-17293674D02*
X9938420Y-17303198D01*
X9938420Y-17303198D02*
X9947944Y-17312722D01*
X9947944Y-17312722D02*
X9957468Y-17331770D01*
X9957468Y-17331770D02*
X9957468Y-17379389D01*
X9957468Y-17379389D02*
X9947944Y-17398436D01*
X9947944Y-17398436D02*
X9938420Y-17407960D01*
X9938420Y-17407960D02*
X9919372Y-17417484D01*
X9919372Y-17417484D02*
X9871753Y-17417484D01*
X9871753Y-17417484D02*
X9852706Y-17407960D01*
X9852706Y-17407960D02*
X9843182Y-17398436D01*
X10024134Y-17217484D02*
X10157468Y-17217484D01*
X10157468Y-17217484D02*
X10071753Y-17417484D01*
X10224134Y-17217484D02*
X10224134Y-17255579D01*
X10300325Y-17217484D02*
X10300325Y-17255579D01*
X10595563Y-17493674D02*
X10586039Y-17484150D01*
X10586039Y-17484150D02*
X10566991Y-17455579D01*
X10566991Y-17455579D02*
X10557468Y-17436531D01*
X10557468Y-17436531D02*
X10547944Y-17407960D01*
X10547944Y-17407960D02*
X10538420Y-17360341D01*
X10538420Y-17360341D02*
X10538420Y-17322246D01*
X10538420Y-17322246D02*
X10547944Y-17274627D01*
X10547944Y-17274627D02*
X10557468Y-17246055D01*
X10557468Y-17246055D02*
X10566991Y-17227008D01*
X10566991Y-17227008D02*
X10586039Y-17198436D01*
X10586039Y-17198436D02*
X10595563Y-17188912D01*
X10776515Y-17417484D02*
X10662230Y-17417484D01*
X10719372Y-17417484D02*
X10719372Y-17217484D01*
X10719372Y-17217484D02*
X10700325Y-17246055D01*
X10700325Y-17246055D02*
X10681277Y-17265103D01*
X10681277Y-17265103D02*
X10662230Y-17274627D01*
X10900325Y-17217484D02*
X10919372Y-17217484D01*
X10919372Y-17217484D02*
X10938420Y-17227008D01*
X10938420Y-17227008D02*
X10947944Y-17236531D01*
X10947944Y-17236531D02*
X10957468Y-17255579D01*
X10957468Y-17255579D02*
X10966991Y-17293674D01*
X10966991Y-17293674D02*
X10966991Y-17341293D01*
X10966991Y-17341293D02*
X10957468Y-17379389D01*
X10957468Y-17379389D02*
X10947944Y-17398436D01*
X10947944Y-17398436D02*
X10938420Y-17407960D01*
X10938420Y-17407960D02*
X10919372Y-17417484D01*
X10919372Y-17417484D02*
X10900325Y-17417484D01*
X10900325Y-17417484D02*
X10881277Y-17407960D01*
X10881277Y-17407960D02*
X10871753Y-17398436D01*
X10871753Y-17398436D02*
X10862230Y-17379389D01*
X10862230Y-17379389D02*
X10852706Y-17341293D01*
X10852706Y-17341293D02*
X10852706Y-17293674D01*
X10852706Y-17293674D02*
X10862230Y-17255579D01*
X10862230Y-17255579D02*
X10871753Y-17236531D01*
X10871753Y-17236531D02*
X10881277Y-17227008D01*
X10881277Y-17227008D02*
X10900325Y-17217484D01*
X11138420Y-17217484D02*
X11100325Y-17217484D01*
X11100325Y-17217484D02*
X11081277Y-17227008D01*
X11081277Y-17227008D02*
X11071753Y-17236531D01*
X11071753Y-17236531D02*
X11052706Y-17265103D01*
X11052706Y-17265103D02*
X11043182Y-17303198D01*
X11043182Y-17303198D02*
X11043182Y-17379389D01*
X11043182Y-17379389D02*
X11052706Y-17398436D01*
X11052706Y-17398436D02*
X11062230Y-17407960D01*
X11062230Y-17407960D02*
X11081277Y-17417484D01*
X11081277Y-17417484D02*
X11119372Y-17417484D01*
X11119372Y-17417484D02*
X11138420Y-17407960D01*
X11138420Y-17407960D02*
X11147944Y-17398436D01*
X11147944Y-17398436D02*
X11157468Y-17379389D01*
X11157468Y-17379389D02*
X11157468Y-17331770D01*
X11157468Y-17331770D02*
X11147944Y-17312722D01*
X11147944Y-17312722D02*
X11138420Y-17303198D01*
X11138420Y-17303198D02*
X11119372Y-17293674D01*
X11119372Y-17293674D02*
X11081277Y-17293674D01*
X11081277Y-17293674D02*
X11062230Y-17303198D01*
X11062230Y-17303198D02*
X11052706Y-17312722D01*
X11052706Y-17312722D02*
X11043182Y-17331770D01*
X11395563Y-17417484D02*
X11395563Y-17217484D01*
X11481277Y-17417484D02*
X11481277Y-17312722D01*
X11481277Y-17312722D02*
X11471753Y-17293674D01*
X11471753Y-17293674D02*
X11452706Y-17284150D01*
X11452706Y-17284150D02*
X11424134Y-17284150D01*
X11424134Y-17284150D02*
X11405087Y-17293674D01*
X11405087Y-17293674D02*
X11395563Y-17303198D01*
X11605087Y-17417484D02*
X11586039Y-17407960D01*
X11586039Y-17407960D02*
X11576515Y-17398436D01*
X11576515Y-17398436D02*
X11566991Y-17379389D01*
X11566991Y-17379389D02*
X11566991Y-17322246D01*
X11566991Y-17322246D02*
X11576515Y-17303198D01*
X11576515Y-17303198D02*
X11586039Y-17293674D01*
X11586039Y-17293674D02*
X11605087Y-17284150D01*
X11605087Y-17284150D02*
X11633658Y-17284150D01*
X11633658Y-17284150D02*
X11652706Y-17293674D01*
X11652706Y-17293674D02*
X11662230Y-17303198D01*
X11662230Y-17303198D02*
X11671753Y-17322246D01*
X11671753Y-17322246D02*
X11671753Y-17379389D01*
X11671753Y-17379389D02*
X11662230Y-17398436D01*
X11662230Y-17398436D02*
X11652706Y-17407960D01*
X11652706Y-17407960D02*
X11633658Y-17417484D01*
X11633658Y-17417484D02*
X11605087Y-17417484D01*
X11786039Y-17417484D02*
X11766991Y-17407960D01*
X11766991Y-17407960D02*
X11757468Y-17388912D01*
X11757468Y-17388912D02*
X11757468Y-17217484D01*
X11938420Y-17407960D02*
X11919372Y-17417484D01*
X11919372Y-17417484D02*
X11881277Y-17417484D01*
X11881277Y-17417484D02*
X11862230Y-17407960D01*
X11862230Y-17407960D02*
X11852706Y-17388912D01*
X11852706Y-17388912D02*
X11852706Y-17312722D01*
X11852706Y-17312722D02*
X11862230Y-17293674D01*
X11862230Y-17293674D02*
X11881277Y-17284150D01*
X11881277Y-17284150D02*
X11919372Y-17284150D01*
X11919372Y-17284150D02*
X11938420Y-17293674D01*
X11938420Y-17293674D02*
X11947944Y-17312722D01*
X11947944Y-17312722D02*
X11947944Y-17331770D01*
X11947944Y-17331770D02*
X11852706Y-17350817D01*
X12024134Y-17407960D02*
X12043182Y-17417484D01*
X12043182Y-17417484D02*
X12081277Y-17417484D01*
X12081277Y-17417484D02*
X12100325Y-17407960D01*
X12100325Y-17407960D02*
X12109849Y-17388912D01*
X12109849Y-17388912D02*
X12109849Y-17379389D01*
X12109849Y-17379389D02*
X12100325Y-17360341D01*
X12100325Y-17360341D02*
X12081277Y-17350817D01*
X12081277Y-17350817D02*
X12052706Y-17350817D01*
X12052706Y-17350817D02*
X12033658Y-17341293D01*
X12033658Y-17341293D02*
X12024134Y-17322246D01*
X12024134Y-17322246D02*
X12024134Y-17312722D01*
X12024134Y-17312722D02*
X12033658Y-17293674D01*
X12033658Y-17293674D02*
X12052706Y-17284150D01*
X12052706Y-17284150D02*
X12081277Y-17284150D01*
X12081277Y-17284150D02*
X12100325Y-17293674D01*
X12176515Y-17493674D02*
X12186039Y-17484150D01*
X12186039Y-17484150D02*
X12205087Y-17455579D01*
X12205087Y-17455579D02*
X12214611Y-17436531D01*
X12214611Y-17436531D02*
X12224134Y-17407960D01*
X12224134Y-17407960D02*
X12233658Y-17360341D01*
X12233658Y-17360341D02*
X12233658Y-17322246D01*
X12233658Y-17322246D02*
X12224134Y-17274627D01*
X12224134Y-17274627D02*
X12214611Y-17246055D01*
X12214611Y-17246055D02*
X12205087Y-17227008D01*
X12205087Y-17227008D02*
X12186039Y-17198436D01*
X12186039Y-17198436D02*
X12176515Y-17188912D01*
D13*
X7020500Y-17590000D02*
G75*
G03*
X7020500Y-17590000I-25000J0D01*
G01*
D11*
X7319372Y-17481484D02*
X7338420Y-17481484D01*
X7338420Y-17481484D02*
X7357467Y-17491008D01*
X7357467Y-17491008D02*
X7366991Y-17500531D01*
X7366991Y-17500531D02*
X7376515Y-17519579D01*
X7376515Y-17519579D02*
X7386039Y-17557674D01*
X7386039Y-17557674D02*
X7386039Y-17605293D01*
X7386039Y-17605293D02*
X7376515Y-17643389D01*
X7376515Y-17643389D02*
X7366991Y-17662436D01*
X7366991Y-17662436D02*
X7357467Y-17671960D01*
X7357467Y-17671960D02*
X7338420Y-17681484D01*
X7338420Y-17681484D02*
X7319372Y-17681484D01*
X7319372Y-17681484D02*
X7300324Y-17671960D01*
X7300324Y-17671960D02*
X7290801Y-17662436D01*
X7290801Y-17662436D02*
X7281277Y-17643389D01*
X7281277Y-17643389D02*
X7271753Y-17605293D01*
X7271753Y-17605293D02*
X7271753Y-17557674D01*
X7271753Y-17557674D02*
X7281277Y-17519579D01*
X7281277Y-17519579D02*
X7290801Y-17500531D01*
X7290801Y-17500531D02*
X7300324Y-17491008D01*
X7300324Y-17491008D02*
X7319372Y-17481484D01*
X7471753Y-17662436D02*
X7481277Y-17671960D01*
X7481277Y-17671960D02*
X7471753Y-17681484D01*
X7471753Y-17681484D02*
X7462229Y-17671960D01*
X7462229Y-17671960D02*
X7471753Y-17662436D01*
X7471753Y-17662436D02*
X7471753Y-17681484D01*
X7662229Y-17481484D02*
X7566991Y-17481484D01*
X7566991Y-17481484D02*
X7557467Y-17576722D01*
X7557467Y-17576722D02*
X7566991Y-17567198D01*
X7566991Y-17567198D02*
X7586039Y-17557674D01*
X7586039Y-17557674D02*
X7633658Y-17557674D01*
X7633658Y-17557674D02*
X7652705Y-17567198D01*
X7652705Y-17567198D02*
X7662229Y-17576722D01*
X7662229Y-17576722D02*
X7671753Y-17595770D01*
X7671753Y-17595770D02*
X7671753Y-17643389D01*
X7671753Y-17643389D02*
X7662229Y-17662436D01*
X7662229Y-17662436D02*
X7652705Y-17671960D01*
X7652705Y-17671960D02*
X7633658Y-17681484D01*
X7633658Y-17681484D02*
X7586039Y-17681484D01*
X7586039Y-17681484D02*
X7566991Y-17671960D01*
X7566991Y-17671960D02*
X7557467Y-17662436D01*
X7795562Y-17481484D02*
X7814610Y-17481484D01*
X7814610Y-17481484D02*
X7833658Y-17491008D01*
X7833658Y-17491008D02*
X7843182Y-17500531D01*
X7843182Y-17500531D02*
X7852705Y-17519579D01*
X7852705Y-17519579D02*
X7862229Y-17557674D01*
X7862229Y-17557674D02*
X7862229Y-17605293D01*
X7862229Y-17605293D02*
X7852705Y-17643389D01*
X7852705Y-17643389D02*
X7843182Y-17662436D01*
X7843182Y-17662436D02*
X7833658Y-17671960D01*
X7833658Y-17671960D02*
X7814610Y-17681484D01*
X7814610Y-17681484D02*
X7795562Y-17681484D01*
X7795562Y-17681484D02*
X7776515Y-17671960D01*
X7776515Y-17671960D02*
X7766991Y-17662436D01*
X7766991Y-17662436D02*
X7757467Y-17643389D01*
X7757467Y-17643389D02*
X7747943Y-17605293D01*
X7747943Y-17605293D02*
X7747943Y-17557674D01*
X7747943Y-17557674D02*
X7757467Y-17519579D01*
X7757467Y-17519579D02*
X7766991Y-17500531D01*
X7766991Y-17500531D02*
X7776515Y-17491008D01*
X7776515Y-17491008D02*
X7795562Y-17481484D01*
X7986039Y-17481484D02*
X8005086Y-17481484D01*
X8005086Y-17481484D02*
X8024134Y-17491008D01*
X8024134Y-17491008D02*
X8033658Y-17500531D01*
X8033658Y-17500531D02*
X8043182Y-17519579D01*
X8043182Y-17519579D02*
X8052705Y-17557674D01*
X8052705Y-17557674D02*
X8052705Y-17605293D01*
X8052705Y-17605293D02*
X8043182Y-17643389D01*
X8043182Y-17643389D02*
X8033658Y-17662436D01*
X8033658Y-17662436D02*
X8024134Y-17671960D01*
X8024134Y-17671960D02*
X8005086Y-17681484D01*
X8005086Y-17681484D02*
X7986039Y-17681484D01*
X7986039Y-17681484D02*
X7966991Y-17671960D01*
X7966991Y-17671960D02*
X7957467Y-17662436D01*
X7957467Y-17662436D02*
X7947943Y-17643389D01*
X7947943Y-17643389D02*
X7938420Y-17605293D01*
X7938420Y-17605293D02*
X7938420Y-17557674D01*
X7938420Y-17557674D02*
X7947943Y-17519579D01*
X7947943Y-17519579D02*
X7957467Y-17500531D01*
X7957467Y-17500531D02*
X7966991Y-17491008D01*
X7966991Y-17491008D02*
X7986039Y-17481484D01*
X8138420Y-17681484D02*
X8138420Y-17548150D01*
X8138420Y-17567198D02*
X8147943Y-17557674D01*
X8147943Y-17557674D02*
X8166991Y-17548150D01*
X8166991Y-17548150D02*
X8195563Y-17548150D01*
X8195563Y-17548150D02*
X8214610Y-17557674D01*
X8214610Y-17557674D02*
X8224134Y-17576722D01*
X8224134Y-17576722D02*
X8224134Y-17681484D01*
X8224134Y-17576722D02*
X8233658Y-17557674D01*
X8233658Y-17557674D02*
X8252705Y-17548150D01*
X8252705Y-17548150D02*
X8281277Y-17548150D01*
X8281277Y-17548150D02*
X8300324Y-17557674D01*
X8300324Y-17557674D02*
X8309848Y-17576722D01*
X8309848Y-17576722D02*
X8309848Y-17681484D01*
X8405086Y-17681484D02*
X8405086Y-17548150D01*
X8405086Y-17567198D02*
X8414610Y-17557674D01*
X8414610Y-17557674D02*
X8433658Y-17548150D01*
X8433658Y-17548150D02*
X8462229Y-17548150D01*
X8462229Y-17548150D02*
X8481277Y-17557674D01*
X8481277Y-17557674D02*
X8490801Y-17576722D01*
X8490801Y-17576722D02*
X8490801Y-17681484D01*
X8490801Y-17576722D02*
X8500325Y-17557674D01*
X8500325Y-17557674D02*
X8519372Y-17548150D01*
X8519372Y-17548150D02*
X8547944Y-17548150D01*
X8547944Y-17548150D02*
X8566991Y-17557674D01*
X8566991Y-17557674D02*
X8576515Y-17576722D01*
X8576515Y-17576722D02*
X8576515Y-17681484D01*
X8966991Y-17471960D02*
X8795563Y-17729103D01*
X9224134Y-17481484D02*
X9243182Y-17481484D01*
X9243182Y-17481484D02*
X9262229Y-17491008D01*
X9262229Y-17491008D02*
X9271753Y-17500531D01*
X9271753Y-17500531D02*
X9281277Y-17519579D01*
X9281277Y-17519579D02*
X9290801Y-17557674D01*
X9290801Y-17557674D02*
X9290801Y-17605293D01*
X9290801Y-17605293D02*
X9281277Y-17643389D01*
X9281277Y-17643389D02*
X9271753Y-17662436D01*
X9271753Y-17662436D02*
X9262229Y-17671960D01*
X9262229Y-17671960D02*
X9243182Y-17681484D01*
X9243182Y-17681484D02*
X9224134Y-17681484D01*
X9224134Y-17681484D02*
X9205087Y-17671960D01*
X9205087Y-17671960D02*
X9195563Y-17662436D01*
X9195563Y-17662436D02*
X9186039Y-17643389D01*
X9186039Y-17643389D02*
X9176515Y-17605293D01*
X9176515Y-17605293D02*
X9176515Y-17557674D01*
X9176515Y-17557674D02*
X9186039Y-17519579D01*
X9186039Y-17519579D02*
X9195563Y-17500531D01*
X9195563Y-17500531D02*
X9205087Y-17491008D01*
X9205087Y-17491008D02*
X9224134Y-17481484D01*
X9376515Y-17662436D02*
X9386039Y-17671960D01*
X9386039Y-17671960D02*
X9376515Y-17681484D01*
X9376515Y-17681484D02*
X9366991Y-17671960D01*
X9366991Y-17671960D02*
X9376515Y-17662436D01*
X9376515Y-17662436D02*
X9376515Y-17681484D01*
X9509848Y-17481484D02*
X9528896Y-17481484D01*
X9528896Y-17481484D02*
X9547944Y-17491008D01*
X9547944Y-17491008D02*
X9557468Y-17500531D01*
X9557468Y-17500531D02*
X9566991Y-17519579D01*
X9566991Y-17519579D02*
X9576515Y-17557674D01*
X9576515Y-17557674D02*
X9576515Y-17605293D01*
X9576515Y-17605293D02*
X9566991Y-17643389D01*
X9566991Y-17643389D02*
X9557468Y-17662436D01*
X9557468Y-17662436D02*
X9547944Y-17671960D01*
X9547944Y-17671960D02*
X9528896Y-17681484D01*
X9528896Y-17681484D02*
X9509848Y-17681484D01*
X9509848Y-17681484D02*
X9490801Y-17671960D01*
X9490801Y-17671960D02*
X9481277Y-17662436D01*
X9481277Y-17662436D02*
X9471753Y-17643389D01*
X9471753Y-17643389D02*
X9462229Y-17605293D01*
X9462229Y-17605293D02*
X9462229Y-17557674D01*
X9462229Y-17557674D02*
X9471753Y-17519579D01*
X9471753Y-17519579D02*
X9481277Y-17500531D01*
X9481277Y-17500531D02*
X9490801Y-17491008D01*
X9490801Y-17491008D02*
X9509848Y-17481484D01*
X9766991Y-17681484D02*
X9652706Y-17681484D01*
X9709848Y-17681484D02*
X9709848Y-17481484D01*
X9709848Y-17481484D02*
X9690801Y-17510055D01*
X9690801Y-17510055D02*
X9671753Y-17529103D01*
X9671753Y-17529103D02*
X9652706Y-17538627D01*
X9862229Y-17681484D02*
X9900325Y-17681484D01*
X9900325Y-17681484D02*
X9919372Y-17671960D01*
X9919372Y-17671960D02*
X9928896Y-17662436D01*
X9928896Y-17662436D02*
X9947944Y-17633865D01*
X9947944Y-17633865D02*
X9957468Y-17595770D01*
X9957468Y-17595770D02*
X9957468Y-17519579D01*
X9957468Y-17519579D02*
X9947944Y-17500531D01*
X9947944Y-17500531D02*
X9938420Y-17491008D01*
X9938420Y-17491008D02*
X9919372Y-17481484D01*
X9919372Y-17481484D02*
X9881277Y-17481484D01*
X9881277Y-17481484D02*
X9862229Y-17491008D01*
X9862229Y-17491008D02*
X9852706Y-17500531D01*
X9852706Y-17500531D02*
X9843182Y-17519579D01*
X9843182Y-17519579D02*
X9843182Y-17567198D01*
X9843182Y-17567198D02*
X9852706Y-17586246D01*
X9852706Y-17586246D02*
X9862229Y-17595770D01*
X9862229Y-17595770D02*
X9881277Y-17605293D01*
X9881277Y-17605293D02*
X9919372Y-17605293D01*
X9919372Y-17605293D02*
X9938420Y-17595770D01*
X9938420Y-17595770D02*
X9947944Y-17586246D01*
X9947944Y-17586246D02*
X9957468Y-17567198D01*
X10024134Y-17481484D02*
X10157468Y-17481484D01*
X10157468Y-17481484D02*
X10071753Y-17681484D01*
X10224134Y-17481484D02*
X10224134Y-17519579D01*
X10300325Y-17481484D02*
X10300325Y-17519579D01*
X10595563Y-17757674D02*
X10586039Y-17748150D01*
X10586039Y-17748150D02*
X10566991Y-17719579D01*
X10566991Y-17719579D02*
X10557468Y-17700531D01*
X10557468Y-17700531D02*
X10547944Y-17671960D01*
X10547944Y-17671960D02*
X10538420Y-17624341D01*
X10538420Y-17624341D02*
X10538420Y-17586246D01*
X10538420Y-17586246D02*
X10547944Y-17538627D01*
X10547944Y-17538627D02*
X10557468Y-17510055D01*
X10557468Y-17510055D02*
X10566991Y-17491008D01*
X10566991Y-17491008D02*
X10586039Y-17462436D01*
X10586039Y-17462436D02*
X10595563Y-17452912D01*
X10709849Y-17481484D02*
X10728896Y-17481484D01*
X10728896Y-17481484D02*
X10747944Y-17491008D01*
X10747944Y-17491008D02*
X10757468Y-17500531D01*
X10757468Y-17500531D02*
X10766991Y-17519579D01*
X10766991Y-17519579D02*
X10776515Y-17557674D01*
X10776515Y-17557674D02*
X10776515Y-17605293D01*
X10776515Y-17605293D02*
X10766991Y-17643389D01*
X10766991Y-17643389D02*
X10757468Y-17662436D01*
X10757468Y-17662436D02*
X10747944Y-17671960D01*
X10747944Y-17671960D02*
X10728896Y-17681484D01*
X10728896Y-17681484D02*
X10709849Y-17681484D01*
X10709849Y-17681484D02*
X10690801Y-17671960D01*
X10690801Y-17671960D02*
X10681277Y-17662436D01*
X10681277Y-17662436D02*
X10671753Y-17643389D01*
X10671753Y-17643389D02*
X10662230Y-17605293D01*
X10662230Y-17605293D02*
X10662230Y-17557674D01*
X10662230Y-17557674D02*
X10671753Y-17519579D01*
X10671753Y-17519579D02*
X10681277Y-17500531D01*
X10681277Y-17500531D02*
X10690801Y-17491008D01*
X10690801Y-17491008D02*
X10709849Y-17481484D01*
X11014611Y-17681484D02*
X11014611Y-17481484D01*
X11100325Y-17681484D02*
X11100325Y-17576722D01*
X11100325Y-17576722D02*
X11090801Y-17557674D01*
X11090801Y-17557674D02*
X11071753Y-17548150D01*
X11071753Y-17548150D02*
X11043182Y-17548150D01*
X11043182Y-17548150D02*
X11024134Y-17557674D01*
X11024134Y-17557674D02*
X11014611Y-17567198D01*
X11224134Y-17681484D02*
X11205087Y-17671960D01*
X11205087Y-17671960D02*
X11195563Y-17662436D01*
X11195563Y-17662436D02*
X11186039Y-17643389D01*
X11186039Y-17643389D02*
X11186039Y-17586246D01*
X11186039Y-17586246D02*
X11195563Y-17567198D01*
X11195563Y-17567198D02*
X11205087Y-17557674D01*
X11205087Y-17557674D02*
X11224134Y-17548150D01*
X11224134Y-17548150D02*
X11252706Y-17548150D01*
X11252706Y-17548150D02*
X11271753Y-17557674D01*
X11271753Y-17557674D02*
X11281277Y-17567198D01*
X11281277Y-17567198D02*
X11290801Y-17586246D01*
X11290801Y-17586246D02*
X11290801Y-17643389D01*
X11290801Y-17643389D02*
X11281277Y-17662436D01*
X11281277Y-17662436D02*
X11271753Y-17671960D01*
X11271753Y-17671960D02*
X11252706Y-17681484D01*
X11252706Y-17681484D02*
X11224134Y-17681484D01*
X11405087Y-17681484D02*
X11386039Y-17671960D01*
X11386039Y-17671960D02*
X11376515Y-17652912D01*
X11376515Y-17652912D02*
X11376515Y-17481484D01*
X11557468Y-17671960D02*
X11538420Y-17681484D01*
X11538420Y-17681484D02*
X11500325Y-17681484D01*
X11500325Y-17681484D02*
X11481277Y-17671960D01*
X11481277Y-17671960D02*
X11471753Y-17652912D01*
X11471753Y-17652912D02*
X11471753Y-17576722D01*
X11471753Y-17576722D02*
X11481277Y-17557674D01*
X11481277Y-17557674D02*
X11500325Y-17548150D01*
X11500325Y-17548150D02*
X11538420Y-17548150D01*
X11538420Y-17548150D02*
X11557468Y-17557674D01*
X11557468Y-17557674D02*
X11566991Y-17576722D01*
X11566991Y-17576722D02*
X11566991Y-17595770D01*
X11566991Y-17595770D02*
X11471753Y-17614817D01*
X11643182Y-17671960D02*
X11662230Y-17681484D01*
X11662230Y-17681484D02*
X11700325Y-17681484D01*
X11700325Y-17681484D02*
X11719372Y-17671960D01*
X11719372Y-17671960D02*
X11728896Y-17652912D01*
X11728896Y-17652912D02*
X11728896Y-17643389D01*
X11728896Y-17643389D02*
X11719372Y-17624341D01*
X11719372Y-17624341D02*
X11700325Y-17614817D01*
X11700325Y-17614817D02*
X11671753Y-17614817D01*
X11671753Y-17614817D02*
X11652706Y-17605293D01*
X11652706Y-17605293D02*
X11643182Y-17586246D01*
X11643182Y-17586246D02*
X11643182Y-17576722D01*
X11643182Y-17576722D02*
X11652706Y-17557674D01*
X11652706Y-17557674D02*
X11671753Y-17548150D01*
X11671753Y-17548150D02*
X11700325Y-17548150D01*
X11700325Y-17548150D02*
X11719372Y-17557674D01*
X11966992Y-17605293D02*
X12119373Y-17605293D01*
X12043182Y-17681484D02*
X12043182Y-17529103D01*
X12347944Y-17481484D02*
X12471753Y-17481484D01*
X12471753Y-17481484D02*
X12405087Y-17557674D01*
X12405087Y-17557674D02*
X12433658Y-17557674D01*
X12433658Y-17557674D02*
X12452706Y-17567198D01*
X12452706Y-17567198D02*
X12462230Y-17576722D01*
X12462230Y-17576722D02*
X12471753Y-17595770D01*
X12471753Y-17595770D02*
X12471753Y-17643389D01*
X12471753Y-17643389D02*
X12462230Y-17662436D01*
X12462230Y-17662436D02*
X12452706Y-17671960D01*
X12452706Y-17671960D02*
X12433658Y-17681484D01*
X12433658Y-17681484D02*
X12376515Y-17681484D01*
X12376515Y-17681484D02*
X12357468Y-17671960D01*
X12357468Y-17671960D02*
X12347944Y-17662436D01*
X12700325Y-17671960D02*
X12719373Y-17681484D01*
X12719373Y-17681484D02*
X12757468Y-17681484D01*
X12757468Y-17681484D02*
X12776515Y-17671960D01*
X12776515Y-17671960D02*
X12786039Y-17652912D01*
X12786039Y-17652912D02*
X12786039Y-17643389D01*
X12786039Y-17643389D02*
X12776515Y-17624341D01*
X12776515Y-17624341D02*
X12757468Y-17614817D01*
X12757468Y-17614817D02*
X12728896Y-17614817D01*
X12728896Y-17614817D02*
X12709849Y-17605293D01*
X12709849Y-17605293D02*
X12700325Y-17586246D01*
X12700325Y-17586246D02*
X12700325Y-17576722D01*
X12700325Y-17576722D02*
X12709849Y-17557674D01*
X12709849Y-17557674D02*
X12728896Y-17548150D01*
X12728896Y-17548150D02*
X12757468Y-17548150D01*
X12757468Y-17548150D02*
X12776515Y-17557674D01*
X12900325Y-17681484D02*
X12881277Y-17671960D01*
X12881277Y-17671960D02*
X12871754Y-17652912D01*
X12871754Y-17652912D02*
X12871754Y-17481484D01*
X13005087Y-17681484D02*
X12986039Y-17671960D01*
X12986039Y-17671960D02*
X12976515Y-17662436D01*
X12976515Y-17662436D02*
X12966992Y-17643389D01*
X12966992Y-17643389D02*
X12966992Y-17586246D01*
X12966992Y-17586246D02*
X12976515Y-17567198D01*
X12976515Y-17567198D02*
X12986039Y-17557674D01*
X12986039Y-17557674D02*
X13005087Y-17548150D01*
X13005087Y-17548150D02*
X13033658Y-17548150D01*
X13033658Y-17548150D02*
X13052706Y-17557674D01*
X13052706Y-17557674D02*
X13062230Y-17567198D01*
X13062230Y-17567198D02*
X13071754Y-17586246D01*
X13071754Y-17586246D02*
X13071754Y-17643389D01*
X13071754Y-17643389D02*
X13062230Y-17662436D01*
X13062230Y-17662436D02*
X13052706Y-17671960D01*
X13052706Y-17671960D02*
X13033658Y-17681484D01*
X13033658Y-17681484D02*
X13005087Y-17681484D01*
X13128896Y-17548150D02*
X13205087Y-17548150D01*
X13157468Y-17481484D02*
X13157468Y-17652912D01*
X13157468Y-17652912D02*
X13166992Y-17671960D01*
X13166992Y-17671960D02*
X13186039Y-17681484D01*
X13186039Y-17681484D02*
X13205087Y-17681484D01*
X13262230Y-17671960D02*
X13281277Y-17681484D01*
X13281277Y-17681484D02*
X13319373Y-17681484D01*
X13319373Y-17681484D02*
X13338420Y-17671960D01*
X13338420Y-17671960D02*
X13347944Y-17652912D01*
X13347944Y-17652912D02*
X13347944Y-17643389D01*
X13347944Y-17643389D02*
X13338420Y-17624341D01*
X13338420Y-17624341D02*
X13319373Y-17614817D01*
X13319373Y-17614817D02*
X13290801Y-17614817D01*
X13290801Y-17614817D02*
X13271754Y-17605293D01*
X13271754Y-17605293D02*
X13262230Y-17586246D01*
X13262230Y-17586246D02*
X13262230Y-17576722D01*
X13262230Y-17576722D02*
X13271754Y-17557674D01*
X13271754Y-17557674D02*
X13290801Y-17548150D01*
X13290801Y-17548150D02*
X13319373Y-17548150D01*
X13319373Y-17548150D02*
X13338420Y-17557674D01*
X13414611Y-17757674D02*
X13424135Y-17748150D01*
X13424135Y-17748150D02*
X13443182Y-17719579D01*
X13443182Y-17719579D02*
X13452706Y-17700531D01*
X13452706Y-17700531D02*
X13462230Y-17671960D01*
X13462230Y-17671960D02*
X13471754Y-17624341D01*
X13471754Y-17624341D02*
X13471754Y-17586246D01*
X13471754Y-17586246D02*
X13462230Y-17538627D01*
X13462230Y-17538627D02*
X13452706Y-17510055D01*
X13452706Y-17510055D02*
X13443182Y-17491008D01*
X13443182Y-17491008D02*
X13424135Y-17462436D01*
X13424135Y-17462436D02*
X13414611Y-17452912D01*
D14*
X6980500Y-17814000D02*
X6980500Y-17894000D01*
X6940500Y-17854000D02*
X7020500Y-17854000D01*
D11*
X7319372Y-17745484D02*
X7338420Y-17745484D01*
X7338420Y-17745484D02*
X7357467Y-17755008D01*
X7357467Y-17755008D02*
X7366991Y-17764531D01*
X7366991Y-17764531D02*
X7376515Y-17783579D01*
X7376515Y-17783579D02*
X7386039Y-17821674D01*
X7386039Y-17821674D02*
X7386039Y-17869293D01*
X7386039Y-17869293D02*
X7376515Y-17907389D01*
X7376515Y-17907389D02*
X7366991Y-17926436D01*
X7366991Y-17926436D02*
X7357467Y-17935960D01*
X7357467Y-17935960D02*
X7338420Y-17945484D01*
X7338420Y-17945484D02*
X7319372Y-17945484D01*
X7319372Y-17945484D02*
X7300324Y-17935960D01*
X7300324Y-17935960D02*
X7290801Y-17926436D01*
X7290801Y-17926436D02*
X7281277Y-17907389D01*
X7281277Y-17907389D02*
X7271753Y-17869293D01*
X7271753Y-17869293D02*
X7271753Y-17821674D01*
X7271753Y-17821674D02*
X7281277Y-17783579D01*
X7281277Y-17783579D02*
X7290801Y-17764531D01*
X7290801Y-17764531D02*
X7300324Y-17755008D01*
X7300324Y-17755008D02*
X7319372Y-17745484D01*
X7471753Y-17926436D02*
X7481277Y-17935960D01*
X7481277Y-17935960D02*
X7471753Y-17945484D01*
X7471753Y-17945484D02*
X7462229Y-17935960D01*
X7462229Y-17935960D02*
X7471753Y-17926436D01*
X7471753Y-17926436D02*
X7471753Y-17945484D01*
X7595562Y-17831198D02*
X7576515Y-17821674D01*
X7576515Y-17821674D02*
X7566991Y-17812150D01*
X7566991Y-17812150D02*
X7557467Y-17793103D01*
X7557467Y-17793103D02*
X7557467Y-17783579D01*
X7557467Y-17783579D02*
X7566991Y-17764531D01*
X7566991Y-17764531D02*
X7576515Y-17755008D01*
X7576515Y-17755008D02*
X7595562Y-17745484D01*
X7595562Y-17745484D02*
X7633658Y-17745484D01*
X7633658Y-17745484D02*
X7652705Y-17755008D01*
X7652705Y-17755008D02*
X7662229Y-17764531D01*
X7662229Y-17764531D02*
X7671753Y-17783579D01*
X7671753Y-17783579D02*
X7671753Y-17793103D01*
X7671753Y-17793103D02*
X7662229Y-17812150D01*
X7662229Y-17812150D02*
X7652705Y-17821674D01*
X7652705Y-17821674D02*
X7633658Y-17831198D01*
X7633658Y-17831198D02*
X7595562Y-17831198D01*
X7595562Y-17831198D02*
X7576515Y-17840722D01*
X7576515Y-17840722D02*
X7566991Y-17850246D01*
X7566991Y-17850246D02*
X7557467Y-17869293D01*
X7557467Y-17869293D02*
X7557467Y-17907389D01*
X7557467Y-17907389D02*
X7566991Y-17926436D01*
X7566991Y-17926436D02*
X7576515Y-17935960D01*
X7576515Y-17935960D02*
X7595562Y-17945484D01*
X7595562Y-17945484D02*
X7633658Y-17945484D01*
X7633658Y-17945484D02*
X7652705Y-17935960D01*
X7652705Y-17935960D02*
X7662229Y-17926436D01*
X7662229Y-17926436D02*
X7671753Y-17907389D01*
X7671753Y-17907389D02*
X7671753Y-17869293D01*
X7671753Y-17869293D02*
X7662229Y-17850246D01*
X7662229Y-17850246D02*
X7652705Y-17840722D01*
X7652705Y-17840722D02*
X7633658Y-17831198D01*
X7795562Y-17745484D02*
X7814610Y-17745484D01*
X7814610Y-17745484D02*
X7833658Y-17755008D01*
X7833658Y-17755008D02*
X7843182Y-17764531D01*
X7843182Y-17764531D02*
X7852705Y-17783579D01*
X7852705Y-17783579D02*
X7862229Y-17821674D01*
X7862229Y-17821674D02*
X7862229Y-17869293D01*
X7862229Y-17869293D02*
X7852705Y-17907389D01*
X7852705Y-17907389D02*
X7843182Y-17926436D01*
X7843182Y-17926436D02*
X7833658Y-17935960D01*
X7833658Y-17935960D02*
X7814610Y-17945484D01*
X7814610Y-17945484D02*
X7795562Y-17945484D01*
X7795562Y-17945484D02*
X7776515Y-17935960D01*
X7776515Y-17935960D02*
X7766991Y-17926436D01*
X7766991Y-17926436D02*
X7757467Y-17907389D01*
X7757467Y-17907389D02*
X7747943Y-17869293D01*
X7747943Y-17869293D02*
X7747943Y-17821674D01*
X7747943Y-17821674D02*
X7757467Y-17783579D01*
X7757467Y-17783579D02*
X7766991Y-17764531D01*
X7766991Y-17764531D02*
X7776515Y-17755008D01*
X7776515Y-17755008D02*
X7795562Y-17745484D01*
X7986039Y-17745484D02*
X8005086Y-17745484D01*
X8005086Y-17745484D02*
X8024134Y-17755008D01*
X8024134Y-17755008D02*
X8033658Y-17764531D01*
X8033658Y-17764531D02*
X8043182Y-17783579D01*
X8043182Y-17783579D02*
X8052705Y-17821674D01*
X8052705Y-17821674D02*
X8052705Y-17869293D01*
X8052705Y-17869293D02*
X8043182Y-17907389D01*
X8043182Y-17907389D02*
X8033658Y-17926436D01*
X8033658Y-17926436D02*
X8024134Y-17935960D01*
X8024134Y-17935960D02*
X8005086Y-17945484D01*
X8005086Y-17945484D02*
X7986039Y-17945484D01*
X7986039Y-17945484D02*
X7966991Y-17935960D01*
X7966991Y-17935960D02*
X7957467Y-17926436D01*
X7957467Y-17926436D02*
X7947943Y-17907389D01*
X7947943Y-17907389D02*
X7938420Y-17869293D01*
X7938420Y-17869293D02*
X7938420Y-17821674D01*
X7938420Y-17821674D02*
X7947943Y-17783579D01*
X7947943Y-17783579D02*
X7957467Y-17764531D01*
X7957467Y-17764531D02*
X7966991Y-17755008D01*
X7966991Y-17755008D02*
X7986039Y-17745484D01*
X8138420Y-17945484D02*
X8138420Y-17812150D01*
X8138420Y-17831198D02*
X8147943Y-17821674D01*
X8147943Y-17821674D02*
X8166991Y-17812150D01*
X8166991Y-17812150D02*
X8195563Y-17812150D01*
X8195563Y-17812150D02*
X8214610Y-17821674D01*
X8214610Y-17821674D02*
X8224134Y-17840722D01*
X8224134Y-17840722D02*
X8224134Y-17945484D01*
X8224134Y-17840722D02*
X8233658Y-17821674D01*
X8233658Y-17821674D02*
X8252705Y-17812150D01*
X8252705Y-17812150D02*
X8281277Y-17812150D01*
X8281277Y-17812150D02*
X8300324Y-17821674D01*
X8300324Y-17821674D02*
X8309848Y-17840722D01*
X8309848Y-17840722D02*
X8309848Y-17945484D01*
X8405086Y-17945484D02*
X8405086Y-17812150D01*
X8405086Y-17831198D02*
X8414610Y-17821674D01*
X8414610Y-17821674D02*
X8433658Y-17812150D01*
X8433658Y-17812150D02*
X8462229Y-17812150D01*
X8462229Y-17812150D02*
X8481277Y-17821674D01*
X8481277Y-17821674D02*
X8490801Y-17840722D01*
X8490801Y-17840722D02*
X8490801Y-17945484D01*
X8490801Y-17840722D02*
X8500325Y-17821674D01*
X8500325Y-17821674D02*
X8519372Y-17812150D01*
X8519372Y-17812150D02*
X8547944Y-17812150D01*
X8547944Y-17812150D02*
X8566991Y-17821674D01*
X8566991Y-17821674D02*
X8576515Y-17840722D01*
X8576515Y-17840722D02*
X8576515Y-17945484D01*
X8966991Y-17735960D02*
X8795563Y-17993103D01*
X9224134Y-17745484D02*
X9243182Y-17745484D01*
X9243182Y-17745484D02*
X9262229Y-17755008D01*
X9262229Y-17755008D02*
X9271753Y-17764531D01*
X9271753Y-17764531D02*
X9281277Y-17783579D01*
X9281277Y-17783579D02*
X9290801Y-17821674D01*
X9290801Y-17821674D02*
X9290801Y-17869293D01*
X9290801Y-17869293D02*
X9281277Y-17907389D01*
X9281277Y-17907389D02*
X9271753Y-17926436D01*
X9271753Y-17926436D02*
X9262229Y-17935960D01*
X9262229Y-17935960D02*
X9243182Y-17945484D01*
X9243182Y-17945484D02*
X9224134Y-17945484D01*
X9224134Y-17945484D02*
X9205087Y-17935960D01*
X9205087Y-17935960D02*
X9195563Y-17926436D01*
X9195563Y-17926436D02*
X9186039Y-17907389D01*
X9186039Y-17907389D02*
X9176515Y-17869293D01*
X9176515Y-17869293D02*
X9176515Y-17821674D01*
X9176515Y-17821674D02*
X9186039Y-17783579D01*
X9186039Y-17783579D02*
X9195563Y-17764531D01*
X9195563Y-17764531D02*
X9205087Y-17755008D01*
X9205087Y-17755008D02*
X9224134Y-17745484D01*
X9376515Y-17926436D02*
X9386039Y-17935960D01*
X9386039Y-17935960D02*
X9376515Y-17945484D01*
X9376515Y-17945484D02*
X9366991Y-17935960D01*
X9366991Y-17935960D02*
X9376515Y-17926436D01*
X9376515Y-17926436D02*
X9376515Y-17945484D01*
X9509848Y-17745484D02*
X9528896Y-17745484D01*
X9528896Y-17745484D02*
X9547944Y-17755008D01*
X9547944Y-17755008D02*
X9557468Y-17764531D01*
X9557468Y-17764531D02*
X9566991Y-17783579D01*
X9566991Y-17783579D02*
X9576515Y-17821674D01*
X9576515Y-17821674D02*
X9576515Y-17869293D01*
X9576515Y-17869293D02*
X9566991Y-17907389D01*
X9566991Y-17907389D02*
X9557468Y-17926436D01*
X9557468Y-17926436D02*
X9547944Y-17935960D01*
X9547944Y-17935960D02*
X9528896Y-17945484D01*
X9528896Y-17945484D02*
X9509848Y-17945484D01*
X9509848Y-17945484D02*
X9490801Y-17935960D01*
X9490801Y-17935960D02*
X9481277Y-17926436D01*
X9481277Y-17926436D02*
X9471753Y-17907389D01*
X9471753Y-17907389D02*
X9462229Y-17869293D01*
X9462229Y-17869293D02*
X9462229Y-17821674D01*
X9462229Y-17821674D02*
X9471753Y-17783579D01*
X9471753Y-17783579D02*
X9481277Y-17764531D01*
X9481277Y-17764531D02*
X9490801Y-17755008D01*
X9490801Y-17755008D02*
X9509848Y-17745484D01*
X9643182Y-17745484D02*
X9766991Y-17745484D01*
X9766991Y-17745484D02*
X9700325Y-17821674D01*
X9700325Y-17821674D02*
X9728896Y-17821674D01*
X9728896Y-17821674D02*
X9747944Y-17831198D01*
X9747944Y-17831198D02*
X9757468Y-17840722D01*
X9757468Y-17840722D02*
X9766991Y-17859770D01*
X9766991Y-17859770D02*
X9766991Y-17907389D01*
X9766991Y-17907389D02*
X9757468Y-17926436D01*
X9757468Y-17926436D02*
X9747944Y-17935960D01*
X9747944Y-17935960D02*
X9728896Y-17945484D01*
X9728896Y-17945484D02*
X9671753Y-17945484D01*
X9671753Y-17945484D02*
X9652706Y-17935960D01*
X9652706Y-17935960D02*
X9643182Y-17926436D01*
X9957468Y-17945484D02*
X9843182Y-17945484D01*
X9900325Y-17945484D02*
X9900325Y-17745484D01*
X9900325Y-17745484D02*
X9881277Y-17774055D01*
X9881277Y-17774055D02*
X9862229Y-17793103D01*
X9862229Y-17793103D02*
X9843182Y-17802627D01*
X10138420Y-17745484D02*
X10043182Y-17745484D01*
X10043182Y-17745484D02*
X10033658Y-17840722D01*
X10033658Y-17840722D02*
X10043182Y-17831198D01*
X10043182Y-17831198D02*
X10062229Y-17821674D01*
X10062229Y-17821674D02*
X10109849Y-17821674D01*
X10109849Y-17821674D02*
X10128896Y-17831198D01*
X10128896Y-17831198D02*
X10138420Y-17840722D01*
X10138420Y-17840722D02*
X10147944Y-17859770D01*
X10147944Y-17859770D02*
X10147944Y-17907389D01*
X10147944Y-17907389D02*
X10138420Y-17926436D01*
X10138420Y-17926436D02*
X10128896Y-17935960D01*
X10128896Y-17935960D02*
X10109849Y-17945484D01*
X10109849Y-17945484D02*
X10062229Y-17945484D01*
X10062229Y-17945484D02*
X10043182Y-17935960D01*
X10043182Y-17935960D02*
X10033658Y-17926436D01*
X10224134Y-17745484D02*
X10224134Y-17783579D01*
X10300325Y-17745484D02*
X10300325Y-17783579D01*
X10595563Y-18021674D02*
X10586039Y-18012150D01*
X10586039Y-18012150D02*
X10566991Y-17983579D01*
X10566991Y-17983579D02*
X10557468Y-17964531D01*
X10557468Y-17964531D02*
X10547944Y-17935960D01*
X10547944Y-17935960D02*
X10538420Y-17888341D01*
X10538420Y-17888341D02*
X10538420Y-17850246D01*
X10538420Y-17850246D02*
X10547944Y-17802627D01*
X10547944Y-17802627D02*
X10557468Y-17774055D01*
X10557468Y-17774055D02*
X10566991Y-17755008D01*
X10566991Y-17755008D02*
X10586039Y-17726436D01*
X10586039Y-17726436D02*
X10595563Y-17716912D01*
X10776515Y-17945484D02*
X10662230Y-17945484D01*
X10719372Y-17945484D02*
X10719372Y-17745484D01*
X10719372Y-17745484D02*
X10700325Y-17774055D01*
X10700325Y-17774055D02*
X10681277Y-17793103D01*
X10681277Y-17793103D02*
X10662230Y-17802627D01*
X10852706Y-17764531D02*
X10862230Y-17755008D01*
X10862230Y-17755008D02*
X10881277Y-17745484D01*
X10881277Y-17745484D02*
X10928896Y-17745484D01*
X10928896Y-17745484D02*
X10947944Y-17755008D01*
X10947944Y-17755008D02*
X10957468Y-17764531D01*
X10957468Y-17764531D02*
X10966991Y-17783579D01*
X10966991Y-17783579D02*
X10966991Y-17802627D01*
X10966991Y-17802627D02*
X10957468Y-17831198D01*
X10957468Y-17831198D02*
X10843182Y-17945484D01*
X10843182Y-17945484D02*
X10966991Y-17945484D01*
X11205087Y-17945484D02*
X11205087Y-17745484D01*
X11290801Y-17945484D02*
X11290801Y-17840722D01*
X11290801Y-17840722D02*
X11281277Y-17821674D01*
X11281277Y-17821674D02*
X11262230Y-17812150D01*
X11262230Y-17812150D02*
X11233658Y-17812150D01*
X11233658Y-17812150D02*
X11214610Y-17821674D01*
X11214610Y-17821674D02*
X11205087Y-17831198D01*
X11414610Y-17945484D02*
X11395563Y-17935960D01*
X11395563Y-17935960D02*
X11386039Y-17926436D01*
X11386039Y-17926436D02*
X11376515Y-17907389D01*
X11376515Y-17907389D02*
X11376515Y-17850246D01*
X11376515Y-17850246D02*
X11386039Y-17831198D01*
X11386039Y-17831198D02*
X11395563Y-17821674D01*
X11395563Y-17821674D02*
X11414610Y-17812150D01*
X11414610Y-17812150D02*
X11443182Y-17812150D01*
X11443182Y-17812150D02*
X11462230Y-17821674D01*
X11462230Y-17821674D02*
X11471753Y-17831198D01*
X11471753Y-17831198D02*
X11481277Y-17850246D01*
X11481277Y-17850246D02*
X11481277Y-17907389D01*
X11481277Y-17907389D02*
X11471753Y-17926436D01*
X11471753Y-17926436D02*
X11462230Y-17935960D01*
X11462230Y-17935960D02*
X11443182Y-17945484D01*
X11443182Y-17945484D02*
X11414610Y-17945484D01*
X11595563Y-17945484D02*
X11576515Y-17935960D01*
X11576515Y-17935960D02*
X11566991Y-17916912D01*
X11566991Y-17916912D02*
X11566991Y-17745484D01*
X11747944Y-17935960D02*
X11728896Y-17945484D01*
X11728896Y-17945484D02*
X11690801Y-17945484D01*
X11690801Y-17945484D02*
X11671753Y-17935960D01*
X11671753Y-17935960D02*
X11662230Y-17916912D01*
X11662230Y-17916912D02*
X11662230Y-17840722D01*
X11662230Y-17840722D02*
X11671753Y-17821674D01*
X11671753Y-17821674D02*
X11690801Y-17812150D01*
X11690801Y-17812150D02*
X11728896Y-17812150D01*
X11728896Y-17812150D02*
X11747944Y-17821674D01*
X11747944Y-17821674D02*
X11757468Y-17840722D01*
X11757468Y-17840722D02*
X11757468Y-17859770D01*
X11757468Y-17859770D02*
X11662230Y-17878817D01*
X11833658Y-17935960D02*
X11852706Y-17945484D01*
X11852706Y-17945484D02*
X11890801Y-17945484D01*
X11890801Y-17945484D02*
X11909849Y-17935960D01*
X11909849Y-17935960D02*
X11919372Y-17916912D01*
X11919372Y-17916912D02*
X11919372Y-17907389D01*
X11919372Y-17907389D02*
X11909849Y-17888341D01*
X11909849Y-17888341D02*
X11890801Y-17878817D01*
X11890801Y-17878817D02*
X11862230Y-17878817D01*
X11862230Y-17878817D02*
X11843182Y-17869293D01*
X11843182Y-17869293D02*
X11833658Y-17850246D01*
X11833658Y-17850246D02*
X11833658Y-17840722D01*
X11833658Y-17840722D02*
X11843182Y-17821674D01*
X11843182Y-17821674D02*
X11862230Y-17812150D01*
X11862230Y-17812150D02*
X11890801Y-17812150D01*
X11890801Y-17812150D02*
X11909849Y-17821674D01*
X11986039Y-18021674D02*
X11995563Y-18012150D01*
X11995563Y-18012150D02*
X12014611Y-17983579D01*
X12014611Y-17983579D02*
X12024134Y-17964531D01*
X12024134Y-17964531D02*
X12033658Y-17935960D01*
X12033658Y-17935960D02*
X12043182Y-17888341D01*
X12043182Y-17888341D02*
X12043182Y-17850246D01*
X12043182Y-17850246D02*
X12033658Y-17802627D01*
X12033658Y-17802627D02*
X12024134Y-17774055D01*
X12024134Y-17774055D02*
X12014611Y-17755008D01*
X12014611Y-17755008D02*
X11995563Y-17726436D01*
X11995563Y-17726436D02*
X11986039Y-17716912D01*
M02*
