%TF.GenerationSoftware,KiCad,Pcbnew,7.0.3*%
%TF.CreationDate,2023-06-15T19:17:24+02:00*%
%TF.ProjectId,osc_v2,6f73635f-7632-42e6-9b69-6361645f7063,rev?*%
%TF.SameCoordinates,PX4300198PY9aaf9c0*%
%TF.FileFunction,Copper,L2,Bot*%
%TF.FilePolarity,Positive*%
%FSLAX46Y46*%
G04 Gerber Fmt 4.6, Leading zero omitted, Abs format (unit mm)*
G04 Created by KiCad (PCBNEW 7.0.3) date 2023-06-15 19:17:24*
%MOMM*%
%LPD*%
G01*
G04 APERTURE LIST*
G04 Aperture macros list*
%AMRoundRect*
0 Rectangle with rounded corners*
0 $1 Rounding radius*
0 $2 $3 $4 $5 $6 $7 $8 $9 X,Y pos of 4 corners*
0 Add a 4 corners polygon primitive as box body*
4,1,4,$2,$3,$4,$5,$6,$7,$8,$9,$2,$3,0*
0 Add four circle primitives for the rounded corners*
1,1,$1+$1,$2,$3*
1,1,$1+$1,$4,$5*
1,1,$1+$1,$6,$7*
1,1,$1+$1,$8,$9*
0 Add four rect primitives between the rounded corners*
20,1,$1+$1,$2,$3,$4,$5,0*
20,1,$1+$1,$4,$5,$6,$7,0*
20,1,$1+$1,$6,$7,$8,$9,0*
20,1,$1+$1,$8,$9,$2,$3,0*%
G04 Aperture macros list end*
%TA.AperFunction,ComponentPad*%
%ADD10R,1.350000X1.350000*%
%TD*%
%TA.AperFunction,ComponentPad*%
%ADD11O,1.350000X1.350000*%
%TD*%
%TA.AperFunction,ComponentPad*%
%ADD12O,2.016000X1.008000*%
%TD*%
%TA.AperFunction,SMDPad,CuDef*%
%ADD13R,0.600000X0.600000*%
%TD*%
%TA.AperFunction,SMDPad,CuDef*%
%ADD14RoundRect,0.250000X0.337500X0.475000X-0.337500X0.475000X-0.337500X-0.475000X0.337500X-0.475000X0*%
%TD*%
%TA.AperFunction,SMDPad,CuDef*%
%ADD15RoundRect,0.250000X-0.337500X-0.475000X0.337500X-0.475000X0.337500X0.475000X-0.337500X0.475000X0*%
%TD*%
%TA.AperFunction,SMDPad,CuDef*%
%ADD16R,1.000000X1.075000*%
%TD*%
%TA.AperFunction,SMDPad,CuDef*%
%ADD17RoundRect,0.250000X-0.475000X0.337500X-0.475000X-0.337500X0.475000X-0.337500X0.475000X0.337500X0*%
%TD*%
%TA.AperFunction,ViaPad*%
%ADD18C,0.800000*%
%TD*%
%TA.AperFunction,Conductor*%
%ADD19C,0.508000*%
%TD*%
%TA.AperFunction,Conductor*%
%ADD20C,0.330200*%
%TD*%
%TA.AperFunction,Conductor*%
%ADD21C,0.177800*%
%TD*%
%TA.AperFunction,Conductor*%
%ADD22C,0.254000*%
%TD*%
G04 APERTURE END LIST*
D10*
%TO.P,J2,1,Pin_1*%
%TO.N,GND*%
X73480000Y3240000D03*
D11*
%TO.P,J2,2,Pin_2*%
X73480000Y5240000D03*
%TO.P,J2,3,Pin_3*%
X73480000Y7240000D03*
%TO.P,J2,4,Pin_4*%
%TO.N,+5V*%
X73480000Y9240000D03*
%TO.P,J2,5,Pin_5*%
%TO.N,LA0_I*%
X73480000Y11240000D03*
%TO.P,J2,6,Pin_6*%
%TO.N,LA1_I*%
X73480000Y13240000D03*
%TO.P,J2,7,Pin_7*%
%TO.N,LA2_I*%
X73480000Y15240000D03*
%TO.P,J2,8,Pin_8*%
%TO.N,LA3_I*%
X73480000Y17240000D03*
%TO.P,J2,9,Pin_9*%
%TO.N,LA4_I*%
X73480000Y19240000D03*
%TO.P,J2,10,Pin_10*%
%TO.N,LA5_I*%
X73480000Y21240000D03*
%TO.P,J2,11,Pin_11*%
%TO.N,LA6_I*%
X73480000Y23240000D03*
%TO.P,J2,12,Pin_12*%
%TO.N,LA7_I*%
X73480000Y25240000D03*
%TD*%
D12*
%TO.P,J3,1*%
%TO.N,CH2_RAW*%
X76790000Y45690000D03*
%TO.P,J3,3*%
%TO.N,GND*%
X73590000Y38090000D03*
%TO.P,J3,5*%
%TO.N,CH2_RAW*%
X76790000Y38090000D03*
%TD*%
D13*
%TO.P,C12,1,1*%
%TO.N,GND*%
X22054838Y18933162D03*
%TO.P,C12,2,2*%
%TO.N,1.2V*%
X22054838Y17917162D03*
%TD*%
D14*
%TO.P,C25,1*%
%TO.N,GND*%
X48907500Y46890000D03*
%TO.P,C25,2*%
%TO.N,+5V*%
X46832500Y46890000D03*
%TD*%
D13*
%TO.P,C13,1,1*%
%TO.N,GND*%
X24408000Y9800000D03*
%TO.P,C13,2,2*%
%TO.N,1.2V*%
X23392000Y9800000D03*
%TD*%
D15*
%TO.P,C7,1*%
%TO.N,GND*%
X60992500Y46630000D03*
%TO.P,C7,2*%
%TO.N,-5V*%
X63067500Y46630000D03*
%TD*%
%TO.P,C24,1*%
%TO.N,GND*%
X36995000Y43950000D03*
%TO.P,C24,2*%
%TO.N,-5V*%
X39070000Y43950000D03*
%TD*%
D13*
%TO.P,C21,1,1*%
%TO.N,+3V3*%
X19008000Y9600000D03*
%TO.P,C21,2,2*%
%TO.N,GND*%
X17992000Y9600000D03*
%TD*%
%TO.P,C19,1,1*%
%TO.N,+3V3*%
X18500000Y17909162D03*
%TO.P,C19,2,2*%
%TO.N,GND*%
X18500000Y18925162D03*
%TD*%
D16*
%TO.P,C14,1,1*%
%TO.N,+3V3*%
X16254838Y17225162D03*
%TO.P,C14,2,2*%
%TO.N,GND*%
X16254838Y18925162D03*
%TD*%
D15*
%TO.P,C6,1*%
%TO.N,+5V*%
X58092500Y42880000D03*
%TO.P,C6,2*%
%TO.N,GND*%
X60167500Y42880000D03*
%TD*%
D17*
%TO.P,C8,1*%
%TO.N,GND*%
X50580000Y33387500D03*
%TO.P,C8,2*%
%TO.N,+5V*%
X50580000Y31312500D03*
%TD*%
D15*
%TO.P,C23,1*%
%TO.N,+5V*%
X34145000Y40100000D03*
%TO.P,C23,2*%
%TO.N,GND*%
X36220000Y40100000D03*
%TD*%
%TO.P,C4,1*%
%TO.N,+5V*%
X56687500Y33525000D03*
%TO.P,C4,2*%
%TO.N,GND*%
X58762500Y33525000D03*
%TD*%
%TO.P,C5,1*%
%TO.N,GND*%
X59437500Y37325000D03*
%TO.P,C5,2*%
%TO.N,-5V*%
X61512500Y37325000D03*
%TD*%
D18*
%TO.N,+3V3*%
X20000000Y19300000D03*
%TO.N,GND*%
X18100000Y8700000D03*
X65200000Y31900000D03*
X22900000Y19800000D03*
X41300000Y33300000D03*
X48600000Y35200000D03*
X72500000Y46200000D03*
X77300000Y33300000D03*
X57100000Y4000000D03*
X2000000Y39400000D03*
X3100000Y29900000D03*
X2700000Y8000000D03*
X2500000Y17200000D03*
X63000000Y4000000D03*
X68900000Y4000000D03*
X68900000Y7500000D03*
X77600000Y5400000D03*
X77400000Y15200000D03*
X77200000Y24400000D03*
X9800000Y49900000D03*
X17700000Y39800000D03*
X36500000Y31800000D03*
X30600000Y31800000D03*
X36900000Y25400000D03*
X30300000Y25300000D03*
X30200000Y19000000D03*
X30200000Y11800000D03*
X37300000Y11900000D03*
X37100000Y18500000D03*
X53400000Y18600000D03*
X45000000Y11900000D03*
X44900000Y18500000D03*
X44700000Y25000000D03*
X53100000Y25100000D03*
%TO.N,LA0*%
X11900000Y15700000D03*
%TO.N,LA1*%
X12708900Y14900000D03*
%TO.N,LA2*%
X13278537Y12787184D03*
%TO.N,LA3*%
X14200000Y12400000D03*
%TO.N,LA4*%
X14300000Y11400000D03*
%TO.N,LA5*%
X15100000Y10400000D03*
%TO.N,LA6*%
X16086643Y9605937D03*
%TO.N,LA7*%
X17000000Y9200000D03*
%TO.N,LA0*%
X66500000Y10600000D03*
%TO.N,LA1*%
X66500000Y12600000D03*
%TO.N,LA2*%
X66500000Y14800000D03*
%TO.N,LA3*%
X66500000Y16800000D03*
%TO.N,LA4*%
X66400000Y19100000D03*
%TO.N,LA5*%
X66200000Y21200000D03*
%TO.N,LA6*%
X66000000Y23300000D03*
%TO.N,LA7*%
X66000000Y25200000D03*
%TO.N,/RP2040/D-*%
X6900000Y29100000D03*
%TO.N,/RP2040/D+*%
X6900000Y27900000D03*
X21086773Y20313227D03*
%TO.N,/RP2040/D-*%
X21806754Y21006503D03*
%TO.N,-5V*%
X61600000Y38800000D03*
X40870000Y44950000D03*
X63090000Y48260000D03*
%TO.N,GND*%
X59600000Y35700000D03*
X13400000Y34100000D03*
X15000000Y45100000D03*
X30800000Y39200000D03*
X11600000Y19600000D03*
X48200000Y41500000D03*
X17000000Y51900000D03*
X23600000Y38000000D03*
X28700000Y45000000D03*
X25000000Y31700000D03*
X43800000Y45700000D03*
X55800000Y40800000D03*
X68800000Y52900000D03*
X16700000Y3800000D03*
X17800000Y20200000D03*
X3200000Y52000000D03*
X8800000Y6600000D03*
X20800000Y45000000D03*
X14100000Y31400000D03*
X39200000Y53900000D03*
X63400000Y34500000D03*
X37600000Y39200000D03*
X39800000Y47900000D03*
%TO.N,+5V*%
X58120000Y41320000D03*
X44219069Y48403500D03*
X53010000Y48366500D03*
X52920000Y30100000D03*
X32700000Y49840000D03*
X54900000Y33610000D03*
X34170000Y38360000D03*
X48510000Y30090000D03*
%TO.N,1.2V*%
X21053500Y16787900D03*
X21200000Y9800000D03*
%TO.N,+3V3*%
X23696484Y18796484D03*
X14900000Y17100000D03*
X20034761Y9606394D03*
X20100000Y25600000D03*
%TO.N,CH1_RANGE0*%
X18552560Y16890444D03*
X25000000Y29000000D03*
%TO.N,CH1_RANGE1*%
X25735400Y27828762D03*
X14700000Y15500000D03*
%TO.N,CH2_RANGE0*%
X17400000Y15100000D03*
X46900000Y52200000D03*
%TO.N,CH2_RANGE1*%
X17400000Y14100000D03*
X51300000Y51400000D03*
%TO.N,CH1_RANGE2*%
X17300000Y12200000D03*
X63400000Y28600000D03*
%TO.N,CH2_RANGE2*%
X18300000Y12200000D03*
X63000000Y50600000D03*
%TD*%
D19*
%TO.N,+3V3*%
X20016908Y18416908D02*
X20016908Y19283092D01*
X20016908Y19283092D02*
X20000000Y19300000D01*
D20*
%TO.N,LA7*%
X66000000Y25200000D02*
X48600000Y7800000D01*
X48600000Y7800000D02*
X17700000Y7800000D01*
X17700000Y7800000D02*
X17000000Y8500000D01*
X17000000Y8500000D02*
X17000000Y9200000D01*
%TO.N,LA6*%
X66000000Y23300000D02*
X65400000Y23300000D01*
X65400000Y23300000D02*
X49100000Y7000000D01*
X49100000Y7000000D02*
X17599264Y7000000D01*
X17599264Y7000000D02*
X16086643Y8512621D01*
X16086643Y8512621D02*
X16086643Y9605937D01*
%TO.N,LA5*%
X66200000Y21200000D02*
X64700000Y21200000D01*
X64700000Y21200000D02*
X49500000Y6000000D01*
X49500000Y6000000D02*
X17849448Y6000000D01*
X15100000Y8749448D02*
X15100000Y10400000D01*
X17849448Y6000000D02*
X15100000Y8749448D01*
%TO.N,LA4*%
X66400000Y19100000D02*
X64100000Y19100000D01*
X64100000Y19100000D02*
X50000000Y5000000D01*
X14300000Y8799632D02*
X14300000Y11400000D01*
X50000000Y5000000D02*
X18099632Y5000000D01*
X18099632Y5000000D02*
X14300000Y8799632D01*
%TO.N,LA3*%
X66500000Y16800000D02*
X63100000Y16800000D01*
X63100000Y16800000D02*
X50300000Y4000000D01*
X50300000Y4000000D02*
X18349816Y4000000D01*
X18349816Y4000000D02*
X13534900Y8814916D01*
X13534900Y8814916D02*
X13534900Y11734900D01*
X13534900Y11734900D02*
X14200000Y12400000D01*
%TO.N,LA2*%
X66500000Y14800000D02*
X62500000Y14800000D01*
X62500000Y14800000D02*
X50700000Y3000000D01*
X13004700Y8595300D02*
X13004700Y12513347D01*
X50700000Y3000000D02*
X18600000Y3000000D01*
X18600000Y3000000D02*
X13004700Y8595300D01*
X13004700Y12513347D02*
X13278537Y12787184D01*
%TO.N,CH1_RANGE2*%
X63400000Y28600000D02*
X42700000Y28600000D01*
X42700000Y28600000D02*
X25400000Y11300000D01*
X25400000Y11300000D02*
X18000000Y11300000D01*
X18000000Y11300000D02*
X17300000Y12000000D01*
X17300000Y12000000D02*
X17300000Y12171866D01*
D19*
%TO.N,+3V3*%
X14900000Y17100000D02*
X13846000Y16046000D01*
X17600000Y10400000D02*
X19241155Y10400000D01*
X13846000Y16046000D02*
X13846000Y15146261D01*
X13846000Y15146261D02*
X16200000Y12792261D01*
X16200000Y12792261D02*
X16200000Y11800000D01*
X16200000Y11800000D02*
X17600000Y10400000D01*
X19241155Y10400000D02*
X20034761Y9606394D01*
D21*
%TO.N,/RP2040/D-*%
X21806754Y21006503D02*
X21367749Y21006503D01*
X21367749Y21006503D02*
X13596452Y28777800D01*
X13596452Y28777800D02*
X7222200Y28777800D01*
X7222200Y28777800D02*
X6900000Y29100000D01*
D20*
%TO.N,LA1*%
X12708900Y14900000D02*
X12474500Y14665600D01*
X17417985Y2000000D02*
X51000000Y2000000D01*
X12474500Y14665600D02*
X12474500Y6943485D01*
X61600000Y12600000D02*
X66500000Y12600000D01*
X12474500Y6943485D02*
X17417985Y2000000D01*
X51000000Y2000000D02*
X61600000Y12600000D01*
%TO.N,LA0*%
X51400000Y1000000D02*
X61000000Y10600000D01*
X11900000Y15700000D02*
X11944300Y15655700D01*
X17400000Y1000000D02*
X51400000Y1000000D01*
X11944300Y15655700D02*
X11944300Y6455700D01*
X11944300Y6455700D02*
X17400000Y1000000D01*
X61000000Y10600000D02*
X66500000Y10600000D01*
D19*
%TO.N,+3V3*%
X20100000Y25600000D02*
X23900000Y21800000D01*
X23900000Y21800000D02*
X23900000Y19000000D01*
X23900000Y19000000D02*
X23696484Y18796484D01*
D21*
%TO.N,/RP2040/D+*%
X6900000Y27900000D02*
X7400000Y28400000D01*
X21086773Y20753189D02*
X21086773Y20313227D01*
X7400000Y28400000D02*
X13439962Y28400000D01*
X13439962Y28400000D02*
X21086773Y20753189D01*
D19*
%TO.N,-5V*%
X39070000Y43950000D02*
X39870000Y43950000D01*
X61600000Y37412500D02*
X61512500Y37325000D01*
X63090000Y46652500D02*
X63067500Y46630000D01*
X63090000Y40290000D02*
X61600000Y38800000D01*
X63090000Y48260000D02*
X63090000Y46652500D01*
X47020000Y38800000D02*
X61600000Y38800000D01*
X40870000Y44950000D02*
X47020000Y38800000D01*
X39870000Y43950000D02*
X40870000Y44950000D01*
X61600000Y38800000D02*
X61600000Y37412500D01*
X63090000Y48260000D02*
X63090000Y40290000D01*
%TO.N,+5V*%
X58120000Y42852500D02*
X58092500Y42880000D01*
X56602500Y33610000D02*
X56687500Y33525000D01*
X58092500Y42880000D02*
X58092500Y43284000D01*
X54900000Y33610000D02*
X54140000Y33610000D01*
X58120000Y41320000D02*
X58120000Y42852500D01*
X34170000Y40075000D02*
X34145000Y40100000D01*
X52920000Y32390000D02*
X52920000Y30100000D01*
X42782569Y49840000D02*
X44219069Y48403500D01*
X68990000Y24870000D02*
X68990000Y11480000D01*
X54140000Y33610000D02*
X52920000Y32390000D01*
X45732569Y46890000D02*
X46832500Y46890000D01*
X34170000Y38360000D02*
X34170000Y40075000D01*
X50580000Y30090000D02*
X48510000Y30090000D01*
X40360000Y30090000D02*
X34170000Y36280000D01*
X34170000Y36280000D02*
X34170000Y38360000D01*
X68990000Y11480000D02*
X71230000Y9240000D01*
X48510000Y30090000D02*
X40360000Y30090000D01*
X50580000Y30090000D02*
X52910000Y30090000D01*
X52920000Y30100000D02*
X63760000Y30100000D01*
X52866500Y48510000D02*
X53010000Y48366500D01*
X34145000Y40100000D02*
X32700000Y41545000D01*
X58092500Y43284000D02*
X53010000Y48366500D01*
X32700000Y49840000D02*
X42782569Y49840000D01*
X63760000Y30100000D02*
X68990000Y24870000D01*
X32700000Y41545000D02*
X32700000Y49840000D01*
X50580000Y31312500D02*
X50580000Y30090000D01*
X52910000Y30090000D02*
X52920000Y30100000D01*
X71230000Y9240000D02*
X73480000Y9240000D01*
X44219069Y48403500D02*
X44325569Y48510000D01*
X54900000Y33610000D02*
X56602500Y33610000D01*
X44325569Y48510000D02*
X52866500Y48510000D01*
X44219069Y48403500D02*
X45732569Y46890000D01*
D21*
%TO.N,1.2V*%
X22054838Y17789238D02*
X22054838Y17917162D01*
X21053500Y16787900D02*
X22054838Y17789238D01*
X21200000Y9800000D02*
X23392000Y9800000D01*
D19*
%TO.N,+3V3*%
X15025162Y17225162D02*
X14900000Y17100000D01*
X19452010Y17909162D02*
X19509162Y17909162D01*
X19452010Y17909162D02*
X20200000Y17161172D01*
X23696484Y17496634D02*
X23696484Y18796484D01*
X17654377Y17200000D02*
X17600000Y17200000D01*
X20200000Y17161172D02*
X20200000Y16300000D01*
X19509162Y17909162D02*
X20016908Y18416908D01*
X20200000Y16300000D02*
X20565600Y15934400D01*
X22134250Y15934400D02*
X23696484Y17496634D01*
X17600000Y17200000D02*
X17574838Y17225162D01*
D21*
X19008000Y9600000D02*
X20028367Y9600000D01*
D19*
X18363539Y17909162D02*
X17654377Y17200000D01*
D21*
X20028367Y9600000D02*
X20034761Y9606394D01*
D19*
X18500000Y17909162D02*
X19452010Y17909162D01*
X18500000Y17909162D02*
X18363539Y17909162D01*
X20565600Y15934400D02*
X22134250Y15934400D01*
X16254838Y17225162D02*
X15025162Y17225162D01*
X17574838Y17225162D02*
X16254838Y17225162D01*
D20*
%TO.N,CH1_RANGE0*%
X24970300Y27511847D02*
X25100000Y27382147D01*
X18562116Y16037884D02*
X18562116Y16900000D01*
X25100000Y17200000D02*
X22900000Y15000000D01*
D21*
X18552560Y16890444D02*
X18562116Y16900000D01*
D20*
X25100000Y27382147D02*
X25100000Y17200000D01*
X25000000Y29000000D02*
X24970300Y28970300D01*
X24970300Y28970300D02*
X24970300Y27511847D01*
X19600000Y15000000D02*
X18562116Y16037884D01*
X22900000Y15000000D02*
X19600000Y15000000D01*
%TO.N,CH1_RANGE1*%
X17716915Y15865100D02*
X15065100Y15865100D01*
X19282015Y14300000D02*
X17716915Y15865100D01*
X25800000Y16800000D02*
X23300000Y14300000D01*
X23300000Y14300000D02*
X19282015Y14300000D01*
X15065100Y15865100D02*
X14700000Y15500000D01*
X25735400Y27828762D02*
X25800000Y27764162D01*
X25800000Y27764162D02*
X25800000Y16800000D01*
%TO.N,CH2_RANGE0*%
X26500000Y51900000D02*
X26500000Y16300000D01*
X19200000Y13600000D02*
X17700000Y15100000D01*
X26800000Y52200000D02*
X26500000Y51900000D01*
X23800000Y13600000D02*
X19200000Y13600000D01*
X46900000Y52200000D02*
X26800000Y52200000D01*
X17700000Y15100000D02*
X17400000Y15100000D01*
X26500000Y16300000D02*
X23800000Y13600000D01*
%TO.N,CH2_RANGE1*%
X18682015Y12900000D02*
X18616915Y12965100D01*
X18534900Y12965100D02*
X17400000Y14100000D01*
X18616915Y12965100D02*
X18534900Y12965100D01*
X51300000Y51400000D02*
X27400000Y51400000D01*
X27400000Y51400000D02*
X27200000Y51200000D01*
X27200000Y15700000D02*
X24400000Y12900000D01*
X24400000Y12900000D02*
X18682015Y12900000D01*
X27200000Y51200000D02*
X27200000Y15700000D01*
D22*
%TO.N,CH1_RANGE2*%
X17300000Y12171866D02*
X17300000Y12200000D01*
D20*
%TO.N,CH2_RANGE2*%
X63000000Y50600000D02*
X62994900Y50605100D01*
X24800000Y12200000D02*
X18300000Y12200000D01*
X27900000Y15300000D02*
X24800000Y12200000D01*
X62994900Y50605100D02*
X28305100Y50605100D01*
X27900000Y50200000D02*
X27900000Y15300000D01*
X28305100Y50605100D02*
X27900000Y50200000D01*
%TD*%
%TA.AperFunction,Conductor*%
%TO.N,GND*%
G36*
X13778101Y59778935D02*
G01*
X13808165Y59726864D01*
X13809500Y59711600D01*
X13809500Y55354239D01*
X13809501Y55354233D01*
X13815256Y55342282D01*
X13821755Y55323709D01*
X13824708Y55310774D01*
X13824710Y55310769D01*
X13832985Y55300392D01*
X13843455Y55283729D01*
X13849209Y55271781D01*
X13849210Y55271780D01*
X13849212Y55271776D01*
X13859582Y55263506D01*
X13859585Y55263504D01*
X13873501Y55249588D01*
X13881775Y55239212D01*
X13888233Y55236103D01*
X13893727Y55233457D01*
X13910394Y55222984D01*
X13914503Y55219707D01*
X13920767Y55214711D01*
X13920768Y55214711D01*
X13920769Y55214710D01*
X13933702Y55211759D01*
X13952281Y55205258D01*
X13964237Y55199500D01*
X69055762Y55199500D01*
X69055763Y55199500D01*
X69067714Y55205257D01*
X69086296Y55211758D01*
X69099231Y55214710D01*
X69109609Y55222988D01*
X69126267Y55233455D01*
X69138224Y55239212D01*
X69146494Y55249584D01*
X69160417Y55263506D01*
X69160535Y55263600D01*
X69170788Y55271776D01*
X69176545Y55283733D01*
X69187014Y55300392D01*
X69195290Y55310769D01*
X69198242Y55323705D01*
X69204743Y55342286D01*
X69210500Y55354237D01*
X69210500Y55445763D01*
X69210500Y55445764D01*
X69210500Y57950000D01*
X69544357Y57950000D01*
X69564891Y57702180D01*
X69564892Y57702174D01*
X69625935Y57461123D01*
X69625938Y57461115D01*
X69665384Y57371188D01*
X69725827Y57233393D01*
X69725831Y57233387D01*
X69861831Y57025221D01*
X69861832Y57025219D01*
X70018355Y56855190D01*
X70030256Y56842262D01*
X70226491Y56689526D01*
X70445190Y56571172D01*
X70680386Y56490429D01*
X70680388Y56490429D01*
X70680390Y56490428D01*
X70925661Y56449500D01*
X70925665Y56449500D01*
X71174339Y56449500D01*
X71419609Y56490428D01*
X71419609Y56490429D01*
X71419614Y56490429D01*
X71654810Y56571172D01*
X71873509Y56689526D01*
X72069744Y56842262D01*
X72238164Y57025215D01*
X72374173Y57233393D01*
X72474063Y57461119D01*
X72535108Y57702179D01*
X72555643Y57950000D01*
X72535108Y58197821D01*
X72535107Y58197827D01*
X72474064Y58438878D01*
X72474061Y58438886D01*
X72374177Y58666597D01*
X72374173Y58666607D01*
X72269109Y58827420D01*
X72238168Y58874780D01*
X72238167Y58874782D01*
X72069745Y59057737D01*
X71873512Y59210472D01*
X71873510Y59210473D01*
X71873509Y59210474D01*
X71654810Y59328828D01*
X71654806Y59328830D01*
X71654803Y59328831D01*
X71419618Y59409570D01*
X71419609Y59409573D01*
X71174339Y59450500D01*
X71174335Y59450500D01*
X70925665Y59450500D01*
X70925661Y59450500D01*
X70680390Y59409573D01*
X70680381Y59409570D01*
X70445196Y59328831D01*
X70226487Y59210472D01*
X70030254Y59057737D01*
X69861832Y58874782D01*
X69861831Y58874780D01*
X69725831Y58666614D01*
X69725822Y58666597D01*
X69625938Y58438886D01*
X69625935Y58438878D01*
X69564892Y58197827D01*
X69564891Y58197821D01*
X69544357Y57950000D01*
X69210500Y57950000D01*
X69210500Y59711600D01*
X69231065Y59768101D01*
X69283136Y59798165D01*
X69298400Y59799500D01*
X72821600Y59799500D01*
X72878101Y59778935D01*
X72908165Y59726864D01*
X72909500Y59711600D01*
X72909500Y55400254D01*
X72909426Y55354562D01*
X72909426Y55354560D01*
X72915266Y55342382D01*
X72921703Y55323938D01*
X72924709Y55310770D01*
X72932837Y55300578D01*
X72943369Y55283787D01*
X72949005Y55272036D01*
X72949006Y55272035D01*
X72959548Y55263600D01*
X72973353Y55249773D01*
X72981775Y55239212D01*
X72993513Y55233560D01*
X73010291Y55222999D01*
X73020469Y55214855D01*
X73033630Y55211829D01*
X73052069Y55205360D01*
X73064237Y55199500D01*
X73109881Y55199500D01*
X78699325Y55190457D01*
X79001742Y55189967D01*
X79058210Y55169311D01*
X79088189Y55117191D01*
X79089500Y55102067D01*
X79089500Y45778400D01*
X79068935Y45721899D01*
X79016864Y45691835D01*
X79001600Y45690500D01*
X78089600Y45690500D01*
X78033099Y45711065D01*
X78003035Y45763136D01*
X78002377Y45770655D01*
X78002341Y45770650D01*
X78001700Y45775928D01*
X78001091Y45778400D01*
X77960571Y45942797D01*
X77880704Y46094972D01*
X77766739Y46223612D01*
X77625300Y46321240D01*
X77625299Y46321241D01*
X77534929Y46355513D01*
X77464608Y46382182D01*
X77464603Y46382183D01*
X77464602Y46382183D01*
X77376303Y46392905D01*
X77336808Y46397700D01*
X76243192Y46397700D01*
X76213021Y46394037D01*
X76115397Y46382183D01*
X76115394Y46382183D01*
X76115392Y46382182D01*
X76115385Y46382180D01*
X76115387Y46382180D01*
X75954700Y46321241D01*
X75954699Y46321241D01*
X75813264Y46223615D01*
X75813261Y46223613D01*
X75813261Y46223612D01*
X75792879Y46200605D01*
X75699298Y46094975D01*
X75699294Y46094970D01*
X75619430Y45942800D01*
X75578299Y45775928D01*
X75577659Y45770650D01*
X75575571Y45770904D01*
X75557735Y45721899D01*
X75505664Y45691835D01*
X75490400Y45690500D01*
X67335763Y45690500D01*
X67244237Y45690500D01*
X67244235Y45690500D01*
X67244233Y45690499D01*
X67232283Y45684744D01*
X67213710Y45678245D01*
X67200772Y45675292D01*
X67200768Y45675290D01*
X67190390Y45667014D01*
X67173732Y45656547D01*
X67161777Y45650789D01*
X67161774Y45650787D01*
X67153501Y45640413D01*
X67139587Y45626499D01*
X67129213Y45618226D01*
X67129211Y45618223D01*
X67123453Y45606268D01*
X67112986Y45589610D01*
X67104710Y45579232D01*
X67104708Y45579228D01*
X67101755Y45566290D01*
X67095256Y45547717D01*
X67089501Y45535767D01*
X67089500Y45535761D01*
X67089500Y38244239D01*
X67089501Y38244233D01*
X67095256Y38232282D01*
X67101755Y38213709D01*
X67104708Y38200774D01*
X67104710Y38200769D01*
X67112985Y38190392D01*
X67123455Y38173729D01*
X67129209Y38161781D01*
X67129210Y38161780D01*
X67129212Y38161776D01*
X67139585Y38153504D01*
X67153501Y38139588D01*
X67161775Y38129212D01*
X67168233Y38126103D01*
X67173727Y38123457D01*
X67190397Y38112982D01*
X67200767Y38104711D01*
X67200768Y38104711D01*
X67200769Y38104710D01*
X67213702Y38101759D01*
X67232281Y38095258D01*
X67244237Y38089500D01*
X67267410Y38089500D01*
X75490400Y38089500D01*
X75546901Y38068935D01*
X75576965Y38016864D01*
X75577622Y38009346D01*
X75577659Y38009350D01*
X75578299Y38004073D01*
X75578300Y38004070D01*
X75619429Y37837203D01*
X75619429Y37837202D01*
X75619430Y37837201D01*
X75657141Y37765347D01*
X75699296Y37685028D01*
X75813261Y37556388D01*
X75954700Y37458760D01*
X76115392Y37397818D01*
X76243192Y37382300D01*
X76243193Y37382300D01*
X77336807Y37382300D01*
X77336808Y37382300D01*
X77464608Y37397818D01*
X77625300Y37458760D01*
X77766739Y37556388D01*
X77880704Y37685028D01*
X77960571Y37837203D01*
X78001700Y38004070D01*
X78001700Y38004074D01*
X78002341Y38009350D01*
X78004428Y38009097D01*
X78022265Y38058101D01*
X78074336Y38088165D01*
X78089600Y38089500D01*
X79001600Y38089500D01*
X79058101Y38068935D01*
X79088165Y38016864D01*
X79089499Y38001604D01*
X79089499Y37885305D01*
X79089499Y37814619D01*
X79089493Y37814499D01*
X79089500Y37789847D01*
X79089500Y37765347D01*
X79089505Y37765240D01*
X79096074Y12939001D01*
X79099330Y630862D01*
X79099424Y278423D01*
X79078874Y221917D01*
X79026811Y191839D01*
X79011524Y190500D01*
X73145763Y190500D01*
X73054237Y190500D01*
X73054235Y190500D01*
X73054233Y190499D01*
X73042283Y184744D01*
X73023710Y178245D01*
X73010772Y175292D01*
X73010768Y175290D01*
X73000390Y167014D01*
X72983732Y156547D01*
X72971777Y150789D01*
X72971774Y150787D01*
X72963501Y140413D01*
X72949587Y126499D01*
X72939213Y118226D01*
X72939211Y118223D01*
X72933453Y106268D01*
X72922986Y89610D01*
X72914710Y79232D01*
X72914708Y79228D01*
X72911755Y66290D01*
X72905256Y47717D01*
X72899501Y35767D01*
X72899500Y35761D01*
X72899500Y-1619614D01*
X72878935Y-1676115D01*
X72826864Y-1706179D01*
X72767650Y-1695738D01*
X72729777Y-1651729D01*
X72676743Y-1516602D01*
X72541815Y-1282898D01*
X72373561Y-1071915D01*
X72175741Y-888365D01*
X72175739Y-888364D01*
X72175734Y-888359D01*
X71952772Y-736347D01*
X71952773Y-736347D01*
X71709644Y-619263D01*
X71709641Y-619262D01*
X71451772Y-539720D01*
X71451768Y-539719D01*
X71451767Y-539719D01*
X71184931Y-499500D01*
X71184929Y-499500D01*
X70915071Y-499500D01*
X70915068Y-499500D01*
X70648232Y-539719D01*
X70648229Y-539719D01*
X70648228Y-539720D01*
X70519293Y-579491D01*
X70390355Y-619263D01*
X70147233Y-736345D01*
X70147229Y-736347D01*
X70147226Y-736349D01*
X69995614Y-839715D01*
X69924257Y-888366D01*
X69924256Y-888367D01*
X69726441Y-1071912D01*
X69568189Y-1270354D01*
X69558185Y-1282898D01*
X69423257Y-1516602D01*
X69370222Y-1651729D01*
X69330438Y-1696810D01*
X69270983Y-1705771D01*
X69219677Y-1674418D01*
X69200500Y-1619614D01*
X69200500Y35763D01*
X69194743Y47717D01*
X69188241Y66300D01*
X69185290Y79228D01*
X69185290Y79231D01*
X69185289Y79232D01*
X69185289Y79233D01*
X69177018Y89603D01*
X69166542Y106275D01*
X69160788Y118225D01*
X69150412Y126499D01*
X69136496Y140415D01*
X69128224Y150788D01*
X69128220Y150790D01*
X69128219Y150791D01*
X69116271Y156545D01*
X69099608Y167015D01*
X69089231Y175290D01*
X69089226Y175292D01*
X69076291Y178245D01*
X69057718Y184744D01*
X69045767Y190499D01*
X69045763Y190500D01*
X69022590Y190500D01*
X14045763Y190500D01*
X13954237Y190500D01*
X13954235Y190500D01*
X13954233Y190499D01*
X13942283Y184744D01*
X13923710Y178245D01*
X13910772Y175292D01*
X13910768Y175290D01*
X13900390Y167014D01*
X13883732Y156547D01*
X13871777Y150789D01*
X13871774Y150787D01*
X13863501Y140413D01*
X13849587Y126499D01*
X13839213Y118226D01*
X13839211Y118223D01*
X13833453Y106268D01*
X13822986Y89610D01*
X13814710Y79232D01*
X13814708Y79228D01*
X13811755Y66290D01*
X13805256Y47717D01*
X13799501Y35767D01*
X13799500Y35761D01*
X13799500Y-1619614D01*
X13778935Y-1676115D01*
X13726864Y-1706179D01*
X13667650Y-1695738D01*
X13629777Y-1651729D01*
X13576743Y-1516602D01*
X13441815Y-1282898D01*
X13273561Y-1071915D01*
X13075741Y-888365D01*
X13075739Y-888364D01*
X13075734Y-888359D01*
X12852772Y-736347D01*
X12852773Y-736347D01*
X12609644Y-619263D01*
X12609641Y-619262D01*
X12351772Y-539720D01*
X12351768Y-539719D01*
X12351767Y-539719D01*
X12084931Y-499500D01*
X12084929Y-499500D01*
X11815071Y-499500D01*
X11815068Y-499500D01*
X11548232Y-539719D01*
X11548229Y-539719D01*
X11548228Y-539720D01*
X11419293Y-579491D01*
X11290355Y-619263D01*
X11047233Y-736345D01*
X11047229Y-736347D01*
X11047226Y-736349D01*
X10895614Y-839715D01*
X10824257Y-888366D01*
X10824256Y-888367D01*
X10626441Y-1071912D01*
X10468189Y-1270354D01*
X10458185Y-1282898D01*
X10323257Y-1516602D01*
X10270222Y-1651729D01*
X10230438Y-1696810D01*
X10170983Y-1705771D01*
X10119677Y-1674418D01*
X10100500Y-1619614D01*
X10100500Y-10246D01*
X10100546Y35561D01*
X10094739Y47649D01*
X10088274Y66155D01*
X10088243Y66290D01*
X10085290Y79231D01*
X10085287Y79235D01*
X10077108Y89492D01*
X10066596Y106240D01*
X10060918Y118061D01*
X10060917Y118062D01*
X10050436Y126438D01*
X10036588Y140300D01*
X10028224Y150788D01*
X10016399Y156483D01*
X9999669Y167009D01*
X9989421Y175198D01*
X9989419Y175199D01*
X9989418Y175200D01*
X9989416Y175201D01*
X9989415Y175201D01*
X9976338Y178200D01*
X9957849Y184680D01*
X9945763Y190500D01*
X9900068Y190500D01*
X288362Y200210D01*
X231882Y220832D01*
X201871Y272934D01*
X200551Y288117D01*
X203333Y15700000D01*
X11291091Y15700000D01*
X11311839Y15542403D01*
X11372669Y15395545D01*
X11469435Y15269437D01*
X11469436Y15269436D01*
X11469439Y15269433D01*
X11541110Y15214439D01*
X11573416Y15163729D01*
X11575500Y15144703D01*
X11575500Y6503069D01*
X11573629Y6485030D01*
X11570719Y6471152D01*
X11570718Y6471151D01*
X11575162Y6435507D01*
X11575500Y6430065D01*
X11575500Y6425137D01*
X11579124Y6403411D01*
X11579386Y6401617D01*
X11585944Y6349011D01*
X11588021Y6342036D01*
X11587478Y6341875D01*
X11587759Y6340998D01*
X11588295Y6341181D01*
X11590660Y6334292D01*
X11615892Y6287666D01*
X11616724Y6286051D01*
X11640001Y6238436D01*
X11644232Y6232511D01*
X11643768Y6232180D01*
X11644316Y6231445D01*
X11644766Y6231794D01*
X11649240Y6226046D01*
X11688242Y6190142D01*
X11689553Y6188884D01*
X17105725Y772713D01*
X17117156Y758636D01*
X17124913Y746764D01*
X17127665Y744622D01*
X17153255Y724704D01*
X17157342Y721095D01*
X17160828Y717610D01*
X17160829Y717609D01*
X17178754Y704810D01*
X17180210Y703725D01*
X17190518Y695702D01*
X17222043Y671165D01*
X17222045Y671165D01*
X17228451Y667698D01*
X17228178Y667195D01*
X17228991Y666777D01*
X17229242Y667290D01*
X17235782Y664093D01*
X17235783Y664093D01*
X17235784Y664092D01*
X17286611Y648961D01*
X17288333Y648408D01*
X17308036Y641644D01*
X17338458Y631200D01*
X17338461Y631200D01*
X17345643Y630001D01*
X17345549Y629439D01*
X17346452Y629307D01*
X17346523Y629872D01*
X17353751Y628971D01*
X17406742Y631162D01*
X17408559Y631200D01*
X51352632Y631200D01*
X51370668Y629330D01*
X51384549Y626419D01*
X51414597Y630165D01*
X51420193Y630862D01*
X51425635Y631200D01*
X51430557Y631200D01*
X51430562Y631200D01*
X51452312Y634830D01*
X51454018Y635079D01*
X51506687Y641644D01*
X51506691Y641647D01*
X51513668Y643723D01*
X51513831Y643173D01*
X51514704Y643453D01*
X51514518Y643995D01*
X51521408Y646360D01*
X51559905Y667195D01*
X51568045Y671601D01*
X51569606Y672405D01*
X51617264Y695702D01*
X51617270Y695709D01*
X51623193Y699936D01*
X51623526Y699469D01*
X51624256Y700013D01*
X51623904Y700465D01*
X51629650Y704938D01*
X51629649Y704938D01*
X51629654Y704940D01*
X51665579Y743967D01*
X51666817Y745256D01*
X61127017Y10205455D01*
X61181511Y10230866D01*
X61189172Y10231200D01*
X65978695Y10231200D01*
X66035196Y10210635D01*
X66048431Y10196810D01*
X66069432Y10169440D01*
X66069434Y10169438D01*
X66069436Y10169436D01*
X66195545Y10072669D01*
X66342403Y10011839D01*
X66500000Y9991091D01*
X66657597Y10011839D01*
X66804455Y10072669D01*
X66930564Y10169436D01*
X67027331Y10295545D01*
X67088161Y10442403D01*
X67108909Y10600000D01*
X67088161Y10757597D01*
X67027331Y10904454D01*
X66987565Y10956278D01*
X66930567Y11030561D01*
X66930564Y11030564D01*
X66909452Y11046764D01*
X66804455Y11127331D01*
X66657597Y11188161D01*
X66500000Y11208909D01*
X66342402Y11188161D01*
X66195546Y11127331D01*
X66195544Y11127330D01*
X66069437Y11030566D01*
X66069434Y11030563D01*
X66048431Y11003190D01*
X65997720Y10970884D01*
X65978695Y10968800D01*
X61047368Y10968800D01*
X61029331Y10970671D01*
X61015451Y10973581D01*
X61015450Y10973581D01*
X60979807Y10969138D01*
X60974365Y10968800D01*
X60969437Y10968800D01*
X60947714Y10965176D01*
X60945933Y10964917D01*
X60908760Y10960282D01*
X60893312Y10958356D01*
X60886332Y10956278D01*
X60886170Y10956820D01*
X60885298Y10956541D01*
X60885482Y10956006D01*
X60878591Y10953641D01*
X60831965Y10928408D01*
X60830351Y10927577D01*
X60782735Y10904298D01*
X60776808Y10900066D01*
X60776479Y10900527D01*
X60775741Y10899976D01*
X60776089Y10899529D01*
X60770341Y10895056D01*
X60734441Y10856059D01*
X60733184Y10854748D01*
X51272983Y1394545D01*
X51218489Y1369134D01*
X51210828Y1368800D01*
X17589172Y1368800D01*
X17532671Y1389365D01*
X17527017Y1394545D01*
X17440417Y1481145D01*
X17415006Y1535639D01*
X17430569Y1593717D01*
X17479822Y1628205D01*
X17502572Y1631200D01*
X50952632Y1631200D01*
X50970668Y1629330D01*
X50984549Y1626419D01*
X51014597Y1630165D01*
X51020193Y1630862D01*
X51025635Y1631200D01*
X51030557Y1631200D01*
X51030562Y1631200D01*
X51052312Y1634830D01*
X51054018Y1635079D01*
X51106687Y1641644D01*
X51106691Y1641647D01*
X51113668Y1643723D01*
X51113831Y1643173D01*
X51114704Y1643453D01*
X51114518Y1643995D01*
X51121408Y1646360D01*
X51151913Y1662870D01*
X51168045Y1671601D01*
X51169606Y1672405D01*
X51217264Y1695702D01*
X51217270Y1695709D01*
X51223193Y1699936D01*
X51223526Y1699469D01*
X51224256Y1700013D01*
X51223904Y1700465D01*
X51229650Y1704938D01*
X51229649Y1704938D01*
X51229654Y1704940D01*
X51265579Y1743967D01*
X51266817Y1745256D01*
X61727017Y12205455D01*
X61781511Y12230866D01*
X61789172Y12231200D01*
X65978695Y12231200D01*
X66035196Y12210635D01*
X66048431Y12196810D01*
X66069432Y12169440D01*
X66069434Y12169438D01*
X66069436Y12169436D01*
X66195545Y12072669D01*
X66342403Y12011839D01*
X66500000Y11991091D01*
X66657597Y12011839D01*
X66804455Y12072669D01*
X66930564Y12169436D01*
X67027331Y12295545D01*
X67088161Y12442403D01*
X67108909Y12600000D01*
X67107122Y12613570D01*
X67105422Y12626486D01*
X67088161Y12757597D01*
X67027331Y12904454D01*
X66987565Y12956278D01*
X66930567Y13030561D01*
X66930564Y13030564D01*
X66901318Y13053005D01*
X66804455Y13127331D01*
X66657597Y13188161D01*
X66500000Y13208909D01*
X66342402Y13188161D01*
X66195546Y13127331D01*
X66195544Y13127330D01*
X66069437Y13030566D01*
X66069434Y13030563D01*
X66048431Y13003190D01*
X65997720Y12970884D01*
X65978695Y12968800D01*
X61647368Y12968800D01*
X61629331Y12970671D01*
X61615451Y12973581D01*
X61615450Y12973581D01*
X61579807Y12969138D01*
X61574365Y12968800D01*
X61569437Y12968800D01*
X61547714Y12965176D01*
X61545933Y12964917D01*
X61508760Y12960282D01*
X61493312Y12958356D01*
X61486332Y12956278D01*
X61486170Y12956820D01*
X61485298Y12956541D01*
X61485482Y12956006D01*
X61478591Y12953641D01*
X61431965Y12928408D01*
X61430351Y12927577D01*
X61382735Y12904298D01*
X61376808Y12900066D01*
X61376479Y12900527D01*
X61375741Y12899976D01*
X61376089Y12899529D01*
X61370341Y12895056D01*
X61334441Y12856059D01*
X61333184Y12854748D01*
X50872983Y2394545D01*
X50818489Y2369134D01*
X50810828Y2368800D01*
X17607157Y2368800D01*
X17550656Y2389365D01*
X17545002Y2394545D01*
X12869045Y7070502D01*
X12843634Y7124996D01*
X12843300Y7132657D01*
X12843300Y8022929D01*
X12863865Y8079430D01*
X12915936Y8109494D01*
X12975150Y8099053D01*
X12993355Y8085084D01*
X18305723Y2772716D01*
X18317154Y2758639D01*
X18324912Y2746765D01*
X18324913Y2746764D01*
X18327665Y2744622D01*
X18353260Y2724701D01*
X18357342Y2721096D01*
X18360827Y2717611D01*
X18360830Y2717609D01*
X18378753Y2704812D01*
X18380179Y2703749D01*
X18422043Y2671165D01*
X18422044Y2671165D01*
X18422045Y2671164D01*
X18428450Y2667698D01*
X18428176Y2667194D01*
X18428983Y2666779D01*
X18429235Y2667293D01*
X18435780Y2664094D01*
X18435782Y2664094D01*
X18435784Y2664092D01*
X18486641Y2648952D01*
X18488291Y2648423D01*
X18538458Y2631200D01*
X18538460Y2631200D01*
X18545643Y2630001D01*
X18545549Y2629439D01*
X18546452Y2629307D01*
X18546523Y2629872D01*
X18553751Y2628971D01*
X18606742Y2631162D01*
X18608559Y2631200D01*
X50652632Y2631200D01*
X50670668Y2629330D01*
X50684549Y2626419D01*
X50714597Y2630165D01*
X50720193Y2630862D01*
X50725635Y2631200D01*
X50730557Y2631200D01*
X50730562Y2631200D01*
X50752312Y2634830D01*
X50754018Y2635079D01*
X50806687Y2641644D01*
X50806691Y2641647D01*
X50813668Y2643723D01*
X50813831Y2643173D01*
X50814704Y2643453D01*
X50814518Y2643995D01*
X50821408Y2646360D01*
X50854175Y2664094D01*
X50868045Y2671601D01*
X50869606Y2672405D01*
X50917264Y2695702D01*
X50917270Y2695709D01*
X50923193Y2699936D01*
X50923526Y2699469D01*
X50924256Y2700013D01*
X50923904Y2700465D01*
X50929650Y2704938D01*
X50929649Y2704938D01*
X50929654Y2704940D01*
X50965579Y2743967D01*
X50966817Y2745256D01*
X62627017Y14405455D01*
X62681511Y14430866D01*
X62689172Y14431200D01*
X65978695Y14431200D01*
X66035196Y14410635D01*
X66048431Y14396810D01*
X66069432Y14369440D01*
X66069434Y14369438D01*
X66069436Y14369436D01*
X66195545Y14272669D01*
X66342403Y14211839D01*
X66500000Y14191091D01*
X66657597Y14211839D01*
X66804455Y14272669D01*
X66930564Y14369436D01*
X67027331Y14495545D01*
X67088161Y14642403D01*
X67108909Y14800000D01*
X67088161Y14957597D01*
X67027331Y15104454D01*
X66987565Y15156278D01*
X66930567Y15230561D01*
X66930564Y15230564D01*
X66911035Y15245549D01*
X66804455Y15327331D01*
X66657597Y15388161D01*
X66500000Y15408909D01*
X66342402Y15388161D01*
X66195546Y15327331D01*
X66195544Y15327330D01*
X66069437Y15230566D01*
X66069434Y15230563D01*
X66048431Y15203190D01*
X65997720Y15170884D01*
X65978695Y15168800D01*
X62547368Y15168800D01*
X62529331Y15170671D01*
X62515451Y15173581D01*
X62515450Y15173581D01*
X62479807Y15169138D01*
X62474365Y15168800D01*
X62469437Y15168800D01*
X62447714Y15165176D01*
X62445933Y15164917D01*
X62408760Y15160282D01*
X62393312Y15158356D01*
X62386332Y15156278D01*
X62386170Y15156820D01*
X62385298Y15156541D01*
X62385482Y15156006D01*
X62378591Y15153641D01*
X62331965Y15128408D01*
X62330351Y15127577D01*
X62282735Y15104298D01*
X62276808Y15100066D01*
X62276479Y15100527D01*
X62275741Y15099976D01*
X62276089Y15099529D01*
X62270341Y15095056D01*
X62234441Y15056059D01*
X62233184Y15054748D01*
X50572983Y3394545D01*
X50518489Y3369134D01*
X50510828Y3368800D01*
X18789172Y3368800D01*
X18732671Y3389365D01*
X18727017Y3394545D01*
X18640417Y3481145D01*
X18615006Y3535639D01*
X18630569Y3593717D01*
X18679822Y3628205D01*
X18702572Y3631200D01*
X50252632Y3631200D01*
X50270668Y3629330D01*
X50284549Y3626419D01*
X50314597Y3630165D01*
X50320193Y3630862D01*
X50325635Y3631200D01*
X50330557Y3631200D01*
X50330562Y3631200D01*
X50352312Y3634830D01*
X50354018Y3635079D01*
X50406687Y3641644D01*
X50406691Y3641647D01*
X50413668Y3643723D01*
X50413831Y3643173D01*
X50414704Y3643453D01*
X50414518Y3643995D01*
X50421408Y3646360D01*
X50451913Y3662870D01*
X50468045Y3671601D01*
X50469606Y3672405D01*
X50517264Y3695702D01*
X50517270Y3695709D01*
X50523193Y3699936D01*
X50523526Y3699469D01*
X50524256Y3700013D01*
X50523904Y3700465D01*
X50529650Y3704938D01*
X50529649Y3704938D01*
X50529654Y3704940D01*
X50565579Y3743967D01*
X50566817Y3745256D01*
X63227017Y16405455D01*
X63281511Y16430866D01*
X63289172Y16431200D01*
X65978695Y16431200D01*
X66035196Y16410635D01*
X66048431Y16396810D01*
X66069432Y16369440D01*
X66069434Y16369438D01*
X66069436Y16369436D01*
X66195545Y16272669D01*
X66342403Y16211839D01*
X66500000Y16191091D01*
X66657597Y16211839D01*
X66804455Y16272669D01*
X66930564Y16369436D01*
X67027331Y16495545D01*
X67088161Y16642403D01*
X67108909Y16800000D01*
X67088161Y16957597D01*
X67027331Y17104454D01*
X66987502Y17156361D01*
X66930567Y17230561D01*
X66930564Y17230564D01*
X66928190Y17232386D01*
X66804455Y17327331D01*
X66657597Y17388161D01*
X66500000Y17408909D01*
X66342402Y17388161D01*
X66195546Y17327331D01*
X66195544Y17327330D01*
X66069437Y17230566D01*
X66069434Y17230563D01*
X66048431Y17203190D01*
X65997720Y17170884D01*
X65978695Y17168800D01*
X63147368Y17168800D01*
X63129331Y17170671D01*
X63115451Y17173581D01*
X63115450Y17173581D01*
X63079807Y17169138D01*
X63074365Y17168800D01*
X63069437Y17168800D01*
X63047714Y17165176D01*
X63045933Y17164917D01*
X63008760Y17160282D01*
X62993312Y17158356D01*
X62986332Y17156278D01*
X62986170Y17156820D01*
X62985298Y17156541D01*
X62985482Y17156006D01*
X62978591Y17153641D01*
X62931965Y17128408D01*
X62930351Y17127577D01*
X62882735Y17104298D01*
X62876808Y17100066D01*
X62876479Y17100527D01*
X62875741Y17099976D01*
X62876089Y17099529D01*
X62870341Y17095056D01*
X62834441Y17056059D01*
X62833184Y17054748D01*
X50172983Y4394545D01*
X50118489Y4369134D01*
X50110828Y4368800D01*
X18538988Y4368800D01*
X18482487Y4389365D01*
X18476833Y4394545D01*
X18390233Y4481145D01*
X18364822Y4535639D01*
X18380385Y4593717D01*
X18429638Y4628205D01*
X18452388Y4631200D01*
X49952632Y4631200D01*
X49970668Y4629330D01*
X49984549Y4626419D01*
X50014597Y4630165D01*
X50020193Y4630862D01*
X50025635Y4631200D01*
X50030557Y4631200D01*
X50030562Y4631200D01*
X50052312Y4634830D01*
X50054018Y4635079D01*
X50106687Y4641644D01*
X50106691Y4641647D01*
X50113668Y4643723D01*
X50113831Y4643173D01*
X50114704Y4643453D01*
X50114518Y4643995D01*
X50121408Y4646360D01*
X50151913Y4662870D01*
X50168045Y4671601D01*
X50169606Y4672405D01*
X50217264Y4695702D01*
X50217270Y4695709D01*
X50223193Y4699936D01*
X50223526Y4699469D01*
X50224256Y4700013D01*
X50223904Y4700465D01*
X50229650Y4704938D01*
X50229649Y4704938D01*
X50229654Y4704940D01*
X50265579Y4743967D01*
X50266817Y4745256D01*
X64227017Y18705455D01*
X64281511Y18730866D01*
X64289172Y18731200D01*
X65878695Y18731200D01*
X65935196Y18710635D01*
X65948431Y18696810D01*
X65969432Y18669440D01*
X65969434Y18669438D01*
X65969436Y18669436D01*
X66095545Y18572669D01*
X66242403Y18511839D01*
X66400000Y18491091D01*
X66557597Y18511839D01*
X66704455Y18572669D01*
X66830564Y18669436D01*
X66927331Y18795545D01*
X66988161Y18942403D01*
X67008909Y19100000D01*
X66988161Y19257597D01*
X66927331Y19404454D01*
X66887565Y19456278D01*
X66830567Y19530561D01*
X66830564Y19530564D01*
X66830561Y19530566D01*
X66704455Y19627331D01*
X66557597Y19688161D01*
X66400000Y19708909D01*
X66242402Y19688161D01*
X66095546Y19627331D01*
X66095544Y19627330D01*
X65969437Y19530566D01*
X65969434Y19530563D01*
X65948431Y19503190D01*
X65897720Y19470884D01*
X65878695Y19468800D01*
X64147368Y19468800D01*
X64129331Y19470671D01*
X64115451Y19473581D01*
X64115450Y19473581D01*
X64079807Y19469138D01*
X64074365Y19468800D01*
X64069437Y19468800D01*
X64047714Y19465176D01*
X64045933Y19464917D01*
X64008760Y19460282D01*
X63993312Y19458356D01*
X63986332Y19456278D01*
X63986170Y19456820D01*
X63985298Y19456541D01*
X63985482Y19456006D01*
X63978591Y19453641D01*
X63931965Y19428408D01*
X63930351Y19427577D01*
X63882735Y19404298D01*
X63876808Y19400066D01*
X63876479Y19400527D01*
X63875741Y19399976D01*
X63876089Y19399529D01*
X63870341Y19395056D01*
X63834441Y19356059D01*
X63833184Y19354748D01*
X49872983Y5394545D01*
X49818489Y5369134D01*
X49810828Y5368800D01*
X18288804Y5368800D01*
X18232303Y5389365D01*
X18226649Y5394545D01*
X18140049Y5481145D01*
X18114638Y5535639D01*
X18130201Y5593717D01*
X18179454Y5628205D01*
X18202204Y5631200D01*
X49452632Y5631200D01*
X49470668Y5629330D01*
X49484549Y5626419D01*
X49514597Y5630165D01*
X49520193Y5630862D01*
X49525635Y5631200D01*
X49530557Y5631200D01*
X49530562Y5631200D01*
X49552312Y5634830D01*
X49554018Y5635079D01*
X49606687Y5641644D01*
X49606691Y5641647D01*
X49613668Y5643723D01*
X49613831Y5643173D01*
X49614704Y5643453D01*
X49614518Y5643995D01*
X49621408Y5646360D01*
X49651913Y5662870D01*
X49668045Y5671601D01*
X49669606Y5672405D01*
X49717264Y5695702D01*
X49717270Y5695709D01*
X49723193Y5699936D01*
X49723526Y5699469D01*
X49724256Y5700013D01*
X49723904Y5700465D01*
X49729650Y5704939D01*
X49729654Y5704940D01*
X49765580Y5743968D01*
X49766818Y5745257D01*
X64827016Y20805455D01*
X64881510Y20830866D01*
X64889171Y20831200D01*
X65678695Y20831200D01*
X65735196Y20810635D01*
X65748431Y20796810D01*
X65769432Y20769440D01*
X65769434Y20769438D01*
X65769436Y20769436D01*
X65895545Y20672669D01*
X66042403Y20611839D01*
X66200000Y20591091D01*
X66357597Y20611839D01*
X66504455Y20672669D01*
X66630564Y20769436D01*
X66727331Y20895545D01*
X66788161Y21042403D01*
X66808909Y21200000D01*
X66788161Y21357597D01*
X66727331Y21504454D01*
X66687565Y21556278D01*
X66630567Y21630561D01*
X66630564Y21630564D01*
X66623272Y21636159D01*
X66504455Y21727331D01*
X66357597Y21788161D01*
X66200000Y21808909D01*
X66042402Y21788161D01*
X65895546Y21727331D01*
X65895544Y21727330D01*
X65769437Y21630566D01*
X65769434Y21630563D01*
X65748431Y21603190D01*
X65697720Y21570884D01*
X65678695Y21568800D01*
X64747368Y21568800D01*
X64729331Y21570671D01*
X64715451Y21573581D01*
X64715450Y21573581D01*
X64679807Y21569138D01*
X64674365Y21568800D01*
X64669437Y21568800D01*
X64647714Y21565176D01*
X64645933Y21564917D01*
X64608760Y21560282D01*
X64593312Y21558356D01*
X64586332Y21556278D01*
X64586170Y21556820D01*
X64585298Y21556541D01*
X64585482Y21556006D01*
X64578591Y21553641D01*
X64531965Y21528408D01*
X64530351Y21527577D01*
X64482735Y21504298D01*
X64476808Y21500066D01*
X64476479Y21500527D01*
X64475741Y21499976D01*
X64476089Y21499529D01*
X64470341Y21495056D01*
X64434441Y21456059D01*
X64433184Y21454748D01*
X49372983Y6394545D01*
X49318489Y6369134D01*
X49310828Y6368800D01*
X18038620Y6368800D01*
X17982119Y6389365D01*
X17976465Y6394545D01*
X17889865Y6481145D01*
X17864454Y6535639D01*
X17880017Y6593717D01*
X17929270Y6628205D01*
X17952020Y6631200D01*
X49052632Y6631200D01*
X49070668Y6629330D01*
X49084549Y6626419D01*
X49114597Y6630165D01*
X49120193Y6630862D01*
X49125635Y6631200D01*
X49130557Y6631200D01*
X49130562Y6631200D01*
X49152312Y6634830D01*
X49154018Y6635079D01*
X49206687Y6641644D01*
X49206691Y6641647D01*
X49213668Y6643723D01*
X49213831Y6643173D01*
X49214704Y6643453D01*
X49214518Y6643995D01*
X49221408Y6646360D01*
X49251913Y6662870D01*
X49268045Y6671601D01*
X49269606Y6672405D01*
X49317264Y6695702D01*
X49317270Y6695709D01*
X49323193Y6699936D01*
X49323526Y6699469D01*
X49324256Y6700013D01*
X49323904Y6700465D01*
X49329650Y6704938D01*
X49329649Y6704938D01*
X49329654Y6704940D01*
X49365579Y6743967D01*
X49366817Y6745256D01*
X57417107Y14795546D01*
X65470546Y22848986D01*
X65525039Y22874396D01*
X65583117Y22858833D01*
X65586176Y22856591D01*
X65695545Y22772669D01*
X65842403Y22711839D01*
X66000000Y22691091D01*
X66157597Y22711839D01*
X66304455Y22772669D01*
X66430564Y22869436D01*
X66527331Y22995545D01*
X66588161Y23142403D01*
X66608909Y23300000D01*
X66588161Y23457597D01*
X66527331Y23604454D01*
X66487565Y23656278D01*
X66430567Y23730561D01*
X66430564Y23730564D01*
X66430561Y23730566D01*
X66304455Y23827331D01*
X66157597Y23888161D01*
X66000000Y23908909D01*
X65842402Y23888161D01*
X65695546Y23827331D01*
X65695544Y23827330D01*
X65569437Y23730566D01*
X65569434Y23730563D01*
X65548431Y23703190D01*
X65497720Y23670884D01*
X65478695Y23668800D01*
X65447368Y23668800D01*
X65429331Y23670671D01*
X65415451Y23673581D01*
X65415450Y23673581D01*
X65379807Y23669138D01*
X65374365Y23668800D01*
X65369437Y23668800D01*
X65347714Y23665176D01*
X65345933Y23664917D01*
X65308760Y23660282D01*
X65293312Y23658356D01*
X65286332Y23656278D01*
X65286170Y23656820D01*
X65285298Y23656541D01*
X65285482Y23656006D01*
X65278591Y23653641D01*
X65231965Y23628408D01*
X65230351Y23627577D01*
X65182735Y23604298D01*
X65176808Y23600066D01*
X65176479Y23600527D01*
X65175741Y23599976D01*
X65176089Y23599529D01*
X65170341Y23595056D01*
X65134441Y23556059D01*
X65133184Y23554748D01*
X48972983Y7394545D01*
X48918489Y7369134D01*
X48910828Y7368800D01*
X48904720Y7368800D01*
X48848219Y7389365D01*
X48818155Y7441436D01*
X48828596Y7500650D01*
X48840048Y7516231D01*
X48843694Y7520193D01*
X48865579Y7543967D01*
X48866792Y7545232D01*
X65892163Y24570603D01*
X65946656Y24596013D01*
X65965789Y24595596D01*
X66000000Y24591091D01*
X66157597Y24611839D01*
X66304455Y24672669D01*
X66430564Y24769436D01*
X66527331Y24895545D01*
X66588161Y25042403D01*
X66608909Y25200000D01*
X66588161Y25357597D01*
X66527331Y25504454D01*
X66488624Y25554899D01*
X66430567Y25630561D01*
X66430564Y25630564D01*
X66412800Y25644195D01*
X66304455Y25727331D01*
X66157597Y25788161D01*
X66000000Y25808909D01*
X65842402Y25788161D01*
X65695546Y25727331D01*
X65695544Y25727330D01*
X65569437Y25630566D01*
X65569434Y25630563D01*
X65472670Y25504456D01*
X65472669Y25504454D01*
X65411839Y25357598D01*
X65391091Y25200001D01*
X65391091Y25199999D01*
X65395594Y25165792D01*
X65382580Y25107091D01*
X65370601Y25092165D01*
X48472983Y8194545D01*
X48418489Y8169134D01*
X48410828Y8168800D01*
X17889172Y8168800D01*
X17832671Y8189365D01*
X17827017Y8194545D01*
X17400473Y8621090D01*
X17375062Y8675584D01*
X17390625Y8733662D01*
X17409114Y8752978D01*
X17430564Y8769436D01*
X17527331Y8895545D01*
X17588161Y9042403D01*
X17608909Y9200000D01*
X17588161Y9357597D01*
X17527331Y9504454D01*
X17472889Y9575405D01*
X17430567Y9630561D01*
X17430564Y9630564D01*
X17430563Y9630564D01*
X17304455Y9727331D01*
X17157597Y9788161D01*
X17000000Y9808909D01*
X16842400Y9788161D01*
X16771849Y9758938D01*
X16711779Y9756316D01*
X16664077Y9792919D01*
X16657003Y9806509D01*
X16637166Y9854400D01*
X16613974Y9910391D01*
X16571767Y9965397D01*
X16517210Y10036498D01*
X16517207Y10036501D01*
X16516611Y10036958D01*
X16391098Y10133268D01*
X16244240Y10194098D01*
X16086643Y10214846D01*
X15929045Y10194098D01*
X15808199Y10144042D01*
X15748129Y10141419D01*
X15700427Y10178023D01*
X15687413Y10236724D01*
X15688748Y10246860D01*
X15708909Y10400000D01*
X15688161Y10557597D01*
X15627331Y10704454D01*
X15574462Y10773355D01*
X15530567Y10830561D01*
X15530564Y10830564D01*
X15498553Y10855127D01*
X15404455Y10927331D01*
X15257597Y10988161D01*
X15100000Y11008909D01*
X14942399Y10988161D01*
X14936836Y10986670D01*
X14936168Y10989162D01*
X14885750Y10986986D01*
X14838066Y11023613D01*
X14825082Y11082321D01*
X14831012Y11104434D01*
X14888161Y11242403D01*
X14908909Y11400000D01*
X14888161Y11557597D01*
X14827331Y11704454D01*
X14777469Y11769436D01*
X14730567Y11830561D01*
X14730564Y11830564D01*
X14719180Y11839299D01*
X14670287Y11876816D01*
X14637982Y11927526D01*
X14645830Y11987139D01*
X14654057Y12000053D01*
X14727331Y12095545D01*
X14788161Y12242403D01*
X14808909Y12400000D01*
X14788161Y12557597D01*
X14727331Y12704454D01*
X14658827Y12793731D01*
X14630567Y12830561D01*
X14630564Y12830564D01*
X14599047Y12854748D01*
X14504455Y12927331D01*
X14357597Y12988161D01*
X14200000Y13008909D01*
X14042400Y12988161D01*
X13958300Y12953326D01*
X13898230Y12950704D01*
X13850528Y12987307D01*
X13843454Y13000897D01*
X13840135Y13008909D01*
X13805868Y13091638D01*
X13767161Y13142083D01*
X13709104Y13217745D01*
X13709101Y13217748D01*
X13680108Y13239995D01*
X13582992Y13314515D01*
X13436134Y13375345D01*
X13278537Y13396093D01*
X13120939Y13375345D01*
X13061898Y13350889D01*
X12974083Y13314515D01*
X12974081Y13314514D01*
X12968761Y13312310D01*
X12968108Y13313886D01*
X12915921Y13304693D01*
X12863854Y13334766D01*
X12843300Y13391255D01*
X12843300Y14243498D01*
X12863865Y14299999D01*
X12897560Y14324706D01*
X13013355Y14372669D01*
X13139464Y14469436D01*
X13236231Y14595545D01*
X13297061Y14742403D01*
X13309844Y14839502D01*
X13337608Y14892835D01*
X13393158Y14915844D01*
X13450502Y14897764D01*
X13461650Y14887574D01*
X13461848Y14887359D01*
X13469480Y14876563D01*
X13469665Y14876698D01*
X13473576Y14871399D01*
X13515740Y14829234D01*
X13516867Y14828065D01*
X13542906Y14800001D01*
X13557407Y14784373D01*
X13562557Y14780266D01*
X13562401Y14780072D01*
X13573146Y14771829D01*
X15716555Y12628421D01*
X15741966Y12573927D01*
X15742300Y12566266D01*
X15742300Y11828177D01*
X15742023Y11823252D01*
X15737452Y11782696D01*
X15748536Y11724113D01*
X15748809Y11722506D01*
X15751531Y11704456D01*
X15757693Y11663571D01*
X15759636Y11657274D01*
X15759398Y11657201D01*
X15760695Y11653260D01*
X15760929Y11653341D01*
X15763104Y11647124D01*
X15790951Y11594435D01*
X15791691Y11592969D01*
X15817558Y11539256D01*
X15821270Y11533812D01*
X15821067Y11533674D01*
X15823467Y11530292D01*
X15823665Y11530437D01*
X15827576Y11525138D01*
X15869740Y11482973D01*
X15870867Y11481804D01*
X15888599Y11462693D01*
X15911407Y11438112D01*
X15916557Y11434005D01*
X15916401Y11433811D01*
X15927146Y11425568D01*
X17256435Y10096280D01*
X17259719Y10092605D01*
X17285168Y10060692D01*
X17334464Y10027083D01*
X17335746Y10026173D01*
X17355166Y10011840D01*
X17383714Y9990770D01*
X17389538Y9987692D01*
X17389422Y9987474D01*
X17393128Y9985603D01*
X17393236Y9985826D01*
X17399165Y9982971D01*
X17399168Y9982969D01*
X17429497Y9973614D01*
X17456136Y9965397D01*
X17457681Y9964889D01*
X17513947Y9945200D01*
X17513948Y9945200D01*
X17520425Y9943974D01*
X17520378Y9943729D01*
X17524462Y9943036D01*
X17524500Y9943282D01*
X17531012Y9942301D01*
X17531013Y9942300D01*
X17590602Y9942300D01*
X17592245Y9942269D01*
X17615518Y9941399D01*
X17651825Y9940040D01*
X17651828Y9940042D01*
X17651830Y9940041D01*
X17658372Y9940777D01*
X17658399Y9940532D01*
X17671833Y9942300D01*
X18416400Y9942300D01*
X18472901Y9921735D01*
X18502965Y9869664D01*
X18504300Y9854400D01*
X18504300Y9279936D01*
X18505746Y9272669D01*
X18516118Y9220522D01*
X18516119Y9220520D01*
X18546284Y9175373D01*
X18561140Y9153140D01*
X18628520Y9108119D01*
X18687936Y9096300D01*
X18687938Y9096300D01*
X19328062Y9096300D01*
X19328064Y9096300D01*
X19387480Y9108119D01*
X19454860Y9153140D01*
X19464325Y9167307D01*
X19512813Y9202862D01*
X19572812Y9198931D01*
X19598776Y9178549D01*
X19600128Y9179900D01*
X19604200Y9175827D01*
X19633767Y9153140D01*
X19730306Y9079063D01*
X19877164Y9018233D01*
X20014011Y9000217D01*
X20034760Y8997485D01*
X20034760Y8997486D01*
X20034761Y8997485D01*
X20192358Y9018233D01*
X20339216Y9079063D01*
X20465325Y9175830D01*
X20562092Y9301939D01*
X20594675Y9380604D01*
X20635294Y9424933D01*
X20694907Y9432782D01*
X20745618Y9400476D01*
X20769436Y9369436D01*
X20895545Y9272669D01*
X21042403Y9211839D01*
X21179250Y9193823D01*
X21199999Y9191091D01*
X21199999Y9191092D01*
X21200000Y9191091D01*
X21357597Y9211839D01*
X21504455Y9272669D01*
X21630564Y9369436D01*
X21710039Y9473011D01*
X21760750Y9505316D01*
X21779775Y9507400D01*
X22810700Y9507400D01*
X22867201Y9486835D01*
X22896911Y9436648D01*
X22900118Y9420523D01*
X22900119Y9420520D01*
X22934251Y9369436D01*
X22945140Y9353140D01*
X23012520Y9308119D01*
X23071936Y9296300D01*
X23071938Y9296300D01*
X23712062Y9296300D01*
X23712064Y9296300D01*
X23771480Y9308119D01*
X23838860Y9353140D01*
X23883881Y9420520D01*
X23895700Y9479936D01*
X23895700Y10120064D01*
X23883881Y10179480D01*
X23838860Y10246860D01*
X23771480Y10291881D01*
X23771478Y10291882D01*
X23735700Y10298999D01*
X23712064Y10303700D01*
X23071936Y10303700D01*
X23052221Y10299779D01*
X23012521Y10291882D01*
X23012519Y10291881D01*
X22945140Y10246861D01*
X22945139Y10246860D01*
X22900119Y10179481D01*
X22900118Y10179478D01*
X22896911Y10163352D01*
X22865719Y10111949D01*
X22810700Y10092600D01*
X21779774Y10092600D01*
X21723273Y10113165D01*
X21710038Y10126991D01*
X21630570Y10230557D01*
X21630564Y10230564D01*
X21615135Y10242403D01*
X21504455Y10327331D01*
X21357597Y10388161D01*
X21200000Y10408909D01*
X21042402Y10388161D01*
X20895546Y10327331D01*
X20895544Y10327330D01*
X20769437Y10230566D01*
X20769434Y10230563D01*
X20672670Y10104456D01*
X20672669Y10104454D01*
X20640086Y10025792D01*
X20599464Y9981461D01*
X20539851Y9973614D01*
X20489141Y10005920D01*
X20489141Y10005921D01*
X20465331Y10036952D01*
X20465325Y10036958D01*
X20434394Y10060692D01*
X20339216Y10133725D01*
X20192358Y10194555D01*
X20108537Y10205591D01*
X20057856Y10230584D01*
X19584718Y10703722D01*
X19581443Y10707387D01*
X19555987Y10739308D01*
X19509981Y10770675D01*
X19474883Y10819492D01*
X19479375Y10879451D01*
X19521358Y10922495D01*
X19559497Y10931200D01*
X25352632Y10931200D01*
X25370668Y10929330D01*
X25384549Y10926419D01*
X25414597Y10930165D01*
X25420193Y10930862D01*
X25425635Y10931200D01*
X25430557Y10931200D01*
X25430562Y10931200D01*
X25452312Y10934830D01*
X25454018Y10935079D01*
X25506687Y10941644D01*
X25506691Y10941647D01*
X25513668Y10943723D01*
X25513831Y10943173D01*
X25514704Y10943453D01*
X25514518Y10943995D01*
X25521408Y10946360D01*
X25555899Y10965027D01*
X25568045Y10971601D01*
X25569606Y10972405D01*
X25617264Y10995702D01*
X25617270Y10995709D01*
X25623193Y10999936D01*
X25623526Y10999469D01*
X25624256Y11000013D01*
X25623904Y11000465D01*
X25629650Y11004938D01*
X25629649Y11004938D01*
X25629654Y11004940D01*
X25665579Y11043967D01*
X25666817Y11045256D01*
X42827017Y28205455D01*
X42881511Y28230866D01*
X42889172Y28231200D01*
X62878695Y28231200D01*
X62935196Y28210635D01*
X62948431Y28196810D01*
X62969432Y28169440D01*
X62969434Y28169438D01*
X62969436Y28169436D01*
X63095545Y28072669D01*
X63242403Y28011839D01*
X63379251Y27993823D01*
X63399999Y27991091D01*
X63399999Y27991092D01*
X63400000Y27991091D01*
X63557597Y28011839D01*
X63704455Y28072669D01*
X63830564Y28169436D01*
X63927331Y28295545D01*
X63988161Y28442403D01*
X64008909Y28600000D01*
X63988161Y28757597D01*
X63927331Y28904454D01*
X63887565Y28956278D01*
X63830567Y29030561D01*
X63830564Y29030564D01*
X63812870Y29044141D01*
X63704455Y29127331D01*
X63557597Y29188161D01*
X63400000Y29208909D01*
X63242402Y29188161D01*
X63095546Y29127331D01*
X63095544Y29127330D01*
X62969437Y29030566D01*
X62969434Y29030563D01*
X62948431Y29003190D01*
X62897720Y28970884D01*
X62878695Y28968800D01*
X42747368Y28968800D01*
X42729331Y28970671D01*
X42715451Y28973581D01*
X42715450Y28973581D01*
X42679807Y28969138D01*
X42674365Y28968800D01*
X42669437Y28968800D01*
X42647714Y28965176D01*
X42645933Y28964917D01*
X42608760Y28960282D01*
X42593312Y28958356D01*
X42586332Y28956278D01*
X42586170Y28956820D01*
X42585298Y28956541D01*
X42585482Y28956006D01*
X42578591Y28953641D01*
X42531965Y28928408D01*
X42530351Y28927577D01*
X42482735Y28904298D01*
X42476808Y28900066D01*
X42476479Y28900527D01*
X42475741Y28899976D01*
X42476089Y28899529D01*
X42470341Y28895056D01*
X42434441Y28856059D01*
X42433184Y28854748D01*
X25272983Y11694545D01*
X25218489Y11669134D01*
X25210828Y11668800D01*
X24929424Y11668800D01*
X24872923Y11689365D01*
X24842859Y11741436D01*
X24853300Y11800650D01*
X24899360Y11839299D01*
X24904338Y11840944D01*
X24913667Y11843722D01*
X24913830Y11843173D01*
X24914704Y11843453D01*
X24914518Y11843995D01*
X24921408Y11846360D01*
X24951913Y11862870D01*
X24968045Y11871601D01*
X24969606Y11872405D01*
X25017264Y11895702D01*
X25017270Y11895709D01*
X25023193Y11899936D01*
X25023526Y11899469D01*
X25024256Y11900013D01*
X25023904Y11900465D01*
X25029650Y11904938D01*
X25029649Y11904938D01*
X25029654Y11904940D01*
X25065579Y11943967D01*
X25066817Y11945256D01*
X26592163Y13470602D01*
X28127291Y15005731D01*
X28141364Y15017158D01*
X28153236Y15024913D01*
X28175311Y15053277D01*
X28178902Y15057342D01*
X28182392Y15060830D01*
X28195214Y15078792D01*
X28196253Y15080185D01*
X28228835Y15122043D01*
X28228837Y15122051D01*
X28232300Y15128447D01*
X28232805Y15128174D01*
X28233224Y15128986D01*
X28232708Y15129238D01*
X28235907Y15135783D01*
X28235906Y15135783D01*
X28235908Y15135784D01*
X28251049Y15186646D01*
X28251576Y15188290D01*
X28268800Y15238458D01*
X28268800Y15238461D01*
X28269999Y15245643D01*
X28270563Y15245549D01*
X28270694Y15246450D01*
X28270128Y15246520D01*
X28271029Y15253750D01*
X28268838Y15306743D01*
X28268800Y15308560D01*
X28268800Y50010829D01*
X28289365Y50067330D01*
X28294546Y50072984D01*
X28432118Y50210555D01*
X28486611Y50235966D01*
X28494272Y50236300D01*
X32079162Y50236300D01*
X32135663Y50215735D01*
X32165727Y50163664D01*
X32160371Y50114765D01*
X32132401Y50047239D01*
X32117739Y50011840D01*
X32111839Y49997597D01*
X32091091Y49840000D01*
X32111839Y49682403D01*
X32172669Y49535545D01*
X32172670Y49535544D01*
X32172672Y49535540D01*
X32224135Y49468474D01*
X32242300Y49414963D01*
X32242300Y41573177D01*
X32242023Y41568252D01*
X32237452Y41527696D01*
X32248536Y41469113D01*
X32248812Y41467493D01*
X32257693Y41408571D01*
X32259636Y41402274D01*
X32259398Y41402201D01*
X32260695Y41398260D01*
X32260929Y41398341D01*
X32263104Y41392124D01*
X32290951Y41339435D01*
X32291691Y41337969D01*
X32317558Y41284256D01*
X32321270Y41278812D01*
X32321067Y41278674D01*
X32323467Y41275292D01*
X32323665Y41275437D01*
X32327576Y41270138D01*
X32369740Y41227973D01*
X32370867Y41226804D01*
X32411405Y41183114D01*
X32411407Y41183112D01*
X32416557Y41179005D01*
X32416401Y41178811D01*
X32427146Y41170568D01*
X33328055Y40269659D01*
X33353466Y40215165D01*
X33353800Y40207504D01*
X33353800Y39570351D01*
X33353801Y39570342D01*
X33356673Y39539699D01*
X33401844Y39410607D01*
X33401845Y39410606D01*
X33446533Y39350057D01*
X33483062Y39300562D01*
X33538083Y39259955D01*
X33593103Y39219347D01*
X33593104Y39219347D01*
X33593105Y39219346D01*
X33653432Y39198237D01*
X33699969Y39160166D01*
X33712300Y39115270D01*
X33712300Y38785038D01*
X33694136Y38731529D01*
X33642672Y38664460D01*
X33642669Y38664454D01*
X33581839Y38517598D01*
X33561802Y38365397D01*
X33561091Y38360000D01*
X33581839Y38202403D01*
X33642669Y38055545D01*
X33642670Y38055544D01*
X33642672Y38055540D01*
X33694135Y37988474D01*
X33712300Y37934963D01*
X33712300Y36308177D01*
X33712023Y36303252D01*
X33707452Y36262696D01*
X33718536Y36204113D01*
X33718812Y36202493D01*
X33727693Y36143571D01*
X33729636Y36137274D01*
X33729398Y36137201D01*
X33730695Y36133260D01*
X33730929Y36133341D01*
X33733104Y36127124D01*
X33760951Y36074435D01*
X33761691Y36072969D01*
X33787558Y36019256D01*
X33791270Y36013812D01*
X33791067Y36013674D01*
X33793467Y36010292D01*
X33793665Y36010437D01*
X33797576Y36005138D01*
X33839740Y35962973D01*
X33840867Y35961804D01*
X33881405Y35918114D01*
X33881407Y35918112D01*
X33886557Y35914005D01*
X33886401Y35913811D01*
X33897146Y35905568D01*
X40016431Y29786284D01*
X40019717Y29782606D01*
X40045168Y29750692D01*
X40094426Y29717108D01*
X40095766Y29716158D01*
X40143715Y29680770D01*
X40149543Y29677690D01*
X40149426Y29677470D01*
X40153124Y29675604D01*
X40153233Y29675828D01*
X40159163Y29672973D01*
X40159168Y29672969D01*
X40216155Y29655391D01*
X40217635Y29654904D01*
X40273947Y29635199D01*
X40273949Y29635199D01*
X40280425Y29633973D01*
X40280378Y29633728D01*
X40284458Y29633035D01*
X40284496Y29633282D01*
X40291011Y29632300D01*
X40291013Y29632300D01*
X40350590Y29632300D01*
X40352233Y29632269D01*
X40400142Y29630478D01*
X40411825Y29630040D01*
X40411825Y29630041D01*
X40411830Y29630040D01*
X40418372Y29630777D01*
X40418399Y29630532D01*
X40431833Y29632300D01*
X48084962Y29632300D01*
X48138471Y29614137D01*
X48205545Y29562669D01*
X48352403Y29501839D01*
X48510000Y29481091D01*
X48667597Y29501839D01*
X48814455Y29562669D01*
X48881528Y29614137D01*
X48935038Y29632300D01*
X50511013Y29632300D01*
X50518525Y29632300D01*
X50538083Y29630097D01*
X50545410Y29628424D01*
X50595491Y29632178D01*
X50598773Y29632300D01*
X52507994Y29632300D01*
X52561503Y29614137D01*
X52615545Y29572669D01*
X52762403Y29511839D01*
X52899251Y29493823D01*
X52919999Y29491091D01*
X52919999Y29491092D01*
X52920000Y29491091D01*
X53077597Y29511839D01*
X53224455Y29572669D01*
X53291528Y29624137D01*
X53345038Y29642300D01*
X63534004Y29642300D01*
X63590505Y29621735D01*
X63596159Y29616555D01*
X68506555Y24706160D01*
X68531966Y24651666D01*
X68532300Y24644005D01*
X68532300Y11508177D01*
X68532023Y11503252D01*
X68527452Y11462696D01*
X68538536Y11404113D01*
X68538809Y11402506D01*
X68539188Y11400000D01*
X68547693Y11343571D01*
X68549636Y11337274D01*
X68549398Y11337201D01*
X68550695Y11333260D01*
X68550929Y11333341D01*
X68553104Y11327124D01*
X68580951Y11274435D01*
X68581691Y11272969D01*
X68607558Y11219256D01*
X68611270Y11213812D01*
X68611067Y11213674D01*
X68613467Y11210292D01*
X68613665Y11210437D01*
X68617576Y11205138D01*
X68659740Y11162973D01*
X68660867Y11161804D01*
X68692853Y11127331D01*
X68701407Y11118112D01*
X68706557Y11114005D01*
X68706401Y11113811D01*
X68717146Y11105568D01*
X70886435Y8936279D01*
X70889721Y8932601D01*
X70913957Y8902210D01*
X70915168Y8900692D01*
X70964431Y8867106D01*
X70965738Y8866179D01*
X70966825Y8865377D01*
X71013714Y8830770D01*
X71019538Y8827692D01*
X71019422Y8827474D01*
X71023128Y8825603D01*
X71023236Y8825826D01*
X71029165Y8822971D01*
X71029168Y8822969D01*
X71074857Y8808876D01*
X71086136Y8805397D01*
X71087681Y8804889D01*
X71143947Y8785200D01*
X71143948Y8785200D01*
X71150425Y8783974D01*
X71150378Y8783729D01*
X71154462Y8783036D01*
X71154500Y8783282D01*
X71161012Y8782301D01*
X71161013Y8782300D01*
X71220616Y8782300D01*
X71222259Y8782269D01*
X71246092Y8781378D01*
X71281824Y8780041D01*
X71281828Y8780042D01*
X71288369Y8780778D01*
X71288396Y8780532D01*
X71301827Y8782300D01*
X72678869Y8782300D01*
X72735370Y8761735D01*
X72754991Y8738352D01*
X72765201Y8720668D01*
X72888796Y8583402D01*
X73038230Y8474832D01*
X73206971Y8399704D01*
X73316619Y8376398D01*
X73387639Y8361301D01*
X73387641Y8361301D01*
X73387645Y8361300D01*
X73387648Y8361300D01*
X73572352Y8361300D01*
X73572355Y8361300D01*
X73753029Y8399704D01*
X73921770Y8474832D01*
X74071204Y8583402D01*
X74194799Y8720668D01*
X74287154Y8880632D01*
X74344233Y9056302D01*
X74344234Y9056308D01*
X74363540Y9239995D01*
X74363540Y9240006D01*
X74344234Y9423693D01*
X74344233Y9423696D01*
X74344233Y9423698D01*
X74287154Y9599368D01*
X74194799Y9759332D01*
X74071204Y9896598D01*
X73921770Y10005168D01*
X73906784Y10011840D01*
X73888448Y10020004D01*
X73753029Y10080296D01*
X73753027Y10080297D01*
X73753026Y10080297D01*
X73572360Y10118700D01*
X73572355Y10118700D01*
X73387645Y10118700D01*
X73387639Y10118700D01*
X73206973Y10080297D01*
X73206971Y10080296D01*
X73038231Y10005169D01*
X72888795Y9896598D01*
X72765204Y9759336D01*
X72765201Y9759332D01*
X72754992Y9741649D01*
X72708932Y9703001D01*
X72678869Y9697700D01*
X71455996Y9697700D01*
X71399495Y9718265D01*
X71393841Y9723445D01*
X69877291Y11239995D01*
X72596460Y11239995D01*
X72615765Y11056308D01*
X72615767Y11056302D01*
X72672846Y10880632D01*
X72765201Y10720668D01*
X72888796Y10583402D01*
X73038230Y10474832D01*
X73206971Y10399704D01*
X73316619Y10376398D01*
X73387639Y10361301D01*
X73387641Y10361301D01*
X73387645Y10361300D01*
X73387648Y10361300D01*
X73572352Y10361300D01*
X73572355Y10361300D01*
X73753029Y10399704D01*
X73921770Y10474832D01*
X74071204Y10583402D01*
X74194799Y10720668D01*
X74287154Y10880632D01*
X74344233Y11056302D01*
X74344234Y11056308D01*
X74363540Y11239995D01*
X74363540Y11240006D01*
X74344234Y11423693D01*
X74344233Y11423696D01*
X74344233Y11423698D01*
X74287154Y11599368D01*
X74194799Y11759332D01*
X74071204Y11896598D01*
X73921770Y12005168D01*
X73906784Y12011840D01*
X73838138Y12042403D01*
X73753029Y12080296D01*
X73753027Y12080297D01*
X73753026Y12080297D01*
X73572360Y12118700D01*
X73572355Y12118700D01*
X73387645Y12118700D01*
X73387639Y12118700D01*
X73206973Y12080297D01*
X73206971Y12080296D01*
X73038231Y12005169D01*
X72888795Y11896598D01*
X72765204Y11759336D01*
X72765203Y11759335D01*
X72765201Y11759333D01*
X72765201Y11759332D01*
X72680046Y11611839D01*
X72672846Y11599368D01*
X72615765Y11423693D01*
X72596460Y11240006D01*
X72596460Y11239995D01*
X69877291Y11239995D01*
X69473445Y11643841D01*
X69448034Y11698335D01*
X69447700Y11705996D01*
X69447700Y13239995D01*
X72596460Y13239995D01*
X72615765Y13056308D01*
X72615767Y13056302D01*
X72672846Y12880632D01*
X72765201Y12720668D01*
X72779800Y12704454D01*
X72875067Y12598649D01*
X72888796Y12583402D01*
X73038230Y12474832D01*
X73206971Y12399704D01*
X73316619Y12376398D01*
X73387639Y12361301D01*
X73387641Y12361301D01*
X73387645Y12361300D01*
X73387648Y12361300D01*
X73572352Y12361300D01*
X73572355Y12361300D01*
X73753029Y12399704D01*
X73921770Y12474832D01*
X74071204Y12583402D01*
X74194799Y12720668D01*
X74287154Y12880632D01*
X74344233Y13056302D01*
X74344459Y13058449D01*
X74363540Y13239995D01*
X74363540Y13240006D01*
X74344234Y13423693D01*
X74344233Y13423696D01*
X74344233Y13423698D01*
X74287154Y13599368D01*
X74194799Y13759332D01*
X74071204Y13896598D01*
X73921770Y14005168D01*
X73753029Y14080296D01*
X73753027Y14080297D01*
X73753026Y14080297D01*
X73572360Y14118700D01*
X73572355Y14118700D01*
X73387645Y14118700D01*
X73387639Y14118700D01*
X73206973Y14080297D01*
X73206971Y14080296D01*
X73038231Y14005169D01*
X72888795Y13896598D01*
X72765204Y13759336D01*
X72765203Y13759335D01*
X72672846Y13599368D01*
X72615765Y13423693D01*
X72596460Y13240006D01*
X72596460Y13239995D01*
X69447700Y13239995D01*
X69447700Y15239995D01*
X72596460Y15239995D01*
X72615765Y15056308D01*
X72616067Y15055379D01*
X72672846Y14880632D01*
X72765201Y14720668D01*
X72888796Y14583402D01*
X73038230Y14474832D01*
X73206971Y14399704D01*
X73316619Y14376398D01*
X73387639Y14361301D01*
X73387641Y14361301D01*
X73387645Y14361300D01*
X73387648Y14361300D01*
X73572352Y14361300D01*
X73572355Y14361300D01*
X73753029Y14399704D01*
X73921770Y14474832D01*
X74071204Y14583402D01*
X74194799Y14720668D01*
X74287154Y14880632D01*
X74344233Y15056302D01*
X74344234Y15056308D01*
X74363540Y15239995D01*
X74363540Y15240006D01*
X74344234Y15423693D01*
X74344233Y15423696D01*
X74344233Y15423698D01*
X74287154Y15599368D01*
X74194799Y15759332D01*
X74071204Y15896598D01*
X73921770Y16005168D01*
X73753029Y16080296D01*
X73753027Y16080297D01*
X73753026Y16080297D01*
X73572360Y16118700D01*
X73572355Y16118700D01*
X73387645Y16118700D01*
X73387639Y16118700D01*
X73206973Y16080297D01*
X73206971Y16080296D01*
X73038231Y16005169D01*
X72888795Y15896598D01*
X72765204Y15759336D01*
X72765203Y15759335D01*
X72765201Y15759333D01*
X72765201Y15759332D01*
X72699656Y15645805D01*
X72672846Y15599368D01*
X72615765Y15423693D01*
X72596460Y15240006D01*
X72596460Y15239995D01*
X69447700Y15239995D01*
X69447700Y17239995D01*
X72596460Y17239995D01*
X72615765Y17056308D01*
X72615767Y17056302D01*
X72672846Y16880632D01*
X72765201Y16720668D01*
X72888796Y16583402D01*
X73038230Y16474832D01*
X73206971Y16399704D01*
X73295751Y16380833D01*
X73387639Y16361301D01*
X73387641Y16361301D01*
X73387645Y16361300D01*
X73387648Y16361300D01*
X73572352Y16361300D01*
X73572355Y16361300D01*
X73753029Y16399704D01*
X73921770Y16474832D01*
X74071204Y16583402D01*
X74194799Y16720668D01*
X74287154Y16880632D01*
X74344233Y17056302D01*
X74344234Y17056308D01*
X74363540Y17239995D01*
X74363540Y17240006D01*
X74344234Y17423693D01*
X74344233Y17423696D01*
X74344233Y17423698D01*
X74287154Y17599368D01*
X74194799Y17759332D01*
X74071204Y17896598D01*
X73921770Y18005168D01*
X73753029Y18080296D01*
X73753027Y18080297D01*
X73753026Y18080297D01*
X73572360Y18118700D01*
X73572355Y18118700D01*
X73387645Y18118700D01*
X73387639Y18118700D01*
X73206973Y18080297D01*
X73206971Y18080296D01*
X73038231Y18005169D01*
X72888795Y17896598D01*
X72765204Y17759336D01*
X72765203Y17759335D01*
X72765201Y17759333D01*
X72765201Y17759332D01*
X72688990Y17627331D01*
X72672846Y17599368D01*
X72615765Y17423693D01*
X72596460Y17240006D01*
X72596460Y17239995D01*
X69447700Y17239995D01*
X69447700Y19239995D01*
X72596460Y19239995D01*
X72615765Y19056308D01*
X72615767Y19056302D01*
X72672846Y18880632D01*
X72765201Y18720668D01*
X72888796Y18583402D01*
X73038230Y18474832D01*
X73206971Y18399704D01*
X73291785Y18381676D01*
X73387639Y18361301D01*
X73387641Y18361301D01*
X73387645Y18361300D01*
X73387648Y18361300D01*
X73572352Y18361300D01*
X73572355Y18361300D01*
X73753029Y18399704D01*
X73921770Y18474832D01*
X74071204Y18583402D01*
X74194799Y18720668D01*
X74287154Y18880632D01*
X74344233Y19056302D01*
X74344234Y19056308D01*
X74363540Y19239995D01*
X74363540Y19240006D01*
X74344234Y19423693D01*
X74344233Y19423696D01*
X74344233Y19423698D01*
X74287154Y19599368D01*
X74194799Y19759332D01*
X74071204Y19896598D01*
X73921770Y20005168D01*
X73753029Y20080296D01*
X73753027Y20080297D01*
X73753026Y20080297D01*
X73572360Y20118700D01*
X73572355Y20118700D01*
X73387645Y20118700D01*
X73387639Y20118700D01*
X73206973Y20080297D01*
X73206971Y20080296D01*
X73038231Y20005169D01*
X72888795Y19896598D01*
X72765204Y19759336D01*
X72765203Y19759335D01*
X72765201Y19759333D01*
X72765201Y19759332D01*
X72733439Y19704318D01*
X72672846Y19599368D01*
X72615765Y19423693D01*
X72596460Y19240006D01*
X72596460Y19239995D01*
X69447700Y19239995D01*
X69447700Y21239995D01*
X72596460Y21239995D01*
X72615765Y21056308D01*
X72615767Y21056302D01*
X72672846Y20880632D01*
X72765201Y20720668D01*
X72888796Y20583402D01*
X73038230Y20474832D01*
X73206971Y20399704D01*
X73316619Y20376398D01*
X73387639Y20361301D01*
X73387641Y20361301D01*
X73387645Y20361300D01*
X73387648Y20361300D01*
X73572352Y20361300D01*
X73572355Y20361300D01*
X73753029Y20399704D01*
X73921770Y20474832D01*
X74071204Y20583402D01*
X74194799Y20720668D01*
X74287154Y20880632D01*
X74344233Y21056302D01*
X74359336Y21200000D01*
X74363540Y21239995D01*
X74363540Y21240006D01*
X74344234Y21423693D01*
X74344233Y21423696D01*
X74344233Y21423698D01*
X74287154Y21599368D01*
X74194799Y21759332D01*
X74071204Y21896598D01*
X73921770Y22005168D01*
X73919254Y22006288D01*
X73796948Y22060742D01*
X73753029Y22080296D01*
X73753027Y22080297D01*
X73753026Y22080297D01*
X73572360Y22118700D01*
X73572355Y22118700D01*
X73387645Y22118700D01*
X73387639Y22118700D01*
X73206973Y22080297D01*
X73206971Y22080296D01*
X73038231Y22005169D01*
X72888795Y21896598D01*
X72765204Y21759336D01*
X72765203Y21759335D01*
X72672846Y21599368D01*
X72615765Y21423693D01*
X72596460Y21240006D01*
X72596460Y21239995D01*
X69447700Y21239995D01*
X69447700Y23239995D01*
X72596460Y23239995D01*
X72615765Y23056308D01*
X72615767Y23056302D01*
X72672846Y22880632D01*
X72765201Y22720668D01*
X72888796Y22583402D01*
X73038230Y22474832D01*
X73206971Y22399704D01*
X73316619Y22376398D01*
X73387639Y22361301D01*
X73387641Y22361301D01*
X73387645Y22361300D01*
X73387648Y22361300D01*
X73572352Y22361300D01*
X73572355Y22361300D01*
X73753029Y22399704D01*
X73921770Y22474832D01*
X74071204Y22583402D01*
X74194799Y22720668D01*
X74287154Y22880632D01*
X74344233Y23056302D01*
X74344234Y23056308D01*
X74363540Y23239995D01*
X74363540Y23240006D01*
X74344234Y23423693D01*
X74344233Y23423696D01*
X74344233Y23423698D01*
X74287154Y23599368D01*
X74194799Y23759332D01*
X74071204Y23896598D01*
X73921770Y24005168D01*
X73753029Y24080296D01*
X73753027Y24080297D01*
X73753026Y24080297D01*
X73572360Y24118700D01*
X73572355Y24118700D01*
X73387645Y24118700D01*
X73387639Y24118700D01*
X73206973Y24080297D01*
X73206971Y24080296D01*
X73038231Y24005169D01*
X72888795Y23896598D01*
X72765204Y23759336D01*
X72765203Y23759335D01*
X72765201Y23759333D01*
X72765201Y23759332D01*
X72689612Y23628408D01*
X72672846Y23599368D01*
X72615765Y23423693D01*
X72596460Y23240006D01*
X72596460Y23239995D01*
X69447700Y23239995D01*
X69447700Y24841825D01*
X69447977Y24846750D01*
X69452547Y24887306D01*
X69450988Y24895546D01*
X69441456Y24945917D01*
X69441197Y24947443D01*
X69432306Y25006433D01*
X69432304Y25006436D01*
X69430364Y25012729D01*
X69430601Y25012803D01*
X69429304Y25016744D01*
X69429069Y25016661D01*
X69426896Y25022870D01*
X69426895Y25022876D01*
X69399038Y25075584D01*
X69398307Y25077034D01*
X69372439Y25130748D01*
X69368730Y25136188D01*
X69368935Y25136328D01*
X69366533Y25139713D01*
X69366333Y25139565D01*
X69362424Y25144863D01*
X69320258Y25187029D01*
X69319132Y25188197D01*
X69278595Y25231886D01*
X69278591Y25231889D01*
X69273447Y25235991D01*
X69273601Y25236185D01*
X69268636Y25239995D01*
X72596460Y25239995D01*
X72615765Y25056308D01*
X72615767Y25056302D01*
X72672846Y24880632D01*
X72765201Y24720668D01*
X72888796Y24583402D01*
X73038230Y24474832D01*
X73206971Y24399704D01*
X73316619Y24376398D01*
X73387639Y24361301D01*
X73387641Y24361301D01*
X73387645Y24361300D01*
X73387648Y24361300D01*
X73572352Y24361300D01*
X73572355Y24361300D01*
X73753029Y24399704D01*
X73921770Y24474832D01*
X74071204Y24583402D01*
X74194799Y24720668D01*
X74287154Y24880632D01*
X74344233Y25056302D01*
X74344234Y25056308D01*
X74363540Y25239995D01*
X74363540Y25240006D01*
X74344234Y25423693D01*
X74344233Y25423696D01*
X74344233Y25423698D01*
X74287154Y25599368D01*
X74194799Y25759332D01*
X74071204Y25896598D01*
X73921770Y26005168D01*
X73753029Y26080296D01*
X73753027Y26080297D01*
X73753026Y26080297D01*
X73572360Y26118700D01*
X73572355Y26118700D01*
X73387645Y26118700D01*
X73387639Y26118700D01*
X73206973Y26080297D01*
X73206971Y26080296D01*
X73038231Y26005169D01*
X72888795Y25896598D01*
X72765204Y25759336D01*
X72765203Y25759335D01*
X72765201Y25759333D01*
X72765201Y25759332D01*
X72746725Y25727331D01*
X72672846Y25599368D01*
X72615765Y25423693D01*
X72596460Y25240006D01*
X72596460Y25239995D01*
X69268636Y25239995D01*
X69262853Y25244433D01*
X64103564Y30403721D01*
X64100281Y30407395D01*
X64074832Y30439308D01*
X64025554Y30472905D01*
X64024257Y30473825D01*
X63998148Y30493094D01*
X63976283Y30509232D01*
X63970461Y30512309D01*
X63970575Y30512526D01*
X63966868Y30514398D01*
X63966762Y30514175D01*
X63960830Y30517032D01*
X63903870Y30534603D01*
X63902310Y30535116D01*
X63846049Y30554802D01*
X63839583Y30556025D01*
X63839628Y30556266D01*
X63835535Y30556962D01*
X63835499Y30556719D01*
X63828990Y30557700D01*
X63828987Y30557700D01*
X63769398Y30557700D01*
X63767755Y30557731D01*
X63721746Y30559453D01*
X63708175Y30559960D01*
X63708174Y30559960D01*
X63708169Y30559960D01*
X63701628Y30559223D01*
X63701600Y30559469D01*
X63688167Y30557700D01*
X53465600Y30557700D01*
X53409099Y30578265D01*
X53379035Y30630336D01*
X53377700Y30645600D01*
X53377700Y32164004D01*
X53398265Y32220505D01*
X53403445Y32226159D01*
X54303841Y33126555D01*
X54358335Y33151966D01*
X54365996Y33152300D01*
X54474962Y33152300D01*
X54528471Y33134137D01*
X54595545Y33082669D01*
X54742403Y33021839D01*
X54879250Y33003823D01*
X54899999Y33001091D01*
X54899999Y33001092D01*
X54900000Y33001091D01*
X55057597Y33021839D01*
X55204455Y33082669D01*
X55271528Y33134137D01*
X55325038Y33152300D01*
X55808401Y33152300D01*
X55864902Y33131735D01*
X55894966Y33079664D01*
X55896301Y33064400D01*
X55896301Y32995342D01*
X55899173Y32964699D01*
X55944344Y32835607D01*
X55944345Y32835606D01*
X55944346Y32835605D01*
X56025562Y32725562D01*
X56135604Y32644347D01*
X56135605Y32644346D01*
X56135606Y32644345D01*
X56264695Y32599175D01*
X56264697Y32599175D01*
X56264699Y32599174D01*
X56295347Y32596300D01*
X57079652Y32596301D01*
X57110301Y32599174D01*
X57130629Y32606287D01*
X57239393Y32644345D01*
X57239393Y32644346D01*
X57239395Y32644346D01*
X57349438Y32725562D01*
X57430654Y32835605D01*
X57475826Y32964699D01*
X57478700Y32995347D01*
X57478699Y34054652D01*
X57475826Y34085301D01*
X57461386Y34126568D01*
X57430655Y34214394D01*
X57430654Y34214395D01*
X57349439Y34324436D01*
X57349438Y34324438D01*
X57239395Y34405654D01*
X57239394Y34405655D01*
X57239393Y34405656D01*
X57110304Y34450826D01*
X57110299Y34450827D01*
X57079655Y34453700D01*
X56295350Y34453700D01*
X56295341Y34453699D01*
X56264698Y34450827D01*
X56135606Y34405656D01*
X56135605Y34405655D01*
X56025564Y34324440D01*
X56025560Y34324436D01*
X55944345Y34214395D01*
X55913613Y34126568D01*
X55875541Y34080030D01*
X55830646Y34067700D01*
X55325038Y34067700D01*
X55271528Y34085864D01*
X55204455Y34137331D01*
X55057597Y34198161D01*
X54900000Y34218909D01*
X54742402Y34198161D01*
X54595546Y34137332D01*
X54528473Y34085864D01*
X54474963Y34067700D01*
X54168177Y34067700D01*
X54163252Y34067977D01*
X54122694Y34072548D01*
X54064104Y34061462D01*
X54062484Y34061187D01*
X54003567Y34052307D01*
X53997280Y34050367D01*
X53997207Y34050601D01*
X53993262Y34049303D01*
X53993344Y34049071D01*
X53987121Y34046894D01*
X53934446Y34019054D01*
X53932979Y34018314D01*
X53879251Y33992439D01*
X53873813Y33988731D01*
X53873675Y33988933D01*
X53870291Y33986532D01*
X53870437Y33986334D01*
X53865136Y33982422D01*
X53823011Y33940298D01*
X53821829Y33939159D01*
X53778114Y33898596D01*
X53774004Y33893442D01*
X53773811Y33893596D01*
X53765567Y33882854D01*
X52616281Y32733569D01*
X52612605Y32730283D01*
X52580688Y32704829D01*
X52547115Y32655584D01*
X52546164Y32654245D01*
X52510770Y32606287D01*
X52507692Y32600463D01*
X52507476Y32600578D01*
X52505604Y32596871D01*
X52505825Y32596764D01*
X52502968Y32590832D01*
X52485397Y32533871D01*
X52484884Y32532312D01*
X52465199Y32476053D01*
X52463975Y32469583D01*
X52463734Y32469629D01*
X52463039Y32465539D01*
X52463281Y32465502D01*
X52462300Y32458991D01*
X52462300Y32399399D01*
X52462269Y32397756D01*
X52460040Y32338170D01*
X52460777Y32331628D01*
X52460531Y32331601D01*
X52462300Y32318168D01*
X52462300Y30635600D01*
X52441735Y30579099D01*
X52389664Y30549035D01*
X52374400Y30547700D01*
X51477643Y30547700D01*
X51421142Y30568265D01*
X51391078Y30620336D01*
X51401519Y30679550D01*
X51406919Y30687797D01*
X51415120Y30698909D01*
X51460654Y30760605D01*
X51505826Y30889699D01*
X51508700Y30920347D01*
X51508699Y31704652D01*
X51505826Y31735301D01*
X51505825Y31735305D01*
X51460655Y31864394D01*
X51460654Y31864395D01*
X51379439Y31974436D01*
X51379438Y31974438D01*
X51269395Y32055654D01*
X51269394Y32055655D01*
X51269393Y32055656D01*
X51140304Y32100826D01*
X51140299Y32100827D01*
X51109655Y32103700D01*
X50050350Y32103700D01*
X50050341Y32103699D01*
X50019698Y32100827D01*
X49890606Y32055656D01*
X49890605Y32055655D01*
X49780564Y31974440D01*
X49780560Y31974436D01*
X49699345Y31864395D01*
X49699344Y31864394D01*
X49654174Y31735305D01*
X49654173Y31735300D01*
X49651300Y31704657D01*
X49651300Y30920351D01*
X49651301Y30920342D01*
X49654173Y30889699D01*
X49699344Y30760607D01*
X49699345Y30760606D01*
X49753081Y30687797D01*
X49770086Y30630125D01*
X49746042Y30575015D01*
X49692199Y30548253D01*
X49682357Y30547700D01*
X48935038Y30547700D01*
X48881528Y30565864D01*
X48814456Y30617330D01*
X48814455Y30617331D01*
X48667597Y30678161D01*
X48510000Y30698909D01*
X48352402Y30678161D01*
X48205546Y30617332D01*
X48138473Y30565864D01*
X48084963Y30547700D01*
X40585996Y30547700D01*
X40529495Y30568265D01*
X40523841Y30573445D01*
X34653445Y36443841D01*
X34628034Y36498335D01*
X34627700Y36505996D01*
X34627700Y37934963D01*
X34645865Y37988474D01*
X34697327Y38055540D01*
X34697326Y38055540D01*
X34697331Y38055545D01*
X34758161Y38202403D01*
X34778909Y38360000D01*
X34778198Y38365397D01*
X34773011Y38404801D01*
X34758161Y38517597D01*
X34697331Y38664454D01*
X34697328Y38664458D01*
X34697327Y38664460D01*
X34645864Y38731529D01*
X34627700Y38785038D01*
X34627700Y39132766D01*
X34648265Y39189267D01*
X34686570Y39215734D01*
X34696895Y39219346D01*
X34806938Y39300562D01*
X34888154Y39410605D01*
X34933326Y39539699D01*
X34936200Y39570347D01*
X34936199Y40629652D01*
X34933326Y40660301D01*
X34908294Y40731839D01*
X34888155Y40789394D01*
X34888154Y40789395D01*
X34885736Y40792671D01*
X34806938Y40899438D01*
X34696895Y40980654D01*
X34696894Y40980655D01*
X34696893Y40980656D01*
X34567804Y41025826D01*
X34567799Y41025827D01*
X34537156Y41028700D01*
X34537153Y41028700D01*
X33899995Y41028700D01*
X33843494Y41049265D01*
X33837840Y41054445D01*
X33183445Y41708841D01*
X33158034Y41763335D01*
X33157700Y41770996D01*
X33157700Y43420351D01*
X38278800Y43420351D01*
X38278801Y43420342D01*
X38281673Y43389699D01*
X38326844Y43260607D01*
X38326845Y43260606D01*
X38326846Y43260605D01*
X38408062Y43150562D01*
X38518104Y43069347D01*
X38518105Y43069346D01*
X38518106Y43069345D01*
X38647195Y43024175D01*
X38647197Y43024175D01*
X38647199Y43024174D01*
X38677847Y43021300D01*
X39462152Y43021301D01*
X39492801Y43024174D01*
X39492800Y43024175D01*
X39621893Y43069345D01*
X39621893Y43069346D01*
X39621895Y43069346D01*
X39731938Y43150562D01*
X39813154Y43260605D01*
X39858326Y43389699D01*
X39860958Y43417774D01*
X39886706Y43472107D01*
X39932124Y43495934D01*
X39945950Y43498550D01*
X39947422Y43498801D01*
X40006433Y43507694D01*
X40006438Y43507697D01*
X40012730Y43509637D01*
X40012804Y43509397D01*
X40016739Y43510692D01*
X40016656Y43510929D01*
X40022867Y43513104D01*
X40022876Y43513105D01*
X40075600Y43540971D01*
X40077014Y43541685D01*
X40130744Y43567559D01*
X40130748Y43567563D01*
X40136187Y43571270D01*
X40136328Y43571063D01*
X40139706Y43573460D01*
X40139558Y43573661D01*
X40144860Y43577575D01*
X40144859Y43577575D01*
X40144862Y43577576D01*
X40187038Y43619754D01*
X40188155Y43620831D01*
X40231886Y43661405D01*
X40231887Y43661408D01*
X40235995Y43666557D01*
X40236189Y43666403D01*
X40244430Y43677146D01*
X40807847Y44240562D01*
X40862338Y44265971D01*
X40920416Y44250408D01*
X40932154Y44240560D01*
X46676435Y38496279D01*
X46679721Y38492601D01*
X46705048Y38460842D01*
X46705168Y38460692D01*
X46754431Y38427106D01*
X46755738Y38426179D01*
X46776903Y38410558D01*
X46803714Y38390770D01*
X46809538Y38387692D01*
X46809422Y38387474D01*
X46813128Y38385603D01*
X46813236Y38385826D01*
X46819165Y38382971D01*
X46819168Y38382969D01*
X46876136Y38365397D01*
X46877681Y38364889D01*
X46933947Y38345200D01*
X46933948Y38345200D01*
X46940425Y38343974D01*
X46940378Y38343729D01*
X46944462Y38343036D01*
X46944500Y38343282D01*
X46951012Y38342301D01*
X46951013Y38342300D01*
X47010616Y38342300D01*
X47012259Y38342269D01*
X47036092Y38341378D01*
X47071824Y38340041D01*
X47071828Y38340042D01*
X47078369Y38340778D01*
X47078396Y38340532D01*
X47091827Y38342300D01*
X60878629Y38342300D01*
X60935130Y38321735D01*
X60965194Y38269664D01*
X60954753Y38210450D01*
X60930826Y38183676D01*
X60850564Y38124440D01*
X60850560Y38124436D01*
X60769345Y38014395D01*
X60769344Y38014394D01*
X60724174Y37885305D01*
X60724173Y37885300D01*
X60721300Y37854657D01*
X60721300Y36795351D01*
X60721301Y36795342D01*
X60724173Y36764699D01*
X60769344Y36635607D01*
X60769345Y36635606D01*
X60769346Y36635605D01*
X60850562Y36525562D01*
X60877073Y36505996D01*
X60960605Y36444346D01*
X60960606Y36444345D01*
X61089695Y36399175D01*
X61089697Y36399175D01*
X61089699Y36399174D01*
X61120347Y36396300D01*
X61904652Y36396301D01*
X61935301Y36399174D01*
X61935304Y36399175D01*
X62064393Y36444345D01*
X62064393Y36444346D01*
X62064395Y36444346D01*
X62174438Y36525562D01*
X62255654Y36635605D01*
X62300826Y36764699D01*
X62303700Y36795347D01*
X62303699Y37854652D01*
X62300826Y37885301D01*
X62300825Y37885305D01*
X62255655Y38014394D01*
X62255654Y38014395D01*
X62201209Y38088165D01*
X62174438Y38124438D01*
X62123847Y38161776D01*
X62093402Y38184246D01*
X62060153Y38234344D01*
X62057699Y38254970D01*
X62057699Y38269664D01*
X62057699Y38374966D01*
X62075863Y38428472D01*
X62127331Y38495545D01*
X62188161Y38642403D01*
X62199195Y38726223D01*
X62224187Y38776903D01*
X63393720Y39946437D01*
X63397394Y39949719D01*
X63429308Y39975168D01*
X63462887Y40024422D01*
X63463834Y40025756D01*
X63468643Y40032274D01*
X63499230Y40073715D01*
X63499232Y40073720D01*
X63502309Y40079540D01*
X63502529Y40079424D01*
X63504397Y40083126D01*
X63504172Y40083234D01*
X63507026Y40089161D01*
X63507031Y40089168D01*
X63524613Y40146172D01*
X63525115Y40147693D01*
X63544800Y40203947D01*
X63544800Y40203952D01*
X63546026Y40210424D01*
X63546271Y40210378D01*
X63546965Y40214458D01*
X63546718Y40214495D01*
X63547699Y40221010D01*
X63547700Y40221013D01*
X63547699Y40280643D01*
X63547730Y40282288D01*
X63549959Y40341825D01*
X63549222Y40348370D01*
X63549467Y40348398D01*
X63547700Y40361828D01*
X63547700Y45661891D01*
X63568265Y45718392D01*
X63606572Y45744859D01*
X63608654Y45745588D01*
X63619395Y45749346D01*
X63729438Y45830562D01*
X63810654Y45940605D01*
X63855826Y46069699D01*
X63858700Y46100347D01*
X63858699Y47159652D01*
X63855826Y47190301D01*
X63855825Y47190305D01*
X63810655Y47319394D01*
X63810654Y47319395D01*
X63789764Y47347700D01*
X63729438Y47429438D01*
X63619395Y47510654D01*
X63619394Y47510654D01*
X63606565Y47515144D01*
X63560028Y47553217D01*
X63547700Y47598110D01*
X63547700Y47834963D01*
X63565865Y47888474D01*
X63617327Y47955540D01*
X63617326Y47955540D01*
X63617331Y47955545D01*
X63678161Y48102403D01*
X63698909Y48260000D01*
X63678161Y48417597D01*
X63617331Y48564454D01*
X63578624Y48614899D01*
X63520567Y48690561D01*
X63520564Y48690564D01*
X63520561Y48690566D01*
X63394455Y48787331D01*
X63247597Y48848161D01*
X63090000Y48868909D01*
X62932402Y48848161D01*
X62785546Y48787331D01*
X62785544Y48787330D01*
X62659437Y48690566D01*
X62659434Y48690563D01*
X62562670Y48564456D01*
X62562669Y48564454D01*
X62501839Y48417598D01*
X62496943Y48380405D01*
X62481091Y48260000D01*
X62501839Y48102403D01*
X62562669Y47955545D01*
X62562671Y47955542D01*
X62562672Y47955541D01*
X62614135Y47888473D01*
X62632299Y47834963D01*
X62632299Y47613856D01*
X62611734Y47557355D01*
X62573432Y47530889D01*
X62515602Y47510653D01*
X62405564Y47429440D01*
X62405560Y47429436D01*
X62324345Y47319395D01*
X62324344Y47319394D01*
X62279174Y47190305D01*
X62279173Y47190300D01*
X62276300Y47159657D01*
X62276300Y46100351D01*
X62276301Y46100342D01*
X62279173Y46069699D01*
X62324344Y45940607D01*
X62324345Y45940606D01*
X62324346Y45940605D01*
X62405562Y45830562D01*
X62460583Y45789955D01*
X62515603Y45749347D01*
X62515604Y45749347D01*
X62515605Y45749346D01*
X62573431Y45729112D01*
X62619968Y45691041D01*
X62632299Y45646145D01*
X62632299Y40515996D01*
X62611734Y40459495D01*
X62606554Y40453841D01*
X61576903Y39424190D01*
X61526222Y39399197D01*
X61442402Y39388161D01*
X61295546Y39327332D01*
X61228473Y39275864D01*
X61174963Y39257700D01*
X47245996Y39257700D01*
X47189495Y39278265D01*
X47183841Y39283445D01*
X41494188Y44973097D01*
X41469195Y45023780D01*
X41458161Y45107598D01*
X41437951Y45156388D01*
X41397331Y45254454D01*
X41358624Y45304899D01*
X41300567Y45380561D01*
X41300564Y45380564D01*
X41274232Y45400769D01*
X41174455Y45477331D01*
X41027597Y45538161D01*
X40870000Y45558909D01*
X40712402Y45538161D01*
X40565546Y45477331D01*
X40565544Y45477330D01*
X40439437Y45380566D01*
X40439434Y45380563D01*
X40342670Y45254456D01*
X40342669Y45254454D01*
X40281839Y45107598D01*
X40270803Y45023778D01*
X40245810Y44973097D01*
X39927399Y44654686D01*
X39872905Y44629275D01*
X39814827Y44644838D01*
X39794520Y44664643D01*
X39794382Y44664830D01*
X39731938Y44749438D01*
X39621895Y44830654D01*
X39621894Y44830655D01*
X39621893Y44830656D01*
X39492804Y44875826D01*
X39492799Y44875827D01*
X39462155Y44878700D01*
X38677850Y44878700D01*
X38677841Y44878699D01*
X38647198Y44875827D01*
X38518106Y44830656D01*
X38518105Y44830655D01*
X38408064Y44749440D01*
X38408060Y44749436D01*
X38326845Y44639395D01*
X38326844Y44639394D01*
X38281674Y44510305D01*
X38281673Y44510300D01*
X38278800Y44479657D01*
X38278800Y43420351D01*
X33157700Y43420351D01*
X33157700Y49294400D01*
X33178265Y49350901D01*
X33230336Y49380965D01*
X33245600Y49382300D01*
X42556573Y49382300D01*
X42613074Y49361735D01*
X42618728Y49356555D01*
X43594879Y48380405D01*
X43619872Y48329724D01*
X43629052Y48260001D01*
X43630908Y48245903D01*
X43691738Y48099045D01*
X43788505Y47972936D01*
X43914614Y47876169D01*
X44061472Y47815339D01*
X44145289Y47804305D01*
X44195971Y47779312D01*
X45389004Y46586280D01*
X45392288Y46582605D01*
X45417737Y46550692D01*
X45467033Y46517083D01*
X45468315Y46516173D01*
X45489450Y46500574D01*
X45516283Y46480770D01*
X45522107Y46477692D01*
X45521991Y46477474D01*
X45525697Y46475603D01*
X45525805Y46475826D01*
X45531734Y46472971D01*
X45531737Y46472969D01*
X45588705Y46455397D01*
X45590250Y46454889D01*
X45646516Y46435200D01*
X45646517Y46435200D01*
X45652994Y46433974D01*
X45652947Y46433729D01*
X45657031Y46433036D01*
X45657069Y46433282D01*
X45663581Y46432301D01*
X45663582Y46432300D01*
X45723185Y46432300D01*
X45724828Y46432269D01*
X45748661Y46431378D01*
X45784393Y46430041D01*
X45784397Y46430042D01*
X45790938Y46430778D01*
X45790965Y46430532D01*
X45804396Y46432300D01*
X45954511Y46432300D01*
X46011012Y46411735D01*
X46041076Y46359664D01*
X46042027Y46352603D01*
X46044173Y46329700D01*
X46044173Y46329699D01*
X46089344Y46200607D01*
X46089345Y46200606D01*
X46089346Y46200605D01*
X46170562Y46090562D01*
X46280605Y46009346D01*
X46280606Y46009345D01*
X46409695Y45964175D01*
X46409697Y45964175D01*
X46409699Y45964174D01*
X46440347Y45961300D01*
X47224652Y45961301D01*
X47255301Y45964174D01*
X47255304Y45964175D01*
X47384393Y46009345D01*
X47384393Y46009346D01*
X47384395Y46009346D01*
X47494438Y46090562D01*
X47575654Y46200605D01*
X47620826Y46329699D01*
X47623700Y46360347D01*
X47623699Y47419652D01*
X47620826Y47450301D01*
X47599708Y47510654D01*
X47575655Y47579394D01*
X47575654Y47579395D01*
X47494439Y47689436D01*
X47494438Y47689438D01*
X47384395Y47770654D01*
X47384394Y47770655D01*
X47384393Y47770656D01*
X47255304Y47815826D01*
X47255299Y47815827D01*
X47224655Y47818700D01*
X46440350Y47818700D01*
X46440341Y47818699D01*
X46409698Y47815827D01*
X46280606Y47770656D01*
X46280605Y47770655D01*
X46170564Y47689440D01*
X46170560Y47689436D01*
X46089345Y47579395D01*
X46089344Y47579394D01*
X46044174Y47450305D01*
X46044173Y47450300D01*
X46042373Y47431101D01*
X46016623Y47376767D01*
X45961971Y47351696D01*
X45903991Y47367621D01*
X45892702Y47377153D01*
X45655999Y47613856D01*
X45367608Y47902246D01*
X45342198Y47956739D01*
X45357760Y48014817D01*
X45407014Y48049305D01*
X45429764Y48052300D01*
X52446799Y48052300D01*
X52503300Y48031735D01*
X52516535Y48017910D01*
X52564393Y47955540D01*
X52579436Y47935936D01*
X52705545Y47839169D01*
X52852403Y47778339D01*
X52936220Y47767305D01*
X52986902Y47742312D01*
X57275555Y43453659D01*
X57300966Y43399165D01*
X57301300Y43391504D01*
X57301300Y42350351D01*
X57301301Y42350342D01*
X57304173Y42319699D01*
X57349344Y42190607D01*
X57349345Y42190606D01*
X57349346Y42190605D01*
X57430562Y42080562D01*
X57485583Y42039955D01*
X57540603Y41999347D01*
X57540604Y41999347D01*
X57540605Y41999346D01*
X57603431Y41977363D01*
X57649970Y41939291D01*
X57662300Y41894395D01*
X57662300Y41745038D01*
X57644136Y41691529D01*
X57592672Y41624460D01*
X57592669Y41624454D01*
X57531839Y41477598D01*
X57521923Y41402274D01*
X57511091Y41320000D01*
X57531839Y41162403D01*
X57592669Y41015545D01*
X57689436Y40889436D01*
X57815545Y40792669D01*
X57962403Y40731839D01*
X58120000Y40711091D01*
X58277597Y40731839D01*
X58424455Y40792669D01*
X58550564Y40889436D01*
X58647331Y41015545D01*
X58708161Y41162403D01*
X58728909Y41320000D01*
X58708161Y41477597D01*
X58647331Y41624454D01*
X58647328Y41624458D01*
X58647327Y41624460D01*
X58595864Y41691529D01*
X58577700Y41745038D01*
X58577700Y41913640D01*
X58598265Y41970141D01*
X58636570Y41996608D01*
X58644395Y41999346D01*
X58754438Y42080562D01*
X58835654Y42190605D01*
X58880826Y42319699D01*
X58883700Y42350347D01*
X58883699Y43409652D01*
X58880826Y43440301D01*
X58864327Y43487453D01*
X58835655Y43569394D01*
X58835654Y43569395D01*
X58767747Y43661405D01*
X58754438Y43679438D01*
X58644395Y43760654D01*
X58644394Y43760655D01*
X58644393Y43760656D01*
X58515304Y43805826D01*
X58515299Y43805827D01*
X58484656Y43808700D01*
X58484653Y43808700D01*
X58251496Y43808700D01*
X58194995Y43829265D01*
X58189341Y43834445D01*
X53634188Y48389597D01*
X53609195Y48440280D01*
X53598161Y48524098D01*
X53580344Y48567112D01*
X53537331Y48670954D01*
X53498624Y48721398D01*
X53440567Y48797061D01*
X53440564Y48797064D01*
X53373973Y48848161D01*
X53314455Y48893831D01*
X53167597Y48954661D01*
X53010000Y48975409D01*
X53009998Y48975409D01*
X52955227Y48968199D01*
X52942073Y48968321D01*
X52942073Y48967700D01*
X52875898Y48967700D01*
X52874255Y48967731D01*
X52828246Y48969453D01*
X52814675Y48969960D01*
X52814674Y48969960D01*
X52814669Y48969960D01*
X52808128Y48969223D01*
X52808100Y48969469D01*
X52794667Y48967700D01*
X44451998Y48967700D01*
X44418360Y48974391D01*
X44376666Y48991661D01*
X44292845Y49002697D01*
X44242164Y49027690D01*
X43183609Y50086245D01*
X43158198Y50140739D01*
X43173761Y50198817D01*
X43223014Y50233305D01*
X43245764Y50236300D01*
X62474782Y50236300D01*
X62531283Y50215735D01*
X62544517Y50201911D01*
X62569435Y50169437D01*
X62569439Y50169433D01*
X62640688Y50114762D01*
X62695545Y50072669D01*
X62842403Y50011839D01*
X63000000Y49991091D01*
X63157597Y50011839D01*
X63304455Y50072669D01*
X63430564Y50169436D01*
X63527331Y50295545D01*
X63588161Y50442403D01*
X63608909Y50600000D01*
X63588161Y50757597D01*
X63527331Y50904454D01*
X63484689Y50960027D01*
X63430567Y51030561D01*
X63430564Y51030564D01*
X63409749Y51046536D01*
X63304455Y51127331D01*
X63157597Y51188161D01*
X63000000Y51208909D01*
X62842402Y51188161D01*
X62695546Y51127331D01*
X62695544Y51127330D01*
X62569439Y51030568D01*
X62569436Y51030565D01*
X62559196Y51017221D01*
X62552343Y51008290D01*
X62501634Y50975984D01*
X62482609Y50973900D01*
X51908495Y50973900D01*
X51851994Y50994465D01*
X51821930Y51046536D01*
X51827286Y51095438D01*
X51827329Y51095544D01*
X51827331Y51095545D01*
X51888161Y51242403D01*
X51908909Y51400000D01*
X51888161Y51557597D01*
X51827331Y51704454D01*
X51745856Y51810635D01*
X51730567Y51830561D01*
X51730564Y51830564D01*
X51716395Y51841436D01*
X51604455Y51927331D01*
X51457597Y51988161D01*
X51300000Y52008909D01*
X51142402Y51988161D01*
X50995546Y51927331D01*
X50995544Y51927330D01*
X50869437Y51830566D01*
X50869434Y51830563D01*
X50848431Y51803190D01*
X50797720Y51770884D01*
X50778695Y51768800D01*
X47506383Y51768800D01*
X47449882Y51789365D01*
X47419818Y51841436D01*
X47425174Y51890338D01*
X47427331Y51895545D01*
X47488161Y52042403D01*
X47508909Y52200000D01*
X47488161Y52357597D01*
X47427331Y52504454D01*
X47387565Y52556278D01*
X47330567Y52630561D01*
X47330564Y52630564D01*
X47330561Y52630566D01*
X47204455Y52727331D01*
X47057597Y52788161D01*
X46900000Y52808909D01*
X46742402Y52788161D01*
X46595546Y52727331D01*
X46595544Y52727330D01*
X46469437Y52630566D01*
X46469434Y52630563D01*
X46448431Y52603190D01*
X46397720Y52570884D01*
X46378695Y52568800D01*
X26847368Y52568800D01*
X26829331Y52570671D01*
X26815451Y52573581D01*
X26815450Y52573581D01*
X26779807Y52569138D01*
X26774365Y52568800D01*
X26769437Y52568800D01*
X26747714Y52565176D01*
X26745933Y52564917D01*
X26708760Y52560282D01*
X26693312Y52558356D01*
X26686332Y52556278D01*
X26686170Y52556820D01*
X26685298Y52556541D01*
X26685482Y52556006D01*
X26678591Y52553641D01*
X26631965Y52528408D01*
X26630351Y52527577D01*
X26582735Y52504298D01*
X26576808Y52500066D01*
X26576479Y52500527D01*
X26575741Y52499976D01*
X26576089Y52499529D01*
X26570341Y52495056D01*
X26534441Y52456059D01*
X26533184Y52454748D01*
X26272711Y52194275D01*
X26258638Y52182847D01*
X26246770Y52175093D01*
X26246764Y52175087D01*
X26224700Y52146742D01*
X26221100Y52142665D01*
X26217609Y52139172D01*
X26217608Y52139171D01*
X26204816Y52121256D01*
X26203732Y52119803D01*
X26171165Y52077958D01*
X26167698Y52071551D01*
X26167201Y52071820D01*
X26166782Y52071006D01*
X26167290Y52070758D01*
X26164092Y52064218D01*
X26157598Y52042403D01*
X26148960Y52013392D01*
X26148415Y52011690D01*
X26131200Y51961543D01*
X26130001Y51954356D01*
X26129438Y51954450D01*
X26129307Y51953548D01*
X26129872Y51953477D01*
X26128970Y51946249D01*
X26131162Y51893259D01*
X26131200Y51891442D01*
X26131200Y28449808D01*
X26110635Y28393307D01*
X26058564Y28363243D01*
X26009662Y28368599D01*
X25892997Y28416923D01*
X25735400Y28437671D01*
X25577802Y28416923D01*
X25460638Y28368392D01*
X25400568Y28365769D01*
X25352866Y28402372D01*
X25339100Y28449601D01*
X25339100Y28455906D01*
X25359665Y28512407D01*
X25373490Y28525642D01*
X25430560Y28569433D01*
X25430559Y28569433D01*
X25430564Y28569436D01*
X25527331Y28695545D01*
X25588161Y28842403D01*
X25608909Y29000000D01*
X25588161Y29157597D01*
X25527331Y29304454D01*
X25450599Y29404454D01*
X25430567Y29430561D01*
X25430564Y29430564D01*
X25430561Y29430566D01*
X25304455Y29527331D01*
X25157597Y29588161D01*
X25000000Y29608909D01*
X24842402Y29588161D01*
X24695546Y29527331D01*
X24695544Y29527330D01*
X24569437Y29430566D01*
X24569434Y29430563D01*
X24472670Y29304456D01*
X24472669Y29304454D01*
X24411839Y29157598D01*
X24396144Y29038378D01*
X24391091Y29000000D01*
X24411839Y28842403D01*
X24472669Y28695545D01*
X24569436Y28569436D01*
X24569440Y28569433D01*
X24573511Y28565362D01*
X24571877Y28563729D01*
X24599412Y28520532D01*
X24601500Y28501486D01*
X24601500Y27559216D01*
X24599629Y27541177D01*
X24596719Y27527299D01*
X24596718Y27527298D01*
X24601162Y27491654D01*
X24601500Y27486212D01*
X24601500Y27481284D01*
X24605124Y27459558D01*
X24605386Y27457764D01*
X24611944Y27405158D01*
X24614021Y27398183D01*
X24613478Y27398022D01*
X24613759Y27397145D01*
X24614295Y27397328D01*
X24616660Y27390439D01*
X24641892Y27343813D01*
X24642724Y27342198D01*
X24666001Y27294583D01*
X24670232Y27288658D01*
X24669768Y27288327D01*
X24670316Y27287592D01*
X24670766Y27287941D01*
X24675237Y27282197D01*
X24675238Y27282196D01*
X24675240Y27282193D01*
X24702834Y27256791D01*
X24730474Y27203396D01*
X24731200Y27192122D01*
X24731200Y17389173D01*
X24710635Y17332672D01*
X24705455Y17327018D01*
X22772983Y15394545D01*
X22718489Y15369134D01*
X22710828Y15368800D01*
X22399775Y15368800D01*
X22343274Y15389365D01*
X22313210Y15441436D01*
X22323651Y15500650D01*
X22361635Y15535895D01*
X22394994Y15551959D01*
X22394995Y15551961D01*
X22394997Y15551961D01*
X22400437Y15555670D01*
X22400578Y15555463D01*
X22403956Y15557860D01*
X22403808Y15558061D01*
X22409110Y15561975D01*
X22409109Y15561975D01*
X22409112Y15561976D01*
X22451288Y15604154D01*
X22452405Y15605231D01*
X22496136Y15645805D01*
X22496137Y15645808D01*
X22500245Y15650957D01*
X22500439Y15650803D01*
X22508680Y15661546D01*
X24000208Y17153074D01*
X24003872Y17156349D01*
X24035792Y17181802D01*
X24069389Y17231082D01*
X24070288Y17232349D01*
X24105715Y17280349D01*
X24105715Y17280352D01*
X24105717Y17280353D01*
X24108794Y17286174D01*
X24109013Y17286058D01*
X24110880Y17289756D01*
X24110655Y17289864D01*
X24113509Y17295795D01*
X24113515Y17295802D01*
X24131091Y17352788D01*
X24131577Y17354265D01*
X24151285Y17410582D01*
X24151285Y17410585D01*
X24151286Y17410587D01*
X24152511Y17417060D01*
X24152756Y17417014D01*
X24153450Y17421098D01*
X24153202Y17421135D01*
X24154182Y17427641D01*
X24154184Y17427647D01*
X24154183Y17487251D01*
X24154214Y17488896D01*
X24155657Y17527424D01*
X24156444Y17548459D01*
X24155707Y17555004D01*
X24155952Y17555032D01*
X24154184Y17568466D01*
X24154184Y18371447D01*
X24172349Y18424958D01*
X24210619Y18474832D01*
X24223815Y18492029D01*
X24284645Y18638887D01*
X24299820Y18754163D01*
X24307229Y18777404D01*
X24307045Y18777468D01*
X24308282Y18781007D01*
X24308543Y18781525D01*
X24309261Y18783776D01*
X24312315Y18789552D01*
X24312536Y18789435D01*
X24314398Y18793125D01*
X24314172Y18793234D01*
X24317026Y18799161D01*
X24317031Y18799168D01*
X24334613Y18856172D01*
X24335115Y18857693D01*
X24354800Y18913947D01*
X24354800Y18913952D01*
X24356026Y18920424D01*
X24356271Y18920378D01*
X24356965Y18924459D01*
X24356718Y18924496D01*
X24357700Y18931011D01*
X24357700Y18990618D01*
X24357731Y18992261D01*
X24358578Y19014932D01*
X24359959Y19051825D01*
X24359958Y19051830D01*
X24359222Y19058370D01*
X24359467Y19058398D01*
X24357700Y19071829D01*
X24357700Y21771824D01*
X24357977Y21776749D01*
X24362547Y21817306D01*
X24362547Y21817307D01*
X24351455Y21875924D01*
X24351197Y21877440D01*
X24342306Y21936433D01*
X24342304Y21936436D01*
X24340364Y21942729D01*
X24340601Y21942803D01*
X24339306Y21946737D01*
X24339072Y21946654D01*
X24336895Y21952871D01*
X24336895Y21952875D01*
X24309041Y22005577D01*
X24308322Y22007001D01*
X24282442Y22060742D01*
X24278731Y22066186D01*
X24278935Y22066326D01*
X24276534Y22069710D01*
X24276335Y22069562D01*
X24272424Y22074861D01*
X24230271Y22117015D01*
X24229145Y22118183D01*
X24188595Y22161886D01*
X24188594Y22161887D01*
X24188593Y22161888D01*
X24183445Y22165993D01*
X24183599Y22166187D01*
X24172851Y22174434D01*
X20724188Y25623097D01*
X20699195Y25673780D01*
X20688161Y25757598D01*
X20666907Y25808909D01*
X20627331Y25904454D01*
X20550051Y26005168D01*
X20530567Y26030561D01*
X20530564Y26030564D01*
X20530561Y26030566D01*
X20404455Y26127331D01*
X20257597Y26188161D01*
X20100000Y26208909D01*
X19942402Y26188161D01*
X19795546Y26127331D01*
X19795544Y26127330D01*
X19669437Y26030566D01*
X19669434Y26030563D01*
X19572670Y25904456D01*
X19572669Y25904454D01*
X19512558Y25759332D01*
X19511839Y25757597D01*
X19491091Y25600000D01*
X19511839Y25442403D01*
X19572669Y25295545D01*
X19669436Y25169436D01*
X19795545Y25072669D01*
X19942403Y25011839D01*
X20026220Y25000805D01*
X20076902Y24975812D01*
X23416555Y21636159D01*
X23441966Y21581665D01*
X23442300Y21574004D01*
X23442299Y19403371D01*
X23421734Y19346870D01*
X23396192Y19328129D01*
X23397020Y19326696D01*
X23392031Y19323816D01*
X23265921Y19227050D01*
X23265918Y19227047D01*
X23169154Y19100940D01*
X23169153Y19100938D01*
X23108323Y18954082D01*
X23095428Y18856130D01*
X23087575Y18796484D01*
X23108323Y18638887D01*
X23169153Y18492029D01*
X23169155Y18492026D01*
X23169156Y18492025D01*
X23220619Y18424957D01*
X23238783Y18371447D01*
X23238784Y17722629D01*
X23218219Y17666128D01*
X23213039Y17660474D01*
X21970410Y16417845D01*
X21915916Y16392434D01*
X21908255Y16392100D01*
X21674546Y16392100D01*
X21618045Y16412665D01*
X21587981Y16464736D01*
X21593337Y16513638D01*
X21598007Y16524913D01*
X21641661Y16630303D01*
X21662409Y16787900D01*
X21645368Y16917337D01*
X21658382Y16976037D01*
X21670356Y16990959D01*
X22067115Y17387717D01*
X22121610Y17413128D01*
X22129271Y17413462D01*
X22374900Y17413462D01*
X22374902Y17413462D01*
X22434318Y17425281D01*
X22501698Y17470302D01*
X22546719Y17537682D01*
X22558538Y17597098D01*
X22558538Y18237226D01*
X22546719Y18296642D01*
X22501698Y18364022D01*
X22496946Y18367197D01*
X22434318Y18409043D01*
X22434316Y18409044D01*
X22398538Y18416161D01*
X22374902Y18420862D01*
X21734774Y18420862D01*
X21715059Y18416941D01*
X21675359Y18409044D01*
X21675357Y18409043D01*
X21607978Y18364023D01*
X21607977Y18364022D01*
X21562957Y18296643D01*
X21562956Y18296641D01*
X21551138Y18237225D01*
X21551138Y17735748D01*
X21530573Y17679247D01*
X21525393Y17673593D01*
X21256561Y17404762D01*
X21202067Y17379351D01*
X21182933Y17379769D01*
X21053500Y17396809D01*
X20895902Y17376061D01*
X20749046Y17315231D01*
X20744055Y17312349D01*
X20742898Y17314352D01*
X20694040Y17298951D01*
X20638492Y17321965D01*
X20620170Y17345691D01*
X20609052Y17366728D01*
X20608322Y17368173D01*
X20582442Y17421914D01*
X20578731Y17427358D01*
X20578935Y17427498D01*
X20576534Y17430882D01*
X20576335Y17430734D01*
X20572424Y17436033D01*
X20530271Y17478187D01*
X20529145Y17479355D01*
X20488595Y17523058D01*
X20488594Y17523059D01*
X20488593Y17523060D01*
X20483445Y17527165D01*
X20483599Y17527359D01*
X20472851Y17535606D01*
X20190026Y17818431D01*
X20164615Y17872925D01*
X20180178Y17931003D01*
X20190026Y17942740D01*
X20320632Y18073347D01*
X20324296Y18076623D01*
X20356216Y18102076D01*
X20389800Y18151337D01*
X20390734Y18152655D01*
X20426138Y18200623D01*
X20426138Y18200626D01*
X20426140Y18200627D01*
X20429217Y18206448D01*
X20429437Y18206332D01*
X20431305Y18210034D01*
X20431080Y18210142D01*
X20433934Y18216069D01*
X20433939Y18216076D01*
X20451521Y18273080D01*
X20452023Y18274601D01*
X20456936Y18288641D01*
X20471708Y18330855D01*
X20471708Y18330860D01*
X20472934Y18337332D01*
X20473179Y18337286D01*
X20473873Y18341367D01*
X20473626Y18341404D01*
X20474608Y18347919D01*
X20474608Y18407526D01*
X20474639Y18409169D01*
X20475486Y18431830D01*
X20476867Y18468732D01*
X20476866Y18468737D01*
X20476130Y18475277D01*
X20476375Y18475305D01*
X20474608Y18488736D01*
X20474608Y18896998D01*
X20492773Y18950509D01*
X20527329Y18995543D01*
X20527331Y18995545D01*
X20588161Y19142403D01*
X20608909Y19300000D01*
X20588161Y19457597D01*
X20527331Y19604454D01*
X20463101Y19688161D01*
X20430567Y19730561D01*
X20430564Y19730564D01*
X20430561Y19730566D01*
X20304455Y19827331D01*
X20157597Y19888161D01*
X20000000Y19908909D01*
X19842402Y19888161D01*
X19695546Y19827331D01*
X19695544Y19827330D01*
X19569437Y19730566D01*
X19569434Y19730563D01*
X19472670Y19604456D01*
X19472669Y19604454D01*
X19411839Y19457598D01*
X19394606Y19326696D01*
X19391091Y19300000D01*
X19411839Y19142403D01*
X19472669Y18995545D01*
X19472670Y18995544D01*
X19472672Y18995540D01*
X19541043Y18906439D01*
X19559208Y18852928D01*
X19559208Y18642904D01*
X19538643Y18586403D01*
X19533463Y18580749D01*
X19345322Y18392607D01*
X19290828Y18367197D01*
X19283167Y18366862D01*
X18957299Y18366862D01*
X18908465Y18381676D01*
X18879480Y18401043D01*
X18879478Y18401044D01*
X18842696Y18408360D01*
X18820064Y18412862D01*
X18179936Y18412862D01*
X18161371Y18409169D01*
X18120521Y18401044D01*
X18120519Y18401043D01*
X18053140Y18356023D01*
X18053139Y18356022D01*
X18008119Y18288643D01*
X18008118Y18288641D01*
X17996300Y18229225D01*
X17996300Y18225619D01*
X17975735Y18169118D01*
X17970555Y18163464D01*
X17515699Y17708607D01*
X17461205Y17683196D01*
X17453544Y17682862D01*
X17046438Y17682862D01*
X16989937Y17703427D01*
X16959873Y17755498D01*
X16958538Y17770762D01*
X16958538Y17782725D01*
X16951436Y17818431D01*
X16946719Y17842142D01*
X16901698Y17909522D01*
X16834318Y17954543D01*
X16834316Y17954544D01*
X16798538Y17961661D01*
X16774902Y17966362D01*
X15734774Y17966362D01*
X15715059Y17962441D01*
X15675359Y17954544D01*
X15675357Y17954543D01*
X15607978Y17909523D01*
X15607977Y17909522D01*
X15562957Y17842143D01*
X15562956Y17842141D01*
X15551138Y17782725D01*
X15551138Y17770762D01*
X15530573Y17714261D01*
X15478502Y17684197D01*
X15463238Y17682862D01*
X15087875Y17682862D01*
X15063445Y17687722D01*
X15063164Y17686670D01*
X15057600Y17688161D01*
X14900000Y17708909D01*
X14742402Y17688161D01*
X14595546Y17627331D01*
X14595544Y17627330D01*
X14469437Y17530566D01*
X14469434Y17530563D01*
X14372670Y17404456D01*
X14372669Y17404454D01*
X14311839Y17257598D01*
X14300803Y17173779D01*
X14275810Y17123098D01*
X13542277Y16389565D01*
X13538599Y16386278D01*
X13506697Y16360838D01*
X13506692Y16360832D01*
X13473114Y16311584D01*
X13472164Y16310244D01*
X13436770Y16262287D01*
X13433692Y16256463D01*
X13433476Y16256578D01*
X13431604Y16252871D01*
X13431825Y16252764D01*
X13428968Y16246832D01*
X13411397Y16189871D01*
X13410884Y16188312D01*
X13391199Y16132053D01*
X13389975Y16125583D01*
X13389734Y16125629D01*
X13389039Y16121539D01*
X13389281Y16121502D01*
X13388300Y16114991D01*
X13388300Y16055399D01*
X13388269Y16053756D01*
X13386040Y15994170D01*
X13386777Y15987628D01*
X13386531Y15987601D01*
X13388300Y15974168D01*
X13388300Y15265219D01*
X13367735Y15208718D01*
X13315664Y15178654D01*
X13256450Y15189095D01*
X13230664Y15211709D01*
X13139467Y15330561D01*
X13139464Y15330564D01*
X13124035Y15342403D01*
X13013355Y15427331D01*
X12866497Y15488161D01*
X12708900Y15508909D01*
X12593353Y15493698D01*
X12534651Y15506712D01*
X12498048Y15554415D01*
X12494732Y15592317D01*
X12508909Y15700000D01*
X12488161Y15857597D01*
X12427331Y16004454D01*
X12384072Y16060830D01*
X12330567Y16130561D01*
X12330564Y16130564D01*
X12330561Y16130566D01*
X12204455Y16227331D01*
X12057597Y16288161D01*
X11900000Y16308909D01*
X11742402Y16288161D01*
X11595546Y16227331D01*
X11595544Y16227330D01*
X11469437Y16130566D01*
X11469434Y16130563D01*
X11372670Y16004456D01*
X11372669Y16004454D01*
X11311839Y15857598D01*
X11298903Y15759335D01*
X11291091Y15700000D01*
X203333Y15700000D01*
X205536Y27900000D01*
X6291091Y27900000D01*
X6311839Y27742403D01*
X6372669Y27595545D01*
X6469436Y27469436D01*
X6595545Y27372669D01*
X6742403Y27311839D01*
X6873476Y27294583D01*
X6899999Y27291091D01*
X6899999Y27291092D01*
X6900000Y27291091D01*
X7057597Y27311839D01*
X7204455Y27372669D01*
X7330564Y27469436D01*
X7427331Y27595545D01*
X7488161Y27742403D01*
X7508909Y27900000D01*
X7494687Y28008028D01*
X7507701Y28066729D01*
X7555403Y28103332D01*
X7581835Y28107400D01*
X13282353Y28107400D01*
X13338854Y28086835D01*
X13344508Y28081655D01*
X20613060Y20813103D01*
X20638471Y20758609D01*
X20622908Y20700531D01*
X20620641Y20697438D01*
X20559443Y20617683D01*
X20559442Y20617681D01*
X20498612Y20470825D01*
X20491703Y20418342D01*
X20477864Y20313227D01*
X20498612Y20155630D01*
X20559442Y20008772D01*
X20656209Y19882663D01*
X20782318Y19785896D01*
X20929176Y19725066D01*
X21086773Y19704318D01*
X21244370Y19725066D01*
X21391228Y19785896D01*
X21517337Y19882663D01*
X21614104Y20008772D01*
X21674934Y20155630D01*
X21695682Y20313227D01*
X21695681Y20313228D01*
X21696434Y20318939D01*
X21698131Y20318716D01*
X21716247Y20368488D01*
X21768318Y20398552D01*
X21795056Y20399134D01*
X21801521Y20398283D01*
X21806752Y20397594D01*
X21806754Y20397594D01*
X21964351Y20418342D01*
X22111209Y20479172D01*
X22237318Y20575939D01*
X22334085Y20702048D01*
X22394915Y20848906D01*
X22415663Y21006503D01*
X22394915Y21164100D01*
X22334085Y21310957D01*
X22248262Y21422805D01*
X22237321Y21437064D01*
X22237318Y21437067D01*
X22237318Y21437068D01*
X22111209Y21533834D01*
X21964351Y21594664D01*
X21806754Y21615412D01*
X21649156Y21594664D01*
X21502300Y21533834D01*
X21502299Y21533834D01*
X21423083Y21473050D01*
X21365739Y21454971D01*
X21310189Y21477981D01*
X21307419Y21480632D01*
X13847238Y28940813D01*
X13839703Y28951286D01*
X13838906Y28950683D01*
X13833997Y28957184D01*
X13799335Y28988783D01*
X13797867Y28990185D01*
X13784184Y29003868D01*
X13784177Y29003873D01*
X13781078Y29005996D01*
X13776312Y29009771D01*
X13753154Y29030882D01*
X13753151Y29030884D01*
X13753148Y29030885D01*
X13743313Y29034695D01*
X13725393Y29044141D01*
X13716686Y29050105D01*
X13716687Y29050105D01*
X13686184Y29057280D01*
X13680364Y29059082D01*
X13651152Y29070400D01*
X13651148Y29070400D01*
X13640592Y29070400D01*
X13620467Y29072735D01*
X13610199Y29075150D01*
X13579171Y29070822D01*
X13573094Y29070400D01*
X7589892Y29070400D01*
X7533391Y29090965D01*
X7503327Y29143036D01*
X7502744Y29146827D01*
X7497302Y29188161D01*
X7488161Y29257597D01*
X7427331Y29404454D01*
X7360853Y29491091D01*
X7330567Y29530561D01*
X7330564Y29530564D01*
X7288724Y29562669D01*
X7204455Y29627331D01*
X7057597Y29688161D01*
X6900000Y29708909D01*
X6742402Y29688161D01*
X6595546Y29627331D01*
X6595544Y29627330D01*
X6469437Y29530566D01*
X6469434Y29530563D01*
X6372670Y29404456D01*
X6372669Y29404454D01*
X6311839Y29257598D01*
X6302698Y29188161D01*
X6291091Y29100000D01*
X6311839Y28942403D01*
X6372669Y28795545D01*
X6469436Y28669436D01*
X6595545Y28572669D01*
X6595546Y28572669D01*
X6599368Y28569736D01*
X6631674Y28519025D01*
X6623826Y28459412D01*
X6599368Y28430264D01*
X6469437Y28330566D01*
X6469434Y28330563D01*
X6372670Y28204456D01*
X6372669Y28204454D01*
X6315622Y28066729D01*
X6311839Y28057597D01*
X6291091Y27900000D01*
X205536Y27900000D01*
X210448Y55111617D01*
X231023Y55168113D01*
X283100Y55198167D01*
X298348Y55199500D01*
X9955762Y55199500D01*
X9955763Y55199500D01*
X9967714Y55205257D01*
X9986296Y55211758D01*
X9999231Y55214710D01*
X10009609Y55222988D01*
X10026267Y55233455D01*
X10038224Y55239212D01*
X10046494Y55249584D01*
X10060417Y55263506D01*
X10060535Y55263600D01*
X10070788Y55271776D01*
X10076545Y55283733D01*
X10087014Y55300392D01*
X10095290Y55310769D01*
X10098242Y55323705D01*
X10104743Y55342286D01*
X10110500Y55354237D01*
X10110500Y55445763D01*
X10110500Y57950000D01*
X10444357Y57950000D01*
X10464891Y57702180D01*
X10464892Y57702174D01*
X10525935Y57461123D01*
X10525938Y57461115D01*
X10565384Y57371188D01*
X10625827Y57233393D01*
X10625831Y57233387D01*
X10761831Y57025221D01*
X10761832Y57025219D01*
X10918355Y56855190D01*
X10930256Y56842262D01*
X11126491Y56689526D01*
X11345190Y56571172D01*
X11580386Y56490429D01*
X11580388Y56490429D01*
X11580390Y56490428D01*
X11825661Y56449500D01*
X11825665Y56449500D01*
X12074339Y56449500D01*
X12319609Y56490428D01*
X12319609Y56490429D01*
X12319614Y56490429D01*
X12554810Y56571172D01*
X12773509Y56689526D01*
X12969744Y56842262D01*
X13138164Y57025215D01*
X13274173Y57233393D01*
X13374063Y57461119D01*
X13435108Y57702179D01*
X13455643Y57950000D01*
X13435108Y58197821D01*
X13435107Y58197827D01*
X13374064Y58438878D01*
X13374061Y58438886D01*
X13274177Y58666597D01*
X13274173Y58666607D01*
X13169109Y58827420D01*
X13138168Y58874780D01*
X13138167Y58874782D01*
X12969745Y59057737D01*
X12773512Y59210472D01*
X12773510Y59210473D01*
X12773509Y59210474D01*
X12554810Y59328828D01*
X12554806Y59328830D01*
X12554803Y59328831D01*
X12319618Y59409570D01*
X12319609Y59409573D01*
X12074339Y59450500D01*
X12074335Y59450500D01*
X11825665Y59450500D01*
X11825661Y59450500D01*
X11580390Y59409573D01*
X11580381Y59409570D01*
X11345196Y59328831D01*
X11126487Y59210472D01*
X10930254Y59057737D01*
X10761832Y58874782D01*
X10761831Y58874780D01*
X10625831Y58666614D01*
X10625822Y58666597D01*
X10525938Y58438886D01*
X10525935Y58438878D01*
X10464892Y58197827D01*
X10464891Y58197821D01*
X10444357Y57950000D01*
X10110500Y57950000D01*
X10110500Y59711600D01*
X10131065Y59768101D01*
X10183136Y59798165D01*
X10198400Y59799500D01*
X13721600Y59799500D01*
X13778101Y59778935D01*
G37*
%TD.AperFunction*%
%TD*%
M02*
