G04 #@! TF.GenerationSoftware,KiCad,Pcbnew,7.0.3*
G04 #@! TF.CreationDate,2023-06-15T19:20:55+02:00*
G04 #@! TF.ProjectId,osc_v2,6f73635f-7632-42e6-9b69-6361645f7063,rev?*
G04 #@! TF.SameCoordinates,Original*
G04 #@! TF.FileFunction,Soldermask,Bot*
G04 #@! TF.FilePolarity,Negative*
%FSLAX46Y46*%
G04 Gerber Fmt 4.6, Leading zero omitted, Abs format (unit mm)*
G04 Created by KiCad (PCBNEW 7.0.3) date 2023-06-15 19:20:55*
%MOMM*%
%LPD*%
G01*
G04 APERTURE LIST*
G04 Aperture macros list*
%AMRoundRect*
0 Rectangle with rounded corners*
0 $1 Rounding radius*
0 $2 $3 $4 $5 $6 $7 $8 $9 X,Y pos of 4 corners*
0 Add a 4 corners polygon primitive as box body*
4,1,4,$2,$3,$4,$5,$6,$7,$8,$9,$2,$3,0*
0 Add four circle primitives for the rounded corners*
1,1,$1+$1,$2,$3*
1,1,$1+$1,$4,$5*
1,1,$1+$1,$6,$7*
1,1,$1+$1,$8,$9*
0 Add four rect primitives between the rounded corners*
20,1,$1+$1,$2,$3,$4,$5,0*
20,1,$1+$1,$4,$5,$6,$7,0*
20,1,$1+$1,$6,$7,$8,$9,0*
20,1,$1+$1,$8,$9,$2,$3,0*%
G04 Aperture macros list end*
%ADD10R,1.350000X1.350000*%
%ADD11O,1.350000X1.350000*%
%ADD12O,2.016000X1.008000*%
%ADD13RoundRect,0.050800X-0.300000X0.300000X-0.300000X-0.300000X0.300000X-0.300000X0.300000X0.300000X0*%
%ADD14RoundRect,0.250000X0.337500X0.475000X-0.337500X0.475000X-0.337500X-0.475000X0.337500X-0.475000X0*%
%ADD15RoundRect,0.050800X0.300000X0.300000X-0.300000X0.300000X-0.300000X-0.300000X0.300000X-0.300000X0*%
%ADD16RoundRect,0.250000X-0.337500X-0.475000X0.337500X-0.475000X0.337500X0.475000X-0.337500X0.475000X0*%
%ADD17RoundRect,0.050800X0.300000X-0.300000X0.300000X0.300000X-0.300000X0.300000X-0.300000X-0.300000X0*%
%ADD18RoundRect,0.050800X0.500000X-0.537500X0.500000X0.537500X-0.500000X0.537500X-0.500000X-0.537500X0*%
%ADD19RoundRect,0.250000X-0.475000X0.337500X-0.475000X-0.337500X0.475000X-0.337500X0.475000X0.337500X0*%
G04 APERTURE END LIST*
D10*
X143735000Y-158960000D03*
D11*
X143735000Y-156960000D03*
X143735000Y-154960000D03*
X143735000Y-152960000D03*
X143735000Y-150960000D03*
X143735000Y-148960000D03*
X143735000Y-146960000D03*
X143735000Y-144960000D03*
X143735000Y-142960000D03*
X143735000Y-140960000D03*
X143735000Y-138960000D03*
X143735000Y-136960000D03*
D12*
X147045000Y-116510000D03*
X143845000Y-124110000D03*
X147045000Y-124110000D03*
D13*
X92309838Y-143266838D03*
X92309838Y-144282838D03*
D14*
X119162500Y-115310000D03*
X117087500Y-115310000D03*
D15*
X94663000Y-152400000D03*
X93647000Y-152400000D03*
D16*
X131247500Y-115570000D03*
X133322500Y-115570000D03*
X107250000Y-118250000D03*
X109325000Y-118250000D03*
D15*
X89263000Y-152600000D03*
X88247000Y-152600000D03*
D17*
X88755000Y-144290838D03*
X88755000Y-143274838D03*
D18*
X86509838Y-144974838D03*
X86509838Y-143274838D03*
D16*
X128347500Y-119320000D03*
X130422500Y-119320000D03*
D19*
X120835000Y-128812500D03*
X120835000Y-130887500D03*
D16*
X104400000Y-122100000D03*
X106475000Y-122100000D03*
X126942500Y-128675000D03*
X129017500Y-128675000D03*
X129692500Y-124875000D03*
X131767500Y-124875000D03*
M02*
