G04 #@! TF.GenerationSoftware,KiCad,Pcbnew,7.0.3*
G04 #@! TF.CreationDate,2023-06-15T19:20:55+02:00*
G04 #@! TF.ProjectId,osc_v2,6f73635f-7632-42e6-9b69-6361645f7063,rev?*
G04 #@! TF.SameCoordinates,Original*
G04 #@! TF.FileFunction,Paste,Top*
G04 #@! TF.FilePolarity,Positive*
%FSLAX46Y46*%
G04 Gerber Fmt 4.6, Leading zero omitted, Abs format (unit mm)*
G04 Created by KiCad (PCBNEW 7.0.3) date 2023-06-15 19:20:55*
%MOMM*%
%LPD*%
G01*
G04 APERTURE LIST*
G04 Aperture macros list*
%AMRoundRect*
0 Rectangle with rounded corners*
0 $1 Rounding radius*
0 $2 $3 $4 $5 $6 $7 $8 $9 X,Y pos of 4 corners*
0 Add a 4 corners polygon primitive as box body*
4,1,4,$2,$3,$4,$5,$6,$7,$8,$9,$2,$3,0*
0 Add four circle primitives for the rounded corners*
1,1,$1+$1,$2,$3*
1,1,$1+$1,$4,$5*
1,1,$1+$1,$6,$7*
1,1,$1+$1,$8,$9*
0 Add four rect primitives between the rounded corners*
20,1,$1+$1,$2,$3,$4,$5,0*
20,1,$1+$1,$4,$5,$6,$7,0*
20,1,$1+$1,$6,$7,$8,$9,0*
20,1,$1+$1,$8,$9,$2,$3,0*%
G04 Aperture macros list end*
%ADD10RoundRect,0.250000X0.350000X0.450000X-0.350000X0.450000X-0.350000X-0.450000X0.350000X-0.450000X0*%
%ADD11RoundRect,0.250000X0.475000X-0.337500X0.475000X0.337500X-0.475000X0.337500X-0.475000X-0.337500X0*%
%ADD12RoundRect,0.250000X0.450000X-0.350000X0.450000X0.350000X-0.450000X0.350000X-0.450000X-0.350000X0*%
%ADD13RoundRect,0.150000X0.825000X0.150000X-0.825000X0.150000X-0.825000X-0.150000X0.825000X-0.150000X0*%
%ADD14RoundRect,0.250000X-0.350000X-0.450000X0.350000X-0.450000X0.350000X0.450000X-0.350000X0.450000X0*%
%ADD15RoundRect,0.150000X-0.587500X-0.150000X0.587500X-0.150000X0.587500X0.150000X-0.587500X0.150000X0*%
%ADD16RoundRect,0.250000X0.400000X0.600000X-0.400000X0.600000X-0.400000X-0.600000X0.400000X-0.600000X0*%
%ADD17R,0.600000X0.400000*%
%ADD18R,0.900000X0.800000*%
%ADD19R,0.600000X0.600000*%
%ADD20RoundRect,0.075000X-0.650000X-0.075000X0.650000X-0.075000X0.650000X0.075000X-0.650000X0.075000X0*%
%ADD21RoundRect,0.250000X-0.450000X0.350000X-0.450000X-0.350000X0.450000X-0.350000X0.450000X0.350000X0*%
%ADD22R,1.100000X0.300000*%
%ADD23R,3.100000X2.300000*%
%ADD24RoundRect,0.250000X-0.337500X-0.475000X0.337500X-0.475000X0.337500X0.475000X-0.337500X0.475000X0*%
%ADD25R,0.900000X0.750000*%
%ADD26R,0.550000X1.200000*%
%ADD27R,1.240000X1.500000*%
%ADD28R,0.875000X0.200000*%
%ADD29R,0.200000X0.875000*%
%ADD30RoundRect,0.250000X0.600000X-0.400000X0.600000X0.400000X-0.600000X0.400000X-0.600000X-0.400000X0*%
%ADD31R,1.800000X1.350000*%
%ADD32R,1.500000X1.240000*%
%ADD33R,0.900000X0.900000*%
%ADD34RoundRect,0.250000X-0.600000X0.400000X-0.600000X-0.400000X0.600000X-0.400000X0.600000X0.400000X0*%
%ADD35R,1.000000X1.075000*%
G04 APERTURE END LIST*
G36*
X87759838Y-139424838D02*
G01*
X87159838Y-139424838D01*
X87159838Y-138424838D01*
X87759838Y-138424838D01*
X87759838Y-139424838D01*
G37*
G36*
X87759838Y-141024838D02*
G01*
X87159838Y-141024838D01*
X87159838Y-140024838D01*
X87759838Y-140024838D01*
X87759838Y-141024838D01*
G37*
G36*
X88759838Y-139424838D02*
G01*
X88159838Y-139424838D01*
X88159838Y-138424838D01*
X88759838Y-138424838D01*
X88759838Y-139424838D01*
G37*
G36*
X88759838Y-141024838D02*
G01*
X88159838Y-141024838D01*
X88159838Y-140024838D01*
X88759838Y-140024838D01*
X88759838Y-141024838D01*
G37*
G36*
X89659838Y-147424838D02*
G01*
X88659838Y-147424838D01*
X88659838Y-146424838D01*
X89659838Y-146424838D01*
X89659838Y-147424838D01*
G37*
G36*
X89659838Y-149024838D02*
G01*
X88659838Y-149024838D01*
X88659838Y-148024838D01*
X89659838Y-148024838D01*
X89659838Y-149024838D01*
G37*
G36*
X91259838Y-147424838D02*
G01*
X90259838Y-147424838D01*
X90259838Y-146424838D01*
X91259838Y-146424838D01*
X91259838Y-147424838D01*
G37*
G36*
X91259838Y-149024838D02*
G01*
X90259838Y-149024838D01*
X90259838Y-148024838D01*
X91259838Y-148024838D01*
X91259838Y-149024838D01*
G37*
D10*
X95859838Y-153824838D03*
X93859838Y-153824838D03*
D11*
X108585000Y-116327500D03*
X108585000Y-114252500D03*
D12*
X132095000Y-132690000D03*
X132095000Y-130690000D03*
X84985000Y-136570000D03*
X84985000Y-134570000D03*
D13*
X133360000Y-119325000D03*
X133360000Y-118055000D03*
X133360000Y-116785000D03*
X133360000Y-115515000D03*
X128410000Y-115515000D03*
X128410000Y-116785000D03*
X128410000Y-118055000D03*
X128410000Y-119325000D03*
D14*
X135245000Y-109740000D03*
X137245000Y-109740000D03*
D15*
X135257500Y-111560000D03*
X135257500Y-113460000D03*
X137132500Y-112510000D03*
D16*
X133335000Y-151330000D03*
X129835000Y-151330000D03*
D14*
X86959838Y-136574838D03*
X88959838Y-136574838D03*
D17*
X86109838Y-138524838D03*
X86109838Y-139324838D03*
X86109838Y-140124838D03*
X86109838Y-140924838D03*
X89809838Y-140924838D03*
X89809838Y-140124838D03*
X89809838Y-139324838D03*
X89809838Y-138524838D03*
D18*
X86785000Y-134600000D03*
X88925000Y-134600000D03*
D10*
X141275000Y-113400000D03*
X139275000Y-113400000D03*
D19*
X92367838Y-158474838D03*
X91351838Y-158474838D03*
D15*
X137080000Y-132150000D03*
X137080000Y-134050000D03*
X138955000Y-133100000D03*
D12*
X127095000Y-112080000D03*
X127095000Y-110080000D03*
D10*
X144885000Y-127990000D03*
X142885000Y-127990000D03*
D12*
X112595000Y-110550000D03*
X112595000Y-108550000D03*
D10*
X141295000Y-111340000D03*
X139295000Y-111340000D03*
D13*
X131855000Y-128580000D03*
X131855000Y-127310000D03*
X131855000Y-126040000D03*
X131855000Y-124770000D03*
X126905000Y-124770000D03*
X126905000Y-126040000D03*
X126905000Y-127310000D03*
X126905000Y-128580000D03*
D12*
X125895000Y-132670000D03*
X125895000Y-130670000D03*
D11*
X104455000Y-112437500D03*
X104455000Y-110362500D03*
D20*
X118765000Y-129040000D03*
X118765000Y-129540000D03*
X118765000Y-130040000D03*
X118765000Y-130540000D03*
X118765000Y-131040000D03*
X123165000Y-131040000D03*
X123165000Y-130540000D03*
X123165000Y-130040000D03*
X123165000Y-129540000D03*
X123165000Y-129040000D03*
D16*
X133335000Y-141730000D03*
X129835000Y-141730000D03*
D10*
X140645000Y-148950000D03*
X138645000Y-148950000D03*
X140645000Y-136950000D03*
X138645000Y-136950000D03*
D21*
X101355000Y-118840000D03*
X101355000Y-120840000D03*
D16*
X133335000Y-144130000D03*
X129835000Y-144130000D03*
D22*
X75430000Y-131100000D03*
X75430000Y-131600000D03*
X75430000Y-132100000D03*
X75430000Y-132600000D03*
X75430000Y-133100000D03*
D23*
X73730000Y-129430000D03*
X73730000Y-134770000D03*
D10*
X143145000Y-111342500D03*
X145145000Y-111342500D03*
D19*
X93359838Y-157082838D03*
X93359838Y-156066838D03*
D10*
X138645000Y-146950000D03*
X140645000Y-146950000D03*
D12*
X120755000Y-125950000D03*
X120755000Y-123950000D03*
D21*
X112167500Y-120500000D03*
X112167500Y-122500000D03*
D24*
X74992500Y-123565000D03*
X77067500Y-123565000D03*
D12*
X129095000Y-112080000D03*
X129095000Y-110080000D03*
D10*
X92009838Y-154000000D03*
X90009838Y-154000000D03*
D25*
X91784838Y-155799838D03*
X90134838Y-155799838D03*
X90134838Y-157049838D03*
X91784838Y-157049838D03*
D21*
X135175000Y-124040000D03*
X135175000Y-126040000D03*
D10*
X140645000Y-150950000D03*
X138645000Y-150950000D03*
D12*
X116645000Y-127130000D03*
X116645000Y-125130000D03*
D26*
X83205000Y-156300100D03*
X84155000Y-156300100D03*
X85105000Y-156300100D03*
X85105000Y-153699900D03*
X83205000Y-153699900D03*
D10*
X141035000Y-130170000D03*
X139035000Y-130170000D03*
D12*
X131195000Y-112130000D03*
X131195000Y-110130000D03*
X114445000Y-127130000D03*
X114445000Y-125130000D03*
D13*
X109362500Y-122005000D03*
X109362500Y-120735000D03*
X109362500Y-119465000D03*
X109362500Y-118195000D03*
X104412500Y-118195000D03*
X104412500Y-119465000D03*
X104412500Y-120735000D03*
X104412500Y-122005000D03*
D27*
X82615000Y-158290000D03*
X84515000Y-158290000D03*
D10*
X145135000Y-113390000D03*
X143135000Y-113390000D03*
D12*
X124995000Y-112080000D03*
X124995000Y-110080000D03*
D16*
X133335000Y-153730000D03*
X129835000Y-153730000D03*
D28*
X86509838Y-145124838D03*
X86509838Y-145524838D03*
X86509838Y-145924838D03*
X86509838Y-146324838D03*
X86509838Y-146724838D03*
X86509838Y-147124838D03*
X86509838Y-147524838D03*
X86509838Y-147924838D03*
X86509838Y-148324838D03*
X86509838Y-148724838D03*
X86509838Y-149124838D03*
X86509838Y-149524838D03*
X86509838Y-149924838D03*
X86509838Y-150324838D03*
D29*
X87359838Y-151174838D03*
X87759838Y-151174838D03*
X88159838Y-151174838D03*
X88559838Y-151174838D03*
X88959838Y-151174838D03*
X89359838Y-151174838D03*
X89759838Y-151174838D03*
X90159838Y-151174838D03*
X90559838Y-151174838D03*
X90959838Y-151174838D03*
X91359838Y-151174838D03*
X91759838Y-151174838D03*
X92159838Y-151174838D03*
X92559838Y-151174838D03*
D28*
X93409838Y-150324838D03*
X93409838Y-149924838D03*
X93409838Y-149524838D03*
X93409838Y-149124838D03*
X93409838Y-148724838D03*
X93409838Y-148324838D03*
X93409838Y-147924838D03*
X93409838Y-147524838D03*
X93409838Y-147124838D03*
X93409838Y-146724838D03*
X93409838Y-146324838D03*
X93409838Y-145924838D03*
X93409838Y-145524838D03*
X93409838Y-145124838D03*
D29*
X92559838Y-144274838D03*
X92159838Y-144274838D03*
X91759838Y-144274838D03*
X91359838Y-144274838D03*
X90959838Y-144274838D03*
X90559838Y-144274838D03*
X90159838Y-144274838D03*
X89759838Y-144274838D03*
X89359838Y-144274838D03*
X88959838Y-144274838D03*
X88559838Y-144274838D03*
X88159838Y-144274838D03*
X87759838Y-144274838D03*
X87359838Y-144274838D03*
D10*
X140645000Y-142950000D03*
X138645000Y-142950000D03*
X99255000Y-120840000D03*
X97255000Y-120840000D03*
X137125000Y-128000000D03*
X135125000Y-128000000D03*
D16*
X133335000Y-139330000D03*
X129835000Y-139330000D03*
D10*
X140645000Y-140950000D03*
X138645000Y-140950000D03*
X123755000Y-118390000D03*
X121755000Y-118390000D03*
D12*
X114595000Y-110550000D03*
X114595000Y-108550000D03*
D21*
X106487500Y-114300000D03*
X106487500Y-116300000D03*
D30*
X95005000Y-120840000D03*
X95005000Y-117340000D03*
D16*
X133335000Y-146530000D03*
X129835000Y-146530000D03*
D11*
X82680000Y-120202500D03*
X82680000Y-118127500D03*
D21*
X104437500Y-114300000D03*
X104437500Y-116300000D03*
D16*
X133335000Y-148930000D03*
X129835000Y-148930000D03*
D24*
X74942500Y-115965000D03*
X77017500Y-115965000D03*
D21*
X122755000Y-123950000D03*
X122755000Y-125950000D03*
D31*
X138145000Y-124035000D03*
X138145000Y-116585000D03*
D19*
X94651838Y-148724838D03*
X95667838Y-148724838D03*
D10*
X133355000Y-121170000D03*
X131355000Y-121170000D03*
D32*
X81235000Y-153790000D03*
X81235000Y-155690000D03*
D21*
X125715000Y-116390000D03*
X125715000Y-118390000D03*
D10*
X144885000Y-130190000D03*
X142885000Y-130190000D03*
X141035000Y-127990000D03*
X139035000Y-127990000D03*
D19*
X94601838Y-145124838D03*
X95617838Y-145124838D03*
D20*
X117185000Y-111570000D03*
X117185000Y-112070000D03*
X117185000Y-112570000D03*
X117185000Y-113070000D03*
X117185000Y-113570000D03*
X121585000Y-113570000D03*
X121585000Y-113070000D03*
X121585000Y-112570000D03*
X121585000Y-112070000D03*
X121585000Y-111570000D03*
D10*
X140645000Y-138950000D03*
X138645000Y-138950000D03*
D13*
X79730000Y-121605000D03*
X79730000Y-120335000D03*
X79730000Y-119065000D03*
X79730000Y-117795000D03*
X74780000Y-117795000D03*
X74780000Y-119065000D03*
X74780000Y-120335000D03*
X74780000Y-121605000D03*
D10*
X112155000Y-124582500D03*
X110155000Y-124582500D03*
X140645000Y-144950000D03*
X138645000Y-144950000D03*
D33*
X88855000Y-133000000D03*
X88855000Y-128900000D03*
X87255000Y-133000000D03*
X87255000Y-128900000D03*
D34*
X107805000Y-124582500D03*
X107805000Y-128082500D03*
D16*
X133335000Y-136930000D03*
X129835000Y-136930000D03*
D12*
X127985000Y-132670000D03*
X127985000Y-130670000D03*
X130025000Y-132680000D03*
X130025000Y-130680000D03*
X147075000Y-113330000D03*
X147075000Y-111330000D03*
D35*
X79355000Y-145050000D03*
X79355000Y-143350000D03*
M02*
