M48
; DRILL file {KiCad 7.0.3} date Thu 15 Jun 2023 07:21:39 PM CEST
; FORMAT={-:-/ absolute / metric / decimal}
; #@! TF.CreationDate,2023-06-15T19:21:39+02:00
; #@! TF.GenerationSoftware,Kicad,Pcbnew,7.0.3
; #@! TF.FileFunction,Plated,1,2,PTH
FMAT,2
METRIC
; #@! TA.AperFunction,Plated,PTH,ViaDrill
T1C0.400
; #@! TA.AperFunction,Plated,PTH,ComponentDrill
T2C0.500
; #@! TA.AperFunction,Plated,PTH,ComponentDrill
T3C0.800
%
G90
G05
T1
X72.255Y-122.8
X72.755Y-145.0
X72.955Y-154.2
X73.355Y-132.3
X73.455Y-110.2
X77.155Y-133.1
X77.155Y-134.3
X79.055Y-155.6
X80.055Y-112.3
X81.855Y-142.6
X82.155Y-146.5
X82.964Y-147.3
X83.534Y-149.413
X83.655Y-128.1
X84.355Y-130.8
X84.455Y-149.8
X84.555Y-150.8
X84.955Y-146.7
X85.155Y-145.1
X85.255Y-117.1
X85.355Y-151.8
X86.342Y-152.594
X86.955Y-158.4
X87.255Y-110.3
X87.255Y-153.0
X87.555Y-150.0
X87.655Y-147.1
X87.655Y-148.1
X87.955Y-122.4
X88.055Y-142.0
X88.355Y-153.5
X88.555Y-150.0
X88.808Y-145.31
X90.255Y-142.9
X90.29Y-152.594
X90.355Y-136.6
X91.055Y-117.2
X91.308Y-145.412
X91.342Y-141.887
X91.455Y-152.4
X92.062Y-141.193
X93.155Y-142.4
X93.855Y-124.2
X93.951Y-143.404
X95.255Y-130.5
X95.255Y-133.2
X95.99Y-134.371
X98.955Y-117.2
X100.455Y-143.2
X100.455Y-150.4
X100.555Y-136.9
X100.855Y-130.4
X101.055Y-123.0
X102.955Y-112.36
X104.425Y-123.84
X106.755Y-130.4
X107.155Y-136.8
X107.355Y-143.7
X107.555Y-150.3
X107.855Y-123.0
X109.455Y-108.3
X110.055Y-114.3
X111.125Y-117.25
X111.555Y-128.9
X114.055Y-116.5
X114.474Y-113.796
X114.955Y-137.2
X115.155Y-143.7
X115.255Y-150.3
X117.155Y-110.0
X118.455Y-120.7
X118.765Y-132.11
X118.855Y-127.0
X121.555Y-110.8
X123.175Y-132.1
X123.265Y-113.834
X123.355Y-137.1
X123.655Y-143.6
X125.155Y-128.59
X126.055Y-121.4
X127.355Y-158.2
X128.375Y-120.88
X129.855Y-126.5
X131.855Y-123.4
X133.255Y-111.6
X133.255Y-158.2
X133.345Y-113.94
X133.655Y-127.7
X133.655Y-133.6
X135.455Y-130.3
X136.255Y-137.0
X136.255Y-138.9
X136.455Y-141.0
X136.655Y-143.1
X136.755Y-145.4
X136.755Y-147.4
X136.755Y-149.6
X136.755Y-151.6
X139.055Y-109.3
X139.155Y-154.7
X139.155Y-158.2
X142.755Y-116.0
X147.455Y-137.8
X147.555Y-128.9
X147.655Y-147.0
X147.855Y-156.8
T3
X143.735Y-136.96
X143.735Y-138.96
X143.735Y-140.96
X143.735Y-142.96
X143.735Y-144.96
X143.735Y-146.96
X143.735Y-148.96
X143.735Y-150.96
X143.735Y-152.96
X143.735Y-154.96
X143.735Y-156.96
X143.735Y-158.96
T2
X144.245Y-124.11G85X143.445Y-124.11
G05
X147.445Y-116.51G85X146.645Y-116.51
G05
X147.445Y-124.11G85X146.645Y-124.11
G05
T0
M30
