G04 #@! TF.GenerationSoftware,KiCad,Pcbnew,7.0.3*
G04 #@! TF.CreationDate,2023-06-15T19:20:55+02:00*
G04 #@! TF.ProjectId,osc_v2,6f73635f-7632-42e6-9b69-6361645f7063,rev?*
G04 #@! TF.SameCoordinates,Original*
G04 #@! TF.FileFunction,Legend,Bot*
G04 #@! TF.FilePolarity,Positive*
%FSLAX46Y46*%
G04 Gerber Fmt 4.6, Leading zero omitted, Abs format (unit mm)*
G04 Created by KiCad (PCBNEW 7.0.3) date 2023-06-15 19:20:55*
%MOMM*%
%LPD*%
G01*
G04 APERTURE LIST*
G04 Aperture macros list*
%AMRoundRect*
0 Rectangle with rounded corners*
0 $1 Rounding radius*
0 $2 $3 $4 $5 $6 $7 $8 $9 X,Y pos of 4 corners*
0 Add a 4 corners polygon primitive as box body*
4,1,4,$2,$3,$4,$5,$6,$7,$8,$9,$2,$3,0*
0 Add four circle primitives for the rounded corners*
1,1,$1+$1,$2,$3*
1,1,$1+$1,$4,$5*
1,1,$1+$1,$6,$7*
1,1,$1+$1,$8,$9*
0 Add four rect primitives between the rounded corners*
20,1,$1+$1,$2,$3,$4,$5,0*
20,1,$1+$1,$4,$5,$6,$7,0*
20,1,$1+$1,$6,$7,$8,$9,0*
20,1,$1+$1,$8,$9,$2,$3,0*%
G04 Aperture macros list end*
%ADD10C,0.150000*%
%ADD11C,0.203200*%
%ADD12C,0.120000*%
%ADD13C,0.304800*%
%ADD14R,1.350000X1.350000*%
%ADD15O,1.350000X1.350000*%
%ADD16O,2.016000X1.008000*%
%ADD17RoundRect,0.050800X-0.300000X0.300000X-0.300000X-0.300000X0.300000X-0.300000X0.300000X0.300000X0*%
%ADD18RoundRect,0.250000X0.337500X0.475000X-0.337500X0.475000X-0.337500X-0.475000X0.337500X-0.475000X0*%
%ADD19RoundRect,0.050800X0.300000X0.300000X-0.300000X0.300000X-0.300000X-0.300000X0.300000X-0.300000X0*%
%ADD20RoundRect,0.250000X-0.337500X-0.475000X0.337500X-0.475000X0.337500X0.475000X-0.337500X0.475000X0*%
%ADD21RoundRect,0.050800X0.300000X-0.300000X0.300000X0.300000X-0.300000X0.300000X-0.300000X-0.300000X0*%
%ADD22RoundRect,0.050800X0.500000X-0.537500X0.500000X0.537500X-0.500000X0.537500X-0.500000X-0.537500X0*%
%ADD23RoundRect,0.250000X-0.475000X0.337500X-0.475000X-0.337500X0.475000X-0.337500X0.475000X0.337500X0*%
G04 APERTURE END LIST*
D10*
X92629580Y-140508207D02*
X92677200Y-140460588D01*
X92677200Y-140460588D02*
X92724819Y-140317731D01*
X92724819Y-140317731D02*
X92724819Y-140222493D01*
X92724819Y-140222493D02*
X92677200Y-140079636D01*
X92677200Y-140079636D02*
X92581961Y-139984398D01*
X92581961Y-139984398D02*
X92486723Y-139936779D01*
X92486723Y-139936779D02*
X92296247Y-139889160D01*
X92296247Y-139889160D02*
X92153390Y-139889160D01*
X92153390Y-139889160D02*
X91962914Y-139936779D01*
X91962914Y-139936779D02*
X91867676Y-139984398D01*
X91867676Y-139984398D02*
X91772438Y-140079636D01*
X91772438Y-140079636D02*
X91724819Y-140222493D01*
X91724819Y-140222493D02*
X91724819Y-140317731D01*
X91724819Y-140317731D02*
X91772438Y-140460588D01*
X91772438Y-140460588D02*
X91820057Y-140508207D01*
X92724819Y-141460588D02*
X92724819Y-140889160D01*
X92724819Y-141174874D02*
X91724819Y-141174874D01*
X91724819Y-141174874D02*
X91867676Y-141079636D01*
X91867676Y-141079636D02*
X91962914Y-140984398D01*
X91962914Y-140984398D02*
X92010533Y-140889160D01*
X91820057Y-141841541D02*
X91772438Y-141889160D01*
X91772438Y-141889160D02*
X91724819Y-141984398D01*
X91724819Y-141984398D02*
X91724819Y-142222493D01*
X91724819Y-142222493D02*
X91772438Y-142317731D01*
X91772438Y-142317731D02*
X91820057Y-142365350D01*
X91820057Y-142365350D02*
X91915295Y-142412969D01*
X91915295Y-142412969D02*
X92010533Y-142412969D01*
X92010533Y-142412969D02*
X92153390Y-142365350D01*
X92153390Y-142365350D02*
X92724819Y-141793922D01*
X92724819Y-141793922D02*
X92724819Y-142412969D01*
X118669173Y-117369580D02*
X118716792Y-117417200D01*
X118716792Y-117417200D02*
X118859649Y-117464819D01*
X118859649Y-117464819D02*
X118954887Y-117464819D01*
X118954887Y-117464819D02*
X119097744Y-117417200D01*
X119097744Y-117417200D02*
X119192982Y-117321961D01*
X119192982Y-117321961D02*
X119240601Y-117226723D01*
X119240601Y-117226723D02*
X119288220Y-117036247D01*
X119288220Y-117036247D02*
X119288220Y-116893390D01*
X119288220Y-116893390D02*
X119240601Y-116702914D01*
X119240601Y-116702914D02*
X119192982Y-116607676D01*
X119192982Y-116607676D02*
X119097744Y-116512438D01*
X119097744Y-116512438D02*
X118954887Y-116464819D01*
X118954887Y-116464819D02*
X118859649Y-116464819D01*
X118859649Y-116464819D02*
X118716792Y-116512438D01*
X118716792Y-116512438D02*
X118669173Y-116560057D01*
X118288220Y-116560057D02*
X118240601Y-116512438D01*
X118240601Y-116512438D02*
X118145363Y-116464819D01*
X118145363Y-116464819D02*
X117907268Y-116464819D01*
X117907268Y-116464819D02*
X117812030Y-116512438D01*
X117812030Y-116512438D02*
X117764411Y-116560057D01*
X117764411Y-116560057D02*
X117716792Y-116655295D01*
X117716792Y-116655295D02*
X117716792Y-116750533D01*
X117716792Y-116750533D02*
X117764411Y-116893390D01*
X117764411Y-116893390D02*
X118335839Y-117464819D01*
X118335839Y-117464819D02*
X117716792Y-117464819D01*
X116812030Y-116464819D02*
X117288220Y-116464819D01*
X117288220Y-116464819D02*
X117335839Y-116941009D01*
X117335839Y-116941009D02*
X117288220Y-116893390D01*
X117288220Y-116893390D02*
X117192982Y-116845771D01*
X117192982Y-116845771D02*
X116954887Y-116845771D01*
X116954887Y-116845771D02*
X116859649Y-116893390D01*
X116859649Y-116893390D02*
X116812030Y-116941009D01*
X116812030Y-116941009D02*
X116764411Y-117036247D01*
X116764411Y-117036247D02*
X116764411Y-117274342D01*
X116764411Y-117274342D02*
X116812030Y-117369580D01*
X116812030Y-117369580D02*
X116859649Y-117417200D01*
X116859649Y-117417200D02*
X116954887Y-117464819D01*
X116954887Y-117464819D02*
X117192982Y-117464819D01*
X117192982Y-117464819D02*
X117288220Y-117417200D01*
X117288220Y-117417200D02*
X117335839Y-117369580D01*
X94946792Y-151474580D02*
X94994411Y-151522200D01*
X94994411Y-151522200D02*
X95137268Y-151569819D01*
X95137268Y-151569819D02*
X95232506Y-151569819D01*
X95232506Y-151569819D02*
X95375363Y-151522200D01*
X95375363Y-151522200D02*
X95470601Y-151426961D01*
X95470601Y-151426961D02*
X95518220Y-151331723D01*
X95518220Y-151331723D02*
X95565839Y-151141247D01*
X95565839Y-151141247D02*
X95565839Y-150998390D01*
X95565839Y-150998390D02*
X95518220Y-150807914D01*
X95518220Y-150807914D02*
X95470601Y-150712676D01*
X95470601Y-150712676D02*
X95375363Y-150617438D01*
X95375363Y-150617438D02*
X95232506Y-150569819D01*
X95232506Y-150569819D02*
X95137268Y-150569819D01*
X95137268Y-150569819D02*
X94994411Y-150617438D01*
X94994411Y-150617438D02*
X94946792Y-150665057D01*
X93994411Y-151569819D02*
X94565839Y-151569819D01*
X94280125Y-151569819D02*
X94280125Y-150569819D01*
X94280125Y-150569819D02*
X94375363Y-150712676D01*
X94375363Y-150712676D02*
X94470601Y-150807914D01*
X94470601Y-150807914D02*
X94565839Y-150855533D01*
X93661077Y-150569819D02*
X93042030Y-150569819D01*
X93042030Y-150569819D02*
X93375363Y-150950771D01*
X93375363Y-150950771D02*
X93232506Y-150950771D01*
X93232506Y-150950771D02*
X93137268Y-150998390D01*
X93137268Y-150998390D02*
X93089649Y-151046009D01*
X93089649Y-151046009D02*
X93042030Y-151141247D01*
X93042030Y-151141247D02*
X93042030Y-151379342D01*
X93042030Y-151379342D02*
X93089649Y-151474580D01*
X93089649Y-151474580D02*
X93137268Y-151522200D01*
X93137268Y-151522200D02*
X93232506Y-151569819D01*
X93232506Y-151569819D02*
X93518220Y-151569819D01*
X93518220Y-151569819D02*
X93613458Y-151522200D01*
X93613458Y-151522200D02*
X93661077Y-151474580D01*
X132472982Y-114239580D02*
X132520601Y-114287200D01*
X132520601Y-114287200D02*
X132663458Y-114334819D01*
X132663458Y-114334819D02*
X132758696Y-114334819D01*
X132758696Y-114334819D02*
X132901553Y-114287200D01*
X132901553Y-114287200D02*
X132996791Y-114191961D01*
X132996791Y-114191961D02*
X133044410Y-114096723D01*
X133044410Y-114096723D02*
X133092029Y-113906247D01*
X133092029Y-113906247D02*
X133092029Y-113763390D01*
X133092029Y-113763390D02*
X133044410Y-113572914D01*
X133044410Y-113572914D02*
X132996791Y-113477676D01*
X132996791Y-113477676D02*
X132901553Y-113382438D01*
X132901553Y-113382438D02*
X132758696Y-113334819D01*
X132758696Y-113334819D02*
X132663458Y-113334819D01*
X132663458Y-113334819D02*
X132520601Y-113382438D01*
X132520601Y-113382438D02*
X132472982Y-113430057D01*
X132139648Y-113334819D02*
X131472982Y-113334819D01*
X131472982Y-113334819D02*
X131901553Y-114334819D01*
X108831673Y-120289580D02*
X108879292Y-120337200D01*
X108879292Y-120337200D02*
X109022149Y-120384819D01*
X109022149Y-120384819D02*
X109117387Y-120384819D01*
X109117387Y-120384819D02*
X109260244Y-120337200D01*
X109260244Y-120337200D02*
X109355482Y-120241961D01*
X109355482Y-120241961D02*
X109403101Y-120146723D01*
X109403101Y-120146723D02*
X109450720Y-119956247D01*
X109450720Y-119956247D02*
X109450720Y-119813390D01*
X109450720Y-119813390D02*
X109403101Y-119622914D01*
X109403101Y-119622914D02*
X109355482Y-119527676D01*
X109355482Y-119527676D02*
X109260244Y-119432438D01*
X109260244Y-119432438D02*
X109117387Y-119384819D01*
X109117387Y-119384819D02*
X109022149Y-119384819D01*
X109022149Y-119384819D02*
X108879292Y-119432438D01*
X108879292Y-119432438D02*
X108831673Y-119480057D01*
X108450720Y-119480057D02*
X108403101Y-119432438D01*
X108403101Y-119432438D02*
X108307863Y-119384819D01*
X108307863Y-119384819D02*
X108069768Y-119384819D01*
X108069768Y-119384819D02*
X107974530Y-119432438D01*
X107974530Y-119432438D02*
X107926911Y-119480057D01*
X107926911Y-119480057D02*
X107879292Y-119575295D01*
X107879292Y-119575295D02*
X107879292Y-119670533D01*
X107879292Y-119670533D02*
X107926911Y-119813390D01*
X107926911Y-119813390D02*
X108498339Y-120384819D01*
X108498339Y-120384819D02*
X107879292Y-120384819D01*
X107022149Y-119718152D02*
X107022149Y-120384819D01*
X107260244Y-119337200D02*
X107498339Y-120051485D01*
X107498339Y-120051485D02*
X106879292Y-120051485D01*
X88799292Y-151580680D02*
X88846911Y-151628300D01*
X88846911Y-151628300D02*
X88989768Y-151675919D01*
X88989768Y-151675919D02*
X89085006Y-151675919D01*
X89085006Y-151675919D02*
X89227863Y-151628300D01*
X89227863Y-151628300D02*
X89323101Y-151533061D01*
X89323101Y-151533061D02*
X89370720Y-151437823D01*
X89370720Y-151437823D02*
X89418339Y-151247347D01*
X89418339Y-151247347D02*
X89418339Y-151104490D01*
X89418339Y-151104490D02*
X89370720Y-150914014D01*
X89370720Y-150914014D02*
X89323101Y-150818776D01*
X89323101Y-150818776D02*
X89227863Y-150723538D01*
X89227863Y-150723538D02*
X89085006Y-150675919D01*
X89085006Y-150675919D02*
X88989768Y-150675919D01*
X88989768Y-150675919D02*
X88846911Y-150723538D01*
X88846911Y-150723538D02*
X88799292Y-150771157D01*
X88418339Y-150771157D02*
X88370720Y-150723538D01*
X88370720Y-150723538D02*
X88275482Y-150675919D01*
X88275482Y-150675919D02*
X88037387Y-150675919D01*
X88037387Y-150675919D02*
X87942149Y-150723538D01*
X87942149Y-150723538D02*
X87894530Y-150771157D01*
X87894530Y-150771157D02*
X87846911Y-150866395D01*
X87846911Y-150866395D02*
X87846911Y-150961633D01*
X87846911Y-150961633D02*
X87894530Y-151104490D01*
X87894530Y-151104490D02*
X88465958Y-151675919D01*
X88465958Y-151675919D02*
X87846911Y-151675919D01*
X86894530Y-151675919D02*
X87465958Y-151675919D01*
X87180244Y-151675919D02*
X87180244Y-150675919D01*
X87180244Y-150675919D02*
X87275482Y-150818776D01*
X87275482Y-150818776D02*
X87370720Y-150914014D01*
X87370720Y-150914014D02*
X87465958Y-150961633D01*
X88929580Y-140686283D02*
X88977200Y-140638664D01*
X88977200Y-140638664D02*
X89024819Y-140495807D01*
X89024819Y-140495807D02*
X89024819Y-140400569D01*
X89024819Y-140400569D02*
X88977200Y-140257712D01*
X88977200Y-140257712D02*
X88881961Y-140162474D01*
X88881961Y-140162474D02*
X88786723Y-140114855D01*
X88786723Y-140114855D02*
X88596247Y-140067236D01*
X88596247Y-140067236D02*
X88453390Y-140067236D01*
X88453390Y-140067236D02*
X88262914Y-140114855D01*
X88262914Y-140114855D02*
X88167676Y-140162474D01*
X88167676Y-140162474D02*
X88072438Y-140257712D01*
X88072438Y-140257712D02*
X88024819Y-140400569D01*
X88024819Y-140400569D02*
X88024819Y-140495807D01*
X88024819Y-140495807D02*
X88072438Y-140638664D01*
X88072438Y-140638664D02*
X88120057Y-140686283D01*
X89024819Y-141638664D02*
X89024819Y-141067236D01*
X89024819Y-141352950D02*
X88024819Y-141352950D01*
X88024819Y-141352950D02*
X88167676Y-141257712D01*
X88167676Y-141257712D02*
X88262914Y-141162474D01*
X88262914Y-141162474D02*
X88310533Y-141067236D01*
X89024819Y-142114855D02*
X89024819Y-142305331D01*
X89024819Y-142305331D02*
X88977200Y-142400569D01*
X88977200Y-142400569D02*
X88929580Y-142448188D01*
X88929580Y-142448188D02*
X88786723Y-142543426D01*
X88786723Y-142543426D02*
X88596247Y-142591045D01*
X88596247Y-142591045D02*
X88215295Y-142591045D01*
X88215295Y-142591045D02*
X88120057Y-142543426D01*
X88120057Y-142543426D02*
X88072438Y-142495807D01*
X88072438Y-142495807D02*
X88024819Y-142400569D01*
X88024819Y-142400569D02*
X88024819Y-142210093D01*
X88024819Y-142210093D02*
X88072438Y-142114855D01*
X88072438Y-142114855D02*
X88120057Y-142067236D01*
X88120057Y-142067236D02*
X88215295Y-142019617D01*
X88215295Y-142019617D02*
X88453390Y-142019617D01*
X88453390Y-142019617D02*
X88548628Y-142067236D01*
X88548628Y-142067236D02*
X88596247Y-142114855D01*
X88596247Y-142114855D02*
X88643866Y-142210093D01*
X88643866Y-142210093D02*
X88643866Y-142400569D01*
X88643866Y-142400569D02*
X88596247Y-142495807D01*
X88596247Y-142495807D02*
X88548628Y-142543426D01*
X88548628Y-142543426D02*
X88453390Y-142591045D01*
X85229580Y-143403445D02*
X85277200Y-143355826D01*
X85277200Y-143355826D02*
X85324819Y-143212969D01*
X85324819Y-143212969D02*
X85324819Y-143117731D01*
X85324819Y-143117731D02*
X85277200Y-142974874D01*
X85277200Y-142974874D02*
X85181961Y-142879636D01*
X85181961Y-142879636D02*
X85086723Y-142832017D01*
X85086723Y-142832017D02*
X84896247Y-142784398D01*
X84896247Y-142784398D02*
X84753390Y-142784398D01*
X84753390Y-142784398D02*
X84562914Y-142832017D01*
X84562914Y-142832017D02*
X84467676Y-142879636D01*
X84467676Y-142879636D02*
X84372438Y-142974874D01*
X84372438Y-142974874D02*
X84324819Y-143117731D01*
X84324819Y-143117731D02*
X84324819Y-143212969D01*
X84324819Y-143212969D02*
X84372438Y-143355826D01*
X84372438Y-143355826D02*
X84420057Y-143403445D01*
X85324819Y-144355826D02*
X85324819Y-143784398D01*
X85324819Y-144070112D02*
X84324819Y-144070112D01*
X84324819Y-144070112D02*
X84467676Y-143974874D01*
X84467676Y-143974874D02*
X84562914Y-143879636D01*
X84562914Y-143879636D02*
X84610533Y-143784398D01*
X84658152Y-145212969D02*
X85324819Y-145212969D01*
X84277200Y-144974874D02*
X84991485Y-144736779D01*
X84991485Y-144736779D02*
X84991485Y-145355826D01*
X129452982Y-121359580D02*
X129500601Y-121407200D01*
X129500601Y-121407200D02*
X129643458Y-121454819D01*
X129643458Y-121454819D02*
X129738696Y-121454819D01*
X129738696Y-121454819D02*
X129881553Y-121407200D01*
X129881553Y-121407200D02*
X129976791Y-121311961D01*
X129976791Y-121311961D02*
X130024410Y-121216723D01*
X130024410Y-121216723D02*
X130072029Y-121026247D01*
X130072029Y-121026247D02*
X130072029Y-120883390D01*
X130072029Y-120883390D02*
X130024410Y-120692914D01*
X130024410Y-120692914D02*
X129976791Y-120597676D01*
X129976791Y-120597676D02*
X129881553Y-120502438D01*
X129881553Y-120502438D02*
X129738696Y-120454819D01*
X129738696Y-120454819D02*
X129643458Y-120454819D01*
X129643458Y-120454819D02*
X129500601Y-120502438D01*
X129500601Y-120502438D02*
X129452982Y-120550057D01*
X128595839Y-120454819D02*
X128786315Y-120454819D01*
X128786315Y-120454819D02*
X128881553Y-120502438D01*
X128881553Y-120502438D02*
X128929172Y-120550057D01*
X128929172Y-120550057D02*
X129024410Y-120692914D01*
X129024410Y-120692914D02*
X129072029Y-120883390D01*
X129072029Y-120883390D02*
X129072029Y-121264342D01*
X129072029Y-121264342D02*
X129024410Y-121359580D01*
X129024410Y-121359580D02*
X128976791Y-121407200D01*
X128976791Y-121407200D02*
X128881553Y-121454819D01*
X128881553Y-121454819D02*
X128691077Y-121454819D01*
X128691077Y-121454819D02*
X128595839Y-121407200D01*
X128595839Y-121407200D02*
X128548220Y-121359580D01*
X128548220Y-121359580D02*
X128500601Y-121264342D01*
X128500601Y-121264342D02*
X128500601Y-121026247D01*
X128500601Y-121026247D02*
X128548220Y-120931009D01*
X128548220Y-120931009D02*
X128595839Y-120883390D01*
X128595839Y-120883390D02*
X128691077Y-120835771D01*
X128691077Y-120835771D02*
X128881553Y-120835771D01*
X128881553Y-120835771D02*
X128976791Y-120883390D01*
X128976791Y-120883390D02*
X129024410Y-120931009D01*
X129024410Y-120931009D02*
X129072029Y-121026247D01*
X122794580Y-129682017D02*
X122842200Y-129634398D01*
X122842200Y-129634398D02*
X122889819Y-129491541D01*
X122889819Y-129491541D02*
X122889819Y-129396303D01*
X122889819Y-129396303D02*
X122842200Y-129253446D01*
X122842200Y-129253446D02*
X122746961Y-129158208D01*
X122746961Y-129158208D02*
X122651723Y-129110589D01*
X122651723Y-129110589D02*
X122461247Y-129062970D01*
X122461247Y-129062970D02*
X122318390Y-129062970D01*
X122318390Y-129062970D02*
X122127914Y-129110589D01*
X122127914Y-129110589D02*
X122032676Y-129158208D01*
X122032676Y-129158208D02*
X121937438Y-129253446D01*
X121937438Y-129253446D02*
X121889819Y-129396303D01*
X121889819Y-129396303D02*
X121889819Y-129491541D01*
X121889819Y-129491541D02*
X121937438Y-129634398D01*
X121937438Y-129634398D02*
X121985057Y-129682017D01*
X122318390Y-130253446D02*
X122270771Y-130158208D01*
X122270771Y-130158208D02*
X122223152Y-130110589D01*
X122223152Y-130110589D02*
X122127914Y-130062970D01*
X122127914Y-130062970D02*
X122080295Y-130062970D01*
X122080295Y-130062970D02*
X121985057Y-130110589D01*
X121985057Y-130110589D02*
X121937438Y-130158208D01*
X121937438Y-130158208D02*
X121889819Y-130253446D01*
X121889819Y-130253446D02*
X121889819Y-130443922D01*
X121889819Y-130443922D02*
X121937438Y-130539160D01*
X121937438Y-130539160D02*
X121985057Y-130586779D01*
X121985057Y-130586779D02*
X122080295Y-130634398D01*
X122080295Y-130634398D02*
X122127914Y-130634398D01*
X122127914Y-130634398D02*
X122223152Y-130586779D01*
X122223152Y-130586779D02*
X122270771Y-130539160D01*
X122270771Y-130539160D02*
X122318390Y-130443922D01*
X122318390Y-130443922D02*
X122318390Y-130253446D01*
X122318390Y-130253446D02*
X122366009Y-130158208D01*
X122366009Y-130158208D02*
X122413628Y-130110589D01*
X122413628Y-130110589D02*
X122508866Y-130062970D01*
X122508866Y-130062970D02*
X122699342Y-130062970D01*
X122699342Y-130062970D02*
X122794580Y-130110589D01*
X122794580Y-130110589D02*
X122842200Y-130158208D01*
X122842200Y-130158208D02*
X122889819Y-130253446D01*
X122889819Y-130253446D02*
X122889819Y-130443922D01*
X122889819Y-130443922D02*
X122842200Y-130539160D01*
X122842200Y-130539160D02*
X122794580Y-130586779D01*
X122794580Y-130586779D02*
X122699342Y-130634398D01*
X122699342Y-130634398D02*
X122508866Y-130634398D01*
X122508866Y-130634398D02*
X122413628Y-130586779D01*
X122413628Y-130586779D02*
X122366009Y-130539160D01*
X122366009Y-130539160D02*
X122318390Y-130443922D01*
X105981673Y-124139580D02*
X106029292Y-124187200D01*
X106029292Y-124187200D02*
X106172149Y-124234819D01*
X106172149Y-124234819D02*
X106267387Y-124234819D01*
X106267387Y-124234819D02*
X106410244Y-124187200D01*
X106410244Y-124187200D02*
X106505482Y-124091961D01*
X106505482Y-124091961D02*
X106553101Y-123996723D01*
X106553101Y-123996723D02*
X106600720Y-123806247D01*
X106600720Y-123806247D02*
X106600720Y-123663390D01*
X106600720Y-123663390D02*
X106553101Y-123472914D01*
X106553101Y-123472914D02*
X106505482Y-123377676D01*
X106505482Y-123377676D02*
X106410244Y-123282438D01*
X106410244Y-123282438D02*
X106267387Y-123234819D01*
X106267387Y-123234819D02*
X106172149Y-123234819D01*
X106172149Y-123234819D02*
X106029292Y-123282438D01*
X106029292Y-123282438D02*
X105981673Y-123330057D01*
X105600720Y-123330057D02*
X105553101Y-123282438D01*
X105553101Y-123282438D02*
X105457863Y-123234819D01*
X105457863Y-123234819D02*
X105219768Y-123234819D01*
X105219768Y-123234819D02*
X105124530Y-123282438D01*
X105124530Y-123282438D02*
X105076911Y-123330057D01*
X105076911Y-123330057D02*
X105029292Y-123425295D01*
X105029292Y-123425295D02*
X105029292Y-123520533D01*
X105029292Y-123520533D02*
X105076911Y-123663390D01*
X105076911Y-123663390D02*
X105648339Y-124234819D01*
X105648339Y-124234819D02*
X105029292Y-124234819D01*
X104695958Y-123234819D02*
X104076911Y-123234819D01*
X104076911Y-123234819D02*
X104410244Y-123615771D01*
X104410244Y-123615771D02*
X104267387Y-123615771D01*
X104267387Y-123615771D02*
X104172149Y-123663390D01*
X104172149Y-123663390D02*
X104124530Y-123711009D01*
X104124530Y-123711009D02*
X104076911Y-123806247D01*
X104076911Y-123806247D02*
X104076911Y-124044342D01*
X104076911Y-124044342D02*
X104124530Y-124139580D01*
X104124530Y-124139580D02*
X104172149Y-124187200D01*
X104172149Y-124187200D02*
X104267387Y-124234819D01*
X104267387Y-124234819D02*
X104553101Y-124234819D01*
X104553101Y-124234819D02*
X104648339Y-124187200D01*
X104648339Y-124187200D02*
X104695958Y-124139580D01*
X128047982Y-127334580D02*
X128095601Y-127382200D01*
X128095601Y-127382200D02*
X128238458Y-127429819D01*
X128238458Y-127429819D02*
X128333696Y-127429819D01*
X128333696Y-127429819D02*
X128476553Y-127382200D01*
X128476553Y-127382200D02*
X128571791Y-127286961D01*
X128571791Y-127286961D02*
X128619410Y-127191723D01*
X128619410Y-127191723D02*
X128667029Y-127001247D01*
X128667029Y-127001247D02*
X128667029Y-126858390D01*
X128667029Y-126858390D02*
X128619410Y-126667914D01*
X128619410Y-126667914D02*
X128571791Y-126572676D01*
X128571791Y-126572676D02*
X128476553Y-126477438D01*
X128476553Y-126477438D02*
X128333696Y-126429819D01*
X128333696Y-126429819D02*
X128238458Y-126429819D01*
X128238458Y-126429819D02*
X128095601Y-126477438D01*
X128095601Y-126477438D02*
X128047982Y-126525057D01*
X127190839Y-126763152D02*
X127190839Y-127429819D01*
X127428934Y-126382200D02*
X127667029Y-127096485D01*
X127667029Y-127096485D02*
X127047982Y-127096485D01*
X130810482Y-123584580D02*
X130858101Y-123632200D01*
X130858101Y-123632200D02*
X131000958Y-123679819D01*
X131000958Y-123679819D02*
X131096196Y-123679819D01*
X131096196Y-123679819D02*
X131239053Y-123632200D01*
X131239053Y-123632200D02*
X131334291Y-123536961D01*
X131334291Y-123536961D02*
X131381910Y-123441723D01*
X131381910Y-123441723D02*
X131429529Y-123251247D01*
X131429529Y-123251247D02*
X131429529Y-123108390D01*
X131429529Y-123108390D02*
X131381910Y-122917914D01*
X131381910Y-122917914D02*
X131334291Y-122822676D01*
X131334291Y-122822676D02*
X131239053Y-122727438D01*
X131239053Y-122727438D02*
X131096196Y-122679819D01*
X131096196Y-122679819D02*
X131000958Y-122679819D01*
X131000958Y-122679819D02*
X130858101Y-122727438D01*
X130858101Y-122727438D02*
X130810482Y-122775057D01*
X129905720Y-122679819D02*
X130381910Y-122679819D01*
X130381910Y-122679819D02*
X130429529Y-123156009D01*
X130429529Y-123156009D02*
X130381910Y-123108390D01*
X130381910Y-123108390D02*
X130286672Y-123060771D01*
X130286672Y-123060771D02*
X130048577Y-123060771D01*
X130048577Y-123060771D02*
X129953339Y-123108390D01*
X129953339Y-123108390D02*
X129905720Y-123156009D01*
X129905720Y-123156009D02*
X129858101Y-123251247D01*
X129858101Y-123251247D02*
X129858101Y-123489342D01*
X129858101Y-123489342D02*
X129905720Y-123584580D01*
X129905720Y-123584580D02*
X129953339Y-123632200D01*
X129953339Y-123632200D02*
X130048577Y-123679819D01*
X130048577Y-123679819D02*
X130286672Y-123679819D01*
X130286672Y-123679819D02*
X130381910Y-123632200D01*
X130381910Y-123632200D02*
X130429529Y-123584580D01*
D11*
X92055838Y-143774838D02*
X92563838Y-143774838D01*
D12*
X118386252Y-116045000D02*
X117863748Y-116045000D01*
X118386252Y-114575000D02*
X117863748Y-114575000D01*
D11*
X94155000Y-152146000D02*
X94155000Y-152654000D01*
D12*
X132023748Y-114835000D02*
X132546252Y-114835000D01*
X132023748Y-116305000D02*
X132546252Y-116305000D01*
X108026248Y-117515000D02*
X108548752Y-117515000D01*
X108026248Y-118985000D02*
X108548752Y-118985000D01*
D11*
X88755000Y-152346000D02*
X88755000Y-152854000D01*
X89009000Y-143782838D02*
X88501000Y-143782838D01*
D13*
X86909838Y-144124838D02*
X86109838Y-144124838D01*
D12*
X129123748Y-118585000D02*
X129646252Y-118585000D01*
X129123748Y-120055000D02*
X129646252Y-120055000D01*
X121570000Y-129588748D02*
X121570000Y-130111252D01*
X120100000Y-129588748D02*
X120100000Y-130111252D01*
X105176248Y-121365000D02*
X105698752Y-121365000D01*
X105176248Y-122835000D02*
X105698752Y-122835000D01*
X127718748Y-127940000D02*
X128241252Y-127940000D01*
X127718748Y-129410000D02*
X128241252Y-129410000D01*
X130468748Y-124140000D02*
X130991252Y-124140000D01*
X130468748Y-125610000D02*
X130991252Y-125610000D01*
%LPC*%
D14*
X143735000Y-158960000D03*
D15*
X143735000Y-156960000D03*
X143735000Y-154960000D03*
X143735000Y-152960000D03*
X143735000Y-150960000D03*
X143735000Y-148960000D03*
X143735000Y-146960000D03*
X143735000Y-144960000D03*
X143735000Y-142960000D03*
X143735000Y-140960000D03*
X143735000Y-138960000D03*
X143735000Y-136960000D03*
D16*
X147045000Y-116510000D03*
X143845000Y-124110000D03*
X147045000Y-124110000D03*
D17*
X92309838Y-143266838D03*
X92309838Y-144282838D03*
D18*
X119162500Y-115310000D03*
X117087500Y-115310000D03*
D19*
X94663000Y-152400000D03*
X93647000Y-152400000D03*
D20*
X131247500Y-115570000D03*
X133322500Y-115570000D03*
X107250000Y-118250000D03*
X109325000Y-118250000D03*
D19*
X89263000Y-152600000D03*
X88247000Y-152600000D03*
D21*
X88755000Y-144290838D03*
X88755000Y-143274838D03*
D22*
X86509838Y-144974838D03*
X86509838Y-143274838D03*
D20*
X128347500Y-119320000D03*
X130422500Y-119320000D03*
D23*
X120835000Y-128812500D03*
X120835000Y-130887500D03*
D20*
X104400000Y-122100000D03*
X106475000Y-122100000D03*
X126942500Y-128675000D03*
X129017500Y-128675000D03*
X129692500Y-124875000D03*
X131767500Y-124875000D03*
%LPD*%
M02*
