%TF.GenerationSoftware,KiCad,Pcbnew,7.0.3*%
%TF.CreationDate,2023-06-15T19:17:24+02:00*%
%TF.ProjectId,osc_v2,6f73635f-7632-42e6-9b69-6361645f7063,rev?*%
%TF.SameCoordinates,PX4300198PY9aaf9c0*%
%TF.FileFunction,Paste,Top*%
%TF.FilePolarity,Positive*%
%FSLAX46Y46*%
G04 Gerber Fmt 4.6, Leading zero omitted, Abs format (unit mm)*
G04 Created by KiCad (PCBNEW 7.0.3) date 2023-06-15 19:17:24*
%MOMM*%
%LPD*%
G01*
G04 APERTURE LIST*
G04 Aperture macros list*
%AMRoundRect*
0 Rectangle with rounded corners*
0 $1 Rounding radius*
0 $2 $3 $4 $5 $6 $7 $8 $9 X,Y pos of 4 corners*
0 Add a 4 corners polygon primitive as box body*
4,1,4,$2,$3,$4,$5,$6,$7,$8,$9,$2,$3,0*
0 Add four circle primitives for the rounded corners*
1,1,$1+$1,$2,$3*
1,1,$1+$1,$4,$5*
1,1,$1+$1,$6,$7*
1,1,$1+$1,$8,$9*
0 Add four rect primitives between the rounded corners*
20,1,$1+$1,$2,$3,$4,$5,0*
20,1,$1+$1,$4,$5,$6,$7,0*
20,1,$1+$1,$6,$7,$8,$9,0*
20,1,$1+$1,$8,$9,$2,$3,0*%
G04 Aperture macros list end*
%ADD10RoundRect,0.250000X0.350000X0.450000X-0.350000X0.450000X-0.350000X-0.450000X0.350000X-0.450000X0*%
%ADD11RoundRect,0.250000X0.475000X-0.337500X0.475000X0.337500X-0.475000X0.337500X-0.475000X-0.337500X0*%
%ADD12RoundRect,0.250000X0.450000X-0.350000X0.450000X0.350000X-0.450000X0.350000X-0.450000X-0.350000X0*%
%ADD13RoundRect,0.150000X0.825000X0.150000X-0.825000X0.150000X-0.825000X-0.150000X0.825000X-0.150000X0*%
%ADD14RoundRect,0.250000X-0.350000X-0.450000X0.350000X-0.450000X0.350000X0.450000X-0.350000X0.450000X0*%
%ADD15RoundRect,0.150000X-0.587500X-0.150000X0.587500X-0.150000X0.587500X0.150000X-0.587500X0.150000X0*%
%ADD16RoundRect,0.250000X0.400000X0.600000X-0.400000X0.600000X-0.400000X-0.600000X0.400000X-0.600000X0*%
%ADD17R,0.600000X0.400000*%
%ADD18R,0.900000X0.800000*%
%ADD19R,0.600000X0.600000*%
%ADD20RoundRect,0.075000X-0.650000X-0.075000X0.650000X-0.075000X0.650000X0.075000X-0.650000X0.075000X0*%
%ADD21RoundRect,0.250000X-0.450000X0.350000X-0.450000X-0.350000X0.450000X-0.350000X0.450000X0.350000X0*%
%ADD22R,1.100000X0.300000*%
%ADD23R,3.100000X2.300000*%
%ADD24RoundRect,0.250000X-0.337500X-0.475000X0.337500X-0.475000X0.337500X0.475000X-0.337500X0.475000X0*%
%ADD25R,0.900000X0.750000*%
%ADD26R,0.550000X1.200000*%
%ADD27R,1.240000X1.500000*%
%ADD28R,0.875000X0.200000*%
%ADD29R,0.200000X0.875000*%
%ADD30RoundRect,0.250000X0.600000X-0.400000X0.600000X0.400000X-0.600000X0.400000X-0.600000X-0.400000X0*%
%ADD31R,1.800000X1.350000*%
%ADD32R,1.500000X1.240000*%
%ADD33R,0.900000X0.900000*%
%ADD34RoundRect,0.250000X-0.600000X0.400000X-0.600000X-0.400000X0.600000X-0.400000X0.600000X0.400000X0*%
%ADD35R,1.000000X1.075000*%
G04 APERTURE END LIST*
%TO.C,U7*%
G36*
X17504838Y22775162D02*
G01*
X16904838Y22775162D01*
X16904838Y23775162D01*
X17504838Y23775162D01*
X17504838Y22775162D01*
G37*
G36*
X17504838Y21175162D02*
G01*
X16904838Y21175162D01*
X16904838Y22175162D01*
X17504838Y22175162D01*
X17504838Y21175162D01*
G37*
G36*
X18504838Y22775162D02*
G01*
X17904838Y22775162D01*
X17904838Y23775162D01*
X18504838Y23775162D01*
X18504838Y22775162D01*
G37*
G36*
X18504838Y21175162D02*
G01*
X17904838Y21175162D01*
X17904838Y22175162D01*
X18504838Y22175162D01*
X18504838Y21175162D01*
G37*
%TO.C,IC1*%
G36*
X19404838Y14775162D02*
G01*
X18404838Y14775162D01*
X18404838Y15775162D01*
X19404838Y15775162D01*
X19404838Y14775162D01*
G37*
G36*
X19404838Y13175162D02*
G01*
X18404838Y13175162D01*
X18404838Y14175162D01*
X19404838Y14175162D01*
X19404838Y13175162D01*
G37*
G36*
X21004838Y14775162D02*
G01*
X20004838Y14775162D01*
X20004838Y15775162D01*
X21004838Y15775162D01*
X21004838Y14775162D01*
G37*
G36*
X21004838Y13175162D02*
G01*
X20004838Y13175162D01*
X20004838Y14175162D01*
X21004838Y14175162D01*
X21004838Y13175162D01*
G37*
%TD*%
D10*
%TO.C,R11*%
X25604838Y8375162D03*
X23604838Y8375162D03*
%TD*%
D11*
%TO.C,C28*%
X38330000Y45872500D03*
X38330000Y47947500D03*
%TD*%
D12*
%TO.C,R43*%
X61840000Y29510000D03*
X61840000Y31510000D03*
%TD*%
%TO.C,R13*%
X14730000Y25630000D03*
X14730000Y27630000D03*
%TD*%
D13*
%TO.C,U2*%
X63105000Y42875000D03*
X63105000Y44145000D03*
X63105000Y45415000D03*
X63105000Y46685000D03*
X58155000Y46685000D03*
X58155000Y45415000D03*
X58155000Y44145000D03*
X58155000Y42875000D03*
%TD*%
D14*
%TO.C,R41*%
X64990000Y52460000D03*
X66990000Y52460000D03*
%TD*%
D15*
%TO.C,Q2*%
X65002500Y50640000D03*
X65002500Y48740000D03*
X66877500Y49690000D03*
%TD*%
D16*
%TO.C,D8*%
X63080000Y10870000D03*
X59580000Y10870000D03*
%TD*%
D14*
%TO.C,R18*%
X16704838Y25625162D03*
X18704838Y25625162D03*
%TD*%
D17*
%TO.C,U7*%
X15854838Y23675162D03*
X15854838Y22875162D03*
X15854838Y22075162D03*
X15854838Y21275162D03*
X19554838Y21275162D03*
X19554838Y22075162D03*
X19554838Y22875162D03*
X19554838Y23675162D03*
%TD*%
D18*
%TO.C,D2*%
X16530000Y27600000D03*
X18670000Y27600000D03*
%TD*%
D10*
%TO.C,R40*%
X71020000Y48800000D03*
X69020000Y48800000D03*
%TD*%
D19*
%TO.C,C9*%
X22112838Y3725162D03*
X21096838Y3725162D03*
%TD*%
D15*
%TO.C,Q1*%
X66825000Y30050000D03*
X66825000Y28150000D03*
X68700000Y29100000D03*
%TD*%
D12*
%TO.C,R22*%
X56840000Y50120000D03*
X56840000Y52120000D03*
%TD*%
D10*
%TO.C,R2*%
X74630000Y34210000D03*
X72630000Y34210000D03*
%TD*%
D12*
%TO.C,R23*%
X42340000Y51650000D03*
X42340000Y53650000D03*
%TD*%
D10*
%TO.C,R42*%
X71040000Y50860000D03*
X69040000Y50860000D03*
%TD*%
D13*
%TO.C,U1*%
X61600000Y33620000D03*
X61600000Y34890000D03*
X61600000Y36160000D03*
X61600000Y37430000D03*
X56650000Y37430000D03*
X56650000Y36160000D03*
X56650000Y34890000D03*
X56650000Y33620000D03*
%TD*%
D12*
%TO.C,R7*%
X55640000Y29530000D03*
X55640000Y31530000D03*
%TD*%
D11*
%TO.C,C26*%
X34200000Y49762500D03*
X34200000Y51837500D03*
%TD*%
D20*
%TO.C,U4*%
X48510000Y33160000D03*
X48510000Y32660000D03*
X48510000Y32160000D03*
X48510000Y31660000D03*
X48510000Y31160000D03*
X52910000Y31160000D03*
X52910000Y31660000D03*
X52910000Y32160000D03*
X52910000Y32660000D03*
X52910000Y33160000D03*
%TD*%
D16*
%TO.C,D10*%
X63080000Y20470000D03*
X59580000Y20470000D03*
%TD*%
D10*
%TO.C,R17*%
X70390000Y13250000D03*
X68390000Y13250000D03*
%TD*%
%TO.C,R34*%
X70390000Y25250000D03*
X68390000Y25250000D03*
%TD*%
D21*
%TO.C,R27*%
X31100000Y43360000D03*
X31100000Y41360000D03*
%TD*%
D16*
%TO.C,D6*%
X63080000Y18070000D03*
X59580000Y18070000D03*
%TD*%
D22*
%TO.C,J1*%
X5175000Y31100000D03*
X5175000Y30600000D03*
X5175000Y30100000D03*
X5175000Y29600000D03*
X5175000Y29100000D03*
D23*
X3475000Y32770000D03*
X3475000Y27430000D03*
%TD*%
D10*
%TO.C,R20*%
X72890000Y50857500D03*
X74890000Y50857500D03*
%TD*%
D19*
%TO.C,C10*%
X23104838Y5117162D03*
X23104838Y6133162D03*
%TD*%
D10*
%TO.C,R14*%
X68390000Y15250000D03*
X70390000Y15250000D03*
%TD*%
D12*
%TO.C,R9*%
X50500000Y36250000D03*
X50500000Y38250000D03*
%TD*%
D21*
%TO.C,R8*%
X41912500Y41700000D03*
X41912500Y39700000D03*
%TD*%
D24*
%TO.C,C3*%
X4737500Y38635000D03*
X6812500Y38635000D03*
%TD*%
D12*
%TO.C,R24*%
X58840000Y50120000D03*
X58840000Y52120000D03*
%TD*%
D10*
%TO.C,R12*%
X21754838Y8200000D03*
X19754838Y8200000D03*
%TD*%
D25*
%TO.C,Y1*%
X21529838Y6400162D03*
X19879838Y6400162D03*
X19879838Y5150162D03*
X21529838Y5150162D03*
%TD*%
D21*
%TO.C,R1*%
X64920000Y38160000D03*
X64920000Y36160000D03*
%TD*%
D10*
%TO.C,R31*%
X70390000Y11250000D03*
X68390000Y11250000D03*
%TD*%
D12*
%TO.C,R4*%
X46390000Y35070000D03*
X46390000Y37070000D03*
%TD*%
D26*
%TO.C,U6*%
X12950000Y5899900D03*
X13900000Y5899900D03*
X14850000Y5899900D03*
X14850000Y8500100D03*
X12950000Y8500100D03*
%TD*%
D10*
%TO.C,R37*%
X70780000Y32030000D03*
X68780000Y32030000D03*
%TD*%
D12*
%TO.C,R45*%
X60940000Y50070000D03*
X60940000Y52070000D03*
%TD*%
%TO.C,R6*%
X44190000Y35070000D03*
X44190000Y37070000D03*
%TD*%
D13*
%TO.C,U5*%
X39107500Y40195000D03*
X39107500Y41465000D03*
X39107500Y42735000D03*
X39107500Y44005000D03*
X34157500Y44005000D03*
X34157500Y42735000D03*
X34157500Y41465000D03*
X34157500Y40195000D03*
%TD*%
D27*
%TO.C,C15*%
X12360000Y3910000D03*
X14260000Y3910000D03*
%TD*%
D10*
%TO.C,R39*%
X74880000Y48810000D03*
X72880000Y48810000D03*
%TD*%
D12*
%TO.C,R21*%
X54740000Y50120000D03*
X54740000Y52120000D03*
%TD*%
D16*
%TO.C,D4*%
X63080000Y8470000D03*
X59580000Y8470000D03*
%TD*%
D28*
%TO.C,IC1*%
X16254838Y17075162D03*
X16254838Y16675162D03*
X16254838Y16275162D03*
X16254838Y15875162D03*
X16254838Y15475162D03*
X16254838Y15075162D03*
X16254838Y14675162D03*
X16254838Y14275162D03*
X16254838Y13875162D03*
X16254838Y13475162D03*
X16254838Y13075162D03*
X16254838Y12675162D03*
X16254838Y12275162D03*
X16254838Y11875162D03*
D29*
X17104838Y11025162D03*
X17504838Y11025162D03*
X17904838Y11025162D03*
X18304838Y11025162D03*
X18704838Y11025162D03*
X19104838Y11025162D03*
X19504838Y11025162D03*
X19904838Y11025162D03*
X20304838Y11025162D03*
X20704838Y11025162D03*
X21104838Y11025162D03*
X21504838Y11025162D03*
X21904838Y11025162D03*
X22304838Y11025162D03*
D28*
X23154838Y11875162D03*
X23154838Y12275162D03*
X23154838Y12675162D03*
X23154838Y13075162D03*
X23154838Y13475162D03*
X23154838Y13875162D03*
X23154838Y14275162D03*
X23154838Y14675162D03*
X23154838Y15075162D03*
X23154838Y15475162D03*
X23154838Y15875162D03*
X23154838Y16275162D03*
X23154838Y16675162D03*
X23154838Y17075162D03*
D29*
X22304838Y17925162D03*
X21904838Y17925162D03*
X21504838Y17925162D03*
X21104838Y17925162D03*
X20704838Y17925162D03*
X20304838Y17925162D03*
X19904838Y17925162D03*
X19504838Y17925162D03*
X19104838Y17925162D03*
X18704838Y17925162D03*
X18304838Y17925162D03*
X17904838Y17925162D03*
X17504838Y17925162D03*
X17104838Y17925162D03*
%TD*%
D10*
%TO.C,R15*%
X70390000Y19250000D03*
X68390000Y19250000D03*
%TD*%
%TO.C,R28*%
X29000000Y41360000D03*
X27000000Y41360000D03*
%TD*%
%TO.C,R38*%
X66870000Y34200000D03*
X64870000Y34200000D03*
%TD*%
D16*
%TO.C,D7*%
X63080000Y22870000D03*
X59580000Y22870000D03*
%TD*%
D10*
%TO.C,R33*%
X70390000Y21250000D03*
X68390000Y21250000D03*
%TD*%
%TO.C,R26*%
X53500000Y43810000D03*
X51500000Y43810000D03*
%TD*%
D12*
%TO.C,R46*%
X44340000Y51650000D03*
X44340000Y53650000D03*
%TD*%
D21*
%TO.C,R30*%
X36232500Y47900000D03*
X36232500Y45900000D03*
%TD*%
D30*
%TO.C,D3*%
X24750000Y41360000D03*
X24750000Y44860000D03*
%TD*%
D16*
%TO.C,D9*%
X63080000Y15670000D03*
X59580000Y15670000D03*
%TD*%
D11*
%TO.C,C1*%
X12425000Y41997500D03*
X12425000Y44072500D03*
%TD*%
D21*
%TO.C,R29*%
X34182500Y47900000D03*
X34182500Y45900000D03*
%TD*%
D16*
%TO.C,D5*%
X63080000Y13270000D03*
X59580000Y13270000D03*
%TD*%
D24*
%TO.C,C2*%
X4687500Y46235000D03*
X6762500Y46235000D03*
%TD*%
D21*
%TO.C,R3*%
X52500000Y38250000D03*
X52500000Y36250000D03*
%TD*%
D31*
%TO.C,J3*%
X67890000Y38165000D03*
X67890000Y45615000D03*
%TD*%
D19*
%TO.C,C17*%
X24396838Y13475162D03*
X25412838Y13475162D03*
%TD*%
D10*
%TO.C,R20*%
X63100000Y41030000D03*
X61100000Y41030000D03*
%TD*%
D32*
%TO.C,C20*%
X10980000Y8410000D03*
X10980000Y6510000D03*
%TD*%
D21*
%TO.C,R25*%
X55460000Y45810000D03*
X55460000Y43810000D03*
%TD*%
D10*
%TO.C,R36*%
X74630000Y32010000D03*
X72630000Y32010000D03*
%TD*%
%TO.C,R35*%
X70780000Y34210000D03*
X68780000Y34210000D03*
%TD*%
D19*
%TO.C,C18*%
X24346838Y17075162D03*
X25362838Y17075162D03*
%TD*%
D20*
%TO.C,U9*%
X46930000Y50630000D03*
X46930000Y50130000D03*
X46930000Y49630000D03*
X46930000Y49130000D03*
X46930000Y48630000D03*
X51330000Y48630000D03*
X51330000Y49130000D03*
X51330000Y49630000D03*
X51330000Y50130000D03*
X51330000Y50630000D03*
%TD*%
D10*
%TO.C,R16*%
X70390000Y23250000D03*
X68390000Y23250000D03*
%TD*%
D13*
%TO.C,U3*%
X9475000Y40595000D03*
X9475000Y41865000D03*
X9475000Y43135000D03*
X9475000Y44405000D03*
X4525000Y44405000D03*
X4525000Y43135000D03*
X4525000Y41865000D03*
X4525000Y40595000D03*
%TD*%
D10*
%TO.C,R10*%
X41900000Y37617500D03*
X39900000Y37617500D03*
%TD*%
%TO.C,R32*%
X70390000Y17250000D03*
X68390000Y17250000D03*
%TD*%
D33*
%TO.C,SW1*%
X18600000Y29200000D03*
X18600000Y33300000D03*
X17000000Y29200000D03*
X17000000Y33300000D03*
%TD*%
D34*
%TO.C,D1*%
X37550000Y37617500D03*
X37550000Y34117500D03*
%TD*%
D16*
%TO.C,D11*%
X63080000Y25270000D03*
X59580000Y25270000D03*
%TD*%
D12*
%TO.C,R44*%
X57730000Y29530000D03*
X57730000Y31530000D03*
%TD*%
%TO.C,R5*%
X59770000Y29520000D03*
X59770000Y31520000D03*
%TD*%
%TO.C,R19*%
X76820000Y48870000D03*
X76820000Y50870000D03*
%TD*%
D35*
%TO.C,C16*%
X9100000Y17150000D03*
X9100000Y18850000D03*
%TD*%
M02*
